<svg width="25" height="11" viewBox="0 0 25 11" fill="none" xmlns="http://www.w3.org/2000/svg">
<path d="M0.658514 0.0130615C0.277099 0.0475443 -0.0349674 0.357881 -0.000293375 0.737191C0.0343807 1.1165 0.346447 1.42685 0.727862 1.39237H24.3062C24.6876 1.39237 24.9997 1.08203 24.9997 0.702717C24.9997 0.323406 24.6876 0.0130615 24.3062 0.0130615C24.3062 0.0130615 24.3062 0.0130615 24.2716 0.0130615H0.693188C0.693188 0.0130615 0.693188 0.0130615 0.658514 0.0130615ZM0.658514 9.32341C0.277099 9.35789 -0.0349674 9.66822 -0.000293375 10.0475C0.0343807 10.4268 0.346447 10.7372 0.727862 10.7027H24.3062C24.6876 10.7027 24.9997 10.3924 24.9997 10.0131C24.9997 9.63375 24.6876 9.32341 24.3062 9.32341C24.3062 9.32341 24.3062 9.32341 24.2716 9.32341H0.693188C0.693188 9.32341 0.693188 9.32341 0.658514 9.32341Z" fill="white" fill-opacity="1"/>
</svg>
