<svg width="20" height="20" viewBox="0 0 20 20" fill="none" xmlns="http://www.w3.org/2000/svg">
<path d="M0.634513 0.862331L0.634068 0.861886C0.54906 0.776679 0.549061 0.672065 0.634068 0.586858C0.718433 0.502297 0.820794 0.502297 0.905158 0.586858L19.4599 19.185C19.5232 19.2484 19.5394 19.3226 19.5084 19.3916C19.4949 19.3975 19.482 19.4033 19.4699 19.409C19.4328 19.4263 19.3878 19.4494 19.3578 19.4647C19.3477 19.4699 19.3393 19.4742 19.3335 19.4771C19.308 19.4899 19.2924 19.4966 19.2842 19.4998C19.1883 19.4972 19.1547 19.4725 19.1423 19.4601C19.1423 19.4601 19.1422 19.46 19.1422 19.46L0.634513 0.862331Z" fill="none" stroke="white" fill-opacity="1" stroke-opacity="1"/>
<path d="M0.587194 19.185L0.587637 19.1845L19.0954 0.586859C19.0954 0.586769 19.0955 0.586679 19.0956 0.586589C19.1799 0.502297 19.2822 0.502387 19.3664 0.586859C19.4514 0.672065 19.4514 0.776679 19.3664 0.861886L0.929032 19.3424C0.902121 19.363 0.87548 19.3839 0.852526 19.402C0.840235 19.4116 0.829001 19.4204 0.819349 19.4279C0.779476 19.459 0.753003 19.4784 0.731634 19.4922C0.72697 19.4952 0.723021 19.4976 0.719746 19.4995C0.630864 19.4956 0.599143 19.472 0.587193 19.46C0.502185 19.3748 0.502185 19.2702 0.587194 19.185Z" fill="none" stroke="white" fill-opacity="1" stroke-opacity="1"/>
</svg>
