<svg width="10" height="11" viewBox="0 0 10 11" fill="none" xmlns="http://www.w3.org/2000/svg">
<path d="M4.99434 0C4.79965 0.00325 4.64277 0.168025 4.64277 0.37115C4.64277 0.3731 4.64277 0.374725 4.64277 0.376675V0.37635V6.90235L2.39715 4.5669C2.33246 4.49962 2.2434 4.45835 2.14496 4.45835C1.94777 4.45835 1.78809 4.62475 1.78809 4.8295C1.78809 4.9322 1.82809 5.02483 1.89277 5.0921L4.74746 8.06097C4.7484 8.06195 4.74996 8.06325 4.75152 8.06455L4.75215 8.0652C4.75559 8.06877 4.75934 8.07235 4.76309 8.07592L4.7634 8.07625C4.76809 8.0808 4.77309 8.08502 4.77809 8.08957L4.77871 8.09022C4.78121 8.09217 4.78465 8.09478 4.78809 8.09737L4.78902 8.09802C4.79371 8.1016 4.79965 8.10615 4.8059 8.11037L4.80746 8.11135C4.81059 8.11362 4.81527 8.11655 4.82027 8.11947L4.82184 8.12045C4.82559 8.12272 4.8309 8.12597 4.83652 8.1289L4.8384 8.12987C4.84121 8.1315 4.84621 8.1341 4.85121 8.13605L4.8534 8.13702C4.85652 8.13865 4.86215 8.14125 4.86777 8.14385L4.86996 8.14482C4.8734 8.14645 4.87965 8.1484 4.8859 8.15067L4.8884 8.15132C4.8909 8.1523 4.8959 8.15425 4.9009 8.15587L4.9034 8.15652C4.90684 8.1575 4.91309 8.15945 4.91934 8.16075L4.92152 8.16107C4.92465 8.16205 4.93059 8.16335 4.93621 8.16432L4.9384 8.16465C4.94184 8.1653 4.94777 8.16628 4.95371 8.16692L4.95559 8.16725C4.95996 8.1679 4.96621 8.16855 4.97246 8.16887H4.9734C4.97902 8.1692 4.98527 8.16952 4.99184 8.16952H4.99215C4.99465 8.16952 4.99777 8.16985 5.00059 8.16985C5.0034 8.16985 5.00652 8.16985 5.00965 8.16952H5.00934C5.02027 8.1692 5.0309 8.16855 5.04121 8.16725L5.03965 8.16757C5.04246 8.16725 5.04309 8.16692 5.04402 8.16692L5.04184 8.16725C5.05121 8.16595 5.05871 8.16465 5.06621 8.16302L5.06402 8.16335C5.07215 8.16173 5.07777 8.16042 5.0834 8.15912L5.0809 8.15977C5.08777 8.15815 5.09246 8.15685 5.09684 8.15555L5.09434 8.1562C5.10402 8.15327 5.11121 8.151 5.11809 8.14872L5.11559 8.14937C5.12246 8.1471 5.12652 8.14515 5.1309 8.14352L5.12871 8.1445C5.13746 8.14092 5.14371 8.13832 5.14965 8.13507L5.14746 8.13605C5.15902 8.13052 5.16777 8.12597 5.17652 8.1211L5.17465 8.12207C5.17621 8.1211 5.17652 8.12077 5.17684 8.12045L5.17559 8.12142C5.18402 8.11655 5.19059 8.112 5.19715 8.10745L5.1959 8.10842C5.20184 8.1042 5.20652 8.10127 5.2109 8.0977L5.20996 8.09835C5.21871 8.09152 5.22621 8.08535 5.2334 8.07885L5.23309 8.07917C5.23371 8.07852 5.23465 8.07755 5.23527 8.0769C5.24121 8.0717 5.24684 8.06682 5.25184 8.06162L8.10621 5.09307C8.17309 5.02547 8.21434 4.93122 8.21434 4.8269C8.21434 4.62182 8.05465 4.45575 7.85746 4.45575C7.85371 4.45575 7.85027 4.45575 7.84652 4.45608H7.84715C7.7509 4.459 7.66434 4.50125 7.60184 4.56787L5.35652 6.90332V0.377325C5.35652 0.3757 5.35652 0.374075 5.35652 0.37245C5.35652 0.167375 5.19684 0.0013 4.99965 0.0013C4.99777 0.0013 4.9959 0.0013 4.99402 0.0013H4.99434V0ZM0.360898 9.65347C0.359336 9.65347 0.357773 9.65347 0.355898 9.65347C0.158711 9.65347 -0.000976562 9.81955 -0.000976562 10.0246C-0.000976562 10.2297 0.159023 10.3958 0.355898 10.3958C0.357773 10.3958 0.359336 10.3958 0.361211 10.3958H9.63809C9.63965 10.3958 9.64121 10.3958 9.64309 10.3958C9.84027 10.3958 9.99996 10.2297 9.99996 10.0246C9.99996 9.81955 9.84027 9.65347 9.64309 9.65347C9.64121 9.65347 9.63965 9.65347 9.63777 9.65347H0.360898Z" fill="white"/>
</svg>
