<svg width="27" height="15" viewBox="0 0 27 15" fill="none" xmlns="http://www.w3.org/2000/svg">
<path d="M4.61307 6.40777V0.873787C5.29146 0.873787 5.96985 0.873787 6.51256 0.873787C6.78392 0.873787 7.05528 0.873787 7.32663 0.873787C9.09045 0.873787 9.76884 2.62136 10.7186 4.80583C10.5829 3.34951 10.5829 1.8932 10.4472 0.582525C10.4472 0.145632 10.3116 0 9.90452 0C6.78392 0 3.52764 0 0.407035 0H0.135678C0.81407 0.291262 1.49246 1.16505 1.49246 2.76699C1.49246 5.97087 1.49246 9.02913 1.49246 12.0874C1.49246 13.1068 1.08543 14.1262 0 14.7087H5.96985C4.88442 14.1262 4.47739 13.2524 4.47739 12.0874V7.28155C4.88442 7.13592 5.15578 7.13592 5.42714 7.13592C6.78392 7.13592 7.59799 8.15534 8.00502 9.61165V4.2233C7.32663 5.82524 6.51256 6.40777 5.42714 6.40777C5.29146 6.5534 4.88442 6.40777 4.61307 6.40777ZM25.3719 11.9417V3.20388C25.3719 1.74757 25.9146 0.728156 26.7286 0.291263H20.8945C21.5729 0.728156 22.3869 1.74757 22.3869 3.20388V6.5534H17.5025V3.20388C17.5025 1.60194 17.7739 0.728156 18.8593 0.145632H13.0251C14.2462 0.873787 14.3819 1.60194 14.3819 3.20388C14.3819 5.97087 14.3819 8.88349 14.3819 11.6505C14.3819 12.8155 14.1106 14.1262 12.8894 14.8544H18.8593C17.6382 14.1262 17.3668 12.9612 17.3668 11.6505V7.28155H22.3869V11.9417C22.3869 13.2524 22.3869 14.1262 21.0302 15H27C25.6432 14.1262 25.3719 13.5437 25.3719 11.9417Z" fill="white"/>
</svg>
