<svg width="89" height="93" viewBox="0 0 89 93" fill="none" xmlns="http://www.w3.org/2000/svg">
<g clip-path="url(#clip0)">
<path d="M39.9169 0.689619C41.9867 0.689619 43.8265 2.62712 44.2865 4.40042H44.7135L44.1879 0.229873H29.5681V0.525424C30.7837 0.525424 31.3093 1.57627 31.3093 3.77648V8.40678L25.8885 0.229873H21.289V0.525424C22.3403 0.65678 23.4902 1.31356 23.4902 4.49894V9.29343C23.4902 11.7564 22.6689 12.446 21.8147 12.446C20.5663 12.446 20.1392 11.3951 19.1207 8.37394L16.361 0.131356H15.6382L12.0572 9.88453C11.7944 10.607 11.5644 11.1324 11.3344 11.5265C10.7759 12.3803 10.3488 12.4788 9.82318 12.5773V12.9386H13.8642V12.5773C13.2728 12.5773 12.4186 12.1504 12.4186 11.2309C12.4186 10.8369 12.5172 10.3114 13.1414 8.63665H16.361C16.9524 10.3771 17.0838 10.9354 17.0838 11.3951C17.0838 12.1833 16.2296 12.5773 15.6382 12.5773V12.9386H25.9214V12.5773C24.8701 12.5773 24.1144 12.0191 24.1144 9.35911V2.82415H24.1473L31.0794 13.0371H31.9336V5.58263C31.9336 1.64195 34.759 0.689619 36.7302 0.689619H36.993V9.19492C36.993 11.3623 36.6316 12.2818 35.8103 12.4788C35.5803 12.5773 35.3832 12.5773 35.2189 12.5773V12.9386H41.4282V12.5773C41.2968 12.5773 41.034 12.5773 40.8697 12.4788C39.9498 12.2489 39.687 11.2638 39.687 9.19492V0.689619H39.9169ZM13.3714 8.11123L14.8498 4.00636L16.1968 8.11123H13.3714ZM6.47213 0.788136C8.80473 0.788136 9.72462 3.08686 10.1846 4.59746H10.5788L10.1846 0.262712H0V0.623941C1.08416 0.623941 1.74123 1.31356 1.74123 3.57945V8.96504C1.74123 11.3951 1.44555 12.6102 0 12.6102V12.9714H6.11074V12.6102C4.89516 12.6102 4.33666 11.6907 4.33666 8.96504V6.37076H4.86231C6.80066 6.37076 7.45773 7.75 7.58915 8.89936H7.98339V3.25106H7.58915C7.45773 4.33475 6.93208 5.77966 4.86231 5.77966H4.33666V3.64513C4.33666 1.47775 5.25655 0.788136 6.47213 0.788136ZM81.2137 26.8294V26.5339C76.0229 25.1875 77.1728 18.2256 83.9734 17.7659C89.4928 17.4047 89.8213 22.9216 84.4991 24.8591V25.2203L88.5729 25.0561C88.5729 25.0561 89 23.8411 89 21.4439C89 18.0943 86.9302 15.2373 82.7578 15.2373C78.7826 15.2373 75.4315 18.0614 75.4315 21.4767C75.4315 24.268 77.0413 26.6981 81.2137 26.8294ZM82.2979 58.6833C86.4046 58.6833 89.0657 56.0561 88.9671 52.3125C88.9671 48.7987 86.5031 46.3358 82.6264 46.3358C78.454 46.3358 75.8586 48.9629 75.8586 52.608C75.8586 56.1875 78.3883 58.6833 82.2979 58.6833ZM76.5157 53.3962C76.5157 51.2617 79.9325 48.9301 84.3348 48.9301C86.9302 48.9301 88.3101 50.0138 88.3101 51.5244C88.3101 53.6917 85.0576 56.089 80.5567 56.089C77.9612 56.0561 76.5157 54.9396 76.5157 53.3962ZM79.801 81.375C82.3307 81.375 83.1849 79.6017 84.1048 77.5985C84.7619 76.2521 85.4518 74.9714 86.9631 74.9714C87.8173 74.9714 88.4743 75.4968 88.4743 76.5805C88.4743 78.1568 86.8317 79.7002 84.8605 80.0614V80.4227L88.7043 80.1928C88.7043 80.1928 89 77.9269 89 76.7775C89 74.3475 87.5216 72.7383 85.5175 72.7383C82.9878 72.7383 82.0022 74.643 81.2137 76.4163C80.261 78.5837 79.144 79.1091 78.0927 79.1091C77.1728 79.1091 76.4171 78.4523 76.4171 77.2373C76.4171 74.9386 78.3555 73.8549 80.5895 73.1981V72.804L76.2529 72.9025C76.2529 72.9025 75.8586 75.5953 75.8586 76.9417C75.9243 79.2405 77.2713 81.375 79.801 81.375ZM84.8933 84.3633H80.0967C77.567 84.3633 76.5485 83.9693 76.5485 82.6886H76.1872V93H80.5567V92.6059C79.0454 92.2447 76.7457 91.358 76.7457 89.125C76.7457 87.1875 78.3883 86.9905 79.6039 86.9905H82.2979V87.6472C82.2979 89.7161 80.9509 90.2087 79.7682 90.4714V90.7669H85.3204V90.4714C84.2691 90.1758 83.0535 89.7489 83.0535 87.6472V86.9905H85.4847C86.536 86.9905 88.2115 86.8919 88.2115 89.125C88.2115 91.2595 86.3389 92.2447 84.5319 92.6059V93H88.77V82.6886H88.4086C88.4415 84.0021 87.3245 84.3633 84.8933 84.3633ZM80.031 63.7733H84.8933C87.5873 63.7733 88.3101 64.0689 88.5072 65.5138H88.8029V59.5042H88.5072C88.2444 60.8835 87.5544 61.1133 84.8933 61.1133H80.8523C78.2898 61.1133 75.9243 61.803 75.9243 65.8422C75.9243 69.1261 78.1255 70.0456 80.3924 70.0456H85.2876C88.1787 70.0456 88.2444 70.7023 88.5072 71.8517H88.8029V67.2871H88.5072C88.3758 68.3708 88.2115 69.0932 85.2876 69.0932H80.8195C78.3883 69.0932 76.5157 68.535 76.5157 66.5318C76.5157 64.6928 78.0927 63.7733 80.031 63.7733ZM84.959 36.6483C86.6346 36.6483 88.2115 36.5498 88.4743 38.2246H88.77V32.3464H88.4743C88.3429 33.5943 87.7516 33.9883 85.4847 33.9883H79.4725C77.2056 33.9883 76.6142 33.5943 76.4828 32.3464H76.1872V38.2246H76.4828C76.7457 36.5826 78.2898 36.6483 80.031 36.6483H82.1665V41.2129H80.031C78.2898 41.2129 76.7457 41.2458 76.4828 39.6038H76.1872V45.5477H76.4828C76.6142 44.2341 77.2056 43.9057 79.4725 43.9057H85.4847C87.7516 43.9057 88.3429 44.2669 88.4743 45.5477H88.77V39.6038H88.4743C88.2115 41.2458 86.6674 41.2129 84.959 41.2129H83.0207V36.6483H84.959V36.6483ZM59.859 4.99153C58.4134 4.26907 57.165 3.67797 57.165 2.16737C57.165 1.05085 57.8878 0.492585 58.9062 0.492585C60.6803 0.492585 61.863 2.23305 62.323 4.17055H62.6844L62.4544 0.262712C62.4544 0.262712 60.1875 0 59.0377 0C56.5079 0 54.9638 1.47775 54.9638 3.51377C54.9638 5.91102 56.8693 6.89619 58.6434 7.81568C60.5818 8.80085 61.206 9.88453 61.206 10.804C61.206 11.822 60.6146 12.6758 58.742 12.6758C56.8365 12.6758 54.8324 12.0191 53.7154 9.26059L50.0358 0.164195H49.313L46.0277 9.91737C45.7649 10.6398 45.502 11.1653 45.3049 11.5593C44.7464 12.3803 44.3193 12.5117 43.7937 12.6102V12.9714H47.8346V12.6102C47.2433 12.6102 46.3891 12.2161 46.3891 11.3623C46.3891 11.0011 46.6848 10.1144 47.1776 8.66949H50.8243C51.5142 10.41 51.7442 10.9682 51.7442 11.428C51.7442 12.2161 50.89 12.6102 50.2658 12.6102V12.9714C56.7379 12.9714 57.9535 13.1356 59.1034 13.1356C61.6988 13.1356 63.6043 11.9206 63.6043 9.49047C63.5714 7.1589 61.8302 5.87818 59.859 4.99153ZM47.309 8.11123C47.7032 6.89619 48.2289 5.41843 48.8202 3.64513C49.6087 5.58263 50.1672 7.02754 50.5615 8.11123H47.309ZM76.1214 15.5L80.2938 11.8549C81.378 10.9354 82.1993 10.9025 82.8236 10.9025C83.4478 10.9025 83.7434 11.1324 84.0391 11.4936L84.302 11.2309C83.612 10.2458 82.955 9.32627 82.2322 8.47246C81.5094 7.65148 80.6552 6.79767 79.8339 6.00953L79.5711 6.23941C79.9324 6.53496 80.1296 6.96186 79.9982 7.55297C79.8667 8.14407 79.5054 8.86653 78.4869 9.75318L74.2488 13.4311C73.2303 14.3835 72.2119 14.8104 71.3906 14.8104C70.2735 14.8104 69.5508 13.9894 70.3392 10.9682L72.869 2.65996C74.3474 3.25106 75.6944 6.04237 75.5629 7.91419L75.8586 8.04555L76.9756 3.97352C75.9243 3.31674 71.8176 1.24788 65.8712 0.591102C65.7398 0.95233 65.017 3.21822 64.6556 4.36758L64.9513 4.4661C66.4297 2.39725 68.598 1.51059 70.2078 1.87182L67.7767 10.1144C66.7911 13.5297 65.1484 13.1028 65.017 13.1356V13.5297C66.9553 13.5297 68.7294 13.9566 70.3392 15.0074C71.8176 15.9597 73.1646 17.5689 74.0188 19.4407L74.3145 19.2108C74.1831 18.9809 74.1502 18.7182 74.1502 18.4883C74.1831 17.7659 74.2159 17.1419 76.1214 15.5Z" fill="white"/>
</g>
<defs>
<clipPath id="clip0">
<rect width="89" height="93" fill="white"/>
</clipPath>
</defs>
</svg>
