<?xml version="1.0" encoding="utf-8"?>
<!-- Generator: Adobe Illustrator 22.0.0, SVG Export Plug-In . SVG Version: 6.00 Build 0)  -->
<svg version="1.1" xmlns="http://www.w3.org/2000/svg" xmlns:xlink="http://www.w3.org/1999/xlink" x="0px" y="0px"
	 viewBox="0 0 1226.1 1192.8" style="enable-background:new 0 0 1226.1 1192.8;" xml:space="preserve">
<style type="text/css">
	.st0{opacity:0.4;}
	.st1{opacity:0.1;fill:#0068E2;}
</style>
<g id="_x33_.7">
	<g class="st0">
		<polygon class="st1" points="988,924.6 988,861.9 981,861.9 981,908.8 981.5,908.8 981.5,924.6 		"/>
		<polygon class="st1" points="1121.4,714.8 1121.4,831.4 1117.7,831.4 1117.7,829.3 1110,829.3 1110,825.7 1117.7,825.7 
			1117.7,714.8 1031.4,714.8 1031.4,825.7 1080.5,825.7 1080.5,808.8 1084.2,808.8 1084.2,825.7 1087.2,825.7 1087.2,829.3 
			1031.4,829.3 1031.4,833 1027.8,833 1027.8,714.8 901.6,714.8 901.6,825.7 976.8,825.7 976.8,808.8 980.5,808.8 980.5,832.5 
			976.8,832.5 976.8,829.4 901.6,829.4 901.6,831.6 900.2,831.6 900.2,886.2 938.9,886.2 938.9,908.8 974.4,908.8 974.4,886.2 
			976.8,886.1 976.8,854.5 980.5,854.5 980.5,858.9 1027.8,858.9 1027.8,855.1 1031.4,855.1 1031.4,889 1027.8,889 1027.8,861.9 
			991,861.9 991,924.6 1027.8,924.6 1027.8,911 1031.4,911 1031.4,928.2 1029.6,928.2 1027.8,928.2 981.5,928.2 981.5,959.6 
			981.5,966 994.7,966 997.1,966 997.7,966 997.7,997.8 1014.7,997.8 1074.3,997.8 1074.3,980.1 1078,980.1 1078,997.8 1078,1000.4 
			1078,1000.8 1040.7,1000.8 1040.7,1018.3 1037,1018.3 1037,1000.8 1014.7,1000.8 997.7,1000.8 997.7,1001.2 997.7,1002.9 
			981.5,1002.9 981.5,1155.4 1208.2,1155.2 1208.2,1113.4 1208.2,1090.2 1208.2,1027.1 1208.2,1004.6 1208.2,997.4 1151.4,997.4 
			1151.4,997.5 1147.7,997.5 1147.7,951.3 1136.6,951.3 1136.6,951.3 1136.6,928.2 1078,928.2 1078,926.4 1078,924.6 1078,860.8 
			1078,857.8 1078,857.1 1087.2,857.1 1087.2,860.8 1081.7,860.8 1081.7,924.6 1136.6,924.6 1136.6,898.1 1147.7,898.1 
			1147.7,860.8 1109.5,860.8 1109.5,857.1 1118.3,857.1 1118.3,853.1 1121.9,853.1 1121.9,857.1 1178.5,857.1 1178.5,860.8 
			1151.4,860.8 1151.4,898.1 1151.4,904.4 1151.4,907.7 1181.4,907.7 1181.4,911.4 1151.4,911.4 1151.4,949.3 1151.4,951.3 
			1151.4,994.4 1208.2,994.4 1208.2,942.1 1208.2,919.6 1208.2,911.4 1201.1,911.4 1201.1,907.8 1208.2,907.8 1208.2,860.8 
			1201.1,860.8 1201.1,857.1 1208.2,857.1 1208.2,834.6 1208.2,770.7 1208.2,748.3 1208.2,714.8 		"/>
		<rect x="1139.6" y="901.6" class="st1" width="8.2" height="46.7"/>
		<rect x="981.5" y="969" class="st1" width="13.2" height="30.9"/>
	</g>
</g>
<g id="_x33_.6">
	<g>
		<rect x="629" y="831.6" class="st1" width="11.7" height="56.3"/>
		<polygon class="st1" points="799.4,1013.2 785.7,1013.2 783.3,1013.2 782.7,1013.2 782.7,977.3 782.7,976.1 782.7,974.3 
			799.4,974.3 799.4,961.1 799.4,933.3 799.3,933.3 799.3,892.4 799.3,889.5 751.9,889.5 751.9,931.3 748.3,931.3 748.3,859.6 
			751.9,859.6 751.9,886.2 799.3,886.2 799.3,859.6 803,859.6 803,886.1 893.8,886.1 893.8,831.6 892.4,831.6 892.4,810.1 
			803,810.1 803,838.1 799.3,838.1 799.3,806.4 800.9,806.4 803,806.4 892.4,806.4 892.4,714.8 760.8,714.8 760.8,827.9 
			760.8,830.4 760.8,831.6 751.9,831.6 751.9,836.7 748.3,836.7 748.3,831.6 715.2,831.6 715.2,836.7 711.5,836.7 711.5,827.9 
			712.6,827.9 715.2,827.9 748.3,827.9 751.9,827.9 757.1,827.9 757.1,714.8 629,714.8 629,828.3 640.7,828.3 644.2,828.3 
			644.2,831.6 644.2,865.8 655.5,865.8 655.5,869.1 644.2,869.1 644.2,891.1 629,891.1 629,933.8 711.5,933.8 711.5,869.1 
			675.7,869.1 675.7,865.8 711.5,865.8 711.5,859.6 715.2,859.6 715.2,949.6 711.5,949.6 711.5,937.5 629,937.5 629,974.1 
			711.5,974.1 711.5,969.1 715.2,969.1 715.2,977.8 712.4,977.8 711.5,977.8 629,977.8 629,1155.2 799.4,1155.4 		"/>
		<rect x="785.7" y="977.3" class="st1" width="13.7" height="32.9"/>
	</g>
</g>
<g id="_x33_.5">
	<g class="st0">
		<rect x="612" y="944.6" class="st1" width="11" height="44.6"/>
		<polygon class="st1" points="540.6,714.6 522.7,714.6 522.7,719.3 519,719.3 519,714.6 511.4,714.6 511.4,714.6 511.4,685.3 
			511.4,650.2 511.4,649.2 466.7,649.2 466.7,789.5 477.7,789.5 481,789.5 481,792.9 481,813.7 519,813.7 519,740.9 522.7,740.9 
			522.7,858.5 529.7,858.5 529.7,862.2 515.6,862.2 515.6,858.5 519,858.5 519,817.4 481,817.4 481,841.4 481,844.7 477.7,844.7 
			466.7,844.7 466.7,858.5 496.2,858.5 496.2,862.2 466.7,862.2 466.7,867.9 466.7,896.4 466.7,922.7 466.7,926.1 466.7,927.1 
			466.7,945.6 462.7,945.6 462.7,927.1 389.8,927.1 389.8,989.2 462.7,989.2 462.7,970.2 466.7,970.2 466.7,989.2 466.7,991.8 
			466.7,992.9 383.9,992.9 383.9,989.2 385.8,989.2 385.8,941.3 339,941.3 339,989.2 358,989.2 358,992.9 339,992.9 339,1159.6 
			383.7,1157.1 383.8,1156.7 430.7,1153.8 430.9,1154.5 468.1,1152.5 468.2,1151.4 506.4,1149.1 506.4,993.2 506.4,991.1 
			506.4,989.2 527.7,989.2 527.7,993.2 510.1,993.2 510.1,1155.4 533.3,1155.4 533.3,1155.9 566.5,1155.9 566.5,1155.4 
			622.9,1155.4 622.9,1042.3 622.9,1038.6 622.9,993.2 587.9,993.2 587.9,989.2 608.6,989.2 608.6,944.6 608.6,941.3 612,941.3 
			622.9,941.3 622.9,889.8 561,889.8 561,989.2 566.2,989.2 566.2,993.2 552.1,993.2 552.1,989.2 557.4,989.2 557.4,862.2 
			551.3,862.2 551.3,858.5 557.4,858.5 557.4,833.6 557.4,832.8 557.4,829.9 580.8,829.9 580.8,833.6 561,833.6 561,858.5 
			561,862.2 561,886.1 622.9,886.1 622.9,833.6 603.7,833.6 603.7,829.9 622.9,829.9 622.9,714.6 621.2,714.6 586.3,714.6 
			577.1,714.6 540.6,714.6 		"/>
		<rect x="339" y="927.1" class="st1" width="46.8" height="11.1"/>
		<rect x="466.7" y="792.9" class="st1" width="11" height="48.5"/>
	</g>
</g>
<g id="_x33_.4">
	<g>
		<rect x="300.4" y="927.1" class="st1" width="29.6" height="11.1"/>
		<rect x="285.1" y="649.2" class="st1" width="11.2" height="208.9"/>
		<path class="st1" d="M117.6,1184l4.9-17.4c0,0,14.6-1.3,30.1-13.8l21.4,5.1l0.6,6.7l0,0l41-1.2l0,0l3.4-0.1v-138h3.7v117.9h6.4
			v19.8l24.3-0.7l0,0l76.4-2.3V995.9h-36v-3.7h36v-50.9h-29.6h-2.1h-1.9v-6.6h-73.6v57.5h49.5v3.7h-49.5v4.7H219v-85.1h3.7V931h73.6
			v-3.9v-1v-3.4v-26.4v-28.4v-6.8h-14.2v0h-16.5v-3h16.5v-53.5h-51.2v53.5h16.7v3h-19.7v-1.5h0v-73.5h3v15.5h51.2v-58h-51.2v19.5h-3
			v-49.5h-4.6v-3h7.6v30h51.2v-91.4h-85.6v61.4h5.1v3h-5.1v7.8h-3v-72.3H27.9v54.9L10.4,707v31.8l17.5,1.4v12h165.6v-7.8h3v22.2h-3
			v-10.7H27.9v13.9l-17.5,1.4v15.4h5l13.7,3v3l-13.7,3h-5v23.7h5l13.7,3v3l-13.7,3h-5v14.2l0.3,0.1l19.1,1.5v8.9v0h163.8v-64.3h3v73
			h-15.4v17.1h-4v-17.1H29.8V886v47.9v31.6l-17.4,1.4v12.2h4.6l13.7,3v3l-13.7,3h-4.6v19.7h4.6l13.7,3v3l-13.7,3h-4.6v12.3l0,0.2
			l16.4,2v-0.1h10.7l5.1,16.4c-12.6,15.5-13.8,33.1-13.8,33.1l-16.8,5.1l2.8,34.3l0.1,0.2l19,0.1l5.3,11.3l-11,13.2l0.1,0.2
			l25.5,25.9l0.1,0.1l14.2-11.8l12.3,6.3l0.1,18.6l0,0h35L117.6,1184z M142.9,1038.2h16.8V917.9h-16.8v-4h38v4h-17.2v120.4h25.2v4
			h-46V1038.2z"/>
	</g>
</g>
<g id="_x33_.3">
	<g class="st0">
		<polygon class="st1" points="383.4,384.8 383.4,405.6 379.6,405.6 379.6,384.8 310.2,384.8 310.2,446 310,446 310,462.8 
			379.6,462.8 379.6,427.4 383.4,427.4 383.4,483.4 379.6,483.4 379.6,466.5 310,466.5 308.2,466.5 306.3,466.5 306.3,456.8 
			293.6,456.8 293.6,508.6 312.9,508.6 312.9,512.3 289.9,512.3 289.9,510.4 289.9,508.6 289.9,456.8 271.5,456.8 270.4,456.8 
			267.8,456.8 267.8,446 263.4,446 236,446 228.7,446 228.7,485.3 225,485.3 225,456.8 176.6,456.8 176.6,508.6 225,508.6 
			225,503.8 228.7,503.8 228.7,512.3 226.8,512.3 225,512.3 172.9,512.3 172.9,509.9 172.9,508.6 172.9,446 39.3,446 39.3,643 
			39.3,643.3 172.8,643.3 172.8,562 172.7,562 172.7,558.3 201.9,558.3 201.9,562 176.4,562 176.4,643.3 224.6,643.3 224.6,562 
			220.8,562 220.8,558.3 341.1,558.3 341.1,544.9 344.8,544.9 344.8,594.4 341.1,594.4 341.1,562 228.3,562 228.3,632.8 
			341.1,632.8 341.1,616.1 344.8,616.1 344.8,643.3 402.5,643.3 402.5,552.1 406.2,552.1 406.2,643.3 511.4,643.3 511.4,641 
			511.4,605.9 511.4,596.7 511.4,585.8 511.4,584.3 511.4,561.9 511.4,552.6 511.4,517.6 344.8,517.6 344.8,521.3 341.1,521.3 
			341.1,512.1 337.5,512.1 337.5,508.4 344.8,508.4 344.8,510.3 344.8,511.9 511.4,511.9 511.4,508.4 511.4,473.6 511.4,464.4 
			511.4,429.5 511.4,420.3 511.4,384.8 		"/>
		<rect x="228.3" y="635.8" class="st1" width="112.3" height="7.5"/>
		<rect x="176.6" y="446" class="st1" width="48.4" height="7.1"/>
		<rect x="271.5" y="446" class="st1" width="34.8" height="7.1"/>
	</g>
</g>
<g id="_x33_.2">
	<g>
		<rect x="311.2" y="362.4" class="st1" width="41.9" height="13"/>
		<polygon class="st1" points="375.3,18.3 375.3,94 375.2,94 371.4,94 362.8,94 362.8,90.3 371.4,90.3 371.4,18.3 299.5,18.3 
			299.5,18.3 275.2,18.3 275.2,90.3 343.5,90.3 343.5,94 340.5,94 340.5,114.1 336.8,114.1 336.8,94 275.2,94 275.2,154.8 
			336.8,154.8 336.8,134.2 340.5,134.2 340.5,154.8 344.9,154.8 344.9,158.5 340.5,158.5 340.5,183.4 336.8,183.4 336.8,158.5 
			275.2,158.5 275.2,222.8 336.8,222.8 336.8,203.2 340.5,203.2 340.5,243.4 336.8,243.4 336.8,226.5 275.2,226.5 275.2,249.6 
			282.7,249.6 286.1,249.6 286.4,249.6 286.4,264.5 311.2,264.5 311.2,285.8 336.8,285.8 336.8,262.9 340.5,262.9 340.5,289 
			336.8,289 336.8,289 311.2,289 311.2,316.5 287.7,316.5 287.7,320.6 287.7,349.5 287.7,354.5 311.2,354.5 311.2,354.5 
			311.2,358.7 354.6,358.7 354.6,358.7 356.8,358.7 356.8,375.5 371.2,375.5 371.2,358.7 374.9,358.7 374.9,375.5 511.4,375.5 
			511.4,340.6 511.4,331.4 511.4,296.5 511.4,287.3 511.4,265.8 511.4,263 511.4,252.1 371.2,252.1 371.2,250.3 371.2,248.4 
			371.2,186 374.9,186 374.9,248.4 511.4,248.4 511.4,242.9 511.4,208.2 511.4,199 511.4,164 511.4,158.5 374.9,158.5 374.9,163.2 
			371.2,163.2 371.2,158.5 368.8,158.5 368.8,154.8 511.4,154.8 511.4,116.1 511.4,106.9 511.4,67.5 511.4,58.3 511.4,18.3 		"/>
		<rect x="275.2" y="253" class="st1" width="7.6" height="11.6"/>
	</g>
</g>
<g id="_x33_.1">
	<g class="st0">
		<polygon class="st1" points="178.1,130.5 178.1,134.2 39.3,134.2 39.3,264.5 154.9,264.5 154.9,196.9 158.6,196.9 158.6,253.1 
			223.2,253.1 224.4,253.1 226.9,253.1 226.9,264.5 235.5,264.5 262.9,264.5 267.1,264.5 267.1,188.9 267.1,187.1 246.2,187.1 
			246.2,183.4 267.1,183.4 267.1,154.3 258.2,154.3 256.2,154.3 254.5,154.3 254.5,147.1 211.7,147.1 211.7,183.4 226.9,183.4 
			226.9,187.1 211.7,187.1 209.9,187.1 208,187.1 208,134.2 202.4,134.2 202.4,130.5 208,130.5 208,122.7 211.7,122.7 211.7,143.4 
			254.5,143.4 254.5,94 211.7,94 211.7,104.1 208,104.1 208,94 202.7,94 202.7,90.3 267.1,90.3 267.1,18.3 200.1,18.3 200.1,18.3 
			178,18.3 178,18.3 172.4,18.3 172.4,90.3 183.5,90.3 183.5,94 168.7,94 168.7,18.3 39.3,18.3 39.3,130.5 		"/>
		<rect x="158.6" y="256.8" class="st1" width="64.6" height="7.7"/>
		<rect x="258.2" y="94" class="st1" width="8.9" height="56.6"/>
	</g>
</g>
</svg>
