<svg viewBox="0 0 466 476" fill="none" xmlns="http://www.w3.org/2000/svg">
<path d="M106.309 62.7659H122.871C118.261 60.2022 116.383 56.2713 116.383 51.4857C116.383 39.6928 116.383 27.7289 116.383 13.7142L158.898 63.6205V61.7404C158.898 46.0165 158.898 30.2926 158.898 14.7396C158.898 9.09953 160.606 4.65582 165.045 2.43396H148.654C153.776 5.33947 155.142 9.61227 155.142 14.9105C155.142 21.9179 155.142 29.0962 155.142 36.1036V38.4964C150.532 33.0272 136.701 16.6197 125.603 3.63035C125.091 3.11761 124.237 2.60487 123.554 2.60487C118.261 2.43396 112.626 2.43396 105.967 2.43396C111.26 5.33947 112.456 9.61227 112.456 14.7396C112.456 27.2162 112.456 42.2565 112.456 51.8275C112.626 56.6131 110.236 60.715 106.309 62.7659ZM20.0826 27.8999V5.68129C22.9853 5.68129 25.888 5.68129 28.6199 5.68129C29.9858 5.68129 31.1811 5.68129 32.547 5.68129C40.2305 5.68129 43.3039 12.8596 47.4018 21.9179C47.0603 15.7651 46.7188 10.125 46.5481 4.48491C46.3774 2.77579 45.8651 2.43396 44.1577 2.43396C30.1566 2.43396 16.3262 2.43396 2.32515 2.43396H0.44696C3.17888 3.80126 6.59378 7.04859 6.59378 13.7142C6.59378 26.5326 6.59378 39.351 6.59378 52.1694C6.59378 56.6131 4.54484 60.715 0.105469 63.1077H26.4002C21.7901 60.5441 19.9119 56.9549 19.9119 52.1694V32.0017C21.4486 31.489 22.6438 31.489 23.839 31.489C29.9858 31.489 33.23 35.5909 35.2789 41.5728V19.6961C32.3763 26.1907 28.4491 28.5835 24.0098 28.5835C23.156 28.5835 21.6193 28.4126 20.0826 27.8999ZM359.524 5.8522V51.8275C359.524 56.2713 357.816 59.8604 354.06 62.2532C353.889 62.4241 353.718 62.595 353.377 62.7659H379.33C374.378 60.0313 373.012 55.9294 373.012 51.1439V5.8522C374.378 5.33947 376.086 5.33947 377.452 5.33947C385.306 5.33947 389.404 12.8596 393.502 23.4561L392.307 2.43396H340.229L339.205 23.2852C344.669 10.6377 348.425 5.33947 355.255 5.33947C357.304 5.33947 359.182 5.68129 359.524 5.8522ZM75.9162 62.7659H103.406C98.7961 59.6895 96.5764 55.0749 94.6982 50.4603C86.5024 31.6599 75.5747 5.51038 73.1843 0.895752C70.7939 6.36494 63.6226 24.4816 57.988 38.8382C54.7439 47.2129 51.1582 56.784 44.1577 62.9368H60.5492C57.8173 61.7404 54.7439 59.5186 55.5976 54.7331C56.2806 51.6566 57.8173 48.2384 58.8417 45.3329L58.3295 46.1874C65.1593 46.1874 71.9891 46.1874 78.9896 46.1874C78.9896 45.8456 77.6237 44.1365 77.2822 44.1365C77.2822 44.1365 77.4529 44.3074 77.4529 44.4783C79.1604 48.2384 80.8678 52.3403 80.8678 55.4167C80.8678 58.4931 79.3311 60.715 75.9162 62.7659ZM59.6955 42.5983C62.4274 35.42 64.9886 28.4126 67.8912 21.0634C70.9646 28.5835 73.6965 35.42 76.5992 42.5983H59.6955ZM409.552 67.7224C417.748 57.1258 426.285 46.5293 434.651 35.9327C437.042 33.1981 439.944 31.6599 443.189 31.6599C444.042 31.6599 444.896 31.8308 445.579 32.0017C438.749 26.5326 432.09 21.2343 425.602 15.936C426.114 17.1324 426.456 18.4997 426.456 19.867C426.456 22.6016 425.431 25.5071 423.211 28.5835C415.357 38.4964 407.332 48.5802 399.478 58.4931C396.746 61.7404 393.843 63.1077 390.087 63.1077C389.404 63.1077 388.55 63.1077 387.697 62.9368C394.697 68.406 401.356 73.8752 408.186 79.3444C407.503 77.6353 407.161 75.9261 407.161 74.217C407.161 71.9952 407.844 69.7733 409.552 67.7224ZM415.016 224.791H451.043C457.19 224.791 461.117 227.354 463.166 230.772V205.136C461.458 208.212 457.19 211.459 451.043 211.459H437.383V189.754L450.872 189.924C457.36 189.924 460.775 191.292 463.166 195.906V170.27C459.922 175.568 457.361 176.422 450.531 176.422C439.091 176.422 427.48 176.422 415.869 176.422C410.918 176.422 405.796 175.055 402.893 170.099V196.248C405.966 190.95 410.406 189.924 416.04 189.924H434.139V211.459H415.357C410.064 211.459 406.649 211.288 403.064 205.307V231.456C406.137 225.645 408.698 224.791 415.016 224.791ZM413.991 114.723C413.991 103.443 424.748 94.0428 442.506 94.0428C452.921 94.0428 461.629 99.1702 461.8 108.229C461.971 117.287 454.458 124.294 446.091 128.396V128.567H463.507C464.873 122.585 465.385 116.432 465.044 109.938C464.19 93.1883 451.897 80.7117 432.602 80.7117C416.382 80.7117 402.21 93.3592 402.21 109.596C402.21 124.294 413.479 132.327 423.724 133.524C419.797 130.618 413.991 125.32 413.991 114.723ZM433.456 240.002C416.552 240.002 401.698 251.966 401.698 269.911C401.698 287.857 416.04 299.137 432.432 299.65C432.602 299.65 432.773 299.65 432.944 299.65C450.018 299.65 464.361 287.344 464.361 269.569C464.361 251.795 450.531 240.002 433.456 240.002ZM404.771 272.304C404.771 259.828 421.504 255.042 436.7 255.042C448.994 255.042 461.458 258.289 461.458 267.006C461.458 278.286 445.067 284.61 428.675 284.61C416.552 284.61 404.771 280.508 404.771 272.304ZM450.701 354.855H422.87C411.089 354.855 405.966 348.531 405.966 341.694C405.966 334.345 410.918 328.363 421.163 328.363H451.043C456.677 328.363 460.946 330.927 462.995 334.516V308.879C460.092 313.494 455.995 314.861 451.043 314.861H422.358C408.186 314.861 401.527 324.603 401.527 337.763C401.527 350.924 410.406 358.957 422.187 358.957H450.701C456.678 358.957 460.434 361.007 462.995 366.135V347.334C459.751 353.145 455.824 354.855 450.701 354.855ZM425.26 397.07C422.699 402.71 419.626 409.376 413.82 409.376C408.357 409.376 405.283 405.103 405.283 399.121C405.283 386.473 419.114 378.611 426.114 375.364H402.381C403.576 377.757 404.088 379.979 404.088 382.371C404.088 387.328 402.21 392.284 402.21 398.095C402.21 410.743 409.552 418.434 419.626 418.434C433.115 418.434 436.188 406.47 441.14 395.532C443.53 390.233 445.75 383.226 452.409 383.055C452.58 383.055 452.58 383.055 452.58 383.055C457.531 383.055 461.117 387.499 461.117 393.139C461.117 405.274 449.335 412.794 443.189 415.357C450.189 415.016 456.677 414.674 462.995 414.332C463.678 407.496 464.532 402.71 464.532 395.532C464.532 380.833 455.995 373.826 445.921 373.826C433.456 373.997 429.87 386.986 425.26 397.07ZM406.137 447.318H433.627C434.139 448.173 434.139 449.711 434.139 450.736C434.139 456.718 430.041 459.795 424.065 462.017H445.921C439.432 459.795 436.871 455.18 436.871 450.907C436.871 449.711 437.042 448.173 437.554 447.147H459.751C459.751 449.54 459.751 452.104 459.751 454.496C459.751 455.864 459.751 456.889 459.751 458.256C459.58 468.853 451.043 470.904 444.042 473.638C449.848 473.468 455.653 473.126 461.458 472.784C462.824 472.613 463.166 472.271 463.166 470.904C463.166 456.376 463.166 451.42 463.166 427.321C460.434 432.107 455.824 433.474 450.531 433.474C438.408 433.474 426.456 433.474 414.333 433.474C408.869 433.474 404.942 430.91 402.893 427.15V473.98L422.187 475.348C407.674 468.511 406.137 459.282 406.137 447.318ZM308.983 40.7183C314.618 43.2819 321.277 46.3584 321.277 52.1694C321.277 57.6386 317.008 60.715 311.032 60.715C298.397 60.715 290.543 46.8711 287.298 39.8637V63.6205C289.689 62.4241 291.909 61.9114 294.299 61.9114C299.251 61.9114 304.202 63.7914 310.008 63.7914C322.643 63.7914 330.326 56.4422 330.326 46.3584C330.326 32.8563 318.374 29.7799 307.446 24.8234C302.153 22.4307 295.153 20.2088 294.982 13.5432C294.982 13.3723 294.982 13.3723 294.982 13.3723C294.982 8.41588 299.421 4.82673 305.056 4.82673C317.179 4.82673 324.692 16.6197 327.253 22.7725C326.911 15.7651 326.57 9.27044 326.228 2.9467C319.399 2.26305 314.618 1.40849 307.446 1.40849C292.762 1.40849 285.762 9.95409 285.762 20.0379C285.933 32.3436 299.08 35.9327 308.983 40.7183ZM253.491 62.7659H280.981C276.371 59.6895 274.151 55.0749 272.273 50.4603C264.077 31.6599 253.15 5.51038 250.759 0.895752C248.369 6.36494 241.197 24.4816 235.563 38.8382C232.319 47.2129 228.733 56.784 221.732 62.9368H238.124C235.392 61.7404 232.319 59.5186 233.172 54.7331C233.855 51.6566 235.392 48.2384 236.416 45.3329L235.904 46.1874C242.734 46.1874 249.564 46.1874 256.564 46.1874C256.564 45.8456 255.198 44.1365 254.857 44.1365C254.857 44.1365 255.028 44.3074 255.028 44.4783C256.735 48.2384 258.443 52.3403 258.443 55.4167C258.613 58.4931 257.077 60.715 253.491 62.7659ZM237.27 42.5983C240.002 35.42 242.563 28.4126 245.466 21.0634C248.539 28.5835 251.271 35.42 254.174 42.5983H237.27ZM192.535 5.8522V51.8275C192.535 56.2713 190.828 59.8604 187.071 62.2532C186.9 62.4241 186.73 62.595 186.388 62.7659H212.341C207.39 60.0313 206.024 55.9294 206.024 51.1439V5.8522C207.39 5.33947 209.097 5.33947 210.463 5.33947C218.318 5.33947 222.415 12.8596 226.513 23.4561L225.318 2.43396H173.241L172.216 23.2852C177.68 10.6377 181.437 5.33947 188.266 5.33947C190.145 5.33947 192.194 5.68129 192.535 5.8522Z" fill="white"/>
</svg>
