<svg width="34" height="32" viewBox="0 0 34 32" fill="none" xmlns="http://www.w3.org/2000/svg">
<path d="M19.6233 1.12073H14.3773C14.1916 1.12073 14.0059 1.35285 14.0059 1.67783C14.0059 2.00281 14.1451 2.23494 14.3773 2.23494H19.6233C19.809 2.23494 19.9947 2.00281 19.9947 1.67783C19.9947 1.35285 19.809 1.12073 19.6233 1.12073Z" fill="white"/>
<path d="M29.001 9.89508V22.1049C29.001 22.2906 29.1403 22.4763 29.3724 22.4763C29.5581 22.4763 29.7438 22.337 29.7438 22.1049V9.89508C29.7438 9.70938 29.6045 9.52368 29.3724 9.52368C29.1867 9.52368 29.001 9.70938 29.001 9.89508Z" fill="white"/>
<path d="M32.5293 11.9843V19.9694C32.5293 20.1551 32.6686 20.3408 32.9007 20.3408C33.0864 20.3408 33.2721 20.2015 33.2721 19.9694V11.9843C33.2721 11.7986 33.1328 11.6129 32.9007 11.6129C32.715 11.6593 32.5293 11.7986 32.5293 11.9843Z" fill="white"/>
<path d="M4.30273 9.89508V22.1049C4.30273 22.2906 4.44201 22.4763 4.67414 22.4763C4.85984 22.4763 5.04554 22.337 5.04554 22.1049V9.89508C5.04554 9.70938 4.90626 9.52368 4.67414 9.52368C4.44201 9.52368 4.30273 9.70938 4.30273 9.89508Z" fill="white"/>
<path d="M0.774414 11.9843V19.9694C0.774414 20.1551 0.91369 20.3408 1.14582 20.3408C1.33152 20.3408 1.51722 20.2015 1.51722 19.9694V11.9843C1.51722 11.7986 1.37794 11.6129 1.14582 11.6129C0.91369 11.6593 0.774414 11.7986 0.774414 11.9843Z" fill="white"/>
<path d="M22.1299 0.470764H11.9163C9.78076 0.470764 8.0166 2.1885 8.0166 4.37049V27.676C8.0166 29.8115 9.73434 31.5757 11.9163 31.5757H22.1299C24.2654 31.5757 26.0296 29.858 26.0296 27.676V4.37049C25.9832 2.1885 24.2654 0.470764 22.1299 0.470764ZM25.2868 4.97401V5.67039V23.7762V24.4726V26.0975V27.676C25.2868 29.4401 23.8476 30.8329 22.1299 30.8329H11.9163C10.1522 30.8329 8.7594 29.3937 8.7594 27.676V26.1439V24.519V23.8227V5.71682V5.02044V4.41691C8.7594 2.65275 10.1986 1.25999 11.9163 1.25999H22.1299C23.894 1.25999 25.2868 2.69918 25.2868 4.41691V4.97401Z" fill="white"/>
</svg>
