<?xml version="1.0" encoding="utf-8"?>
<!-- Generator: Adobe Illustrator 22.0.0, SVG Export Plug-In . SVG Version: 6.00 Build 0)  -->
<svg version="1.1" id="Layer_1" xmlns="http://www.w3.org/2000/svg" xmlns:xlink="http://www.w3.org/1999/xlink" x="0px" y="0px"
	 viewBox="0 0 31 21" style="enable-background:new 0 0 31 21;" xml:space="preserve">
<style type="text/css">
	.st0{fill:none;stroke:#FFFFFF;stroke-width:0.4102;stroke-miterlimit:10;}
	.st1{fill:#FFFFFF;}
</style>
<g>
	<path class="st0" d="M17,6.6C17,4,16.7,1.5,19,1.2V0.7l-9.2,0l0.4,0.5c2.5,0.1,2.6,1.3,2.6,4.8v9.2c0,3.5-0.7,4.5-2.6,4.6l0,0.5H19
		v-0.5C16.7,19.4,17,17,17,14.3v-3.4h6.8v3.4c0,2.7,0.1,5.2-2.1,5.5v0.5h8.9v-0.5c-2-0.2-2.6-1.1-2.6-4.6V5.8c0-3.5,0.5-4.4,2.6-4.6
		V0.7h-8.9v0.5C24,1.5,23.8,4,23.8,6.6v3H17V6.6z"/>
	<path class="st1" d="M10.5,1.4c3.7,0,5.6,6.1,6.3,8.4h0.4L17,8.6l-0.6-8.1H0.5v0.6c1.7,0,2.7,1.1,2.7,4.6V14c0,3.8-0.5,5.7-2.7,5.7
		l0,0.8h9.7l0-0.9c-2.4,0-2.9-1.3-2.9-5.6v-4h0.8c3,0,4.5,1.9,4.5,5l0.2-1V5.3l-0.3-2.1c0.2,3.1-1.2,6-4.5,6H7.3V5.9
		C7.3,2.5,8.6,1.4,10.5,1.4z"/>
</g>
</svg>
