<?xml version="1.0" encoding="utf-8"?>
<!-- Generator: Adobe Illustrator 22.0.0, SVG Export Plug-In . SVG Version: 6.00 Build 0)  -->
<svg version="1.1" xmlns="http://www.w3.org/2000/svg" xmlns:xlink="http://www.w3.org/1999/xlink" x="0px" y="0px"
	 viewBox="0 0 1465.4 1306.1" style="enable-background:new 0 0 1465.4 1306.1;" xml:space="preserve">
<style type="text/css">
	.st0{opacity:0.1;fill:#0068E2;}
	.st1{opacity:0.4;}
</style>
<g id="_x30_2.08" class="flat-hover flat-hover-4">
	<g>
		<polygon class="st0" points="1014,981.8 1022.8,981.8 1027.4,981.8 1027.4,968.2 1014,968.2 		"/>
		<polygon class="st0" points="1207.4,810.2 1198.2,810.2 1198.2,802 1163.2,802 1163.2,810.2 1154,810.2 1154,802 1117.8,802
			1117.8,810.2 1112.2,810.2 1112.2,838.8 1108.5,838.8 1108.5,810.2 1108.5,803.7 1108.5,802 1072.6,802 1072.6,810.2
			1063.4,810.2 1063.4,802 1027.2,802 1027.2,810.2 1018,810.2 1018,802 981.6,802 981.6,810.2 972.3,810.2 972.3,802 936.8,802
			936.8,912.3 972.3,912.3 972.3,912.4 975,912.4 975,938.6 971.3,938.6 971.3,916.8 936.8,916.8 936.8,981.4 971.3,981.4
			971.3,961.3 975,961.3 975,983.7 975,987.6 975,1004.5 1010.3,1004.5 1010.3,992.6 1010.3,981.8 1010.3,968.2 1010.3,966.3
			1010.3,964.5 1027.4,964.5 1027.4,916.8 1009.7,916.8 1009.7,912.4 1108.5,912.4 1108.5,884.1 1112.2,884.1 1112.2,912.4
			1138.3,912.4 1138.3,916.8 1112.2,916.8 1112.2,933.2 1108.5,933.2 1108.5,916.8 1031,916.8 1031,981.8 1108.5,981.8
			1108.5,953.2 1112.2,953.2 1112.2,981.8 1244.4,981.8 1244.4,916.8 1169.7,916.8 1169.7,912.4 1244.4,912.4 1244.4,802
			1207.4,802 		"/>
		<rect x="938.7" y="987.6" class="st0" width="30" height="19.4"/>
	</g>
</g>
<g id="_x30_2.07" class="flat-hover flat-hover-3">
	<g class="st1">
		<rect x="864.4" y="987.6" class="st0" width="15.7" height="19.4"/>
		<polygon class="st0" points="834.5,1004.5 834.5,985.1 817.8,985.1 817.8,983.7 817.8,981.4 817.8,961.3 821.5,961.3 821.5,981.4
			836.1,981.4 840,981.4 857.2,981.4 857.2,916.8 821.5,916.8 821.5,938.6 817.8,938.6 817.8,912.4 819.5,912.4 821.5,912.4
			837.9,912.4 837.9,907 841.6,907 841.6,912.4 895.2,912.4 895.2,916.8 860.9,916.8 860.9,981.4 927.6,981.4 927.6,916.8
			917.5,916.8 917.5,912.3 927.6,912.3 927.6,802 891.1,802 891.1,810.2 881.9,810.2 881.9,802 847.1,802 847.1,810.2 841.6,810.2
			841.6,883.6 837.9,883.6 837.9,810.2 837.9,809.5 837.9,802 801.3,802 801.3,810.2 792.1,810.2 792.1,802 756.4,802 756.4,810.2
			747.2,810.2 747.2,802 710.4,802 710.4,810.2 701.1,810.2 701.1,802 665.7,802 665.7,810.2 664.2,810.2 664.2,930.3 743.8,930.3
			743.8,912.3 747.5,912.3 747.5,937.8 743.8,937.8 743.8,934 664.2,934 664.2,944.2 675.9,944.2 675.9,946 675.9,947.9
			675.9,956.2 675.9,958.1 675.9,959.9 664.2,959.9 664.2,1004.5 743.8,1004.5 743.8,962.4 747.5,962.4 747.5,1004.5 		"/>
		<rect x="664.2" y="947.9" class="st0" width="8" height="8.4"/>
		<rect x="840.8" y="987.6" class="st0" width="20" height="19.4"/>
		<rect x="883.8" y="987.6" class="st0" width="34.1" height="19.4"/>
		<rect x="921.6" y="987.6" class="st0" width="10.9" height="19.4"/>
	</g>
</g>
<g id="_x30_2.06" class="flat-hover flat-hover-2">
	<g>
		<rect x="318.1" y="456.4" class="st0" width="19.6" height="29.5"/>
		<rect x="318.1" y="504.2" class="st0" width="19.6" height="7.7"/>
		<rect x="318.1" y="489.5" class="st0" width="19.6" height="11"/>
		<polygon class="st0" points="418.9,466.3 415.2,466.3 415.2,436.2 343.9,436.2 343.9,459.5 374.6,459.5 374.6,461.4 374.6,463.2
			374.6,471.5 374.6,477.8 374.6,480.7 343.9,480.7 343.9,513.7 415.2,513.7 415.2,486.3 418.9,486.3 418.9,538.2 415.2,538.2
			415.2,517.4 343.9,517.4 343.9,521.5 343.9,538.9 343.9,582.5 415.2,582.5 415.2,560.6 418.9,560.6 418.9,565.2 461.2,565.2
			461.2,568.9 418.9,568.9 418.9,582.5 418.9,584.9 418.9,586.2 384.6,586.2 384.6,692.5 402.2,692.5 402.2,696.2 363.4,696.2
			363.4,692.5 380.9,692.5 380.9,623.9 347.1,623.9 347.1,620.2 380.9,620.2 380.9,586.2 343.9,586.2 342,586.2 340.2,586.2
			340.2,553.8 320.6,553.8 320.6,620.2 328.7,620.2 328.7,623.9 320.6,623.9 320.3,739 545.3,739 545.3,736.7 555.2,736.7
			555.2,701.6 545.3,701.6 545.3,692.4 555.2,692.4 555.2,657.5 545.3,657.5 545.3,648.3 555.2,648.3 555.2,613.1 545.3,613.1
			545.3,603.9 555.2,603.9 555.2,568.9 545.3,568.9 517.4,568.9 517.4,565.2 545.3,565.2 545.3,559.6 555.2,559.6 555.2,524.8
			545.3,524.8 545.3,515.5 555.2,515.5 555.2,480.5 545.3,480.5 545.3,471.2 555.2,471.2 555.2,436.2 418.9,436.2 		"/>
		<rect x="343.9" y="463.2" class="st0" width="27" height="8.3"/>
		<rect x="318.1" y="515.6" class="st0" width="19.6" height="20.2"/>
		<rect x="320.6" y="542" class="st0" width="19.6" height="8.2"/>
		<rect x="319.9" y="412.2" class="st0" width="17.7" height="38"/>
	</g>
</g>
<g id="_x30_2.05" class="flat-hover flat-hover-1">
	<g class="st1">
		<rect x="309.1" y="352.3" class="st0" width="31.2" height="7.9"/>
		<rect x="233.8" y="352.5" class="st0" width="13.6" height="7.7"/>
		<rect x="307.8" y="189.8" class="st0" width="13.2" height="15.5"/>
		<polygon class="st0" points="309.5,115.9 309.5,116 307.8,116 307.8,186.1 321,186.1 322.8,186.1 324.7,186.1 324.7,250.2
			324.7,250.8 324.7,253.9 302.3,253.9 302.3,250.2 321,250.2 321,209 306.7,209 290.6,209 277.7,209 277.7,250.2 282.6,250.2
			282.6,253.9 271.4,253.9 271.4,250.2 274,250.2 274,209 233.8,209 233.8,250.2 252.3,250.2 252.3,253.9 233.8,253.9 233.8,348.8
			247.4,348.8 248.6,348.8 251.1,348.8 251.1,360.2 264,360.2 291.9,360.2 304.9,360.2 305.3,360.2 305.3,287.8 378.1,287.8
			378.1,318.7 374.4,318.7 374.4,291.5 309.1,291.5 309.1,348.8 343.9,348.8 343.9,370.8 367.7,370.8 367.7,370.8 374.4,370.8
			374.4,338.8 378.1,338.8 378.1,370.8 384,370.8 384,374.1 378.1,374.1 374.4,374.1 367.7,374.1 367.7,374 343.9,374 343.9,404.2
			343.9,412.2 343.9,426.9 409.9,426.9 409.9,374.1 404.7,374.1 404.7,370.8 409.9,370.8 409.9,368 413.6,368 413.6,426.9
			555.2,426.9 555.2,392.2 545.3,392.2 545.3,383 555.2,383 555.2,347.8 545.3,347.8 545.3,342.2 413.8,342.2 413.8,346.9
			409.5,346.9 409.5,340.7 409.5,338.5 409.5,333 413.8,333 413.8,338.5 545.3,338.5 549.4,338.5 555.2,338.5 555.2,303.6
			545.3,303.6 545.3,294.4 555.2,294.4 555.2,259.7 545.3,259.7 545.3,254.2 413.8,254.2 413.8,309.1 409.5,309.1 409.5,250.4
			545.3,250.4 549.4,250.4 555.2,250.4 555.2,210.9 545.3,210.9 545.3,201.7 555.2,201.7 555.2,163.6 545.3,163.6 545.3,154.4
			555.2,154.4 555.2,116 331.7,116 331.7,115.9 		"/>
	</g>
</g>
</svg>
