<?xml version="1.0" encoding="utf-8"?>
<!-- Generator: Adobe Illustrator 22.0.0, SVG Export Plug-In . SVG Version: 6.00 Build 0)  -->
<svg version="1.1" xmlns="http://www.w3.org/2000/svg" xmlns:xlink="http://www.w3.org/1999/xlink" x="0px" y="0px"
	 viewBox="0 0 1228.2 1401.8" style="enable-background:new 0 0 1228.2 1401.8;" xml:space="preserve">
<style type="text/css">
	.st0{opacity:0.4;}
	.st1{opacity:0.1;fill:#0068E2;}
</style>
<g id="_x35_.3">
	<g class="st0">
		<rect x="1141.5" y="1118.5" class="st1" width="9" height="67.8"/>
		<path class="st1" d="M971.7,1308.2 M928.6,1308.3 M913.8,1308.2 M870.8,1308.3 M856,1308.2 M812.6,1308.2 M801.5,1136.8h6.3v-40.7
			h126.9v22.9h10.1v-6.3h27.3h5.2v-23h1.8v-27.2h0.8h2.2h69.7h1.3h1.7v7.7h-3v-4.7h-58.7v48.3h58.7V1093h3v43.2h-3v-19.2h-68.2v52.7
			h13.2h2.4h0.6v16.6h52v-28.1h3v35h-3v-3.9h-52v14.3v1.2v1.8h-16.2v101.6h2.9l0,0.1h44.9v-5.9h14.9v5.9h44.1v-5.9h11.9v-78.2h-49.5
			v0h-1v-6.9h3v3.9h36.5v-3.9h3v3.9h11v81.2v5.9h45.6v-5.8h14.9v5.8h44.5v-77.6v-22.5v-19h-116v4h-3v-4v-3v-96v-3v-54h-5.1v-3h5.1
			h0.7h2.3v57h5v3h-5v96h44.2v-70.8h1.5h1.5h9h2h1v70.8h56.9v-40.5v-22.5v-33H1127v-3h83.3v-26.5V1038V909.2v0H633.3v84.6h-2.2v38.1
			h11.7h3.5v3.3v34.2v3.3h-3.5h-11.7v229.9h6.4v5.7h44v-5.7h14.9v5.7h43.3v-6.1h14.9v6h4.7l0,0.1h38.4l0-0.1h3.7v-90.3h-13.7h-2.4
			h-0.6v-33.9v-1.2v-1.8h16.7v-16.2V1136.8z M977.5,972.3h10.1v21.6h-5.5v36.7h76.9v3h-76.9H980h-0.8v-39.7h-1.7V972.3z
			 M799.4,972.3h10.1v21.6h-10.1V972.3z M807.8,1119v17.8h-6.3v-9.3h-17.2v-3h17.2v-20.8v-7.6v-6.3v-45.6h-17.2v-3h75.2v2.3v0.7v5.4
			h-3v-5.4h-52v45.6h3.3h48.7v-18.7h3v18.7h75.2h3.5h2.8v22.9h3.8v6.3H941h-3.8h-2.6v-22.9H807.8v19.9"/>
		<polygon class="st1" points="990.1,1113.9 990.1,1065.5 982.1,1065.5 982.1,1089.7 983.6,1089.7 983.6,1113.9 		"/>
		<rect x="631.1" y="1035.2" class="st1" width="11.7" height="34.2"/>
		<rect x="787.8" y="1183.9" class="st1" width="13.7" height="30.9"/>
		<rect x="983.6" y="1172.6" class="st1" width="13.2" height="30.9"/>
	</g>
</g>
<g id="_x35_.2">
	<g>
		<polygon class="st1" points="287.2,938 287.2,1004.2 287.2,1007.2 287.2,1045.9 287.2,1048.9 287.2,1061.7 299.1,1061.7 
			299.1,852.8 287.2,852.8 287.2,935 		"/>
		<rect x="614.1" y="1148.2" class="st1" width="10.9" height="44.6"/>
		<path class="st1" d="M468.8,1100h-6.3v6.8h-31.7v17.7h-12.6v-17.7h-4.3v17.7h-31.1v-17.7H367v17.7h-28.4v-17.7h-4.4v17.7h-29.5
			v-13.7h5v-4h-5v-6.8h-5.7v-28.5v-6.8h-14.9v-1.5v-1.5v-11.8h-51.3v17.6h-3v-26.4h3v5.8h51.3v-38.7H233v11.3h-3v-34.2h3v19.8h51.2
			V940H233v19.4h-3v-36h-5v-3h8V937h51.2v-84.2h-85.6v67.6h6v3h-6v3.8h-3V914h-18.8v-3h18.8v-58.1h-122v7.4h-7.6v38.1h7.6v14.9h-7.6
			v37.9h7.6v5.7h122v-4.4h3v12h-3v-4.1h-122v5.7h-7.6v38.3h7.6v14.9h-7.6v37.7h7.6v5.5h122V996h-18.8v-3h18.8v-4.7h3v77.1h-125v6.4
			h-7.6v33.7h7.6v14.9h-7.6v33.9h7.6v14.9h-7.6v33.7h7.6v14.9h-7.6v33.6c0,0,0,0.1,0,0.2h7.6v12.9l-6.5,2.4
			c1.9,9.7,6.4,22.7,17.1,35.5l5.8-3l10.5,10.5l-2.8,5.3c12.2,9,25.9,13,36.3,14.8l1.8-4.4h14.9v5.9c0.1,0,0.2,0,0.2,0
			s10.2-0.9,33.2-2.2l-0.2-4.2l14.9-0.8l0.2,4.2c9.7-0.5,20.9-1.1,33.8-1.7l-0.2-4.2l14.9-0.8l0.2,4.3c10.3-0.5,21.6-0.9,33.8-1.4
			l-0.2-4.7l14.9-0.8l0.3,4.8c10.5-0.4,21.5-0.9,32.9-1.4l-0.3-5.2l14.9-0.8l0.3,5.3c11.3-0.5,22.8-1,34.4-1.6l-0.3-5.5l6.5-0.3
			v-10.7h4v10.5l4.4-0.2l0.3,5.6c11.3-0.5,22.7-1.1,34-1.6l-0.3-5.7l14.9-0.8l0.3,5.8c11.5-0.6,22.8-1.1,33.8-1.7l-0.3-5.8l14.9-0.8
			l0.3,5.8c11.7-0.6,23-1.2,33.8-1.7l-0.3-5.9l14.9-0.8l0.3,5.9c12.3-0.6,23.7-1.3,33.8-1.8l-0.3-5.8l14.9-0.8l0.3,5.8
			c17.2-0.9,29.3-1.6,34.2-1.9v-5.3h2.3v-105.8h-36.6v-4h22.3v-44.6v-3.3h3.3H625v-79.3h-51.5v39.8h16.8v4h-44.6v-4h23.8v-39.8
			h-44.7v127.2h22.6v4h-22.6v84.9h-4v-132.4h-13.5v-4h13.5v-100h4v17H625v-68.5h-1.1v-84.6H525v-61.5h-47.8v124.5h6v13.4v7.1v52.2
			v3.3h-3.3h-11v23.8V1100z M388.9,1278.2h-3.5v-85.1h3.5V1278.2z M298.5,1129.8v-3.4V1100h6.3v6.8h5v4h-5v13.7h29.5v-17.7h4.4v17.7
			H367v-13.7v-4h15.8v4v13.7h31.1v-17.7h4.3v17.7h12.6v-13.7v-4h31.7v-6.8h6.3v26.4v3.4v15.1h14.5v4h-18.5v-4v-14.1h-58.3v11.1v3h-4
			h-13.6v22.5h-4v-22.5h-82.4h-2.1h-1.9V1129.8z M120.3,1169.3v-3h16.9v-69.2h-17.4v-3h35v3h-14.6v69.2h53.1v-69.2h-15.5v-3h18.5
			v75.2H120.3z"/>
		<rect x="302.5" y="1130.8" class="st1" width="100" height="11.1"/>
		<rect x="468.8" y="993.5" class="st1" width="11" height="51.5"/>
	</g>
</g>
<g id="_x35_.1">
	<g class="st0">
		<rect x="311.7" y="562.4" class="st1" width="28.1" height="11.7"/>
		<rect x="261.2" y="285" class="st1" width="10.4" height="68.4"/>
		<path class="st1" d="M288.8,553.1v5.1h93.1v20.5h-3.6v-16.2h-34.6v15.2h-30.8v84.4h17.7v4.8H259V806h-5.9v-25.4h-74.3v16.9h-3.2
			V692.9h3.2v82.5h76.4V660.9h-76.4v10.3h-3.2V650H72.7v7.9h-6.2l-0.1,35.6h7.3v14.9h-7.3l-0.1,35h7.4v14.9h-7.4l-0.1,36.5h7.5v14.9
			h-7.5l-0.1,35.8h7.6v1.5h101.7v-13.3h3v13.3h31.7v-7.5v-3h3h39.9v-6.1h6.9v6.1h38.1h3v3v7.5h161.3v-4.7v-4.1H525V654.8V650V468.1
			v-4V222.7H333.6v65.9h-2.9v-65.9h-29.1v0h-21.3v0h-6.2v130.7h56.5v-42.8h3.1v42.8h83.9v-28h9.6v3.4h-5.7v28.4H229.1v-3.7H258V285
			h-28.9v-2.5h42.3v-59.8h-69.1v0h-22.1v0h-3.6v59.8h30.8v2.5h-33.5v-62.3H67.4v32.4h6.3v15.8h-6.3v32.9h6.3v15.8h-6.3v33.8h4.2h2.1
			h100.4v-39.7h2.9v39.7h24.4v3.7H183v5.9h-7.4v-5.4H73.6v10.7h-6.3v32.9h6.3V417h-6.3v32.7h6.3v18.4h101.9v-33.6h3.2v21.7h50.4
			v-21.7h3.6v21.9h72.6v-60.9h-72.6v17h-3.6v-17h-50.4v17h-3.2v-25.3h6.9v4.5h154.5v3.6H309v57.5h54.4v-57.3h-4.5v-3.8h53.8v119.8
			h-21.5v-3.2h18.7v-113h-43.1v61.5h-17.2v51.5H368v3.2h-26.9v-3.2h5.4v-52h-33.2v52h5.9v3.2h-5.9v8.5h-24.5v5.8V553.1z
			 M486.2,721.6h-21.6v-10.1h21.6V721.6z M486.2,621.5h-21.6v-10.1h21.6V621.5z M486.2,521.7h-21.6v-10.1h21.6V521.7z M486.2,425.9
			h-21.6v-10.1h21.6V425.9z M455.2,325.4h10v-5.6h21.3v9.9h-21.3v-0.8l-10,0.1V325.4z"/>
		<rect x="213.1" y="839.4" class="st1" width="85" height="7.5"/>
		<polygon class="st1" points="309.6,460.1 178.8,460.1 178.8,468.1 309.6,468.1 		"/>
		<polygon class="st1" points="179.7,656.7 259,656.7 259,663.4 309.4,663.4 309.4,656.7 309.4,651.6 309.4,650 179.7,650 		"/>
	</g>
</g>
</svg>
