<svg width="124" height="55" viewBox="0 0 124 55" fill="none" xmlns="http://www.w3.org/2000/svg">
<path fill-rule="evenodd" clip-rule="evenodd" d="M74.0277 11.16L62.0003 0L49.973 11.16H0V54.56H124V11.16H74.0277Z" fill="#10069F"/>
<path d="M16.752 32.5288C16.752 31.4624 17.1074 30.5674 17.8247 29.8438C18.5356 29.1201 19.418 28.7583 20.459 28.7583C21.5 28.7583 22.376 29.1201 23.0933 29.8438C23.8042 30.5674 24.166 31.4624 24.166 32.5288C24.166 33.5952 23.8042 34.4902 23.0933 35.2139C22.376 35.9375 21.5 36.2993 20.459 36.2993C19.418 36.2993 18.5356 35.9375 17.8247 35.2139C17.1074 34.4902 16.752 33.5952 16.752 32.5288ZM25.1372 32.5288C25.1372 31.2339 24.6802 30.1294 23.7725 29.2153C22.8584 28.3076 21.7539 27.8506 20.459 27.8506C19.1577 27.8506 18.0532 28.3076 17.1455 29.2153C16.2314 30.1294 15.7808 31.2339 15.7808 32.5288C15.7808 33.8301 16.2314 34.9346 17.1455 35.8423C18.0532 36.7563 19.1577 37.207 20.459 37.207C21.7539 37.207 22.8584 36.7563 23.7725 35.8423C24.6802 34.9346 25.1372 33.8301 25.1372 32.5288ZM27.8662 33.957C27.8662 33.2651 28.1074 32.6938 28.6025 32.2432C29.0913 31.7861 29.7324 31.564 30.5259 31.564V36.3691C29.7324 36.3691 29.0913 36.1406 28.6025 35.6899C28.1074 35.2393 27.8662 34.6616 27.8662 33.957ZM34.1059 33.9634C34.1059 34.6616 33.8584 35.2393 33.3696 35.6899C32.8745 36.1406 32.2334 36.3691 31.4399 36.3691V31.564C32.2397 31.564 32.8808 31.7861 33.3696 32.2432C33.8584 32.6938 34.1059 33.2651 34.1059 33.9634ZM31.4399 37.207C32.4936 37.207 33.3569 36.9023 34.0234 36.2803C34.6836 35.6646 35.02 34.8901 35.02 33.9634C35.02 33.0366 34.6836 32.2622 34.0234 31.6401C33.3569 31.0181 32.4936 30.7134 31.4399 30.7134V27.9839H30.5322V30.7134C29.4721 30.7134 28.6089 31.0181 27.9487 31.6401C27.2886 32.2622 26.9585 33.0366 26.9585 33.9634C26.9585 34.8901 27.2886 35.6646 27.9487 36.2803C28.6089 36.9023 29.4721 37.207 30.5322 37.207V39.8096H31.4399V37.207ZM41.8432 30.8403L38.0727 35.5186V30.8403H37.165V37.0801H37.9394L41.7099 32.4019V37.0801H42.624V30.8403H41.8432ZM44.769 33.957C44.769 34.8584 45.0737 35.6265 45.6894 36.2612C46.2988 36.896 47.0351 37.207 47.8857 37.207C48.1904 37.207 48.4887 37.1626 48.7807 37.0674C49.0727 36.9722 49.3139 36.8706 49.498 36.7563C49.6884 36.6421 49.8662 36.5151 50.0312 36.3691C50.2026 36.2231 50.3168 36.1216 50.3676 36.0581C50.4184 35.9946 50.4565 35.9502 50.4819 35.9121L49.8344 35.3281L49.6249 35.582C49.4789 35.7598 49.2441 35.9312 48.9204 36.1025C48.5903 36.2803 48.2475 36.3628 47.8857 36.3628C47.289 36.3628 46.7685 36.1343 46.3305 35.6709C45.8925 35.2075 45.6767 34.6362 45.6767 33.9634C45.6767 33.2905 45.8925 32.7192 46.3305 32.2559C46.7685 31.7925 47.289 31.5576 47.8857 31.5576C48.1205 31.5576 48.3491 31.5957 48.5649 31.6655C48.7807 31.7417 48.9521 31.8242 49.0917 31.9131C49.225 32.002 49.352 32.1099 49.4662 32.2305C49.5805 32.3574 49.6567 32.4399 49.6884 32.4844C49.7265 32.5352 49.7519 32.5669 49.7646 32.5923L50.4184 31.9448L50.1454 31.6465C49.9677 31.4434 49.663 31.2339 49.2441 31.0244C48.8251 30.8149 48.3681 30.707 47.8793 30.707C47.0351 30.707 46.3051 31.0244 45.6894 31.6592C45.0737 32.2939 44.769 33.0557 44.769 33.957ZM59.9135 37.0801H60.8275V30.8403H55.432V37.0801H56.3397V31.6973H59.9135V37.0801ZM64.3373 33.9634C64.3373 33.3223 64.5595 32.7637 65.0165 32.2812C65.4735 31.7988 65.9813 31.5576 66.5463 31.5576C67.0795 31.5576 67.5619 31.7925 67.9872 32.2622C68.4125 32.7319 68.6283 33.2969 68.6283 33.9634C68.6283 34.6299 68.4125 35.1948 67.9872 35.6646C67.5619 36.1343 67.0795 36.3628 66.5463 36.3628C65.9813 36.3628 65.4735 36.1279 65.0165 35.6455C64.5595 35.1631 64.3373 34.6045 64.3373 33.9634ZM64.3373 36.1025L64.4262 36.2231C64.4896 36.2993 64.5785 36.3945 64.7054 36.5024C64.8324 36.6104 64.9784 36.7183 65.1498 36.8198C65.3148 36.9277 65.5243 37.0166 65.7719 37.0928C66.0194 37.1689 66.2797 37.207 66.5463 37.207C67.3461 37.207 68.0443 36.8896 68.641 36.2549C69.2377 35.6201 69.536 34.8521 69.536 33.9634C69.536 33.0747 69.2313 32.3066 68.6346 31.6719C68.038 31.0308 67.3397 30.7134 66.5463 30.7134C66.2797 30.7134 66.0194 30.7515 65.7655 30.8276C65.5116 30.9038 65.3085 30.9927 65.1498 31.0942C64.9847 31.1958 64.8387 31.3101 64.6991 31.437C64.5595 31.564 64.4706 31.6528 64.4262 31.7036C64.3817 31.7544 64.35 31.7988 64.3373 31.8242V30.8467H63.4296V39.8159H64.3373V36.1025ZM76.683 33.9634C76.683 34.6362 76.4545 35.2075 76.0101 35.6709C75.5658 36.1343 75.0262 36.3628 74.4042 36.3628C73.7821 36.3628 73.2425 36.1343 72.7982 35.6646C72.3539 35.1948 72.1317 34.6299 72.1317 33.957C72.1317 33.2842 72.3539 32.7192 72.7982 32.2559C73.2425 31.7925 73.7821 31.5576 74.4042 31.5576C75.0262 31.5576 75.5658 31.7925 76.0101 32.2559C76.4545 32.7192 76.683 33.2905 76.683 33.9634ZM71.224 33.9634C71.224 34.8774 71.5287 35.6455 72.1507 36.2739C72.7728 36.896 73.5218 37.2134 74.4105 37.2134C75.2928 37.2134 76.0419 36.896 76.6576 36.2739C77.2796 35.6455 77.5843 34.8774 77.5843 33.9634C77.5843 33.0493 77.2796 32.2812 76.6576 31.6528C76.0419 31.0244 75.2928 30.707 74.4105 30.707C73.5218 30.707 72.7728 31.0244 72.1507 31.6528C71.5287 32.2812 71.224 33.0493 71.224 33.9634ZM85.5247 36.2358H84.5472V30.8403H80.2625V32.6621C80.2625 33.1191 80.2181 33.5635 80.1419 33.9824C80.0658 34.4014 79.9769 34.7378 79.8753 34.9917C79.7738 35.2456 79.6659 35.4741 79.5389 35.6899C79.412 35.9058 79.3167 36.0454 79.266 36.1089C79.2152 36.1724 79.1771 36.2104 79.1517 36.2358H78.701V38.6416H79.6087V37.0801H84.617V38.6416H85.5247V36.2358ZM81.1703 31.6846H83.6395V36.2358H80.1292L80.3895 35.874C80.5609 35.6328 80.7323 35.2139 80.9037 34.6172C81.0814 34.0269 81.1639 33.373 81.1639 32.6621L81.1703 31.6846ZM88.8377 33.5063C88.2474 33.6079 87.7967 33.8174 87.4857 34.1348C87.1683 34.4521 87.0159 34.8711 87.0159 35.3916C87.0159 35.8677 87.2254 36.2866 87.6507 36.6548C88.076 37.0229 88.6029 37.207 89.2249 37.207C89.4725 37.207 89.7137 37.1753 89.9486 37.1055C90.1834 37.042 90.3738 36.9658 90.5198 36.877C90.6595 36.7881 90.7928 36.6929 90.9197 36.5786C91.0467 36.4644 91.1229 36.3882 91.161 36.3438C91.199 36.2993 91.2244 36.2612 91.2435 36.2358V37.0801H92.1512V33.1128C92.1512 32.4336 91.9163 31.8623 91.4466 31.3989C90.9769 30.9419 90.3929 30.707 89.682 30.707C89.4027 30.707 89.1234 30.7515 88.8568 30.834C88.5902 30.9165 88.3743 31.0117 88.2093 31.1133C88.0443 31.2212 87.8856 31.3418 87.7332 31.4751C87.5809 31.6084 87.4857 31.7036 87.4412 31.7544C87.3968 31.8052 87.3651 31.8496 87.3397 31.8813L87.9237 32.4653L88.1204 32.2432C88.2474 32.0908 88.4569 31.9385 88.7488 31.7861C89.0408 31.6338 89.3519 31.5576 89.682 31.5576C90.139 31.5576 90.5135 31.7036 90.8055 31.9893C91.0975 32.2812 91.2435 32.6558 91.2435 33.1128L88.8377 33.5063ZM89.2249 36.3628C88.8187 36.3628 88.4949 36.2739 88.2664 36.0898C88.0379 35.9058 87.9237 35.6709 87.9237 35.3916C87.9237 34.8076 88.3172 34.4395 89.098 34.2871L91.2435 33.8936V34.2871C91.2435 34.9028 91.053 35.4043 90.6722 35.7852C90.2913 36.1724 89.8089 36.3628 89.2249 36.3628ZM97.9969 34.998V37.0801H98.9046V34.998L99.8123 34.0269L102.021 37.0801H103.062L100.396 33.373L102.802 30.8403H101.698L98.9046 33.8301V30.8403H97.9969V33.8301L95.1976 30.8403H94.0931L96.4988 33.373L93.8328 37.0801H94.8738L97.0828 34.0269L97.9969 34.998Z" fill="white"/>
</svg>
