<svg width="140" height="56" viewBox="0 0 140 56" fill="none" xmlns="http://www.w3.org/2000/svg">
<rect width="140" height="56" fill="#10069F"/>
<path d="M26.983 28.4487C26.983 27.3823 27.3385 26.4873 28.0558 25.7637C28.7667 25.04 29.649 24.6782 30.69 24.6782C31.7311 24.6782 32.607 25.04 33.3243 25.7637C34.0353 26.4873 34.3971 27.3823 34.3971 28.4487C34.3971 29.5151 34.0353 30.4102 33.3243 31.1338C32.607 31.8574 31.7311 32.2192 30.69 32.2192C29.649 32.2192 28.7667 31.8574 28.0558 31.1338C27.3385 30.4102 26.983 29.5151 26.983 28.4487ZM35.3683 28.4487C35.3683 27.1538 34.9112 26.0493 34.0035 25.1353C33.0895 24.2275 31.985 23.7705 30.69 23.7705C29.3888 23.7705 28.2843 24.2275 27.3766 25.1353C26.4625 26.0493 26.0118 27.1538 26.0118 28.4487C26.0118 29.75 26.4625 30.8545 27.3766 31.7622C28.2843 32.6763 29.3888 33.127 30.69 33.127C31.985 33.127 33.0895 32.6763 34.0035 31.7622C34.9112 30.8545 35.3683 29.75 35.3683 28.4487ZM38.0972 29.877C38.0972 29.1851 38.3385 28.6138 38.8336 28.1631C39.3223 27.7061 39.9635 27.4839 40.7569 27.4839V32.2891C39.9635 32.2891 39.3223 32.0605 38.8336 31.6099C38.3385 31.1592 38.0972 30.5815 38.0972 29.877ZM44.337 29.8833C44.337 30.5815 44.0894 31.1592 43.6007 31.6099C43.1055 32.0605 42.4644 32.2891 41.671 32.2891V27.4839C42.4708 27.4839 43.1119 27.7061 43.6007 28.1631C44.0894 28.6138 44.337 29.1851 44.337 29.8833ZM41.671 33.127C42.7247 33.127 43.588 32.8223 44.2545 32.2002C44.9146 31.5845 45.2511 30.8101 45.2511 29.8833C45.2511 28.9565 44.9146 28.1821 44.2545 27.5601C43.588 26.938 42.7247 26.6333 41.671 26.6333V23.9038H40.7633V26.6333C39.7032 26.6333 38.8399 26.938 38.1798 27.5601C37.5196 28.1821 37.1895 28.9565 37.1895 29.8833C37.1895 30.8101 37.5196 31.5845 38.1798 32.2002C38.8399 32.8223 39.7032 33.127 40.7633 33.127V35.7295H41.671V33.127ZM52.0743 26.7603L48.3038 31.4385V26.7603H47.3961V33H48.1705L51.941 28.3218V33H52.855V26.7603H52.0743ZM55 29.877C55 30.7783 55.3047 31.5464 55.9204 32.1812C56.5298 32.8159 57.2662 33.127 58.1167 33.127C58.4214 33.127 58.7198 33.0825 59.0118 32.9873C59.3037 32.8921 59.545 32.7905 59.729 32.6763C59.9195 32.562 60.0972 32.4351 60.2622 32.2891C60.4336 32.1431 60.5479 32.0415 60.5987 31.978C60.6495 31.9146 60.6875 31.8701 60.7129 31.832L60.0655 31.248L59.856 31.502C59.71 31.6797 59.4751 31.8511 59.1514 32.0225C58.8213 32.2002 58.4786 32.2827 58.1167 32.2827C57.5201 32.2827 56.9995 32.0542 56.5616 31.5908C56.1236 31.1274 55.9078 30.5562 55.9078 29.8833C55.9078 29.2104 56.1236 28.6392 56.5616 28.1758C56.9995 27.7124 57.5201 27.4775 58.1167 27.4775C58.3516 27.4775 58.5801 27.5156 58.7959 27.5854C59.0118 27.6616 59.1831 27.7441 59.3228 27.833C59.4561 27.9219 59.583 28.0298 59.6973 28.1504C59.8116 28.2773 59.8877 28.3599 59.9195 28.4043C59.9576 28.4551 59.9829 28.4868 59.9956 28.5122L60.6495 27.8647L60.3765 27.5664C60.1988 27.3633 59.8941 27.1538 59.4751 26.9443C59.0562 26.7349 58.5992 26.627 58.1104 26.627C57.2662 26.627 56.5362 26.9443 55.9204 27.5791C55.3047 28.2139 55 28.9756 55 29.877ZM73.0708 23.8975H66.0503V33H67.0278V24.8115H72.0933V33H73.0708V23.8975ZM76.8408 29.8833C76.8408 29.2422 77.063 28.6836 77.52 28.2012C77.977 27.7188 78.4848 27.4775 79.0498 27.4775C79.583 27.4775 80.0654 27.7124 80.4907 28.1821C80.916 28.6519 81.1318 29.2168 81.1318 29.8833C81.1318 30.5498 80.916 31.1147 80.4907 31.5845C80.0654 32.0542 79.583 32.2827 79.0498 32.2827C78.4848 32.2827 77.977 32.0479 77.52 31.5654C77.063 31.083 76.8408 30.5244 76.8408 29.8833ZM76.8408 32.0225L76.9297 32.1431C76.9931 32.2192 77.082 32.3145 77.209 32.4224C77.3359 32.5303 77.4819 32.6382 77.6533 32.7397C77.8183 32.8477 78.0278 32.9365 78.2754 33.0127C78.5229 33.0889 78.7832 33.127 79.0498 33.127C79.8496 33.127 80.5478 32.8096 81.1445 32.1748C81.7412 31.54 82.0395 30.772 82.0395 29.8833C82.0395 28.9946 81.7348 28.2266 81.1382 27.5918C80.5415 26.9507 79.8432 26.6333 79.0498 26.6333C78.7832 26.6333 78.5229 26.6714 78.269 26.7476C78.0151 26.8237 77.812 26.9126 77.6533 27.0142C77.4883 27.1157 77.3423 27.23 77.2026 27.3569C77.063 27.4839 76.9741 27.5728 76.9297 27.6235C76.8852 27.6743 76.8535 27.7188 76.8408 27.7441V26.7666H75.9331V35.7358H76.8408V32.0225ZM89.1865 29.8833C89.1865 30.5562 88.958 31.1274 88.5136 31.5908C88.0693 32.0542 87.5297 32.2827 86.9077 32.2827C86.2856 32.2827 85.7461 32.0542 85.3017 31.5845C84.8574 31.1147 84.6352 30.5498 84.6352 29.877C84.6352 29.2041 84.8574 28.6392 85.3017 28.1758C85.7461 27.7124 86.2856 27.4775 86.9077 27.4775C87.5297 27.4775 88.0693 27.7124 88.5136 28.1758C88.958 28.6392 89.1865 29.2104 89.1865 29.8833ZM83.7275 29.8833C83.7275 30.7974 84.0322 31.5654 84.6543 32.1938C85.2763 32.8159 86.0254 33.1333 86.914 33.1333C87.7963 33.1333 88.5454 32.8159 89.1611 32.1938C89.7832 31.5654 90.0879 30.7974 90.0879 29.8833C90.0879 28.9692 89.7832 28.2012 89.1611 27.5728C88.5454 26.9443 87.7963 26.627 86.914 26.627C86.0254 26.627 85.2763 26.9443 84.6543 27.5728C84.0322 28.2012 83.7275 28.9692 83.7275 29.8833ZM98.0283 32.1558H97.0507V26.7603H92.7661V28.582C92.7661 29.0391 92.7216 29.4834 92.6455 29.9023C92.5693 30.3213 92.4804 30.6577 92.3789 30.9116C92.2773 31.1655 92.1694 31.394 92.0424 31.6099C91.9155 31.8257 91.8203 31.9653 91.7695 32.0288C91.7187 32.0923 91.6806 32.1304 91.6552 32.1558H91.2045V34.5615H92.1123V33H97.1206V34.5615H98.0283V32.1558ZM93.6738 27.6045H96.143V32.1558H92.6328L92.893 31.7939C93.0644 31.5527 93.2358 31.1338 93.4072 30.5371C93.5849 29.9468 93.6674 29.293 93.6674 28.582L93.6738 27.6045ZM101.341 29.4263C100.751 29.5278 100.3 29.7373 99.9892 30.0547C99.6718 30.3721 99.5195 30.791 99.5195 31.3115C99.5195 31.7876 99.7289 32.2065 100.154 32.5747C100.58 32.9429 101.106 33.127 101.728 33.127C101.976 33.127 102.217 33.0952 102.452 33.0254C102.687 32.9619 102.877 32.8857 103.023 32.7969C103.163 32.708 103.296 32.6128 103.423 32.4985C103.55 32.3843 103.626 32.3081 103.664 32.2637C103.703 32.2192 103.728 32.1812 103.747 32.1558V33H104.655V29.0327C104.655 28.3535 104.42 27.7822 103.95 27.3188C103.48 26.8618 102.896 26.627 102.185 26.627C101.906 26.627 101.627 26.6714 101.36 26.7539C101.094 26.8364 100.878 26.9316 100.713 27.0332C100.548 27.1411 100.389 27.2617 100.237 27.395C100.084 27.5283 99.9892 27.6235 99.9447 27.6743C99.9003 27.7251 99.8686 27.7695 99.8432 27.8013L100.427 28.3853L100.624 28.1631C100.751 28.0107 100.96 27.8584 101.252 27.7061C101.544 27.5537 101.855 27.4775 102.185 27.4775C102.643 27.4775 103.017 27.6235 103.309 27.9092C103.601 28.2012 103.747 28.5757 103.747 29.0327L101.341 29.4263ZM101.728 32.2827C101.322 32.2827 100.998 32.1938 100.77 32.0098C100.541 31.8257 100.427 31.5908 100.427 31.3115C100.427 30.7275 100.821 30.3594 101.601 30.207L103.747 29.8135V30.207C103.747 30.8228 103.557 31.3242 103.176 31.7051C102.795 32.0923 102.312 32.2827 101.728 32.2827ZM110.5 30.918V33H111.408V30.918L112.316 29.9468L114.525 33H115.566L112.9 29.293L115.306 26.7603H114.201L111.408 29.75V26.7603H110.5V29.75L107.701 26.7603H106.597L109.002 29.293L106.336 33H107.377L109.586 29.9468L110.5 30.918Z" fill="white"/>
</svg>
