<svg width="48" height="60" viewBox="0 0 48 60" fill="none" xmlns="http://www.w3.org/2000/svg">
<path d="M40.6108 7.29916C31.3197 -2.43305 16.2595 -2.43305 6.96837 7.29916C-2.32279 17.0314 -2.32279 32.7621 6.96837 42.4943L23.7896 60L40.6108 42.4943C49.902 32.7621 49.902 17.0314 40.6108 7.29916Z" fill="#10069F"/>
<path d="M14.4258 24.8435V19.182C15.1487 19.182 15.8717 19.182 16.45 19.182C16.7392 19.182 17.0284 19.182 17.3176 19.182C19.1972 19.182 19.9201 20.9699 20.9323 23.2047C20.7877 21.7148 20.7877 20.2249 20.6431 18.884C20.6431 18.4371 20.4985 18.2881 20.0647 18.2881C16.7392 18.2881 13.2691 18.2881 9.94353 18.2881H9.65435C10.3773 18.5861 11.1002 19.48 11.1002 21.1188C11.1002 24.3966 11.1002 27.5253 11.1002 30.654C11.1002 31.6969 10.6665 32.7398 9.50977 33.3358H15.8717C14.715 32.7398 14.2812 31.8459 14.2812 30.654V25.7374C14.715 25.5885 15.0041 25.5885 15.2933 25.5885C16.7392 25.5885 17.6067 26.6314 18.0405 28.1212V22.6087C17.3176 24.2476 16.45 24.8435 15.2933 24.8435C15.1487 24.9925 14.715 24.8435 14.4258 24.8435ZM36.5478 30.505V21.5658C36.5478 20.0759 37.1262 19.033 37.9937 18.5861H31.7764C32.4994 19.033 33.3669 20.0759 33.3669 21.5658V24.9925H28.1617V21.5658C28.1617 19.9269 28.4509 19.033 29.6076 18.4371H23.3903C24.6916 19.182 24.8362 19.9269 24.8362 21.5658C24.8362 24.3966 24.8362 27.3763 24.8362 30.2071C24.8362 31.399 24.547 32.7398 23.2457 33.4848H29.6076C28.3063 32.7398 28.0171 31.5479 28.0171 30.2071V25.7374H33.3669V30.505C33.3669 31.8459 33.3669 32.7398 31.921 33.6338H38.2829C36.837 32.7398 36.5478 32.1439 36.5478 30.505Z" fill="white"/>
</svg>

