<svg width="48" height="60" viewBox="0 0 48 60" fill="none" xmlns="http://www.w3.org/2000/svg">
<path d="M40.6108 7.29916C31.3197 -2.43305 16.2595 -2.43305 6.96837 7.29916C-2.32279 17.0314 -2.32279 32.7621 6.96837 42.4943L23.7896 60L40.6108 42.4943C49.902 32.7621 49.902 17.0314 40.6108 7.29916Z" fill="#10069F"/>
<path d="M24.9677 22.903C24.9677 20.3869 24.6774 17.9676 26.9032 17.6772V17.1934H18L18.3871 17.6772C20.8065 17.774 20.9032 18.9353 20.9032 22.3224V31.2256C20.9032 34.6127 20.2258 35.5805 18.3871 35.6772V36.1611H26.9032V35.6772C24.6774 35.2901 24.9677 32.9676 24.9677 30.3547V27.0643H31.5484V30.3547C31.5484 32.9676 31.6452 35.3869 29.5161 35.6772V36.1611H38.129V35.6772C36.1935 35.4837 35.6129 34.6127 35.6129 31.2256V22.1288C35.6129 18.7417 36.0968 17.8708 38.129 17.6772V17.1934H29.5161V17.6772C31.7419 17.9676 31.5484 20.3869 31.5484 22.903V25.8063H24.9677V22.903Z" stroke="white" stroke-width="0.4102" stroke-miterlimit="10"/>
<path d="M18.6774 17.871C22.2581 17.871 24.0968 23.7742 24.7742 26H25.1613L24.9677 24.8387L24.3871 17H9V17.5806C10.6452 17.5806 11.6129 18.6452 11.6129 22.0323V30.0645C11.6129 33.7419 11.129 35.5806 9 35.5806V36.3548H18.3871V35.4839C16.0645 35.4839 15.5806 34.2258 15.5806 30.0645V26.1935H16.3548C19.2581 26.1935 20.7097 28.0323 20.7097 31.0323L20.9032 30.0645V21.6452L20.6129 19.6129C20.8065 22.6129 19.4516 25.4194 16.2581 25.4194H15.5806V22.2258C15.5806 18.9355 16.8387 17.871 18.6774 17.871Z" fill="white"/>
</svg>
