<svg height="512pt" viewBox="0 -86 512 512" width="512pt" xmlns="http://www.w3.org/2000/svg" fill="#f7a22e"><path d="m457 0h-288c-30.328125 0-55 24.671875-55 55v9h-59c-30.328125 0-55 24.671875-55 55v165.332031c0 30.328125 24.671875 55 55 55h288c30.328125 0 55-24.671875 55-55v-9h59c30.328125 0 55-24.671875 55-55v-165.332031c0-30.328125-24.671875-55-55-55zm0 245.335938h-59v-76.667969h84v51.667969c0 13.78125-11.214844 25-25 25zm-114 64h-288c-13.785156 0-25-11.21875-25-25v-165.335938c0-13.785156 11.214844-25 25-25h288c13.785156 0 25 11.214844 25 25v165.332031c0 13.785157-11.214844 25.003907-25 25.003907zm48.964844-215.335938h90.035156v44.667969h-84v-19.667969c0-9-2.1875-17.492188-6.035156-25zm-48.964844-30h-199v-9c0-13.785156 11.214844-25 25-25h288c13.785156 0 25 11.214844 25 25v9zm0 0"/><path d="m190.027344 146.296875c-25.15625 3.527344-37.730469 18.097656-37.730469 35.429687 0 40.03125 59.355469 29.140626 59.355469 42.640626 0 3.679687-3.679688 5.828124-13.957032 5.828124-11.808593 0-25.308593-3.835937-35.429687-9.816406l-11.65625 26.382813c9.203125 5.671875 24.082031 9.8125 39.417969 10.734375v16.257812h21.625v-17.023437c23.777344-4.140625 33.683594-7.066407 35.738281-35.125 2.894531-39.464844-59.355469-28.835938-59.355469-41.71875 0-3.683594 3.371094-6.75 13.953125-6.75 9.359375 0 19.328125 2.609375 29.910157 7.976562l10.890624-26.226562c-8.742187-4.910157-19.785156-7.824219-31.136718-8.898438v-16.410156h-21.625zm0 0"/></svg>