<svg id="icon-mountain-snow" height="512pt" viewBox="0 -34 512.00406 512" width="512pt" xmlns="http://www.w3.org/2000/svg"><path d="m85.332031 401.070312c-1.773437 0-3.53125-.09375-5.246093-.273437-14.148438-1.503906-26.410157-9.710937-32.820313-21.964844-6.195313-11.84375-6.082031-25.882812.300781-37.53125l30.292969-55.269531c2.992187-5.46875 11.972656-5.46875 14.964844 0l30.292969 55.269531c6.382812 11.648438 6.496093 25.6875.300781 37.53125-6.410157 12.253907-18.679688 20.460938-32.8125 21.964844-1.738281.179687-3.496094.273437-5.273438.273437zm0-93.175781-22.808593 41.605469c-3.6875 6.734375-3.746094 14.542969-.144532 21.421875 3.8125 7.285156 10.921875 11.988281 19.488282 12.902344 2.261718.238281 4.660156.238281 6.9375 0 8.5625-.90625 15.667968-5.609375 19.484374-12.902344 3.601563-6.878906 3.539063-14.6875-.144531-21.421875zm0 0"/><path d="m85.332031 443.734375c-4.710937 0-8.53125-3.820313-8.53125-8.53125v-68.269531c0-4.707032 3.820313-8.53125 8.53125-8.53125 4.710938 0 8.535157 3.824218 8.535157 8.53125v68.269531c0 4.710937-3.824219 8.53125-8.535157 8.53125zm0 0"/><path d="m426.667969 401.070312c-1.777344 0-3.535157-.09375-5.25-.273437-14.148438-1.503906-26.410157-9.710937-32.820313-21.964844-6.195312-11.84375-6.082031-25.882812.300782-37.53125l30.292968-55.269531c2.996094-5.46875 11.972656-5.46875 14.96875 0l30.292969 55.269531c6.382813 11.648438 6.492187 25.6875.296875 37.53125-6.40625 12.253907-18.679688 20.460938-32.808594 21.964844-1.742187.179687-3.5.273437-5.273437.273437zm0-93.175781-22.8125 41.605469c-3.683594 6.734375-3.746094 14.542969-.144531 21.421875 3.816406 7.285156 10.921874 11.988281 19.492187 12.902344 2.261719.238281 4.660156.238281 6.9375 0 8.558594-.90625 15.667969-5.609375 19.480469-12.902344 3.601562-6.878906 3.542968-14.6875-.144532-21.421875zm0 0"/><path d="m426.667969 443.734375c-4.710938 0-8.535157-3.820313-8.535157-8.53125v-68.269531c0-4.707032 3.824219-8.53125 8.535157-8.53125 4.710937 0 8.53125 3.824218 8.53125 8.53125v68.269531c0 4.710937-3.820313 8.53125-8.53125 8.53125zm0 0"/><path d="m187.734375 418.136719c-1.777344 0-3.535156-.09375-5.25-.273438-14.148437-1.503906-26.410156-9.710937-32.816406-21.964843-6.195313-11.84375-6.085938-25.882813.296875-37.53125l30.292968-55.269532c2.996094-5.46875 11.972657-5.46875 14.96875 0l30.292969 55.269532c6.382813 11.648437 6.492188 25.6875.296875 37.53125-6.40625 12.253906-18.679687 20.460937-32.808594 21.964843-1.742187.179688-3.5.273438-5.273437.273438zm0-93.175781-22.8125 41.609374c-3.683594 6.730469-3.746094 14.539063-.144531 21.417969 3.816406 7.285157 10.925781 11.988281 19.492187 12.902344 2.261719.238281 4.660157.238281 6.9375 0 8.558594-.90625 15.667969-5.609375 19.480469-12.902344 3.601562-6.878906 3.542969-14.6875-.144531-21.417969zm0 0"/><path d="m187.734375 443.734375c-4.710937 0-8.535156-3.820313-8.535156-8.53125v-51.199219c0-4.710937 3.824219-8.535156 8.535156-8.535156s8.53125 3.824219 8.53125 8.535156v51.199219c0 4.710937-3.820313 8.53125-8.53125 8.53125zm0 0"/><path d="m162.132812 290.136719c-2.21875 0-4.394531-.863281-6.03125-2.5l-23.628906-23.628907c-2.980468-2.980468-3.335937-7.679687-.847656-11.078124l57.765625-78.769532c3.214844-4.386718 10.546875-4.386718 13.761719 0l69.480468 94.746094c1.652344 2.25 2.097657 5.160156 1.191407 7.804688-.902344 2.648437-3.042969 4.679687-5.722657 5.445312l-26.8125 7.65625c-1.816406.527344-3.753906.417969-5.511718-.28125l-39.109375-15.644531-30.703125 15.351562c-1.230469.597657-2.535156.898438-3.832032.898438zm34.132813-34.132813c1.078125 0 2.152344.203125 3.167969.605469l39.960937 15.980469 12.21875-3.488282-55.347656-75.46875-46.546875 63.480469 14.105469 14.105469 28.628906-14.320312c1.195313-.597657 2.5-.894532 3.8125-.894532zm0 0"/><path d="m315.734375 221.867188c-2.203125 0-4.386719-.851563-6.035156-2.5l-18.234375-18.234376-11.289063 16.9375c-3.167969 4.753907-11.035156 4.753907-14.199219 0l-20.394531-30.582031c-1.929687-2.894531-1.914062-6.683593.058594-9.550781l37.460937-54.75c1.585938-2.3125 4.207032-3.710938 7.015626-3.71875 2.917968-.394531 5.433593 1.355469 7.039062 3.667969l49.066406 70.664062c1.332032 1.921875 1.816406 4.292969 1.347656 6.582031-.46875 2.285157-1.859374 4.28125-3.832031 5.519532l-23.464843 14.667968c-1.410157.871094-2.976563 1.296876-4.539063 1.296876zm-25.601563-42.664063c2.253907 0 4.429688.886719 6.035157 2.5l20.800781 20.804687 10.121094-6.324218-36.898438-53.144532-27.210937 39.773438 10.085937 15.136719 9.96875-14.949219c1.414063-2.132812 3.710938-3.507812 6.253906-3.753906.28125-.035156.5625-.042969.84375-.042969zm0 0"/><path d="m503.464844 443.734375h-119.464844c-2.722656 0-5.273438-1.296875-6.878906-3.488281l-157.300782-214.496094c-2.144531-2.917969-2.210937-6.875-.164062-9.863281l63.429688-92.707031c1.585937-2.3125 4.207031-3.710938 7.011718-3.71875 2.921875-.394532 5.4375 1.355468 7.042969 3.667968l125.976563 181.402344c1.84375 2.664062 2.03125 6.125.476562 8.96875l-19.726562 36c-3.6875 6.734375-3.738282 14.542969-.148438 21.421875 3.816406 7.285156 10.914062 11.988281 19.492188 12.902344 2.253906.238281 4.660156.238281 6.929687 0 9.597656-1.015625 17.535156-7.058594 20.710937-15.769531 1.089844-2.996094 3.761719-5.136719 6.917969-5.539063 3.148438-.402344 6.289063.972656 8.109375 3.59375l44.601563 64.230469c1.808593 2.609375 2.023437 6.003906.554687 8.820312-1.476562 2.808594-4.394531 4.574219-7.570312 4.574219zm-115.136719-17.066406h98.824219l-27.777344-40.003907c-6.792969 7.832032-16.488281 12.960938-27.453125 14.121094-3.453125.359375-7.0625.359375-10.511719 0-14.140625-1.5-26.410156-9.710937-32.820312-21.960937-6.195313-11.847657-6.082032-25.875.300781-37.53125l17.195313-31.367188-115.902344-166.886719-53.023438 77.5zm0 0"/><path d="m384 443.734375h-375.464844c-3.21875 0-6.164062-1.808594-7.613281-4.675781-1.449219-2.867188-1.167969-6.3125.734375-8.898438l45.507812-62.054687c1.792969-2.449219 4.761719-3.714844 7.773438-3.441407 3.019531.324219 5.640625 2.21875 6.886719 4.984376 3.566406 7.929687 11.058593 13.226562 20.042969 14.175781 2.253906.238281 4.660156.238281 6.929687 0 8.570313-.90625 15.667969-5.609375 19.484375-12.894531 3.597656-6.878907 3.546875-14.6875-.148438-21.417969l-17.636718-32.179688c-1.597656-2.902343-1.355469-6.46875.605468-9.148437l98.277344-134.023438c3.21875-4.386718 10.546875-4.386718 13.765625 0l187.734375 256c1.902344 2.59375 2.183594 6.03125.734375 8.898438-1.453125 2.867187-4.394531 4.675781-7.613281 4.675781zm-358.628906-17.066406h341.785156l-170.890625-233.035157-88.183594 120.25 15.027344 27.417969c6.382813 11.65625 6.496094 25.6875.300781 37.53125-6.410156 12.253907-18.679687 20.453125-32.8125 21.953125-3.457031.359375-7.066406.359375-10.511718 0-10.367188-1.097656-19.574219-5.699218-26.300782-12.859375zm0 0"/><path d="m230.398438 102.402344c-4.707032 0-8.53125-3.824219-8.53125-8.535156 0-9.410157-7.65625-17.066407-17.066407-17.066407-4.710937 0-8.535156-3.820312-8.535156-8.53125 0-4.710937 3.824219-8.535156 8.535156-8.535156 9.078125 0 17.339844 3.566406 23.464844 9.371094 8.738281-15.753907 25.550781-26.4375 44.800781-26.4375 4.710938 0 8.535156 3.824219 8.535156 8.535156s-3.824218 8.53125-8.535156 8.53125c-18.824218 0-34.132812 15.308594-34.132812 34.132813 0 4.710937-3.824219 8.535156-8.535156 8.535156zm0 0"/><path d="m477.867188 93.867188h-85.332032c-18.828125 0-34.136718-15.308594-34.136718-34.132813 0-19.976563 17.605468-36.042969 37.617187-33.945313 6.628906-15.34375 21.9375-25.78515575 39.183594-25.78515575 17.246093 0 32.554687 10.44140575 39.1875 25.78515575 20.035156-2.089843 37.613281 13.96875 37.613281 33.945313 0 18.824219-15.308594 34.132813-34.132812 34.132813zm-85.332032-51.199219c-9.414062 0-17.070312 7.65625-17.070312 17.066406 0 9.414063 7.65625 17.066406 17.070312 17.066406h85.332032c9.410156 0 17.066406-7.652343 17.066406-17.066406 0-11.40625-11.417969-20.417969-23.203125-15.863281-2.347657.898437-4.972657.734375-7.183594-.476563-2.210937-1.210937-3.765625-3.335937-4.265625-5.804687-2.382812-11.886719-12.929688-20.519532-25.082031-20.519532-12.152344 0-22.699219 8.632813-25.085938 20.519532-.496093 2.46875-2.058593 4.59375-4.269531 5.804687-2.207031 1.210938-4.835938 1.375-7.183594.476563-2.054687-.800782-4.121094-1.203125-6.125-1.203125zm0 0"/><path d="m119.464844 162.136719h-85.332032c-18.824218 0-34.132812-15.308594-34.132812-34.132813 0-19.976562 17.597656-36.082031 37.613281-33.949218 6.632813-15.339844 21.941407-25.785157 39.1875-25.785157 17.246094 0 32.554688 10.445313 39.183594 25.785157 20.027344-2.132813 37.617187 13.972656 37.617187 33.949218 0 18.824219-15.308593 34.132813-34.136718 34.132813zm-85.332032-51.203125c-9.410156 0-17.066406 7.65625-17.066406 17.070312 0 9.410156 7.65625 17.066406 17.066406 17.066406h85.332032c9.414062 0 17.070312-7.65625 17.070312-17.066406 0-11.417968-11.417968-20.414062-23.203125-15.867187-2.347656.898437-4.976562.726562-7.1875-.476563-2.207031-1.210937-3.761719-3.335937-4.265625-5.800781-2.378906-11.886719-12.925781-20.523437-25.078125-20.523437-12.152343 0-22.699219 8.636718-25.089843 20.523437-.492188 2.464844-2.054688 4.589844-4.265626 5.800781-2.210937 1.210938-4.839843 1.382813-7.183593.476563-2.058594-.800781-4.125-1.203125-6.128907-1.203125zm0 0"/></svg>
