<svg xmlns="http://www.w3.org/2000/svg" width="92" height="78" fill="#0089d0"><path d="M31.8 35.5H19.5c-1.5 0-2.7-.5-3.8-1.6-1-1-1.5-2.3-1.5-3.8v-1.8c0-3.9 1.4-7.3 4.1-10 2.8-2.8 6.1-4.2 10-4.2h3.5c1 0 1.8-.4 2.5-1.1.7-.7 1.1-1.5 1.1-2.5v-7c0-1-.4-1.8-1.1-2.5-.7-.6-1.5-1-2.5-1h-3.5c-3.8 0-7.5.7-11 2.2-3.5 1.5-6.5 3.5-9 6.1-2.5 2.5-4.6 5.6-6.1 9.1S0 24.5 0 28.4v39c0 3 1 5.5 3.1 7.5C5.2 77 7.7 78 10.6 78h21.2c2.9 0 5.5-1 7.5-3.1 2.1-2.1 3.1-4.6 3.1-7.5V46.1c0-3-1-5.5-3.1-7.5-2-2.1-4.5-3.1-7.5-3.1zm57.1 3.1c-2.1-2.1-4.6-3.1-7.5-3.1H69c-1.5 0-2.7-.5-3.8-1.6-1-1-1.5-2.3-1.5-3.8v-1.8c0-3.9 1.4-7.3 4.1-10 2.8-2.8 6.1-4.2 10-4.2h3.5c1 0 1.8-.4 2.5-1.1.7-.7 1.1-1.5 1.1-2.5v-7c0-1-.4-1.8-1.1-2.5-.6-.6-1.5-1-2.4-1h-3.5c-3.8 0-7.5.7-11 2.2-3.5 1.5-6.5 3.5-9 6.1-2.5 2.5-4.6 5.6-6.1 9.1s-2.2 7.2-2.2 11v39c0 3 1 5.5 3.1 7.5 2.1 2.1 4.6 3.1 7.5 3.1h21.2c2.9 0 5.5-1 7.5-3.1 2.1-2.1 3.1-4.6 3.1-7.5V46.1c0-3-1-5.5-3.1-7.5z"/></svg>