<svg height="512pt" viewBox="0 -6 512 511" width="512pt" xmlns="http://www.w3.org/2000/svg" fill="#f7a22e"><path d="m496.765625 469.328125h-45.957031v-14.984375c0-57.839844-47.054688-104.898438-104.894532-104.898438h-14.988281v-22.785156c33.632813-22.554687 56.597657-59.828125 59.601563-102.527344 22.414062-23.035156 32.570312-54.367187 27.867187-86.207031-4.316406-29.226562-20.375-54.386719-44.546875-70.328125-.691406-17.339844-7.824218-33.929687-20.515625-46.621094-20.378906-20.375-51.765625-26.203124-78.101562-14.5l-118.917969 52.851563c-30.8125 13.695313-52.882812 41.664063-59.039062 74.820313-5.777344 31.113281 3.167968 63 24.003906 86.511718 1.96875 44.144532 25.253906 82.835938 59.796875 106v22.785156h-14.988281c-57.839844 0-104.894532 47.058594-104.894532 104.898438v14.984375h-45.957031c-8.273437 0-14.984375 6.710937-14.984375 14.984375 0 8.277344 6.710938 14.988281 14.984375 14.988281h481.53125c8.273437 0 14.984375-6.710937 14.984375-14.988281 0-8.273438-6.710938-14.984375-14.984375-14.984375zm-121.539063-273.304687-83.945312-41.574219 35.664062-17.667969c18.058594-6.324219 32.375-19.414062 40.269532-36.3125 11.515625 10.933594 19.113281 25.480469 21.53125 41.832031 2.851562 19.335938-2.039063 38.40625-13.519532 53.722657zm-248.488281-56.40625c4.417969-23.789063 19.636719-43.074219 41.75-52.902344l118.914063-52.851563c15.085937-6.703125 33.0625-3.367187 44.734375 8.304688 21.144531 21.148437 12.601562 57.101562-15.707031 66.535156-.652344.21875-1.292969.484375-1.910157.789063l-174.71875 86.535156c-12.089843-16.074219-16.828125-36.121094-13.0625-56.410156zm24.765625 84.0625 106.015625-52.507813 103.097657 51.0625c-3.933594 54.277344-49.351563 97.238281-104.617188 97.238281-54.773438.003906-99.867188-42.199218-104.496094-95.792968zm-60.34375 230.664062c0-41.316406 33.613282-74.925781 74.925782-74.925781h29.972656c8.277344 0 14.984375-6.710938 14.984375-14.988281v-22.699219c14.070312 4.988281 29.199219 7.714843 44.957031 7.714843s30.886719-2.726562 44.957031-7.714843v22.699219c0 8.277343 6.707031 14.988281 14.984375 14.988281h29.972656c41.3125 0 74.925782 33.609375 74.925782 74.925781v14.984375h-59.941406v-14.984375c0-24.789062-20.167969-44.957031-44.957032-44.957031h-119.882812c-24.789063 0-44.957032 20.167969-44.957032 44.957031v14.984375h-59.941406zm239.765625 14.984375h-149.851562v-14.984375c0-8.265625 6.722656-14.984375 14.984375-14.984375h119.882812c8.261719 0 14.984375 6.71875 14.984375 14.984375zm0 0"/><path d="m67.183594 301.492188c3.285156 2.460937 5.246094 6.382812 5.246094 10.488281s-1.960938 8.027343-5.246094 10.492187c-6.621094 4.964844-7.960938 14.359375-2.996094 20.980469 2.945312 3.921875 7.445312 5.992187 12 5.992187 3.128906 0 6.285156-.976562 8.980469-2.996093 10.789062-8.09375 17.230469-20.976563 17.230469-34.46875 0-13.488281-6.441407-26.371094-17.230469-34.464844-3.285157-2.460937-5.246094-6.386719-5.246094-10.488281 0-4.105469 1.960937-8.027344 5.246094-10.492188 6.621093-4.964844 7.960937-14.359375 2.996093-20.980468-4.964843-6.617188-14.359374-7.960938-20.980468-2.996094-10.789063 8.09375-17.230469 20.976562-17.230469 34.46875 0 13.488281 6.441406 26.371094 17.230469 34.464844zm0 0"/><path d="m17.234375 181.609375c6.976563 5.230469 6.984375 15.742187 0 20.980469-6.621094 4.964844-7.964844 14.359375-3 20.976562 4.992187 6.65625 14.390625 7.941406 20.980469 3 10.792968-8.09375 17.234375-20.980468 17.234375-34.46875 0-13.488281-6.441407-26.371094-17.234375-34.464844-6.976563-5.230468-6.984375-15.742187 0-20.980468 6.621094-4.964844 7.964844-14.359375 2.996094-20.980469-4.964844-6.617187-14.355469-7.960937-20.976563-2.996094-10.792969 8.09375-17.234375 20.976563-17.234375 34.46875 0 13.488281 6.441406 26.371094 17.234375 34.464844zm0 0"/><path d="m426.832031 256.535156c3.285157 2.464844 5.246094 6.386719 5.246094 10.492188 0 4.101562-1.960937 8.027344-5.246094 10.488281-10.789062 8.09375-17.230469 20.976563-17.230469 34.464844 0 13.492187 6.441407 26.375 17.230469 34.46875 2.695313 2.019531 5.851563 2.996093 8.980469 2.996093 4.554688 0 9.054688-2.070312 12-5.992187 4.964844-6.621094 3.625-16.015625-2.996094-20.980469-3.285156-2.464844-5.246094-6.386718-5.246094-10.492187s1.960938-8.027344 5.246094-10.488281c10.789063-8.09375 17.230469-20.976563 17.230469-34.464844 0-13.492188-6.441406-26.375-17.230469-34.46875-6.621094-4.964844-16.015625-3.621094-20.980468 2.996094-4.964844 6.621093-3.625 16.015624 2.996093 20.980468zm0 0"/><path d="m476.785156 157.632812c-10.792968 8.09375-17.234375 20.976563-17.234375 34.464844 0 13.488282 6.441407 26.375 17.234375 34.46875 6.589844 4.941406 15.988282 3.652344 20.980469-3 4.964844-6.617187 3.621094-16.011718-3-20.976562-6.976563-5.234375-6.984375-15.742188 0-20.980469 10.792969-8.09375 17.234375-20.976563 17.234375-34.464844 0-13.492187-6.441406-26.375-17.234375-34.46875-6.617187-4.964843-16.011719-3.621093-20.976563 2.996094-4.96875 6.621094-3.625 16.015625 2.996094 20.980469 6.976563 5.234375 6.984375 15.742187 0 20.980468zm0 0"/><path d="m256 301.917969c15.324219 0 29.730469-5.96875 40.566406-16.804688 5.851563-5.851562 5.851563-15.339843 0-21.191406-5.851562-5.851563-15.339844-5.851563-21.191406 0-10.683594 10.683594-28.066406 10.683594-38.75 0-5.851562-5.851563-15.339844-5.851563-21.191406 0-5.851563 5.851563-5.851563 15.339844 0 21.191406 10.835937 10.835938 25.242187 16.804688 40.566406 16.804688zm0 0"/></svg>