<svg xmlns="http://www.w3.org/2000/svg" width="22" height="22" viewBox="0 0 45.16 45.16" fill="#ffb244"><path d="M22.58 11.269c-6.237 0-11.311 5.075-11.311 11.312s5.074 11.312 11.311 11.312c6.236 0 11.311-5.074 11.311-11.312S28.816 11.269 22.58 11.269zm0-3.325a2.207 2.207 0 0 1-2.207-2.206V2.207a2.207 2.207 0 1 1 4.414 0v3.531a2.207 2.207 0 0 1-2.207 2.206zm0 29.271a2.207 2.207 0 0 0-2.207 2.207v3.53a2.207 2.207 0 1 0 4.414 0v-3.53a2.208 2.208 0 0 0-2.207-2.207zm10.348-24.984a2.208 2.208 0 0 1 0-3.121l2.497-2.497a2.207 2.207 0 1 1 3.121 3.121l-2.497 2.497a2.207 2.207 0 0 1-3.121 0zM12.231 32.93a2.205 2.205 0 0 0-3.121 0l-2.497 2.496a2.207 2.207 0 0 0 3.121 3.121l2.497-2.498a2.204 2.204 0 0 0 0-3.119zm24.984-10.35c0-1.219.988-2.207 2.207-2.207h3.531a2.207 2.207 0 1 1 0 4.413h-3.531a2.206 2.206 0 0 1-2.207-2.206zm-29.271 0a2.207 2.207 0 0 0-2.207-2.207h-3.53a2.207 2.207 0 1 0 0 4.413h3.531a2.206 2.206 0 0 0 2.206-2.206zm24.984 10.35a2.208 2.208 0 0 1 3.121 0l2.497 2.497a2.205 2.205 0 1 1-3.121 3.12l-2.497-2.497a2.205 2.205 0 0 1 0-3.12zM12.231 12.231a2.207 2.207 0 0 0 0-3.121L9.734 6.614a2.207 2.207 0 0 0-3.121 3.12l2.497 2.497a2.205 2.205 0 0 0 3.121 0z"/></svg>