<svg version="1.1" id="icon-tour-jeep" xmlns="http://www.w3.org/2000/svg" xmlns:xlink="http://www.w3.org/1999/xlink" x="0px" y="0px"
	 viewBox="0 0 488 488" style="enable-background:new 0 0 488 488;" xml:space="preserve">
<style type="text/css">
	.st0{stroke:#000000;stroke-width:6;stroke-miterlimit:10;}
</style>
<g transform="translate(0 -540.36)">
	<g>
		<g>
			<path class="st0" d="M385.1,823.1c-14.4,0-27.7,5.2-37.6,14.7c-9.8,9.4-15.2,21.8-15.2,35.1c0,28.3,23.2,50.5,52.8,50.5l0,0
				c14.4,0,27.8-5.2,37.9-14.8c10.1-9.5,15.7-22.2,15.7-35.7C438.7,845.4,414.6,823.1,385.1,823.1z M385.1,907
				c-20,0-35.5-15-35.5-34.2c0-18.8,15.7-33.5,35.5-33.5c20,0,36.2,15,36.2,33.5C421.4,892,405.5,907,385.1,907z"/>
			<path class="st0" d="M103.5,823.1c-14.4,0-27.7,5.2-37.6,14.7c-9.8,9.4-15.2,21.8-15.2,35.1c0,28.3,23.2,50.5,52.8,50.5l0,0
				c14.4,0,27.8-5.2,37.9-14.8c10.1-9.5,15.7-22.2,15.7-35.7C157.1,845.4,133,823.1,103.5,823.1z M103.5,907
				c-20,0-35.5-15-35.5-34.2c0-18.8,15.7-33.5,35.5-33.5c20,0,36.2,15,36.2,33.5C139.8,892,123.9,907,103.5,907z"/>
			<path class="st0" d="M452.5,816.5L452.5,816.5L435,799.7c-1.6-1.5-3.9-2.4-6.1-2.4h-8.2v-59.3c0-4.5-3.9-8.2-8.6-8.2H270.6v-76.2
				c0-4.5-3.9-8.2-8.6-8.2H42.3c-4.8,0-8.6,3.7-8.6,8.2L33,831c0,3.3,2.1,6.3,5.4,7.6c3.3,1.2,7,0.6,9.4-1.8L72,813.6h54.3
				l67.9,57.3c1.6,1.3,3.6,2,5.8,2h105.6c3.1,0,6.1-1.6,7.5-4.2l32.7-55.2h79.3l15,14.4c3.4,3.2,8.8,3.3,12.2,0.1
				C455.8,824.9,455.9,819.7,452.5,816.5z M174.3,661.7h79.1v68.6l-17.6-12.5l6.4-8.2c2.7-3.7,1.9-8.8-1.9-11.5l0,0
				c-3.8-2.7-9.3-2-12.1,1.7l-26,33.1c-2.9,3.6-2.1,8.7,1.8,11.4c1.6,1.1,3.4,1.6,5.2,1.6c2.7,0,5.3-1.1,6.9-3.3l9.3-11.8l27.9,19.8
				v12.7h-79.1V661.7z M156.9,817.4l-21.4-18.1c-1.6-1.4-3.7-2.1-5.9-2.1l0,0H68.3c-2.3,0-4.6,0.9-6.1,2.4L50.3,811L51,661.7h105.9
				V817.4z M403.3,763.5L403.3,763.5h-35.8c-4.8,0-8.6,3.7-8.6,8.2c0,4.5,3.9,8.2,8.6,8.2h35.7v17.4h-62.4c-3.1,0-6.1,1.6-7.5,4.2
				l-32.7,55.2h-97.2l-29.1-24.6v-52.3H262c4.8,0,8.6-3.7,8.6-8.2V746h132.7L403.3,763.5L403.3,763.5z"/>
		</g>
	</g>
</g>
</svg>
