<svg id="icon-sheep" height="512" viewBox="0 -10 512.00206 512" width="512" xmlns="http://www.w3.org/2000/svg"><path d="m86.617188 85.195312c-8.0625 0-15.785157 7.085938-15.414063 15.410157.375 8.351562 6.773437 15.414062 15.414063 15.414062 8.0625 0 15.785156-7.089843 15.414062-15.414062-.375-8.347657-6.773438-15.410157-15.414062-15.410157zm0 0"/><path d="m448.328125 204.105469c-13.507813-23.816407-39.082031-39.933594-68.363281-39.933594h-104.097656c-19.636719 0-37.050782-11.304687-45.273438-28.453125 20.726562-7.316406 35.621094-27.097656 35.621094-50.296875 0-28.738281-22.851563-52.238281-51.335938-53.289063-8.257812-19.050781-27.246094-32.132812-48.933594-32.132812-23.039062 0-42.710937 14.6875-50.148437 35.191406l-69.320313 14.058594c-26.929687 5.460938-46.476562 29.371094-46.476562 56.851562 0 31.984376 26.023438 58.003907 58.007812 58.003907h38.617188v130.375c0 28.792969 19.773438 53.054687 46.453125 59.921875v27.339844c0 8.511718 6.902344 15.410156 15.414063 15.410156h1.085937v78.585937c0 8.511719 6.902344 15.414063 15.414063 15.414063 35.574218 0 64.519531-28.945313 64.519531-64.523438v-29.476562h1.085937c8.511719 0 15.414063-6.898438 15.414063-15.410156v-25.398438h89.578125v25.398438c0 8.511718 6.902344 15.410156 15.414062 15.410156h1.085938v78.585937c0 8.511719 6.898437 15.410157 15.410156 15.410157 35.578125 0 64.523438-28.941407 64.523438-64.519532v-29.476562h1.085937c8.511719 0 15.414063-6.902344 15.414063-15.414063v-40.296875c30.585937-7.019531 53.480468-34.441406 53.480468-67.128906v-1.535156c-.003906-36.226563-28.121094-65.992188-63.675781-68.671875zm-294.34375-131.722657c-6.601563-4.160156-10.542969-11.28125-10.542969-19.054687 0-12.40625 10.09375-22.5 22.503906-22.5 11.34375 0 20.941407 8.476563 22.320313 19.714844.539063 4.394531 2.9375 8.339843 6.589844 10.84375 3.652343 2.5 8.203125 3.308593 12.492187 2.222656 1.800782-.457031 3.664063-.6875 5.539063-.6875 12.410156 0 22.503906 10.09375 22.503906 22.5s-10.09375 22.5-22.503906 22.5c-1.871094 0-3.738281-.230469-5.542969-.6875-4.289062-1.082031-8.839844-.273437-12.488281 2.226563-3.652344 2.5-6.050781 6.449218-6.589844 10.839843-1.378906 11.238281-10.972656 19.714844-22.320313 19.714844-12.40625 0-22.5-10.09375-22.5-22.5 0-7.773437 3.9375-14.894531 10.539063-19.054687 4.476563-2.820313 7.195313-7.746094 7.195313-13.039063s-2.714844-10.214844-7.195313-13.039063zm-38.984375 60.898438h-56.992188c-14.988281 0-27.183593-12.195312-27.183593-27.179688 0-12.878906 9.160156-24.082031 21.777343-26.640624l61.769532-12.527344c1.757812 6.710937 4.792968 12.984375 8.953125 18.488281-6.871094 9.09375-10.707031 20.273437-10.707031 32.089844 0 5.488281.835937 10.785156 2.382812 15.769531zm93.6875 293.351562c0 13.03125-7.433594 24.355469-18.285156 29.957032v-59.433594h18.285156zm202.507812 0c0 13.03125-7.429687 24.355469-18.28125 29.957032v-59.433594h18.28125zm16.5-60.304687h-51.28125v-25.394531c0-8.511719-6.902343-15.414063-15.414062-15.414063h-120.402344c-8.511718 0-15.414062 6.902344-15.414062 15.414063v25.394531h-51.28125v-25.394531c0-8.511719-6.902344-15.414063-15.414063-15.414063-17.113281 0-31.039062-13.921875-31.039062-31.039062v-130.375h12.59375c7.671875 4.285156 16.503906 6.738281 25.898437 6.738281 15.390625 0 29.417969-6.59375 39.222656-17.226562 14.058594 25.117187 40.777344 41.382812 70.703126 41.382812h104.09375c26.320312 0 47.734374 21.410156 47.734374 47.730469zm53.480469-92.015625c0 15.507812-9.324219 28.878906-22.65625 34.808594v-71.148438c13.332031 5.929688 22.65625 19.300782 22.65625 34.808594zm0 0"/></svg>
