<svg id="icon-tour-sled" height="511pt" viewBox="1 -85 511.99987 511" width="511pt" xmlns="http://www.w3.org/2000/svg"><path d="m473.605469 264.851562h-4.875c-20.605469 0-20.625 31.183594 0 31.183594h4.875c9.980469 0 9.980469 15.109375 0 15.109375h-96.851563v-18.679687c49.886719-.25 90.394532-40.914063 90.394532-90.863282v-60.46875c0-15.464843-12.578126-28.042968-28.035157-28.042968h-18.421875c-24.113281 0-45.519531 11.839844-58.710937 30.007812h-97.210938l-13.816406-78.210937c-3.917969-22.183594-23.109375-38.273438-45.632813-38.273438h-6.269531c-8.554687-15.769531-25.167969-26.113281-44.074219-26.113281h-45.136718c-66.3125 0-66.332032 100.363281 0 100.363281.46875 0 .84375.386719.84375.851563v113.203125c0 42.765625 34.792968 77.558593 77.554687 77.558593h30.636719v18.667969h-143.625c-20.601562 0-20.625 31.183594 0 31.183594h398.355469c51.191406 0 51.191406-77.476563 0-77.476563zm-331.738281-49.933593v-113.203125c0-17.730469-14.433594-32.035156-32.027344-32.035156-25.109375 0-25.109375-37.996094 0-37.996094h45.136718c9.375 0 17.265626 6.726562 18.753907 15.988281 2.324219 14.429687.125.773437 19.632812 122.070313 3.496094 21.734374 17.320313 39.375 36.03125 48.273437 8.492188 4.042969 17.992188 6.277344 27.992188 6.277344h83.296875c21.328125 0 38.691406-17.359375 38.691406-38.6875 0-22.71875 18.46875-41.332031 41.316406-41.332031h15.273438v57.328124c0 32.753907-26.527344 59.4375-59.210938 59.679688-.15625.007812-.3125.007812-.46875.007812-8.332031 0-179.78125 0-188.046875 0-25.550781 0-46.371093-20.777343-46.371093-46.371093zm78.378906-144.605469 13.960937 79.003906c2.558594 14.46875 15.074219 24.96875 29.769531 24.96875h85.09375c-.582031 3.6875-.882812 7.472656-.882812 11.320313 0 4.136719-3.367188 7.503906-7.503906 7.503906h-83.296875c-16.621094 0-30.601563-11.914063-33.230469-28.328125l-17.195312-106.890625c6.644531.707031 12.101562 5.707031 13.285156 12.421875zm29.8125 222.164062h95.511718v18.667969h-95.511718zm0 0"/><path d="m28.628906 209.53125h38.808594c20.601562 0 20.625-31.1875 0-31.1875h-38.808594c-20.605468 0-20.625 31.1875 0 31.1875zm0 0"/><path d="m54.269531 234.375h-38.808593c-20.601563 0-20.625 31.183594 0 31.183594h38.808593c20.605469 0 20.625-31.183594 0-31.183594zm0 0"/><path d="m15.460938 153.5h38.808593c20.605469 0 20.625-31.1875 0-31.1875h-38.808593c-20.605469 0-20.625 31.1875 0 31.1875zm0 0"/></svg>
