<svg width="27" height="27" viewBox="0 0 27 27" fill="ffffff" xmlns="http://www.w3.org/2000/svg">
<path d="M20.25 10.1251C20.25 4.53364 15.7166 0 10.125 0C4.53364 0 0 4.53364 0 10.1251C0 15.7165 4.53364 20.2499 10.125 20.2499C15.7166 20.2499 20.25 15.7165 20.25 10.1251ZM10.125 17.7185C5.93758 17.7185 2.53133 14.3126 2.53133 10.1251C2.53133 5.93764 5.93758 2.53139 10.125 2.53139C14.3124 2.53139 17.7189 5.93764 17.7189 10.1251C17.7189 14.3126 14.3124 17.7185 10.125 17.7185Z" fill="white"/>
<path d="M26.2584 22.6795L20.0641 16.4847C19.1412 17.9201 17.9198 19.1409 16.4844 20.0639L22.6791 26.2587C23.668 27.2474 25.2715 27.2474 26.2583 26.2587C27.2473 25.2716 27.2473 23.6681 26.2584 22.6795Z" fill="white"/>
</svg>
