<svg version="1.1" id="icon-tour-bear" xmlns="http://www.w3.org/2000/svg" xmlns:xlink="http://www.w3.org/1999/xlink" x="0px" y="0px"
	 viewBox="0 0 512 512" style="enable-background:new 0 0 512 512;" xml:space="preserve">
<g>
	<g>
		<path d="M461.499,121.045c7.694-12.186,12.167-26.599,12.167-42.045c0-43.561-35.439-79-79-79
			c-33.648,0-62.434,21.154-73.8,50.855c-20.336-3.127-42.042-4.727-64.866-4.727c-22.825,0-44.53,1.6-64.867,4.727
			C179.767,21.154,150.981,0,117.333,0c-43.561,0-79,35.439-79,79c0,15.446,4.473,29.859,12.167,42.046
			c-18.482,23.488-28.05,51.63-28.05,83.339c0,71.06,24.429,144.305,67.022,200.956c21.57,28.688,46.417,51.421,73.85,67.566
			c7.576,4.459,15.255,8.348,23.02,11.678C204.631,501.585,229.12,512,256,512s51.368-10.415,69.657-27.415
			c7.766-3.33,15.444-7.219,23.021-11.678c27.433-16.146,52.279-38.878,73.85-67.566c42.594-56.651,67.022-129.896,67.022-200.956
			C489.55,172.675,479.982,144.534,461.499,121.045z M394.666,30c27.019,0,49,21.981,49,49c0,7.007-1.489,13.67-4.151,19.704
			c-6.482-5.345-13.562-10.345-21.252-14.966c-19.279-11.583-41.92-20.593-67.283-26.888C359.083,40.935,375.616,30,394.666,30z
			 M117.333,30c19.05,0,35.583,10.935,43.687,26.851c-25.363,6.295-48.003,15.305-67.283,26.888
			c-7.69,4.621-14.77,9.621-21.253,14.966C69.822,92.67,68.333,86.008,68.333,79C68.333,51.981,90.314,30,117.333,30z M256,482
			c-39.925,0-72.407-32.481-72.407-72.407c0-55.95,50.109-117.713,72.407-142.425c22.303,24.718,72.406,86.479,72.406,142.425
			C328.406,449.519,295.925,482,256,482z M398.548,387.312c-12.985,17.271-27.221,32.053-42.509,44.191
			c1.545-7.062,2.367-14.391,2.367-21.91c0-84.276-88.174-171.329-91.928-174.993L256,224.37l-10.479,10.23
			c-3.753,3.665-91.929,90.716-91.929,174.993c0,7.519,0.822,14.848,2.367,21.909c-15.288-12.137-29.523-26.919-42.509-44.19
			c-38.766-51.561-61-118.236-61-182.927c0-94.564,105.148-128.257,203.55-128.257c59.756,0,110.523,11.524,146.813,33.326
			c37.647,22.619,56.736,54.558,56.736,94.931C459.549,269.076,437.315,335.751,398.548,387.312z"/>
	</g>
</g>
<g>
	<g>
		<rect x="144" y="236.67" width="30" height="30"/>
	</g>
</g>
<g>
	<g>
		<rect x="338" y="236.67" width="30" height="30"/>
	</g>
</g>
<g>
	<g>
		<polygon points="290.346,378.63 256,401.527 221.653,378.63 205.013,403.592 256,437.583 306.986,403.592 		"/>
	</g>
</g>
<g>
</g>
<g>
</g>
<g>
</g>
<g>
</g>
<g>
</g>
<g>
</g>
<g>
</g>
<g>
</g>
<g>
</g>
<g>
</g>
<g>
</g>
<g>
</g>
<g>
</g>
<g>
</g>
<g>
</g>
</svg>
