<svg version="1.1" id="icon-tour-autoexc" xmlns="http://www.w3.org/2000/svg" xmlns:xlink="http://www.w3.org/1999/xlink" x="0px" y="0px"
	 viewBox="0 0 575 575" style="enable-background:new 0 0 575 575;" xml:space="preserve">
<style type="text/css">
	.st0{stroke:#000000;stroke-width:4;stroke-miterlimit:10;}
</style>
<g id="surface1">
	<path class="st0" d="M555.8,186.1h-37c-5.1,0-9.2,4.1-9.2,9.3v11.9l-12-26.9c-6-13.3-19.2-22-33.8-22H229.9
		c-13.4,0-25.8,7.3-32.4,19L161.6,242l-116.9,7.3c-19.5,1.3-34.6,17.4-34.6,36.9v66.4c0,5.1,4.1,9.2,9.3,9.2h19.2
		c5.1,35.4,37.9,59.9,73.2,54.8c28.4-4.1,50.7-26.4,54.8-54.8h195.7c5.1,35.4,37.9,59.9,73.2,54.8c28.4-4.1,50.7-26.4,54.8-54.8
		h28.5c5.1,0,9.2-4.1,9.2-9.2v-37h27.7c5.1,0,9.2-4.1,9.2-9.2v-111C565,190.3,560.9,186.1,555.8,186.1z M102.5,398.9
		c-25.5,0-46.2-20.7-46.2-46.2c0-25.5,20.7-46.2,46.2-46.2c25.5,0,46.2,20.7,46.2,46.2C148.7,378.2,128.1,398.9,102.5,398.9z
		 M148.8,307.4L148.8,307.4c-0.6-0.6-1.2-1.2-1.8-1.7c-0.9-0.8-1.7-1.6-2.6-2.4c-0.6-0.5-1.3-1.1-2-1.6c-0.9-0.7-1.8-1.4-2.8-2.1
		c-0.7-0.5-1.4-0.9-2.1-1.4c-0.9-0.6-1.9-1.2-2.9-1.8c-0.7-0.4-1.5-0.8-2.3-1.2c-1-0.5-2.1-1-3.1-1.5c-0.8-0.4-1.6-0.7-2.4-1
		c-1.1-0.4-2.2-0.8-3.3-1.2c-0.8-0.3-1.6-0.6-2.4-0.8c-1.2-0.4-2.4-0.6-3.6-0.9c-0.8-0.2-1.6-0.4-2.4-0.6c-1.4-0.3-2.7-0.5-4.1-0.6
		c-0.7-0.1-1.4-0.2-2.1-0.3c-2.1-0.2-4.2-0.3-6.3-0.3s-4.3,0.1-6.3,0.3c-0.7,0.1-1.4,0.2-2.1,0.3c-1.4,0.2-2.8,0.4-4.1,0.6
		c-0.8,0.2-1.6,0.4-2.4,0.6c-1.2,0.3-2.4,0.6-3.6,0.9c-0.8,0.2-1.6,0.5-2.4,0.8c-1.1,0.4-2.2,0.8-3.3,1.2c-0.8,0.3-1.6,0.7-2.4,1
		c-1.1,0.5-2.1,0.9-3.1,1.5c-0.8,0.4-1.5,0.8-2.3,1.2c-1,0.6-2,1.2-2.9,1.8c-0.7,0.5-1.4,0.9-2.1,1.4c-0.9,0.7-1.8,1.4-2.8,2.1
		c-0.7,0.5-1.3,1-2,1.6c-0.9,0.8-1.8,1.6-2.6,2.4c-0.6,0.5-1.2,1.1-1.7,1.7c-0.9,0.9-1.7,1.9-2.6,2.8c-0.5,0.5-0.9,1.1-1.4,1.6
		c-1,1.2-1.9,2.5-2.8,3.7c-0.2,0.4-0.5,0.7-0.8,1.1c-1.1,1.6-2.1,3.3-3.1,5.1c-0.3,0.5-0.5,1-0.8,1.5c-0.7,1.3-1.3,2.6-1.8,3.9
		c-0.3,0.7-0.5,1.4-0.8,2.1c-0.5,1.2-0.9,2.3-1.3,3.5c-0.3,0.8-0.5,1.6-0.7,2.4c-0.3,1.2-0.6,2.3-0.9,3.5c-0.2,0.9-0.3,1.7-0.5,2.6
		c-0.1,0.7-0.3,1.4-0.4,2.1h-9.9v-57.1c0-9.8,7.6-17.9,17.3-18.5l102.9-6.4V307.4z M417,176.9h46.7c7.3,0,13.9,4.3,16.9,11
		l23.9,53.8H417L417,176.9L417,176.9z M306,176.9h92.5v64.7H306V176.9z M287.5,343.4H167.3v-83.2h120.2V343.4z M287.5,241.6H183
		l30.7-55.2c3.3-5.9,9.4-9.5,16.2-9.5h57.7V241.6z M377.5,310.1c-0.5,0.5-0.9,1.1-1.4,1.6c-1,1.2-1.9,2.5-2.8,3.7
		c-0.2,0.4-0.5,0.7-0.8,1.1c-1.1,1.6-2.1,3.3-3.1,5.1c-0.3,0.5-0.5,1-0.8,1.5c-0.7,1.3-1.3,2.6-1.9,3.9c-0.3,0.7-0.5,1.4-0.8,2.1
		c-0.5,1.2-0.9,2.3-1.3,3.5c-0.3,0.8-0.5,1.6-0.7,2.4c-0.3,1.2-0.6,2.3-0.9,3.5c-0.2,0.9-0.3,1.7-0.5,2.6c-0.1,0.7-0.3,1.4-0.4,2.1
		H306v-83.2h92.5v34c-0.7,0.3-1.3,0.7-2,1c-0.7,0.3-1.5,0.8-2.3,1.2c-1,0.6-2,1.2-2.9,1.8c-0.7,0.5-1.4,0.9-2.1,1.4
		c-0.9,0.7-1.8,1.4-2.8,2.1c-0.7,0.5-1.3,1-2,1.6c-0.9,0.8-1.8,1.6-2.6,2.4c-0.6,0.5-1.2,1.1-1.7,1.7
		C379.2,308.2,378.4,309.2,377.5,310.1z M426.3,398.9c-25.5,0-46.2-20.7-46.2-46.2c0-25.5,20.7-46.2,46.2-46.2s46.2,20.7,46.2,46.2
		C472.5,378.2,451.8,398.9,426.3,398.9z M509.5,306.4v37h-19.2c-0.1-0.7-0.3-1.4-0.4-2.1c-0.2-0.9-0.3-1.8-0.5-2.6
		c-0.3-1.2-0.6-2.3-0.9-3.5c-0.2-0.8-0.4-1.6-0.7-2.4c-0.4-1.2-0.8-2.4-1.3-3.5c-0.3-0.7-0.5-1.4-0.8-2.1c-0.6-1.3-1.2-2.6-1.9-3.9
		c-0.3-0.5-0.5-1-0.8-1.5c-1-1.7-2-3.4-3.1-5.1c-0.2-0.4-0.5-0.7-0.8-1.1c-0.9-1.3-1.8-2.5-2.8-3.7c-0.5-0.6-0.9-1.1-1.4-1.6
		c-0.8-0.9-1.7-1.9-2.6-2.8c-0.6-0.6-1.2-1.1-1.7-1.7c-0.9-0.8-1.7-1.6-2.6-2.4c-0.6-0.5-1.3-1.1-2-1.6c-0.9-0.7-1.8-1.4-2.8-2.1
		c-0.7-0.5-1.4-0.9-2.1-1.4c-0.9-0.6-1.9-1.2-2.9-1.8c-0.7-0.4-1.5-0.8-2.3-1.2c-1-0.5-2.1-1-3.1-1.5c-0.8-0.4-1.6-0.7-2.4-1
		c-1.1-0.4-2.2-0.8-3.3-1.2c-0.8-0.3-1.6-0.6-2.4-0.8c-1.2-0.4-2.4-0.6-3.6-0.9c-0.8-0.2-1.6-0.4-2.4-0.6c-1.4-0.3-2.7-0.5-4.1-0.6
		c-0.7-0.1-1.4-0.2-2.1-0.3c-2.1-0.3-4.2-0.4-6.3-0.4s-4.3,0.1-6.3,0.3c-0.7,0.1-1.4,0.2-2.1,0.3l-0.9,0.1v-28.5h92.5V306.4z
		 M546.5,297.1H528v-92.5h18.5V297.1z"/>
	<path class="st0" d="M232,278.6h37v18.5h-37V278.6z"/>
	<path class="st0" d="M102.5,324.9c-15.3,0-27.7,12.4-27.7,27.7c0,15.3,12.4,27.7,27.7,27.7s27.7-12.4,27.7-27.7
		C130.3,337.3,117.9,324.9,102.5,324.9z M102.5,361.9c-5.1,0-9.3-4.1-9.3-9.2s4.1-9.3,9.3-9.3s9.2,4.1,9.2,9.3
		C111.8,357.7,107.6,361.9,102.5,361.9z"/>
	<path class="st0" d="M426.3,324.9c-15.3,0-27.7,12.4-27.7,27.7c0,15.3,12.4,27.7,27.7,27.7S454,368,454,352.6
		C454,337.3,441.6,324.9,426.3,324.9z M426.3,361.9c-5.1,0-9.3-4.1-9.3-9.2s4.1-9.3,9.3-9.3s9.3,4.1,9.3,9.3
		S431.4,361.9,426.3,361.9z"/>
</g>
</svg>
