<svg xmlns="http://www.w3.org/2000/svg" width="54" height="54" viewBox="0 0 535.89 535.889"><path d="M305.863 37.913c-19.832 3.873-32.856 23.055-28.983 42.907 3.873 19.842 23.18 32.847 43.021 28.955 19.843-3.863 32.742-23.151 28.859-42.993-3.871-19.842-23.035-32.742-42.897-28.869zM86.07 78.64c-18.781 3.662-31.097 21.821-27.435 40.612 3.672 18.781 21.937 31.078 40.708 27.406 18.791-3.663 30.992-21.917 27.32-40.688-3.672-18.791-21.812-31.003-40.593-27.33z"/><path d="M505.203 350.808c-5.804-10.893-15.166-10.873-20.922.057l-3.07 5.842-41.252-268.084-.211-.631c-1.491-4.284-6.263-6.684-10.662-5.145-3.959 1.377-5.929 5.527-5.412 9.696l15.902 103.16-51.981-2.783-26.651-57.241c-4.484-9.639-16.715-17.012-27.319-16.486l-33.688 3.041c-10.615.536-19.498 9.562-19.833 20.177L267.94 428.253c0 .201.058.393.067.594-2.839.41-5.565.938-7.936 1.674l-.307.096-46.789-304.012-.21-.593c-1.406-4.055-5.919-6.321-10.088-4.868-3.749 1.301-5.613 5.231-5.125 9.171l15.042 97.624-49.18-2.611-25.226-54.171c-4.236-9.123-15.807-16.104-25.857-15.597l-31.891 2.878c-10.041.507-18.456 9.056-18.762 19.106L50.163 448.058c.029 1.701.239 3.328.555 4.924.277 1.426.727 2.764 1.224 4.074l-11.111-4.074c-11.58-4.244-25.608 1.168-31.327 12.107l-7.21 13.779c-5.728 10.949-.354 19.795 11.982 19.795H500.28c12.345 0 24.317-9.803 26.727-21.908l8.004-39.971c2.42-12.107-.325-30.744-6.139-41.627l-23.669-44.349zm-371.311 87.285l-24.002 19.719c-4.705 3.863-11.255 6.502-18.083 7.707 3.949-3.959 6.521-9.17 7.048-14.832l5.938-140.711 62.31 120.037c-11.131-1.836-24.997 1.34-33.211 8.08zm76.682 3.004c4.619-5.441 6.875-12.785 5.394-20.379-.354-1.816-.909-3.471-1.559-5.164l-81.597-160.372.65-20.693 6.588 14.898c5.173 9.515 14.621 8.73 14.621 8.73l58.121 3.241a18.574 18.574 0 0 0 3.366-.334c.507-.096.966-.297 1.444-.431l26.938 174.764-10.624 3.299c-6.416 2-14.984 2.775-23.342 2.441zm108.687-3.519l-1.291-.469c.688-1.961 1.225-3.979 1.415-6.082l6.273-148.688 61.611 118.729-30.705 28.803c-8.989 8.433-25.704 11.884-37.303 7.707zm117.256-53.416l-81.253-159.694.679-21.87 6.972 15.74c5.46 10.05 15.452 9.228 15.452 9.228l61.411 3.414a19.704 19.704 0 0 0 3.557-.344c.536-.105 1.023-.315 1.54-.459l22.414 145.427c-6.751 5.164-15.252 8.559-22.883 8.559h-7.889z"/></svg>