<svg version="1.1" id="icon-tour-diving" xmlns="http://www.w3.org/2000/svg" xmlns:xlink="http://www.w3.org/1999/xlink" x="0px" y="0px"
	 viewBox="0 0 512 512" style="enable-background:new 0 0 512 512;" xml:space="preserve">
<g>
	<g>
		<rect x="271" y="422" width="30" height="30"/>
	</g>
</g>
<g>
	<g>
		<path d="M471.151,112.937C450.057,63.754,400.327,31,346,31H226c-54.327,0-104.057,32.754-125.151,81.937
			c-3.836,2.969-7.46,6.198-10.849,9.66V0H0c0,15.479,0,301.888,0,317c0,90.981,74.019,165,165,165h61.041
			c13.697,18.204,35.475,30,59.959,30c41.355,0,75-33.645,75-75c0-41.355-33.645-75-75-75c-24.484,0-46.262,11.796-59.959,30H165
			c-41.355,0-75-33.645-75-75v-47.596C109.073,288.887,135.646,301,165,301h30c9.797,0,19.286-1.329,28.298-3.805
			C236.991,318.086,260.36,331,286,331c25.571,0,48.882-12.844,62.59-33.637C357.332,299.729,366.52,301,376,301h31
			c57.897,0,105-47.103,105-105C512,162.241,495.982,132.158,471.151,112.937z M286,392c24.813,0,45,20.187,45,45s-20.187,45-45,45
			s-45-20.187-45-45S261.187,392,286,392z M30,30h30v151H30V30z M30,211h31.076c1.521,10.588,4.625,20.671,9.069,30H30V211z
			 M165,422h47.509c-0.988,4.848-1.509,9.864-1.509,15s0.521,10.152,1.509,15H165c-74.439,0-135-60.561-135-135v-46h30v46
			C60,374.897,107.103,422,165,422z M226,61h120c28.634,0,55.619,11.625,75.177,30.96C416.539,91.332,411.808,91,407,91
			c-8.037,0-233.779,0-242,0c-4.808,0-9.539,0.332-14.177,0.96C170.381,72.625,197.366,61,226,61z M195,271h-30
			c-41.355,0-75-33.645-75-75s33.645-75,75-75h106v75C271,237.355,236.907,271,195,271z M286,301
			c-13.617,0-26.166-6.07-34.569-16.156c14.072-8.802,25.918-20.79,34.498-34.935c8.56,14.248,20.404,26.306,34.476,35.125
			C312.004,295.004,299.531,301,286,301z M407,271h-31c-41.355,0-75-33.645-75-75v-75h106c41.355,0,75,33.645,75,75
			S448.355,271,407,271z"/>
	</g>
</g>
<g>
</g>
<g>
</g>
<g>
</g>
<g>
</g>
<g>
</g>
<g>
</g>
<g>
</g>
<g>
</g>
<g>
</g>
<g>
</g>
<g>
</g>
<g>
</g>
<g>
</g>
<g>
</g>
<g>
</g>
</svg>
