<svg version="1.1" id="icon-tour-weekend" xmlns="http://www.w3.org/2000/svg" xmlns:xlink="http://www.w3.org/1999/xlink" x="0px" y="0px"
	 viewBox="0 0 59 59" style="enable-background:new 0 0 59 59;" xml:space="preserve">
<style type="text/css">
	.st0{stroke:#000000;stroke-miterlimit:10;}
</style>
<g>
	<path class="st0" d="M52.1,40.7c-0.1-0.3-0.3-0.5-0.6-0.5l-6-0.8l-2.7-5.2c-0.3-0.5-1.1-0.5-1.4,0l-2.7,5.2l-6,0.8
		c-0.3,0-0.5,0.2-0.6,0.5c-0.1,0.3,0,0.6,0.2,0.8l4.3,4l-1,5.7c-0.1,0.3,0.1,0.6,0.3,0.7c0.2,0.2,0.5,0.2,0.8,0.1l5.3-2.7l5.3,2.7
		c0.1,0.1,0.2,0.1,0.3,0.1c0.2,0,0.3-0.1,0.5-0.2c0.2-0.2,0.3-0.5,0.3-0.7l-1-5.7l4.3-4C52.1,41.3,52.1,41,52.1,40.7z M46.2,44.7
		c-0.2,0.2-0.3,0.4-0.2,0.7l0.8,4.6l-4.3-2.2c-0.1-0.1-0.2-0.1-0.3-0.1c-0.1,0-0.2,0-0.3,0.1L37.5,50l0.8-4.6c0-0.3,0-0.5-0.2-0.7
		l-3.4-3.2l4.8-0.7c0.2,0,0.5-0.2,0.6-0.4l2.2-4.2l2.2,4.2c0.1,0.2,0.3,0.4,0.6,0.4l4.8,0.7L46.2,44.7z"/>
	<path class="st0" d="M34.5,31.4h6.9V23h-6.9H33h-5.4h-1.5h-5.4h-1.5h-6.9v6.9v1.5v5.4v1.5v6.9h6.9h1.5h6.9v-6.9h6.9V31.4z
		 M34.5,24.5h5.4v5.4h-5.4V24.5z M27.6,24.5H33v5.4h-5.4C27.6,29.9,27.6,24.5,27.6,24.5z M20.7,24.5h5.4v5.4h-5.4V24.5z M26.1,36.8
		h-5.4v-5.4h5.4V36.8z M13.8,24.5h5.4v5.4h-5.4V24.5z M13.8,31.4h5.4v5.4h-5.4V31.4z M19.2,43.7h-5.4v-5.4h5.4V43.7z M26.1,43.7
		h-5.4v-5.4h5.4V43.7z M33,36.8h-5.4v-5.4H33V36.8z"/>
	<path class="st0" d="M26.8,49H8.5V19.2h36.7v13c0,0.4,0.3,0.8,0.8,0.8s0.8-0.3,0.8-0.8V18.4v-7.7c0-0.4-0.3-0.8-0.8-0.8h-3.8V7.7
		c0-0.4-0.3-0.8-0.8-0.8H36c-0.4,0-0.8,0.3-0.8,0.8V10H18.4V7.7c0-0.4-0.3-0.8-0.8-0.8h-5.4c-0.4,0-0.8,0.3-0.8,0.8V10H7.7
		c-0.4,0-0.8,0.3-0.8,0.8v7.7v31.4c0,0.4,0.3,0.8,0.8,0.8h19.1c0.4,0,0.8-0.3,0.8-0.8S27.3,49,26.8,49z M36.8,8.4h3.8v2.3V13h-3.8
		v-2.3V8.4z M13,8.4h3.8v2.3V13H13v-2.3V8.4z M8.5,11.5h3.1v2.3c0,0.4,0.3,0.8,0.8,0.8h5.4c0.4,0,0.8-0.3,0.8-0.8v-2.3h16.8v2.3
		c0,0.4,0.3,0.8,0.8,0.8h5.4c0.4,0,0.8-0.3,0.8-0.8v-2.3h3.1v6.1H8.5C8.5,17.6,8.5,11.5,8.5,11.5z"/>
</g>
</svg>
