<svg version="1.1" id="icon-tour-kayak" xmlns="http://www.w3.org/2000/svg" xmlns:xlink="http://www.w3.org/1999/xlink" x="0px" y="0px"
	 viewBox="0 0 512 512" style="enable-background:new 0 0 512 512;" xml:space="preserve">
<path d="M356.7,340l-21-21c46.6-50,73.8-110.5,88.6-153.5C440.4,119,444.9,88.2,448,64c-7.3,0.9-45.2,4.3-101.5,23.6
	c-43,14.8-103.5,42-153.5,88.6l-21-21v-31.5l-60.2-59.5l-47.7,47.7l60.5,59.6h31.7l20.7,20.7c-46.6,49.9-73.9,110.7-88.9,153.8
	C71.9,392.7,67.2,423.7,64,448c7.5-1,45.4-4.5,102-24.1c43.1-14.9,103.9-42.4,153.8-89l20.7,20.7v31.7l59.6,60.5l47.7-47.7
	L388.3,340H356.7z M421.3,90.7c-2.8,14.8-8.5,39.4-18.4,68c-0.5,1.2-0.8,2.4-1.3,3.7l-52-52c1.2-0.4,2.5-0.8,3.7-1.3
	C381.9,99.2,406.5,93.6,421.3,90.7z M326.7,119.1l66.2,66.2c-15.2,36.8-38.4,80.5-73,117.7l-18-18c11.4-16,22.3-36.3,22.3-55.1
	c0-23.9-18.2-42.1-42.1-42.1c0,0,0,0-0.1,0c-18.8,0-39.1,10.9-55.1,22.3l-18-18C246.2,157.5,289.9,134.3,326.7,119.1z M213.7,250.7
	c3-3.1,6.9-6.7,11.4-10.5l46.8,46.8c-3.8,4.5-7.4,8.4-10.5,11.4l-0.1,0.1c-14.4,14.4-32.9,8.9-44.7-2.9
	C205.5,284.3,198.7,265.6,213.7,250.7L213.7,250.7z M243.1,226.4c13.1-8.9,27.3-16,39-16l0,0c11.4,0,19.7,8.2,19.6,19.6
	c0,11.6-7.2,25.9-16,39L243.1,226.4z M149.5,149h-15.7L96,111.7l15.9-15.9l37.6,37.3V149z M159.2,402.5c-18,6.3-34.4,10.9-47.8,14.1
	l49.7-49.7l-15.9-15.9l-49.8,49.8c3.2-13.3,7.8-29.5,14-47.3c14.2-40.9,40.1-98.3,83.6-145.3l16.1,16.1c-5.5,4.7-9.4,8.6-11.4,10.6
	c-22.4,22.4-18.8,54.8,2.9,76.6c21.7,21.7,54,25.4,76.6,2.9c1.9-2,5.8-5.9,10.6-11.4l16.1,16.1C257,362.5,199.9,388.3,159.2,402.5z
	 M400.3,416L363,378.2v-15.7h15.9l37.3,37.7L400.3,416z"/>
</svg>
