<svg xmlns="http://www.w3.org/2000/svg" width="54" height="54" viewBox="0 0 435.801 435.801"><path d="M1.819 396.259c-4.06 7.729-1.097 17.28 6.629 21.337 7.718 4.073 17.275 1.092 21.337-6.632.15-.284 29.592-28.584 176.287-28.584 158.87 0 202.337 39.903 202.525 40.07a15.77 15.77 0 0 0 11.4 4.855c3.936 0 7.876-1.458 10.942-4.398 6.297-6.053 6.5-16.046.468-22.343-2.514-2.615-16.377-15.625-52.496-27.705a18.067 18.067 0 0 0 5.275-12.786v-85.255h14.371c7.937 0 9.282-6.332 3.001-14.147l-74.981-93.36c-6.261-7.815-16.366-7.76-22.551.124l-3.352 4.275c6.835 5.467 9.653 14.584 6.962 22.966a21.164 21.164 0 0 1-19.759 14.7l-1.519.033 45.52 49.84a21.2 21.2 0 0 1 3.732 22.826c-3.393 7.668-10.999 12.629-19.373 12.629H261.37v57.782c-2.986-.188-5.977-.381-9.074-.538V285.7h63.941c4.794 0 9.13-2.828 11.07-7.215a12.073 12.073 0 0 0-2.144-13.041l-59.021-64.655 21.561-.401a12.1 12.1 0 0 0 11.288-8.399 12.072 12.072 0 0 0-4.29-13.398l-26.056-19.388h2.773c6.449.081 12.162-5.396 12.162-12.093 0-3.177-1.219-6.068-3.225-8.224l-30.361-42.559h3.042c6.642-.229 12.156-5.403 12.156-12.096a12.09 12.09 0 0 0-3.447-8.467l-47.37-62.467c-2.323-3.072-5.736-5.007-9.836-4.786a12.094 12.094 0 0 0-9.679 5.111L151.159 75.4a12.107 12.107 0 0 0-.871 12.545 12.084 12.084 0 0 0 9.054 6.414l-32.39 44.935c-2.252 3.121-2.75 7.056-1.627 10.659 5.57 1.074 10.745 4.03 14.812 8.516l3.176 3.808 33.33 41.498 6.177-8.231a12.096 12.096 0 0 0 1.138-12.665 12.081 12.081 0 0 0-10.813-6.69h-9.859l19-21.899a12.097 12.097 0 0 0-9.14-20.02h-12.743L192.7 89.463a12.08 12.08 0 0 0 .954-12.583 12.09 12.09 0 0 0-9.305-6.495l20.721-29.292 23.544 31.055h-2.118a12.076 12.076 0 0 0-10.752 6.556 12.09 12.09 0 0 0 .909 12.562l31.211 43.757h-15.747a12.087 12.087 0 0 0-11.476 8.294 12.11 12.11 0 0 0 4.261 13.518l26.953 20.051-12.902.244a12.087 12.087 0 0 0-10.888 7.317 12.13 12.13 0 0 0 2.174 12.939l58.563 64.149h-48.616c-6.683 0-12.096 5.419-12.096 12.096v77.465a905.525 905.525 0 0 0-18.248-.254v-64.587a23.306 23.306 0 0 1-5.949.772h-2.275v63.814c-3.026.01-6.053.025-8.99.056V274.86h14.371c7.929 0 9.272-6.332 3.001-14.143l-74.986-93.399c-6.274-7.823-16.376-7.756-22.556.127l-73.06 93.11c-6.178 7.881-4.771 14.274 3.168 14.274H56.93v85.244c0 1.792.34 3.488.82 5.118-40.969 10.883-52.707 24.949-55.931 31.068zm128.478-120.425h21.858v32.113h-21.858v-32.113zm0 46.403h21.858v29.925c-7.678.427-14.937.935-21.858 1.508v-31.433zm-36.135-46.403h21.861v32.113H94.162v-32.113zm0 46.403h21.861v32.113H94.162v-32.113z"/></svg>