<svg viewBox="0 0 42 96" width="42" height="96" xmlns="http://www.w3.org/2000/svg"><path d="M20.845 16.161a8.08 8.08 0 1 0 0-16.161 8.08 8.08 0 0 0 0 16.161zM23.66 20.014c-2.014-.409-4.203-.39-6.18.075C4.046 21.664-.316 37.213.915 49.07c.535 5.126 8.615 5.18 8.075 0-.448-4.32-.256-10.841 2.04-15.476v16.898c0 .2.02.386.03.578-.006.091-.027.168-.027.261 0 13.41-.024 26.813-.578 40.211-.245 5.956 8.99 5.933 9.234 0 .433-10.5.543-21.007.568-31.515.437.028.875.028 1.312.003.027 10.508.133 21.015.563 31.512.246 5.933 9.481 5.956 9.234 0-.554-13.398-.574-26.802-.574-40.21 0-.417-.056-.795-.14-1.159-.012-5.821-.235-11.648-.167-17.466 2.75 4.656 3.002 11.758 2.525 16.36-.542 5.176 7.54 5.124 8.075 0 1.26-12.102-3.312-28.055-17.425-29.052z"/></svg>
