<svg id="icon-compass-new" width="75" height="76" viewBox="0 0 75 76" fill="none" xmlns="http://www.w3.org/2000/svg">
  <path d="M64.0162 11.3488C56.9378 4.27442 47.5214 0.369795 37.5024 0.353516C37.4821 0.353516 37.4625 0.353516 37.4424 0.353516C28.7653 0.353516 20.3124 3.3836 13.6357 8.88899C12.9852 9.42521 12.8929 10.3872 13.4289 11.0374C13.9651 11.6879 14.9271 11.7802 15.5773 11.2442C21.7092 6.18832 29.4716 3.40599 37.4424 3.40599C37.4605 3.40599 37.4795 3.40599 37.4976 3.40599C56.4934 3.43651 71.9476 18.8897 71.9476 37.8534C71.9476 56.8477 56.4944 72.3008 37.5002 72.3008C18.5267 72.301 3.07361 56.8471 3.0525 37.8519C3.04792 33.8348 3.72709 29.9009 5.07094 26.1596C5.35584 25.3662 4.94376 24.4922 4.15037 24.2073C3.35774 23.9224 2.48296 24.3345 2.19806 25.1279C0.734652 29.2022 -0.00480954 33.4843 2.35384e-05 37.8552C0.0229171 58.5319 16.8453 75.3535 37.4999 75.3535C58.1776 75.3535 74.9998 58.5311 74.9998 37.8536C75 27.8403 71.0992 18.4272 64.0162 11.3488Z" fill="#4D88CC"/>
  <path d="M48.5354 12.3083C45.0454 10.7986 41.3326 10.0332 37.4999 10.0332C22.1597 10.0332 9.67969 22.5135 9.67969 37.8534C9.67969 53.1934 22.16 65.6739 37.4999 65.6739C52.8399 65.6739 65.3204 53.1936 65.3204 37.8534C65.3204 37.0107 64.6369 36.3272 63.7942 36.3272H58.2125C57.3697 36.3272 56.6862 37.0107 56.6862 37.8534C56.6862 38.6962 57.3697 39.3797 58.2125 39.3797H62.2196C61.4593 51.8233 51.4703 61.8125 39.0264 62.5729V58.5657C39.0264 57.723 38.3429 57.0395 37.5002 57.0395C36.6574 57.0395 35.9739 57.723 35.9739 58.5657V62.5729C23.5303 61.8125 13.5411 51.8236 12.7807 39.3797H16.7879C17.6306 39.3797 18.3141 38.6962 18.3141 37.8534C18.3141 37.0107 17.6306 36.3272 16.7879 36.3272H12.7807C13.5411 23.8835 23.53 13.8943 35.9739 13.134V17.1411C35.9739 17.9839 36.6574 18.6674 37.5002 18.6674C38.3429 18.6674 39.0264 17.9839 39.0264 17.1411V13.1335C41.899 13.3067 44.6839 13.9681 47.3238 15.11C48.0973 15.445 48.9958 15.0889 49.3305 14.3151C49.6653 13.5413 49.3089 12.6431 48.5354 12.3083Z" fill="#4D88CC"/>
  <path d="M48.3317 25.0527L34.8242 30.5237C33.7719 30.9088 32.8068 31.5209 31.9908 32.3369C31.2917 33.0359 30.7553 33.8359 30.3773 34.6898C30.3391 34.7547 30.3038 34.8218 30.2745 34.8936L24.6811 48.7032C24.4509 49.2712 24.5829 49.9219 25.0164 50.3554C25.3081 50.6474 25.6986 50.8026 26.0959 50.8026C26.2885 50.8026 26.4828 50.7659 26.6683 50.6911L40.4792 45.0993C40.5458 45.0723 40.6084 45.0397 40.6689 45.0046C41.5396 44.6198 42.3414 44.0749 43.0346 43.3815C43.7733 42.6428 44.3314 41.7912 44.7117 40.882C44.7163 40.8713 44.7226 40.8622 44.7269 40.8515L50.3188 27.0406C50.5488 26.4726 50.4167 25.8219 49.9833 25.3884C49.5504 24.9545 48.8997 24.8225 48.3317 25.0527ZM37.5127 33.1018C38.7835 33.1018 39.9781 33.5965 40.8765 34.4952C42.7314 36.3501 42.7314 39.368 40.8765 41.2229C39.9781 42.1213 38.7833 42.6163 37.5127 42.6163C36.2421 42.6163 35.0475 42.1216 34.1488 41.2229C32.294 39.368 32.294 36.3501 34.1488 34.4952C34.5864 34.0577 35.0951 33.7179 35.6479 33.4821C35.6545 33.4795 35.6611 33.4777 35.6677 33.4752L35.7776 33.4307C36.3235 33.2168 36.909 33.1018 37.5127 33.1018ZM30.7703 41.7998C31.1004 42.3648 31.5067 42.8972 31.9905 43.381C32.4697 43.8602 33.0011 44.2682 33.5709 44.6025L28.8632 46.5088L30.7703 41.7998ZM44.2472 33.9033C43.9185 33.3437 43.5148 32.8164 43.0351 32.3366C42.5604 31.862 42.0349 31.457 41.4715 31.1245L46.1374 29.2345L44.2472 33.9033Z" fill="#4D88CC"/>
</svg>

