<svg id="icon-calendar-small" width="32" height="33" viewBox="0 0 32 33" fill="none" xmlns="http://www.w3.org/2000/svg">
<path d="M11.338 17.6552C11.3378 17.4626 11.261 17.278 11.1244 17.142C10.9878 17.0059 10.8026 16.9294 10.6095 16.9294H8.06742C7.87431 16.9294 7.6891 17.0059 7.55249 17.142C7.41588 17.278 7.33904 17.4626 7.33887 17.6552V20.1916C7.33904 20.3842 7.41586 20.5688 7.55245 20.705C7.68904 20.8412 7.87425 20.9178 8.06742 20.9179H10.6095C10.8027 20.9179 10.988 20.8414 11.1246 20.7052C11.2613 20.569 11.338 20.3842 11.338 20.1916V17.6552Z" fill="#4D88CC"/>
<path d="M17.6928 17.6552C17.6928 17.4627 17.6161 17.2781 17.4796 17.142C17.3431 17.0059 17.158 16.9294 16.9649 16.9294H14.4222C14.2292 16.9294 14.044 17.0059 13.9075 17.142C13.771 17.2781 13.6943 17.4627 13.6943 17.6552V20.1916C13.6943 20.3841 13.771 20.5688 13.9075 20.705C14.044 20.8412 14.2291 20.9178 14.4222 20.9179H16.9649C17.158 20.9178 17.3432 20.8412 17.4797 20.705C17.6162 20.5688 17.6928 20.3841 17.6928 20.1916V17.6552Z" fill="#4D88CC"/>
<path d="M24.047 17.6552C24.0468 17.4626 23.97 17.278 23.8334 17.142C23.6968 17.0059 23.5115 16.9294 23.3184 16.9294H20.7784C20.5852 16.9294 20.4 17.0059 20.2634 17.142C20.1268 17.278 20.05 17.4626 20.0498 17.6552V20.1916C20.0503 20.3839 20.1273 20.5681 20.2639 20.7039C20.4005 20.8397 20.5855 20.916 20.7784 20.916H23.3204C23.5129 20.9155 23.6974 20.839 23.8336 20.7032C23.9697 20.5675 24.0465 20.3835 24.047 20.1916V17.6552Z" fill="#4D88CC"/>
<path d="M11.338 23.994C11.338 23.8987 11.3192 23.8042 11.2826 23.7162C11.2459 23.6281 11.1923 23.548 11.1246 23.4806C11.0569 23.4132 10.9766 23.3598 10.8882 23.3234C10.7998 23.2869 10.7051 23.2682 10.6095 23.2683H8.06742C7.87431 23.2683 7.6891 23.3447 7.55249 23.4808C7.41588 23.6169 7.33904 23.8015 7.33887 23.994V26.5245C7.33904 26.7171 7.41586 26.9018 7.55245 27.038C7.68904 27.1742 7.87425 27.2507 8.06742 27.2509H10.6095C10.8027 27.2509 10.988 27.1744 11.1246 27.0382C11.2613 26.9019 11.338 26.7172 11.338 26.5245V23.994Z" fill="#4D88CC"/>
<path d="M17.6928 23.9939C17.6933 23.8983 17.6748 23.8036 17.6384 23.7152C17.602 23.6267 17.5484 23.5463 17.4808 23.4786C17.4132 23.4109 17.3328 23.3571 17.2443 23.3204C17.1557 23.2838 17.0608 23.2649 16.9649 23.2649H14.4222C14.3264 23.2649 14.2315 23.2838 14.1429 23.3204C14.0544 23.3571 13.974 23.4109 13.9064 23.4786C13.8387 23.5463 13.7852 23.6267 13.7488 23.7152C13.7124 23.8036 13.6939 23.8983 13.6943 23.9939V26.5244C13.6943 26.7169 13.771 26.9016 13.9075 27.0378C14.044 27.174 14.2291 27.2506 14.4222 27.2508H16.9649C17.1581 27.2506 17.3432 27.174 17.4797 27.0378C17.6162 26.9016 17.6928 26.7169 17.6928 26.5244V23.9939Z" fill="#4D88CC"/>
<path d="M24.047 23.994C24.047 23.8016 23.9703 23.617 23.8338 23.4809C23.6973 23.3448 23.5122 23.2683 23.3191 23.2683H20.7784C20.6826 23.268 20.5876 23.2865 20.499 23.3228C20.4104 23.3591 20.3298 23.4125 20.262 23.4799C20.1941 23.5474 20.1403 23.6275 20.1035 23.7157C20.0668 23.8039 20.0479 23.8985 20.0479 23.994V26.5245C20.0479 26.6201 20.0668 26.7147 20.1035 26.803C20.1402 26.8912 20.1941 26.9714 20.2619 27.0389C20.3298 27.1063 20.4103 27.1598 20.499 27.1962C20.5876 27.2326 20.6825 27.2512 20.7784 27.2509H23.3211C23.5142 27.2507 23.6993 27.1741 23.8358 27.0379C23.9723 26.9017 24.049 26.7171 24.049 26.5245V23.994H24.047Z" fill="#4D88CC"/>
<path d="M28.5924 3.56308V7.43423C28.5922 7.84989 28.5097 8.26142 28.3498 8.64527C28.1898 9.02913 27.9555 9.37777 27.6603 9.67126C27.3651 9.96475 27.0147 10.1973 26.6292 10.3557C26.2438 10.514 25.8308 10.595 25.4139 10.5941H23.4084C21.6534 10.5941 20.2108 9.18395 20.2108 7.43423V3.54932H11.1742V7.43423C11.1742 9.18395 9.73223 10.5941 7.97726 10.5941H5.97177C5.55492 10.5949 5.14199 10.5139 4.7566 10.3555C4.3712 10.1971 4.02091 9.96451 3.72576 9.67103C3.4306 9.37755 3.19638 9.02893 3.03648 8.64512C2.87658 8.26131 2.79414 7.84984 2.79388 7.43423V3.56636C2.04753 3.5919 1.33999 3.90418 0.819271 4.43788C0.298552 4.97158 0.00499189 5.68536 3.20586e-10 6.4299L3.20587e-10 29.1166C-1.13738e-05 29.8789 0.302637 30.6102 0.841803 31.1507C1.38097 31.6912 2.11281 31.997 2.87739 32.0011H28.5096C29.274 31.9968 30.0057 31.691 30.5447 31.1505C31.0838 30.61 31.3863 29.8788 31.3863 29.1166V6.4299C31.3822 5.68479 31.089 4.97018 30.5682 4.43578C30.0474 3.90138 29.3393 3.58864 28.5924 3.56308ZM27.6613 27.7038C27.6612 28.0328 27.53 28.3481 27.2968 28.5807C27.0635 28.8133 26.7472 28.944 26.4173 28.9442H4.91576C4.58593 28.944 4.26966 28.8133 4.0365 28.5807C3.80333 28.3481 3.67235 28.0327 3.67235 27.7038V15.9855C3.67227 15.8226 3.70436 15.6613 3.7668 15.5108C3.82924 15.3603 3.92081 15.2235 4.03627 15.1083C4.15173 14.993 4.28882 14.9016 4.43973 14.8392C4.59063 14.7768 4.75239 14.7446 4.91576 14.7445H26.4173C26.7473 14.7447 27.0637 14.8755 27.297 15.1082C27.5303 15.3409 27.6613 15.6565 27.6613 15.9855V27.7038Z" fill="#4D88CC"/>
<path d="M5.9652 8.52243H7.94834C8.23737 8.52243 8.51456 8.408 8.719 8.2043C8.92343 8.00061 9.03837 7.72431 9.03854 7.43615V1.08628C9.03837 0.798122 8.92343 0.521824 8.719 0.318125C8.51456 0.114426 8.23737 1.45424e-07 7.94834 1.97837e-07H5.9652C5.82207 -8.59263e-05 5.68032 0.027948 5.54805 0.0825002C5.41579 0.137052 5.2956 0.217054 5.19436 0.317933C5.09311 0.418812 5.0128 0.538592 4.958 0.670429C4.90321 0.802265 4.875 0.943574 4.875 1.08628V7.43287C4.87457 7.57585 4.90246 7.71751 4.95706 7.84973C5.01166 7.98194 5.09191 8.10211 5.19319 8.20334C5.29448 8.30457 5.41481 8.38486 5.54729 8.43962C5.67977 8.49437 5.82179 8.52252 5.9652 8.52243Z" fill="#4D88CC"/>
<path d="M23.3835 8.52243H25.3673C25.6562 8.52225 25.9332 8.40775 26.1375 8.20407C26.3418 8.00039 26.4567 7.72419 26.4568 7.43615V1.08628C26.4568 0.798182 26.342 0.521882 26.1377 0.318165C25.9334 0.114447 25.6563 0 25.3673 0L23.3835 0C23.0945 0 22.8174 0.114447 22.6131 0.318165C22.4087 0.521882 22.294 0.798182 22.294 1.08628V7.43287C22.2935 7.5758 22.3214 7.71741 22.3759 7.84958C22.4305 7.98175 22.5107 8.10189 22.6119 8.20311C22.7131 8.30432 22.8334 8.38463 22.9658 8.43943C23.0982 8.49422 23.2401 8.52243 23.3835 8.52243Z" fill="#4D88CC"/>
</svg>
