<svg viewBox="0 0 100 86" width="100" height="86" xmlns="http://www.w3.org/2000/svg"><path d="M99.878 25.557c-.022-4.313-3.548-7.82-7.86-7.82H75.39a9.079 9.079 0 0 0-7.99 4.756l-1.154 2.131a8.8 8.8 0 0 1 .69 3.425 8.795 8.795 0 0 1-1.686 5.185c1.201.101 2.335.444 3.353.982l4.638-8.558a.538.538 0 0 1 1.01.256l.001 55.292a3.986 3.986 0 1 0 7.972 0V49.35h1.72v31.858a3.986 3.986 0 1 0 7.971 0c0-51.469-.07-24.204-.072-55.599a.695.695 0 0 1 1.39-.018l.123 24.4a3.321 3.321 0 0 0 3.32 3.305h.018A3.321 3.321 0 0 0 100 49.957l-.122-24.4z"/><path d="M70.177 41.998a5.685 5.685 0 0 0-5.672-5.645H51.636a5.685 5.685 0 0 0-5.672 5.644l-.028 4.708-2.643-.544s-5.914-16.278-8.03-22.437c-1.556-4.526-4.164-6.82-7.752-6.82H15.896c-3.588 0-6.196 2.294-7.752 6.82C5.734 30.738.26 45.714.204 45.865a3.352 3.352 0 0 0 6.298 2.302c.046-.127 3.977-10.882 6.662-18.483-.18 1.473.389-1.627-4.762 24.965a1.866 1.866 0 0 0 1.828 2.218h2.559v24.318a4.023 4.023 0 1 0 8.045 0V56.867h1.737v24.318a4.023 4.023 0 1 0 8.046 0V56.867h2.558a1.863 1.863 0 0 0 1.828-2.218c-5.15-26.594-4.581-23.491-4.761-24.965 2.685 7.601 6.615 18.356 6.662 18.483a3.351 3.351 0 0 0 3.025 2.198l7.904 1.624a2.398 2.398 0 0 0 2.88-2.334l.044-7.531a.463.463 0 0 1 .925.002l.002 40.19a2.876 2.876 0 1 0 5.753 0V59.326h1.242v22.992a2.876 2.876 0 0 0 5.753 0c0-16.533-.04-35.975-.05-40.292a.5.5 0 0 1 1-.003l.09 17.61a2.397 2.397 0 0 0 2.396 2.384h.012a2.397 2.397 0 0 0 2.385-2.4v-.01l-.088-17.608zM83.13 14.735a6.884 6.884 0 1 0 0-13.767 6.884 6.884 0 0 0 0 13.767z"/><path d="M58.09 34.3a6.25 6.25 0 1 0 0-12.5 6.25 6.25 0 0 0 0 12.5zM21.703.792a6.949 6.949 0 1 0 6.948 6.948A6.952 6.952 0 0 0 21.703.792z"/></svg>
