<svg version="1.1" id="icon-tour-tracking" xmlns="http://www.w3.org/2000/svg" xmlns:xlink="http://www.w3.org/1999/xlink" x="0px" y="0px"
	 viewBox="0 0 512 512" style="enable-background:new 0 0 512 512;" xml:space="preserve">
<style type="text/css">
	.st0{stroke:#000000;stroke-width:4;stroke-miterlimit:10;}
</style>
<path class="st0" d="M476.2,262.1h-22.6c-2.8,0-5.4,1.3-7.1,3.4L433,283.1c-3,3.9-2.3,9.5,1.6,12.6c1.6,1.3,3.6,1.9,5.5,1.9
	c2.7,0,5.3-1.2,7.1-3.4l10.9-14h18.2c4.9,0,9-4,9-9C485.2,266.2,481.2,262.1,476.2,262.1z"/>
<path class="st0" d="M403.3,335.7c-3.9-3-9.5-2.3-12.6,1.6l-12.6,16.1H339l-31.3-107.3c9.1-3.5,15.6-12.3,15.6-22.6
	c0-13.4-10.9-24.2-24.2-24.2H294l-6.5-22.2c-1.4-4.7-6.4-7.5-11.1-6.1c-4.7,1.4-7.5,6.4-6.1,11.1l5,17.2h-4.8l-33.3-31.7
	c0.7-0.4,1.4-0.9,2.1-1.4c9.5-6.7,15.8-16.7,17.7-28.1c2-11.4-0.7-22.9-7.4-32.4c-6.7-9.5-16.7-15.8-28.1-17.7
	c-23.6-4-46.1,11.9-50.1,35.5c-2.4,14.2,2.4,28.1,11.8,37.7c-2.5,1.2-4.8,2.5-7,4.1c-4.2-8.8-12.3-15.5-22.4-17.3
	c-8-1.4-16.2,0.4-22.9,5.1c-6.8,4.8-11.4,12.1-12.8,20.5c-0.9,5.4-0.4,10.7,1.3,15.5c-0.4,0.2-0.9,0.4-1.3,0.7
	c-2,1.4-3.3,3.5-3.7,5.8l-12.6,72.2c-2.3,13,6.1,25.4,18.7,27.7l15.1,2.7c1.4,0.2,2.7,0.4,4,0.4c1,0,2-0.1,3-0.2l-2.8,42.8
	l-21.7,44.8c-2.1,4.3-3.1,8.8-3.1,13.5c0,4.6,1,9.1,2.9,13.1h-10.4c-1.7,0-3.4,0.5-4.8,1.4l-71.9,45.8c-4.2,2.7-5.4,8.2-2.7,12.4
	c1.7,2.7,4.6,4.1,7.6,4.1c1.6,0,3.3-0.5,4.8-1.4l69.7-44.4h34.1c0.6,0,1.2,0.1,1.7,0.1c0.5,0,1,0,1.4-0.1H243c2.3,0,4.5-0.9,6.2-2.5
	l59.6-56.6h23.5h0.1h0h50.3c2.8,0,5.4-1.3,7.1-3.4l15.3-19.6C407.9,344.3,407.2,338.7,403.3,335.7z M179.3,302.7
	c-3.5-0.6-7.3-0.8-10.5-2.5c-5.6-2.9-8.4-9.2-7.4-15.3c0.3-1.7,0.6-3.4,0.9-5.1c26-1.2,44.1-8.5,56.2-16.3l-2.1,12.3
	c-0.7,3.9,1.3,7.8,4.9,9.6l31.9,15.4l37,46.7c4.5,5.7,3.5,14-2.1,18.5c-5.7,4.5-14,3.5-18.5-2.1l-32-40.4c-0.8-1.1-1.9-1.9-3.1-2.5
	l-27-13c-0.8-0.4-1.6-0.6-2.4-0.8L179.3,302.7z M304.4,336.4L266.1,288c-0.6-0.8-1.4-1.5-2.2-2c-0.3-0.2-0.6-0.4-0.9-0.5l-27.6-13.3
	l4.2-24.5h50l30.8,105.7H311C310.6,347.4,308.4,341.4,304.4,336.4z M267,217.1h20.2c0,0,0,0,0.1,0c0,0,0,0,0,0h11.8
	c3.5,0,6.3,2.8,6.3,6.3c0,3.5-2.8,6.3-6.3,6.3h-2.7c0,0,0,0,0,0h-61.1l-18.1-15.6c-3.7-3.2-9.4-2.8-12.6,0.9s-2.8,9.4,0.9,12.6
	l14.2,12.2c-7.1,7.4-23.3,19.5-54.2,21.8l3.3-19.3l6.2-36.4c0,0,0,0,0-0.1l1.8-10.8c1.8-10.4,10.7-21.4,30.3-21.4c0.5,0,0.9,0,1.4,0
	c0.1,0,0.2,0,0.2,0c6.1,0,11.7,2.1,15.5,6c0.1,0.1,0.2,0.2,0.4,0.3l36.2,34.5C262.4,216.2,264.7,217.1,267,217.1z M189.1,126.4
	c2.1-12.4,12.9-21.2,25.1-21.2c1.4,0,2.9,0.1,4.3,0.4c6.7,1.1,12.6,4.8,16.5,10.4c3.9,5.6,5.5,12.3,4.3,19
	c-2.1,12.4-12.9,21.2-25.1,21.2c-1.4,0-2.9-0.1-4.3-0.4C196.1,153.4,186.8,140.2,189.1,126.4z M135.9,176.3c0.6-3.6,2.5-6.7,5.4-8.8
	c2.1-1.5,4.6-2.3,7.2-2.3c0.7,0,1.5,0.1,2.2,0.2c7.1,1.3,11.8,8.3,10.6,15.7c-0.6,3.6-2.5,6.7-5.4,8.8c-2.8,1.9-6.1,2.7-9.4,2.1
	C139.4,190.7,134.6,183.7,135.9,176.3z M138.9,280.4l-15.1-2.7c-2.9-0.5-4.8-3.7-4.2-7l11-63.4l25.2,4.5l-4.2,24.9l-6.8,39.6
	C143.9,279,141.4,280.8,138.9,280.4z M140.4,411.2c-4.6-2.2-7.4-6.7-7.4-11.8c0-2,0.4-3.9,1.3-5.7l22.5-46.4c0.5-1,0.8-2.2,0.9-3.3
	l1.9-28.4c6.7,3.9,14.8,4.5,22.3,5.8c1.4,0.2,2.8,0.5,4.3,0.7l-2,29l-26.2,54c-2.1,4.3-6.3,7-10.8,7.3h-2
	C143.5,412.3,141.9,411.9,140.4,411.2z M239.4,412.4h-65.1l26.7-55.1c0.2-0.4,0.3-0.8,0.5-1.2c0.2-0.7,0.4-1.4,0.4-2.1l1.9-28.1
	l21.2,10.2l30.7,38.8c3.5,4.5,8.1,7.7,13,9.6L239.4,412.4z"/>
<path class="st0" d="M374.5,152.9h45.8c19,0,34.4-15.4,34.4-34.4c0-19-15.4-34.4-34.4-34.4c-4.6,0-9.1,0.9-13.3,2.7
	c-7.7-10-19.6-16-32.6-16c-22.6,0-41.1,18.4-41.1,41.1c0,11,4.3,21.3,12,29C353.2,148.6,363.5,152.9,374.5,152.9z M374.5,88.7
	c9.2,0,17.6,5.5,21.2,13.9c1.1,2.6,3.4,4.5,6.2,5.1c2.7,0.6,5.6,0,7.8-1.9c3-2.5,6.7-3.9,10.6-3.9c9.1,0,16.5,7.4,16.5,16.5
	c0,9.1-7.4,16.5-16.5,16.5h-45.8c-6.2,0-12-2.4-16.4-6.8c-4.4-4.4-6.8-10.2-6.8-16.4C351.3,99,361.7,88.7,374.5,88.7z"/>
<path class="st0" d="M80.9,130.3c18,0,32.7-14.7,32.7-32.7S99,64.9,80.9,64.9c-8.7,0-16.9,3.4-23.1,9.6c-6.2,6.2-9.6,14.4-9.6,23.1
	C48.2,115.6,62.9,130.3,80.9,130.3z M70.5,87.2c2.8-2.8,6.5-4.3,10.5-4.3c8.2,0,14.8,6.6,14.8,14.8s-6.6,14.8-14.8,14.8
	c-8.2,0-14.8-6.6-14.8-14.8C66.1,93.7,67.7,89.9,70.5,87.2z"/>
<path class="st0" d="M31.3,79.5l4.2,2.4c1.4,0.8,3,1.2,4.5,1.2c3.1,0,6.1-1.6,7.8-4.5c2.5-4.3,1-9.8-3.3-12.2L40.2,64
	c-4.3-2.5-9.8-1-12.2,3.3C25.5,71.5,27,77,31.3,79.5z"/>
<path class="st0" d="M130.6,116.1l-4.2-2.4c-4.3-2.5-9.8-1-12.2,3.3c-2.5,4.3-1,9.8,3.3,12.2l4.2,2.4c1.4,0.8,2.9,1.2,4.5,1.2
	c3.1,0,6.1-1.6,7.8-4.5C136.3,124.1,134.9,118.6,130.6,116.1z"/>
<path class="st0" d="M35.8,132.9c1.5,0,3.1-0.4,4.5-1.2l4.2-2.4c4.3-2.5,5.7-7.9,3.3-12.2c-2.5-4.3-7.9-5.7-12.2-3.3l-4.2,2.4
	c-4.3,2.5-5.7,7.9-3.3,12.2C29.7,131.2,32.7,132.9,35.8,132.9z"/>
<path class="st0" d="M121.9,83.1c1.5,0,3.1-0.4,4.5-1.2l4.2-2.4c4.3-2.5,5.7-7.9,3.3-12.2c-2.5-4.3-7.9-5.7-12.2-3.3l-4.2,2.4
	c-4.3,2.5-5.7,7.9-3.3,12.2C115.8,81.5,118.8,83.1,121.9,83.1z"/>
<path class="st0" d="M80.9,59.7c4.9,0,9-4,9-9v-5.1c0-4.9-4-9-9-9s-9,4-9,9v5.1C72,55.7,76,59.7,80.9,59.7z"/>
<path class="st0" d="M72,145.3v5.1c0,4.9,4,9,9,9s9-4,9-9v-5.1c0-4.9-4-9-9-9S72,140.4,72,145.3z"/>
<path class="st0" d="M426.3,311.4c-1.4-3.5-5.1-5.8-8.9-5.5c-3.7,0.3-6.9,2.9-8,6.5c-1,3.6,0.4,7.6,3.4,9.7c3,2.1,7.1,2.2,10.2,0.2
	C426.5,320,428,315.3,426.3,311.4z"/>
</svg>
