<svg version="1.1" id="icon-tour-icerafting" xmlns="http://www.w3.org/2000/svg" xmlns:xlink="http://www.w3.org/1999/xlink" x="0px"
	 y="0px" viewBox="0 0 575 575" style="enable-background:new 0 0 575 575;" xml:space="preserve">
<style type="text/css">
	.st0{stroke:#000000;stroke-width:14;stroke-miterlimit:10;}
</style>
<g>
	<path class="st0" d="M510.1,415.4H290.6l-18.8-20.3H113.4L31,355.2L140.6,244l-77.2-79h177.9l294.5-19l-69.2,101l96.9,128
		l-78.1,12.3L510.1,415.4z M297.3,400.1h178.9l-20.9-23.6l80.4-12.6l-88.1-116.5l57.7-84.1l-263.6,17h-142l62.3,63.7L56.8,350.7
		l60.1,29h161.5L297.3,400.1z"/>
</g>
<g>
	<polygon points="245.3,353.3 229.7,322.1 216.5,352.9 201.5,346.5 228.5,283.2 259.9,346 	"/>
</g>
<g>
	<polygon points="237.3,302.8 220.9,302.5 222.1,244.4 238.4,244.6 238.2,259.3 	"/>
</g>
<g>
	<polygon points="266.3,303.7 229.7,270 197.5,296.4 187.1,283.8 230.3,248.4 277.4,291.6 	"/>
</g>
<g>
	<path d="M230.5,259.7c-13.9,0-25.1-11.3-25.1-25.1c0-13.9,11.3-25.1,25.1-25.1s25.1,11.3,25.1,25.1
		C255.6,248.4,244.4,259.7,230.5,259.7z M230.5,225.8c-4.9,0-8.8,3.9-8.8,8.8s3.9,8.8,8.8,8.8s8.8-3.9,8.8-8.8
		S235.3,225.8,230.5,225.8z"/>
</g>
<g>
	<polygon points="323.2,253.2 307.6,222 294.4,252.8 279.4,246.4 306.5,183.2 337.8,245.9 	"/>
</g>
<g>
	<polygon points="315.2,202.8 298.9,202.4 300,144.3 316.3,144.5 316.1,159.3 	"/>
</g>
<g>
	<polygon points="344.2,203.6 307.6,169.9 275.4,196.3 265,183.7 308.2,148.3 355.3,191.5 	"/>
</g>
<g>
	<path d="M308.4,159.6c-13.9,0-25.1-11.3-25.1-25.1c0-13.8,11.3-25.1,25.1-25.1c13.9,0,25.1,11.3,25.1,25.1
		C333.5,148.3,322.3,159.6,308.4,159.6z M308.4,125.7c-4.9,0-8.8,3.9-8.8,8.8s3.9,8.8,8.8,8.8s8.8-3.9,8.8-8.8
		S313.3,125.7,308.4,125.7z"/>
</g>
<g>
	<rect x="29.3" y="443.7" width="163" height="16.3"/>
</g>
<g>
	<rect x="171.3" y="485.2" width="266.4" height="16.3"/>
</g>
<g>
	<rect x="38.1" y="80.5" width="133.2" height="16.3"/>
</g>
<g>
	<rect x="405.1" y="86.8" width="158.4" height="16.3"/>
</g>
<g>
	<polygon points="410,411.1 394.3,379.9 381.2,410.7 366.1,404.3 393.2,341.1 424.6,403.8 	"/>
</g>
<g>
	<polygon points="401.9,360.7 385.6,360.3 386.7,302.2 403.1,302.4 402.8,317.2 	"/>
</g>
<g>
	<path d="M395.1,317.5c-13.9,0-25.1-11.3-25.1-25.1c0-13.9,11.3-25.1,25.1-25.1s25.1,11.3,25.1,25.1
		C420.3,306.2,409,317.5,395.1,317.5z M395.1,283.6c-4.9,0-8.8,3.9-8.8,8.8s3.9,8.8,8.8,8.8s8.8-3.9,8.8-8.8S400,283.6,395.1,283.6z
		"/>
</g>
<g>
	<polygon points="402.9,458.7 387.8,452.5 426.8,357.6 394.3,327.8 362.1,354.2 351.8,341.6 394.9,306.2 446.2,353.3 	"/>
</g>
<g>
	<rect x="184.5" y="80.5" width="19.5" height="16.3"/>
</g>
<g>
	<rect x="204" y="443.7" width="25.1" height="16.3"/>
</g>
</svg>
