<svg width="34" height="48" viewBox="0 0 34 48" fill="none" xmlns="http://www.w3.org/2000/svg">
<path d="M16.875 8.4375C12.2226 8.4375 8.4375 12.2226 8.4375 16.875C8.4375 21.4977 12.161 25.3125 16.875 25.3125C21.6472 25.3125 25.3125 21.4469 25.3125 16.875C25.3125 12.2226 21.5274 8.4375 16.875 8.4375ZM16.875 22.5187C13.7572 22.5187 11.2313 19.9844 11.2313 16.875C11.2313 13.7734 13.7734 11.2313 16.875 11.2313C19.9766 11.2313 22.5094 13.7734 22.5094 16.875C22.5094 19.939 20.0422 22.5187 16.875 22.5187Z" fill="#4D88CC"/>
<path d="M16.875 0C7.57013 0 0 7.57013 0 16.875C0 20.0188 0.870844 23.0869 2.51897 25.7486L15.9144 47.3352C16.171 47.7487 16.6231 48 17.1093 48C17.113 48 17.1167 48 17.1204 48C17.6108 47.9962 18.0638 47.7371 18.3158 47.3164L31.3698 25.5206C32.927 22.9151 33.75 19.9255 33.75 16.875C33.75 7.57013 26.1799 0 16.875 0ZM28.9562 24.0767L17.088 43.8924L4.90941 24.2668C3.53756 22.0513 2.79375 19.4953 2.79375 16.875C2.79375 9.12094 9.12094 2.79375 16.875 2.79375C24.6291 2.79375 30.9469 9.12094 30.9469 16.875C30.9469 19.4176 30.2521 21.9082 28.9562 24.0767Z" fill="#4D88CC"/>
</svg>