<svg id="icon-meal" height="442" viewBox="0 -22 442.12294 442" width="442" xmlns="http://www.w3.org/2000/svg"><path d="m348.894531 170.351562c3.867188 0 7 3.132813 7 7 0 3.867188-3.132812 7-7 7h-230.226562c5.660156 21.851563 16.101562 42.171876 30.574219 59.492188 14.265624 2.527344 27.90625 7.796875 40.167968 15.515625l6.125 3.886719c8.695313 5.496094 18.515625 8.96875 28.734375 10.160156l62.867188 7.238281c7.855469.910157 15.417969 3.546875 22.136719 7.714844 28.421874-9.636719 53.265624-27.632813 71.289062-51.625 11.585938-15.710937 20.0625-33.488281 24.96875-52.382813h-31.554688c-3.867187 0-7-3.132812-7-7 0-3.867187 3.132813-7 7-7h34.304688c1.089844-7.339843 1.683594-14.742187 1.78125-22.160156v-2.839844h-296v2.839844c.105469 7.417969.71875 14.824219 1.828125 22.160156zm0 0"/><path d="m342.0625 310.296875v-21.402344c-6.59375 3.636719-13.382812 6.898438-20.34375 9.769531 4.027344 4.617188 7.246094 9.878907 9.519531 15.570313zm0 0"/><path d="m0 370.613281 15.757812-137.375 55.03125 6.316407-15.757812 137.371093zm0 0"/><path d="m409.003906 300.570312c-.0625.027344-.125.050782-.1875.074219l-74.183594 27.230469c.503907 4.175781.515626 8.398438.039063 12.578125-.40625 3.527344-3.390625 6.195313-6.945313 6.199219-.269531 0-.539062-.015625-.804687-.046875l-103.34375-11.855469c-3.839844-.441406-6.59375-3.914062-6.152344-7.753906.441407-3.839844 3.914063-6.59375 7.753907-6.152344l95.777343 10.988281c-1.21875-19.371093-16.128906-35.09375-35.410156-37.328125l-62.867187-7.214844c-12.316407-1.429687-24.152344-5.609374-34.632813-12.230468l-6.125-3.878906c-30.371094-19.335938-68.90625-20.441407-100.332031-2.875l-10.648438 92.746093 12.417969-5.171875c11.09375-4.761718 23.601563-5.03125 34.890625-.75l104.363281 39.328125c20.402344 6.0625 42.199219 5.523438 62.273438-1.542969l157.234375-83.351562c-7.785156-10.0625-21.308594-13.734375-33.117188-8.992188zm0 0"/><path d="m197.0625 103.265625c3.863281 0 7-3.136719 7-7v-36.449219c0-3.867187-3.136719-7-7-7-3.867188 0-7 3.132813-7 7v36.449219c0 3.863281 3.132812 7 7 7zm0 0"/><path d="m238.0625 103.265625c3.863281 0 7-3.136719 7-7v-81.53125c0-3.867187-3.136719-7-7-7-3.867188 0-7 3.132813-7 7v81.53125c0 3.863281 3.132812 7 7 7zm0 0"/><path d="m280.0625 103.265625c3.863281 0 7-3.136719 7-7v-36.449219c0-3.867187-3.136719-7-7-7-3.867188 0-7 3.132813-7 7v36.449219c0 3.863281 3.132812 7 7 7zm0 0"/><path d="m327.0625 103.265625c3.863281 0 7-3.136719 7-7v-89.203125c0-3.867188-3.136719-7-7-7-3.867188 0-7 3.132812-7 7v89.199219c-.003906 3.867187 3.132812 7.003906 7 7.003906zm0 0"/></svg>
