<svg version="1.1" id="icon-tour-girl" xmlns="http://www.w3.org/2000/svg" xmlns:xlink="http://www.w3.org/1999/xlink" x="0px" y="0px"
	 viewBox="0 0 512 512" style="enable-background:new 0 0 512 512;" xml:space="preserve">
<style type="text/css">
	.st0{stroke:#000000;stroke-width:0.25;stroke-miterlimit:10;}
	.st1{fill:#FFFFFF;stroke:#000000;stroke-width:13;stroke-miterlimit:10;}
</style>
<g>
	<g>
		<path class="st0" d="M247.1,130.1l-40.9-7.2c-3.9-0.7-7.8,1-10,4.2L180,150.9c-13.6,20-34.1,34.3-57.6,40.3
			c-5.4,1.4-8.6,6.8-7.3,12.1c1.1,4.5,5.2,7.6,9.7,7.6c0.8,0,1.6-0.1,2.5-0.3c28.3-7.1,52.8-24.3,69.2-48.4l12.6-18.5l34.6,6.1
			c5.4,1,10.6-2.7,11.6-8.1C256.2,136.3,252.5,131.1,247.1,130.1z"/>
	</g>
</g>
<g>
	<g>
		<path d="M319.7,469.3c-0.1-0.6-0.3-1.3-0.6-1.9c-0.3-0.6-0.6-1.2-0.9-1.7c-0.4-0.5-0.8-1.1-1.3-1.5s-1-0.9-1.5-1.3
			c-0.5-0.4-1.1-0.7-1.7-0.9c-0.6-0.3-1.2-0.4-1.9-0.6c-1.3-0.3-2.6-0.3-3.9,0c-0.6,0.1-1.3,0.3-1.9,0.6c-0.6,0.3-1.2,0.6-1.7,0.9
			c-0.5,0.4-1.1,0.8-1.5,1.3s-0.9,1-1.2,1.5c-0.4,0.5-0.7,1.1-0.9,1.7c-0.3,0.6-0.4,1.2-0.6,1.9c-0.1,0.6-0.2,1.3-0.2,2
			c0,0.6,0.1,1.3,0.2,2s0.3,1.3,0.6,1.9c0.3,0.6,0.6,1.2,0.9,1.7c0.4,0.5,0.8,1.1,1.2,1.5s1,0.9,1.5,1.2c0.5,0.4,1.1,0.7,1.7,0.9
			c0.6,0.3,1.2,0.4,1.9,0.6c0.6,0.1,1.3,0.2,2,0.2c0.6,0,1.3-0.1,2-0.2c0.6-0.1,1.3-0.3,1.9-0.6c0.6-0.3,1.2-0.6,1.7-0.9
			c0.5-0.4,1.1-0.8,1.5-1.2s0.9-1,1.3-1.5c0.4-0.5,0.7-1.1,0.9-1.7c0.3-0.6,0.5-1.2,0.6-1.9c0.1-0.6,0.2-1.3,0.2-2
			C319.9,470.6,319.8,469.9,319.7,469.3z"/>
	</g>
</g>
<g>
	<g>
		<path class="st0" d="M410.9,381.8c-2.2-1.9-5-2.8-7.9-2.4c-5.9,0.7-19.8,0.3-25.1-5.7c-2.8-3.1-3.3-8.4-1.6-15.6
			c6.1-24.8,7.7-64.9,7.7-69.5c0-56.8-8.4-100.3-25.8-133C333,108.1,289.4,84,228.5,84c-60.9,0-104.5,24.1-129.7,71.7
			C81.4,188.4,73,231.9,73,288.7c0,0.4,0.4,42.1,7.1,69.5c1.8,7.2,1.2,12.4-1.5,15.5c-5.7,6.4-20.5,6.2-25.2,5.7
			c-2.8-0.4-5.7,0.5-7.9,2.4c-2.2,1.9-3.4,4.6-3.4,7.5c0,15.1,8.7,36.1,48.9,52.1V502c0,5.5,4.5,10,10,10h254.3c5.5,0,10-4.5,10-10
			v-60.6c40.2-16,48.9-37,48.9-52.1C414.3,386.4,413,383.7,410.9,381.8z M345.4,492H111.1v-10.8h157.2c5.5,0,10-4.5,10-10
			c0-5.5-4.5-10-10-10H111.1c0-0.1,0-31.8,0-31.9c0-10.3,8.4-18.8,18.8-18.8H196c3.7,14.3,16.8,24.8,32.2,24.8s28.4-10.6,32.2-24.8
			h66.2c10.3,0,18.8,8.4,18.8,18.8C345.4,429.5,345.4,491.9,345.4,492z M207.5,361.2c-36.7-9.4-62.3-42.5-62.3-80.5v-31.4
			c33.5-10.2,62.7-31,83.3-59.4l7.8,1.4c43.5,7.7,75,45.3,75,89.5c0,37.9-25.6,71-62.3,80.5c-4.4,1.1-7.5,5.1-7.5,9.7v31.3
			c0,7.3-6,13.3-13.3,13.3c-7.3,0-13.3-6-13.3-13.3v-31.3C215,366.3,211.9,362.3,207.5,361.2z M364.3,420.1
			c-4.1-16.9-19.4-29.6-37.7-29.6h-65.1v-12.2c41.5-14.1,69.8-53.2,69.8-97.6c0-53.9-38.5-99.8-91.6-109.2l-14.1-2.5
			c-3.9-0.7-7.8,1-10,4.2l-0.9,1.3c-19.4,28.6-48.6,49-82.1,57.4c-4.4,1.1-7.6,5.1-7.6,9.7v39c0,44.4,28.3,83.5,69.8,97.6v12.2
			h-65.1c-18.2,0-33.5,12.6-37.7,29.6c-10.7-4.9-22-11.8-27.1-20.7c9.2-0.8,20.8-3.7,28.5-12.4c5.1-5.7,10.3-16.2,6-33.6
			c-6.1-24.7-6.6-64.3-6.6-64.7c0-53.4,7.7-93.9,23.4-123.6C138.2,124,174.9,104,228.5,104s90.3,20,112.1,61.1
			c15.8,29.8,23.4,70.2,23.4,123.6c0,6.3-1.9,43.2-7.1,64.7c-4.3,17.4,0.9,27.9,6,33.6c7.7,8.6,19.3,11.5,28.5,12.4
			C386.3,408.3,374.9,415.3,364.3,420.1z"/>
	</g>
</g>
<g>
	<g>
		<path class="st0" d="M208.9,264.2c-3.9-3.9-10.2-3.9-14.1,0c-2.1,2.1-5,3.3-8,3.3s-5.9-1.2-8-3.3c-3.9-3.9-10.2-3.9-14.1,0
			c-3.9,3.9-3.9,10.2,0,14.1c5.9,5.9,13.8,9.2,22.2,9.2s16.2-3.3,22.2-9.2C212.8,274.4,212.8,268.1,208.9,264.2z"/>
	</g>
</g>
<g>
	<g>
		<path d="M291.9,264.2c-3.9-3.9-10.2-3.9-14.1,0c-2.1,2.1-5,3.3-8,3.3c-3,0-5.9-1.2-8-3.3c-3.9-3.9-10.2-3.9-14.1,0
			c-3.9,3.9-3.9,10.2,0,14.1c5.9,5.9,13.8,9.2,22.2,9.2c8.4,0,16.2-3.3,22.2-9.2C295.8,274.4,295.8,268.1,291.9,264.2z"/>
	</g>
</g>
<g>
	<g>
		<path d="M250.4,321.3c-3.9-3.9-10.2-3.9-14.1,0c-4.4,4.4-11.6,4.4-16,0c-3.9-3.9-10.2-3.9-14.1,0c-3.9,3.9-3.9,10.2,0,14.1
			c6.1,6.1,14.1,9.2,22.2,9.2c8,0,16-3.1,22.2-9.2C254.3,331.5,254.3,325.2,250.4,321.3z"/>
	</g>
</g>
<circle class="st1" cx="372.3" cy="29.2" r="12.8"/>
<circle class="st1" cx="351.3" cy="45.2" r="12.8"/>
<circle class="st1" cx="361.3" cy="71.2" r="12.8"/>
<circle class="st1" cx="389.3" cy="71.2" r="12.8"/>
<circle class="st1" cx="396.3" cy="44.2" r="12.8"/>
<circle class="st1" cx="374.3" cy="52.2" r="14.5"/>
<circle class="st1" cx="424.8" cy="119.7" r="15.7"/>
<circle class="st1" cx="399.1" cy="139.2" r="15.7"/>
<circle class="st1" cx="411.3" cy="171" r="15.7"/>
<circle class="st1" cx="445.5" cy="171" r="15.7"/>
<circle class="st1" cx="454.1" cy="138" r="15.7"/>
<circle class="st1" cx="427.2" cy="147.8" r="20.8"/>
</svg>
