<svg id="icon-tick-in-romb" width="52" height="52" viewBox="0 0 52 52" fill="none" xmlns="http://www.w3.org/2000/svg">
  <path d="M17.1521 20.0913C16.8368 19.7534 16.432 19.5844 15.9368 19.5844C15.441 19.5844 15.0473 19.754 14.7547 20.0913L10.669 24.1429C10.3537 24.4584 10.1963 24.8521 10.1963 25.3249C10.1963 25.7976 10.3541 26.2034 10.669 26.5409L24.4121 40.3172C24.6822 40.5875 25.0198 40.7454 25.425 40.7907C25.4703 40.8133 25.5379 40.8238 25.6277 40.8238C26.0777 40.8238 26.4939 40.6546 26.8771 40.3172L51.5261 15.6677C51.8418 15.3296 51.9997 14.9247 51.9997 14.4517C51.9997 13.979 51.8418 13.5737 51.5261 13.2363L47.4747 9.18404C47.1372 8.84627 46.7317 8.67773 46.2589 8.67773C45.7862 8.67773 45.3807 8.84674 45.0432 9.18404L25.6614 28.6001L17.1521 20.0913Z" fill="#E2A13C"/>
  <path d="M50.0079 21.5762L29.1067 42.4776C28.2285 43.4005 27.1141 43.8627 25.7636 43.8627H24.8182L24.6156 43.7274C23.7825 43.5242 23.0287 43.1082 22.3531 42.4776L8.6441 28.7014C7.69854 27.756 7.22583 26.6299 7.22583 25.3249C7.22583 23.9969 7.69854 22.883 8.6441 21.9824L12.6961 17.8968C13.619 16.9738 14.7442 16.512 16.0725 16.512C17.3557 16.512 18.4702 16.9849 19.4155 17.9301L25.7636 24.2784L39.202 10.8054L30.2542 1.85728C29.061 0.664541 27.6206 0.0681152 25.9318 0.0681152C24.2435 0.0681152 22.8028 0.664423 21.6101 1.85728L1.78951 21.6776C0.596308 22.8709 0 24.3114 0 25.9999C0 27.6887 0.596781 29.1287 1.78951 30.3223L21.6105 50.1424C22.8033 51.3356 24.2496 51.9318 25.9492 51.9318C27.649 51.9318 29.0837 51.3356 30.2545 50.1424L50.0751 30.3223C51.2683 29.1286 51.8648 27.6886 51.8648 25.9995C51.8648 24.3105 51.2683 22.8704 50.0751 21.6771L50.0079 21.5762Z" fill="#E2A13C"/>
</svg>
