<svg id="icon-tour-wild" height="512pt" viewBox="-17 0 512 512.001" width="512pt" xmlns="http://www.w3.org/2000/svg"><path d="m349.914062 427.570312h127.972657l-67.726563-120.199218h33.4375l-58.828125-104.40625h30.8125l-114.628906-202.964844-73.914063 130.871094c-18.871093-11.277344-40.917968-17.773438-64.453124-17.773438-69.484376 0-126.007813 56.527344-126.007813 126.011719 0 5.84375.402344 11.6875 1.210937 17.472656-23.828124 19.378907-37.789062 48.410157-37.789062 79.472657 0 56.5 45.964844 102.464843 102.464844 102.464843 15.847656 0 31.21875-3.636719 45.125-10.472656v53.960937h-71.664063v29.992188h326.03125v-29.992188h-52.042969zm-73.234374 54.4375v-54.4375h43.242187v54.4375zm-246.6875-145.953124c0-24.359376 12.144531-46.953126 32.480468-60.441407l8.570313-5.683593-2.214844-10.042969c-1.5-6.796875-2.257813-13.789063-2.257813-20.777344 0-52.945313 43.070313-96.015625 96.015626-96.015625 52.941406 0 96.011718 43.070312 96.011718 96.015625 0 6.996094-.757812 13.988281-2.253906 20.777344l-2.214844 10.042969 8.570313 5.683593c20.335937 13.488281 32.476562 36.085938 32.476562 60.441407 0 39.960937-32.511719 72.472656-72.472656 72.472656-16.53125 0-32.328125-5.570313-45.125-15.777344v-2.507812l59.59375-59.589844-21.207031-21.210938-53.382813 53.382813-53.378906-53.382813-21.207031 21.210938 59.589844 59.589844v2.488281c-12.800782 10.21875-28.597657 15.796875-45.121094 15.796875-39.960938 0-72.472656-32.511719-72.472656-72.472656zm334.207031-163.082032h-30.753907l58.824219 104.40625h-33.433593l67.722656 120.199219h-121.96875c12.914062-17.148437 20.578125-38.457031 20.578125-61.523437 0-31.0625-13.960938-60.09375-37.785157-79.472657.804688-5.78125 1.210938-11.628906 1.210938-17.476562 0-35.058594-14.398438-66.816407-37.589844-89.679688l49.949219-88.4375zm-186.617188 309.035156v-53.949218c13.898438 6.828125 29.269531 10.460937 45.121094 10.460937 8.257813 0 16.285156-.988281 23.980469-2.84375v46.332031zm0 0"/></svg>
