<svg viewBox="0 0 96 100" width="96" height="100" xmlns="http://www.w3.org/2000/svg"><path d="M8.765 95.775c0 2.817 1.374 4.225 4.124 4.225 2.75 0 4.125-1.408 4.125-4.225V57.746h4.226v38.029c0 2.817 1.375 4.225 4.124 4.225 2.75 0 4.125-1.408 4.125-4.225v-64.79h2.012v23.341c0 1.476.503 2.549 1.51 3.22 1.005.67 2.045.67 3.118 0 1.073-.671 1.61-1.745 1.61-3.22v-25.15c0-2.684-.906-4.763-2.717-6.238-1.81-1.476-4.326-2.214-7.545-2.214h-16.5c-3.084 0-5.6.671-7.544 2.012C1.488 24.078.515 26.157.515 28.974v26.76c0 1.208.537 2.08 1.61 2.616 1.073.537 2.112.537 3.119 0 1.006-.537 1.509-1.408 1.509-2.616V30.986h2.012v64.789zM91.058 64.99l-12.072-33.4c-.134-.135-.201-.269-.201-.403 0-.67.335-1.006 1.006-1.006.402 0 .67.268.805.805l8.25 21.53c.67 1.475 2.146 2.212 4.426 2.212.805 0 1.375-.603 1.71-1.81.335-1.208.503-2.012.503-2.415l-8.45-20.724c-.269-2.549-1.476-4.695-3.622-6.439-2.147-1.744-4.628-2.616-7.445-2.616H65.304c-2.817 0-5.332.906-7.545 2.717-2.214 1.81-3.521 3.923-3.924 6.338l-7.847 20.925c-.268.403-.201 1.174.201 2.314.403 1.14 1.006 1.71 1.811 1.71 2.549 0 4.024-.67 4.427-2.012l8.048-21.73c.134-.402.402-.604.805-.604.536 0 .805.268.805.805v.201L50.213 64.99v2.616c0 .268.336.738 1.006 1.408.672.67 1.142 1.006 1.409 1.006h7.646v25.956c0 1.073.436 2.012 1.308 2.817.872.805 1.844 1.207 2.917 1.207 1.073 0 2.012-.402 2.817-1.207.805-.805 1.207-1.744 1.207-2.817V69.014c0-.134.37-.235 1.107-.302a11.122 11.122 0 0 1 2.113 0c.67.068 1.006.169 1.006.302v26.76c0 1.074.402 2.046 1.207 2.918.805.872 1.777 1.308 2.917 1.308s2.113-.436 2.918-1.308c.805-.872 1.207-1.844 1.207-2.917V70.02h7.847c.403 0 .872-.335 1.409-1.006.536-.67.804-1.14.804-1.408V64.99zM10.374 8.551c0 2.348.839 4.36 2.516 6.037 1.676 1.676 3.688 2.515 6.036 2.515 2.347 0 4.36-.839 6.036-2.516 1.677-1.676 2.515-3.722 2.515-6.136 0-2.281-.838-4.26-2.515-5.936C23.285.838 21.273 0 18.926 0c-2.348 0-4.36.838-6.036 2.515-1.677 1.677-2.516 3.689-2.516 6.036zM61.883 8.551c0 2.348.839 4.36 2.515 6.037 1.677 1.676 3.69 2.515 6.037 2.515s4.36-.839 6.036-2.516c1.676-1.676 2.515-3.688 2.515-6.036 0-2.347-.839-4.36-2.515-6.036C74.794.838 72.782 0 70.435 0c-2.348 0-4.36.838-6.037 2.515-1.676 1.677-2.515 3.689-2.515 6.036z"/></svg>
