<svg id="icon-picnic" width="85" height="76" viewBox="0 0 85 76" fill="none" xmlns="http://www.w3.org/2000/svg">
<path d="M34.2839 14.416L38.3653 13.8702C39.0425 13.7793 39.5181 13.1575 39.4279 12.4796C39.337 11.8031 38.7152 11.3275 38.0373 11.4177L33.9559 11.9629C33.2786 12.0537 32.8031 12.6762 32.8939 13.3534C32.9771 13.9752 33.508 14.4269 34.1182 14.4269C34.173 14.4269 34.2284 14.4231 34.2839 14.416Z" fill="#4D88CC"/>
<path d="M38.8962 17.8408L34.8148 18.3866C34.1375 18.4768 33.662 19.0993 33.7522 19.7765C33.8353 20.3983 34.3669 20.85 34.9771 20.85C35.0319 20.85 35.0867 20.8462 35.1427 20.8391L39.2242 20.2933C39.9014 20.2031 40.377 19.5806 40.2861 18.9034C40.1959 18.2261 39.5735 17.7506 38.8962 17.8408Z" fill="#4D88CC"/>
<path d="M81.6949 56.5902L64.5268 51.4855V50.9197H66.8421C68.5883 50.9197 70.0098 49.4989 70.0098 47.7526C70.0098 46.0057 68.589 44.5849 66.8421 44.5849H64.5268V40.912C65.7441 40.1864 66.5611 38.8577 66.5611 37.3408V31.2683C66.5611 30.2192 65.9967 29.3023 65.1577 28.7965L70.4241 16.603C71.1896 14.8303 70.37 12.7645 68.5973 11.999C66.824 11.2334 64.7588 12.0524 63.9933 13.8257L57.7068 28.3815H56.5579L57.7113 21.8424C58.0238 20.0671 56.9638 18.3628 55.2968 17.8202L55.802 14.9547C55.8607 14.9631 55.9193 14.9682 55.9779 14.9682C56.5669 14.9682 57.0888 14.5455 57.1945 13.9456L57.692 11.1239C57.9781 9.50201 56.8917 7.95036 55.2698 7.66426L50.9718 6.90647C49.3512 6.62102 47.7983 7.70743 47.5128 9.32867L47.0154 12.151C46.8987 12.8102 47.3285 13.4385 47.9787 13.5751L47.4729 16.4438C47.2789 16.4374 47.0856 16.4451 46.8949 16.4696C46.0391 12.9533 44.8187 9.72883 43.327 7.09914C42.99 6.50503 42.2348 6.29625 41.64 6.63326C41.0459 6.97091 40.8371 7.72547 41.1748 8.32023C43.2039 11.8978 44.7001 16.6984 45.387 21.8385C45.6841 24.0623 45.8194 26.2583 45.793 28.3815H29.6308C29.3041 26.9742 29.0361 25.523 28.8395 24.0507C28.1011 18.5252 28.3595 13.222 29.5677 9.11925C30.6612 5.40444 32.4332 3.12143 34.4275 2.85466C35.5359 2.70645 36.7183 3.15622 37.9426 4.19109C38.4645 4.63184 39.2455 4.56611 39.6863 4.04417C40.127 3.52223 40.0619 2.74189 39.54 2.30114C37.7841 0.817152 35.9032 0.16118 34.1002 0.401531C31.0491 0.809419 28.5966 3.65755 27.1938 8.4201C25.8896 12.8489 25.6035 18.5161 26.3871 24.3786C26.5681 25.7331 26.804 27.074 27.0907 28.3815H26.7524L20.4659 13.8257C19.7004 12.0531 17.6352 11.2334 15.8619 11.9996C14.0892 12.7651 13.2696 14.8303 14.0351 16.6036L19.3015 28.7971C18.4626 29.3023 17.8981 30.2199 17.8981 31.2689V37.3415C17.8981 38.8583 18.7152 40.187 19.9324 40.9126V44.5855H17.6171C15.8709 44.5855 14.4494 46.0064 14.4494 47.7526C14.4494 49.4995 15.8703 50.9203 17.6171 50.9203H19.9324V51.4861L2.76436 56.5902C1.08512 57.0896 0 58.5446 0 60.2966C0 62.0487 1.08512 63.5037 2.76436 64.0024L12.5324 66.9066C12.6503 66.942 12.7689 66.9581 12.8855 66.9581C13.4191 66.9581 13.9114 66.6108 14.0712 66.0734C14.2658 65.4187 13.8927 64.7299 13.2373 64.5353L3.46995 61.6311C2.54592 61.356 2.47439 60.5402 2.47439 60.2966C2.47439 60.053 2.54592 59.2366 3.46995 58.9621L19.933 54.0675V55.1623C19.933 57.6637 21.968 59.6986 24.4694 59.6986H26.1409C27.1023 62.2562 29.4504 64.1403 32.265 64.4296C33.3205 67.1946 35.9992 69.1645 39.1308 69.1645C43.1826 69.1645 46.4792 65.8679 46.4792 61.816C46.4792 61.0467 46.3575 60.3379 46.121 59.6986H59.9898C62.4913 59.6986 64.5262 57.6637 64.5262 55.1623V54.0675L80.9893 58.9621C81.9127 59.2366 81.9848 60.053 81.9848 60.2966C81.9848 60.5402 81.9127 61.3566 80.9893 61.6311L44.0558 72.6119C42.8611 72.9669 41.5981 72.9669 40.4028 72.6119L19.3834 66.3621C18.728 66.1675 18.0392 66.5406 17.8446 67.1959C17.65 67.8506 18.0231 68.5394 18.6784 68.734L39.6979 74.9838C40.5259 75.2299 41.3777 75.353 42.2296 75.353C43.0815 75.353 43.9333 75.2299 44.7613 74.9838L81.6949 64.0024C83.3741 63.5037 84.4592 62.0487 84.4592 60.2966C84.4592 58.5446 83.3741 57.0896 81.6949 56.5902ZM66.8421 47.0593C67.2242 47.0593 67.5348 47.3705 67.5348 47.7526C67.5348 48.1347 67.2242 48.4453 66.8421 48.4453H64.5262V47.0599H66.8421V47.0593ZM66.2647 14.8071C66.3736 14.5545 66.574 14.3606 66.8292 14.2588C67.0844 14.1576 67.364 14.1621 67.616 14.271C67.8686 14.3799 68.0631 14.5803 68.1643 14.8355C68.2655 15.0907 68.261 15.3703 68.1527 15.6223L62.642 28.3815H60.4022L66.2647 14.8071ZM53.3644 14.5268L52.8656 17.355L49.9163 16.835L50.4151 14.0062L53.3644 14.5268ZM49.9492 9.75847C49.9982 9.4801 50.2643 9.29323 50.5427 9.34285L54.84 10.1006C55.1183 10.1496 55.3046 10.4157 55.2556 10.6941L54.9727 12.2979L49.667 11.3623L49.9492 9.75847ZM47.8395 21.5105C47.7229 20.6355 47.5805 19.7701 47.42 18.9156C47.4613 18.9182 47.5025 18.9221 47.5431 18.9292L54.3793 20.1348C54.9785 20.2405 55.38 20.814 55.2743 21.4126L54.0455 28.3815H48.2667C48.2938 26.1474 48.1514 23.8419 47.8395 21.5105ZM16.8433 14.271C17.0952 14.1615 17.3749 14.1576 17.63 14.2588C17.8852 14.3599 18.0856 14.5545 18.1945 14.8071L24.057 28.3815H21.8172L16.3065 15.6223C16.0823 15.1016 16.3226 14.4953 16.8433 14.271ZM17.6171 48.4453C17.235 48.4453 16.9244 48.1347 16.9244 47.7526C16.9244 47.3699 17.235 47.0593 17.6171 47.0593H19.933V48.4453H17.6171ZM28.1468 57.1199C28.1468 54.8877 29.7861 53.7556 33.0202 53.7556C35.6963 53.7556 37.2795 54.5263 37.7461 56.0463C36.2994 56.1952 35.0861 56.5863 34.1292 57.2165C32.5943 58.2275 31.783 59.8178 31.783 61.816C31.783 61.8218 31.7837 61.8276 31.7837 61.8341C29.6933 61.2851 28.1468 59.3797 28.1468 57.1199ZM39.1308 66.6901C36.4438 66.6901 34.2574 64.5037 34.2574 61.816C34.2574 59.5839 35.8967 58.4518 39.1308 58.4518C42.3649 58.4518 44.0049 59.5839 44.0049 61.816C44.0049 64.5037 41.8185 66.6901 39.1308 66.6901ZM59.9905 57.2242H44.4166C44.3348 57.2242 44.2549 57.2326 44.1769 57.2481C44.1621 57.2378 44.1479 57.2268 44.1324 57.2165C43.1246 56.5528 41.832 56.1533 40.2817 56.0244C39.7842 53.0004 37.1745 51.2812 33.0202 51.2812C30.9499 51.2812 29.2668 51.6981 28.0186 52.5203C26.4837 53.532 25.6725 55.1223 25.6725 57.1199C25.6725 57.1547 25.6744 57.1894 25.675 57.2242H24.4694C23.3321 57.2242 22.4074 56.2989 22.4074 55.1623V41.4958H52.4951C53.1781 41.4958 53.7323 40.9416 53.7323 40.2586C53.7323 39.5755 53.1781 39.0214 52.4951 39.0214H22.053C21.1264 39.0214 20.3725 38.2674 20.3725 37.3408V31.2683C20.3725 31.0408 20.5574 30.8559 20.7849 30.8559H63.6743C63.9018 30.8559 64.0867 31.0408 64.0867 31.2683V37.3408C64.0867 38.2674 63.3328 39.0214 62.4062 39.0214H58.0889C57.4052 39.0214 56.8517 39.5755 56.8517 40.2586C56.8517 40.9416 57.4052 41.4958 58.0889 41.4958H62.0524V55.1623C62.0524 56.2989 61.1271 57.2242 59.9905 57.2242Z" fill="#4D88CC"/>
<path d="M57.8148 44.144H57.7967C57.7948 44.144 57.7929 44.144 57.7909 44.144C57.1105 44.144 56.5569 44.6943 56.5537 45.3754C56.5505 46.0591 57.1021 46.6152 57.7851 46.6184H57.8032H57.809C58.4894 46.6184 59.0429 46.0681 59.0462 45.387C59.0494 44.7034 58.4978 44.1473 57.8148 44.144Z" fill="#4D88CC"/>
<path d="M52.5198 44.144H52.5018C52.4999 44.144 52.4979 44.144 52.496 44.144C51.8155 44.144 51.262 44.6943 51.2588 45.3754C51.2556 46.0591 51.8072 46.6152 52.4902 46.6184H52.5082H52.514C53.1945 46.6184 53.748 46.0681 53.7512 45.387C53.7545 44.7034 53.2029 44.1473 52.5198 44.144Z" fill="#4D88CC"/>
<path d="M47.2262 44.144H47.2088C47.2069 44.144 47.205 44.144 47.203 44.144C46.5226 44.144 45.9691 44.6943 45.9658 45.3754C45.9626 46.0591 46.5142 46.6152 47.1972 46.6184H47.2153H47.2211C47.9015 46.6184 48.455 46.0681 48.4583 45.387C48.4615 44.7034 47.9099 44.1473 47.2262 44.144Z" fill="#4D88CC"/>
</svg>




