<svg xmlns="http://www.w3.org/2000/svg" viewBox="0 0 512 512" width="54" height="54"><path d="M418.329 182.794L447.801 271h63.97c-2.745-18.853-11.451-36.826-23.839-51.753-17.629-21.229-42.679-33.263-69.603-36.453zM387.811 271h28.363l-29.978-89.714-28.362-.209z"/><path d="M511.539 306.654c.363-1.888.2-3.765.461-5.654H366.189l-49.997-150H302V91h195V61H75v30h197v60h-30v30H118.491c-6.973-34.189-37.266-60-73.491-60H30v90c33.091 0 60 26.909 60 60 0 2.596-.447 5.07-.767 7.581l123.544 20.251c4.437 36.204 27.57 66.412 59.224 81.573V421h-38.789l-25.605-25.605-21.211 21.211L220.789 451h252.422l34.395-34.395-21.211-21.211L460.789 421H422v-31.558c44.063-7.226 81.251-39.796 89.539-82.788zM392 421h-90v-31.403c4.931.712 9.875 1.403 15 1.403h75v30z"/><circle cx="30" cy="271" r="30"/></svg>