<svg version="1.1" id="icon-tour-horse" xmlns="http://www.w3.org/2000/svg" xmlns:xlink="http://www.w3.org/1999/xlink" x="0px" y="0px"
	 viewBox="0 0 512 512" style="enable-background:new 0 0 512 512;" xml:space="preserve">
<g>
	<g>
		<rect x="422" y="120" width="30" height="30"/>
	</g>
</g>
<g>
	<g>
		<path d="M482,60V0h-45c-68.112,0-132.326,26.702-180.813,75.188C211.278,120.097,185.075,178.503,181.452,241H165
			c-28.398,0-54.195,11.445-73.114,30H75c-41.463,0-75,34.534-75,76v135h15c16.871,0,32.456-5.603,45-15.041V512h90v-61.478
			c28.742-5.742,51.886-27.855,58.821-55.682l126.705,25.173L366.188,512H452V271h60V60H482z M60,347v60
			c0,19.556-12.539,36.239-30,42.43V347c0-23.31,18.01-43.233,40.285-45.732C63.695,315.122,60,330.633,60,347z M437,30h15v30.582
			C356.385,67.928,279.836,144.884,272.565,241H211.51C219.258,123.351,317.424,30,437,30z M482,241h-30v-28.168l-10.001-3.535
			C430.037,205.069,422,193.697,422,181h-30c0,21.66,11.704,41.394,30,51.972V482h-34.188l-29.338-88.014L181,358.727V377
			c0,24.393-21.065,45-46,45h-15v60H90v-75v-60c0-41.907,33.645-76,75-76h137v-15c0-91.533,74.019-166,165-166h15V241z"/>
	</g>
</g>
<g>
</g>
<g>
</g>
<g>
</g>
<g>
</g>
<g>
</g>
<g>
</g>
<g>
</g>
<g>
</g>
<g>
</g>
<g>
</g>
<g>
</g>
<g>
</g>
<g>
</g>
<g>
</g>
<g>
</g>
</svg>
