<svg id="icon-rock" width="88" height="77" viewBox="0 0 88 77" fill="none" xmlns="http://www.w3.org/2000/svg">
  <path d="M86.4187 73.7836H84.3577L54.921 17.7144C54.6988 17.2915 54.2612 17.0272 53.7835 17.0272C53.3057 17.0272 52.8681 17.2915 52.646 17.7144L48.1869 26.2082L39.315 9.20445C39.0935 8.78023 38.6546 8.51392 38.1762 8.51392C37.6971 8.51392 37.2588 8.78023 37.0373 9.20445L31.3678 20.0703C31.0393 20.6993 31.2835 21.4755 31.9125 21.8034C32.5415 22.1319 33.3177 21.8884 33.6455 21.2587L38.1762 12.5762L49.0688 33.4535L43.9226 36.6238L38.9463 32.8921C38.49 32.5495 37.8617 32.5495 37.4047 32.8921L32.4291 36.6238L27.2828 33.4535L31.1798 25.9847C31.5084 25.3558 31.2641 24.5796 30.6352 24.251C30.0068 23.9232 29.23 24.1667 28.9021 24.7957L3.34361 73.7836H1.28472C0.574777 73.7836 0 74.359 0 75.0683C0 75.7776 0.574777 76.353 1.28472 76.353H86.4187C87.1286 76.353 87.7034 75.7776 87.7034 75.0683C87.7034 74.359 87.1286 73.7836 86.4187 73.7836ZM53.7835 21.0754L63.0448 38.7155L59.4817 40.9102L53.9668 37.2862L49.6329 28.9804L53.7835 21.0754ZM26.0918 35.7372L31.8262 39.2702C32.2758 39.5472 32.8493 39.5204 33.2708 39.2039L38.1762 35.5258L43.0809 39.2039C43.3084 39.3746 43.5793 39.4609 43.8517 39.4609C44.0845 39.4609 44.3181 39.398 44.5255 39.2702L50.2606 35.7372L51.8477 38.7784C51.849 38.7817 51.8504 38.7844 51.8524 38.7877L56.2853 47.2843C56.5148 47.7239 56.9618 47.9748 57.4255 47.9748C57.6256 47.9748 57.829 47.928 58.019 47.8289C58.648 47.5011 58.8916 46.7249 58.5637 46.0959L56.4085 41.9647L58.7544 43.5064C58.9679 43.6476 59.2141 43.7178 59.4597 43.7178C59.6932 43.7178 59.9267 43.6543 60.1335 43.5271L64.2419 40.9959L81.4558 73.7836H50.8119V70.6762H55.2027C55.6289 70.6762 56.0277 70.4647 56.2666 70.1121C56.5055 69.7588 56.5543 69.3105 56.3957 68.9144L54.2626 63.5828H55.2027C55.6376 63.5828 56.0431 63.3626 56.28 62.998C56.5169 62.6333 56.5537 62.1736 56.377 61.7762L50.7008 49.0059C50.4947 48.5422 50.0344 48.2431 49.5272 48.2431C49.0193 48.2431 48.559 48.5422 48.3529 49.0059L42.6774 61.7762C42.5007 62.1736 42.5369 62.6333 42.7744 62.998C43.0113 63.3626 43.4168 63.5828 43.851 63.5828H44.7918L42.6586 68.9144C42.5001 69.3105 42.5482 69.7588 42.7871 70.1121C43.0267 70.4647 43.4255 70.6762 43.851 70.6762H48.2425V73.7836H28.1092V70.6762H32.5007C32.9269 70.6762 33.3257 70.4647 33.5646 70.1121C33.8035 69.7588 33.8516 69.3105 33.6937 68.9144L31.5599 63.5828H32.5007C32.9356 63.5828 33.3411 63.3626 33.578 62.998C33.8148 62.6333 33.851 62.1736 33.6743 61.7762L27.9988 49.0059C27.792 48.5422 27.3324 48.2431 26.8245 48.2431C26.3166 48.2431 25.8569 48.5422 25.6502 49.0059L19.9747 61.7762C19.798 62.1736 19.8348 62.6333 20.0717 62.998C20.3086 63.3626 20.7141 63.5828 21.149 63.5828H22.0891L19.9559 68.9144C19.798 69.3105 19.8462 69.7588 20.0851 70.1121C20.324 70.4647 20.7228 70.6762 21.149 70.6762H25.5398V73.7836H6.24158L26.0918 35.7372ZM47.7533 61.5774C47.5145 61.2248 47.1157 61.0134 46.6894 61.0134H45.8283L49.5272 52.6915L53.2261 61.0134H52.3649C51.9387 61.0134 51.5399 61.2248 51.301 61.5774C51.0622 61.9307 51.014 62.379 51.1719 62.7752L53.3051 68.1074H45.7493L47.8825 62.7752C48.0404 62.379 47.9922 61.9307 47.7533 61.5774ZM25.0506 61.5774C24.8118 61.2248 24.413 61.0134 23.9867 61.0134H23.1262L26.8245 52.6915L30.5234 61.0134H29.6622C29.2367 61.0134 28.8379 61.2248 28.5983 61.5774C28.3595 61.9307 28.3113 62.379 28.4699 62.7752L30.603 68.1074H23.0473L25.1798 62.7752C25.3384 62.379 25.2902 61.9307 25.0506 61.5774Z" fill="#4D88CC"/>
  <path d="M5.5396 12.5019H29.6615C30.3708 12.5019 30.9462 11.9271 30.9462 11.2172C30.9462 10.5079 30.3708 9.93247 29.6615 9.93247H29.527V8.37943C29.527 4.54134 26.4049 1.41921 22.5668 1.41921C21.5256 1.41921 20.5119 1.64805 19.5858 2.08833C18.0643 0.750757 16.099 0 14.0529 0C9.43256 0 5.67409 3.75914 5.67409 8.37943V9.93247H5.5396C4.82966 9.93247 4.25488 10.5079 4.25488 11.2172C4.25488 11.9271 4.82966 12.5019 5.5396 12.5019ZM8.24353 8.37943C8.24353 5.17567 10.8498 2.56943 14.0529 2.56943C15.7176 2.56943 17.3055 3.28674 18.4095 4.538C18.8384 5.02311 19.5618 5.11411 20.0964 4.74877C20.8264 4.25161 21.6802 3.98865 22.5668 3.98865C24.9883 3.98865 26.9582 5.95788 26.9582 8.37943V9.93247H8.24353V8.37943Z" fill="#4D88CC"/>
  <path d="M60.8785 22.4343H85.0004C85.7103 22.4343 86.2851 21.8588 86.2851 21.1496C86.2851 20.4403 85.7103 19.8648 85.0004 19.8648H84.8665V18.3118C84.8665 14.4737 81.7444 11.3516 77.9063 11.3516C76.8645 11.3516 75.8514 11.5804 74.9247 12.0207C73.4038 10.6831 71.4386 9.93237 69.3924 9.93237C64.7721 9.93237 61.013 13.6915 61.013 18.3118V19.8648H60.8785C60.1692 19.8648 59.5938 20.4403 59.5938 21.1496C59.5938 21.8588 60.1692 22.4343 60.8785 22.4343ZM63.5824 18.3118C63.5824 15.108 66.1886 12.5018 69.3924 12.5018C71.0572 12.5018 72.645 13.2191 73.7491 14.4704C74.1773 14.9555 74.9006 15.0465 75.4359 14.6811C76.1659 14.184 77.0197 13.921 77.9063 13.921C80.3272 13.921 82.2971 15.8902 82.2971 18.3118V19.8648H63.5824V18.3118Z" fill="#4D88CC"/>
</svg>
