<svg version="1.1" id="icon-tour-ethnic" xmlns="http://www.w3.org/2000/svg" xmlns:xlink="http://www.w3.org/1999/xlink" x="0px" y="0px"
	 viewBox="0 0 496.2 496.2" style="enable-background:new 0 0 496.2 496.2;" xml:space="preserve">
<style type="text/css">
	.st0{stroke:#000000;stroke-width:6;stroke-miterlimit:10;}
</style>
<g transform="translate(1 1)">
	<g>
		<g>
			<path class="st0" d="M231.6,231.8c0-17.4-24.2-30.2-56.7-30.2s-56.7,12.8-56.7,30.2s24.2,30.2,56.7,30.2
				C207.4,262,231.6,249.2,231.6,231.8z M174.9,246.9c-24.9,0-41.6-9.1-41.6-15.1c0-6,16.6-15.1,41.6-15.1s41.6,9.1,41.6,15.1
				C216.5,237.8,199.9,246.9,174.9,246.9z"/>
			<path class="st0" d="M375.2,231.8c0-17.4-24.2-30.2-56.7-30.2s-56.7,12.8-56.7,30.2S286,262,318.5,262S375.2,249.2,375.2,231.8z
				 M318.5,246.9c-24.9,0-41.6-9.1-41.6-15.1c0-6,16.6-15.1,41.6-15.1s41.6,9.1,41.6,15.1C360.1,237.8,343.5,246.9,318.5,246.9z"/>
			<path class="st0" d="M133.3,163.8c4.5,0,7.6-3,7.6-7.6c0-4.5-3-7.6-7.6-7.6s-7.6,3-7.6,7.6C125.8,160.7,128.8,163.8,133.3,163.8z
				"/>
			<path class="st0" d="M133.3,390.5c-4.5,0-7.6,3-7.6,7.6s3,7.6,7.6,7.6s7.6-3,7.6-7.6S137.9,390.5,133.3,390.5z"/>
			<path class="st0" d="M360.1,390.5c-4.5,0-7.6,3-7.6,7.6s3,7.6,7.6,7.6s7.6-3,7.6-7.6S364.6,390.5,360.1,390.5z"/>
			<path class="st0" d="M156,133.5c4.5,0,7.6-3,7.6-7.6s-3-7.6-7.6-7.6c-4.5,0-7.6,3-7.6,7.6S151.5,133.5,156,133.5z"/>
			<path class="st0" d="M193.8,156.2c4.5,0,7.6-3,7.6-7.6c0-4.5-3-7.6-7.6-7.6c-4.5,0-7.6,3-7.6,7.6
				C186.3,153.2,189.3,156.2,193.8,156.2z"/>
			<path class="st0" d="M224.1,178.9c4.5,0,7.6-3,7.6-7.6s-3-7.6-7.6-7.6s-7.6,3-7.6,7.6S219.5,178.9,224.1,178.9z"/>
			<path class="st0" d="M246.7,148.7c4.5,0,7.6-3,7.6-7.6c0-4.5-3-7.6-7.6-7.6s-7.6,3-7.6,7.6C239.2,145.6,242.2,148.7,246.7,148.7z
				"/>
			<path class="st0" d="M246.7,103.3c4.5,0,7.6-3,7.6-7.6c0-4.5-3-7.6-7.6-7.6s-7.6,3-7.6,7.6C239.2,100.3,242.2,103.3,246.7,103.3z
				"/>
			<path class="st0" d="M360.1,163.8c4.5,0,7.6-3,7.6-7.6c0-4.5-3-7.6-7.6-7.6s-7.6,3-7.6,7.6C352.5,160.7,355.6,163.8,360.1,163.8z
				"/>
			<path class="st0" d="M337.4,133.5c4.5,0,7.6-3,7.6-7.6s-3-7.6-7.6-7.6c-4.5,0-7.6,3-7.6,7.6S332.9,133.5,337.4,133.5z"/>
			<path class="st0" d="M299.6,156.2c4.5,0,7.6-3,7.6-7.6c0-4.5-3-7.6-7.6-7.6c-4.5,0-7.6,3-7.6,7.6
				C292.1,153.2,295.1,156.2,299.6,156.2z"/>
			<path class="st0" d="M269.4,178.9c4.5,0,7.6-3,7.6-7.6s-3-7.6-7.6-7.6s-7.6,3-7.6,7.6S264.9,178.9,269.4,178.9z"/>
			<path class="st0" d="M410,263.5c-3.3-3.6-7-5.8-10.3-7.1c7.9-34.8,6.2-58.8,5.8-62.4c0-52.9-18.1-96-52.9-127
				c-60.5-52.9-151.2-52.9-210.9,0C106.1,98,88,141.1,88,194c-0.4,3.7-2.1,27.7,5.8,62.7c-3.1,1.3-6.5,3.5-9.6,6.8
				c-6.8,7.6-9.1,18.1-7.6,32.5c0.8,11.3,4.5,22.7,11.3,33.3l12.1,21.9c2.3,3,3,6.8,3,10.6c0,6-2.3,15.1-9.1,26.5
				c-4.5,6.8-6,14.4-3.8,21.9c6,21.2,21.2,33.3,42.3,33.3c0,0,1.5,0,3,0c6,0,19.7-0.8,29.5-9.8c6.1-5.6,10.2-12.6,12.2-21.3
				c12.4,15.5,26.8,31.8,40.7,44c8.3,6.8,18.1,10.6,28.7,10.6c10.6,0,20.4-3.8,28.7-10.6c13.9-12.5,28.4-28.9,40.8-44.4
				c2,8.5,6,15.4,12.1,20.9c10.6,9.8,24.2,10.6,29.5,10.6c1.5,0,3,0,3,0c21.2,0,37-12.1,43.1-33.3c1.5-7.6,0.8-15.1-3.8-21.9
				c-6.8-11.3-9.1-20.4-9.8-26.5c0-3,0.8-6.8,3-10.6l12.8-21.9c6-11.3,9.8-21.9,11.3-33.3C419.1,281.7,416.8,271.1,410,263.5z
				 M163.6,398.1c0,10.6-3,18.1-8.3,23.4c-8.3,7.6-21.2,6.8-21.9,6.8c-15.1,0-24.9-7.6-28-21.2c-0.8-3,0-6.8,1.5-9.8
				c8.3-13.6,11.3-24.9,12.1-32.5c0.8-6.8-0.8-14.4-4.5-20.4l-12.8-21.9c-6-9.1-9.1-18.1-9.8-27.2c-0.8-9.8,0-16.6,3.8-21.2
				c0.7-0.7,1.4-1.4,2.2-2.2c2.2,7.5,4.7,15.4,7.9,23.6c0.3,0.8,0.6,1.6,0.9,2.4c0.1,0.4,0.3,0.7,0.4,1.1
				c8.9,22.7,20.6,44.6,34.7,65.8c0.8,0.8,9.8,13.6,21.9,30.2L163.6,398.1L163.6,398.1z M265.6,444.2c-10.6,9.1-27.2,9.1-37.8,0
				c-21.2-18.9-44.2-48.3-58.7-68c-8.3-11.5-13.9-19.7-13.9-19.7c-21.2-30.2-36.3-62.7-44.6-96l-1.5-6c-8.2-35.5-6.1-59.3-6.1-59.8
				V194c0-48.4,15.9-87.7,48.4-115.6c26.5-23.4,61.2-35.5,95.2-35.5s68.8,11.3,95.2,35.5c32.5,28,48.4,67.3,48.4,115.6v0.8
				c0,0.8,6.8,76.3-51.4,161C338.2,356.5,299.6,414.7,265.6,444.2z M402.4,293.8c-1.5,9.1-4.5,18.1-9.8,27.2l-12.8,21.9
				c-3.8,6.8-5.3,13.6-4.5,20.4c0.8,6.8,3,18.9,12.1,32.5c1.5,3,2.3,6.8,1.5,9.8c-3.8,15.1-13.6,22.7-29.5,22.7
				c0,0-12.8,0.8-21.2-6.8c-5.3-4.5-8.3-12.8-8.3-24.2v-2.3c11.3-14.6,19-26.2,21.3-30.4c9.6-13.8,17.5-27.4,24.1-40.5
				c8.9-17.5,16-35.4,21.1-53.8c0.8,0.8,1.5,1.5,2.3,2.3C402.4,277.2,403.2,284,402.4,293.8z"/>
			<path class="st0" d="M226.3,317.2c-3,3-3,7.6,0,10.6c1.5,1.5,3,2.3,5.3,2.3s3.8-0.8,5.3-2.3l9.8-9.8l9.8,9.8
				c1.5,1.5,3,2.3,5.3,2.3s3.8-0.8,5.3-2.3c3-3,3-7.6,0-10.6l-12.8-12.8V262c0-4.5-3-7.6-7.6-7.6s-7.6,3-7.6,7.6v42.3L226.3,317.2z"
				/>
			<path class="st0" d="M284.5,375.4h-75.6c-4.5,0-7.6,3-7.6,7.6c0,4.5,3,7.6,7.6,7.6h75.6c4.5,0,7.6-3,7.6-7.6
				C292.1,378.4,289.1,375.4,284.5,375.4z"/>
		</g>
	</g>
</g>
</svg>
