<svg version="1.1" id="icon-tour-fishing" xmlns="http://www.w3.org/2000/svg" xmlns:xlink="http://www.w3.org/1999/xlink" x="0px" y="0px"
	 viewBox="0 0 448.1 448.1" style="enable-background:new 0 0 448.1 448.1;" xml:space="preserve">
<style type="text/css">
	.st0{stroke:#000000;stroke-width:4;stroke-miterlimit:10;}
</style>
<g>
	<path class="st0" d="M333.2,363.3V66.4c0,0,0,0,0,0c0-0.2,0-0.3,0-0.5c0-0.1,0-0.3,0-0.4c0,0,0,0,0,0c0-0.1,0-0.2,0-0.3
		c0-0.2-0.1-0.4-0.1-0.6c0-0.1,0-0.2-0.1-0.3c0-0.2-0.1-0.4-0.2-0.6c0-0.1-0.1-0.2-0.1-0.3c-0.1-0.2-0.1-0.4-0.2-0.5
		c0-0.1-0.1-0.2-0.1-0.3c-0.1-0.2-0.2-0.4-0.3-0.5c0-0.1-0.1-0.1-0.1-0.2c-0.1-0.2-0.2-0.3-0.3-0.5c0-0.1-0.1-0.1-0.1-0.2
		c-0.1-0.2-0.3-0.4-0.4-0.5c0,0-0.1-0.1-0.1-0.1c-0.2-0.2-0.3-0.4-0.5-0.5c0,0,0,0,0,0c-0.8-0.8-1.7-1.4-2.8-1.8c0,0,0,0,0,0
		c-0.3-0.1-0.5-0.2-0.8-0.3c-0.1,0-0.1,0-0.2,0c-0.2-0.1-0.4-0.1-0.7-0.2c-0.1,0-0.2,0-0.4-0.1c-0.2,0-0.3-0.1-0.5-0.1
		c-0.2,0-0.3,0-0.5,0c-0.1,0-0.2,0-0.3,0c0,0,0,0,0,0c-0.1,0-0.3,0-0.4,0c-0.2,0-0.3,0-0.5,0c0,0,0,0,0,0
		c-33.7,3.7-64.8,29.5-87.7,72.8c-16.4,31.1-27.4,68.8-31.9,109.1c-14.2,5.1-28.7,5.9-42,2.6c-0.1-41.3-2.3-73.2-52-73.2
		c-52,0-52,34.8-52,78.9c0,24.6,2.5,44.3,11.4,57.2h-6.1c-4.9,0-8.8,3.9-8.8,8.8c0,4.9,3.9,8.8,8.8,8.8h6.3L64.7,371c0,0,0,0,0,0
		l-3.2,33.5c-0.5,4.8,3.1,9.1,7.9,9.6c0.3,0,0.6,0,0.9,0c4.5,0,8.3-3.4,8.7-8l2.5-25.5h56.7l2.4,25.5c0.4,4.5,4.3,8,8.7,8
		c0.3,0,0.6,0,0.9,0c4.8-0.5,8.4-4.8,7.9-9.6L155,371c0,0,0,0,0,0l-4.6-48.3h6.3c0.7,0,1.3-0.1,1.9-0.2c10,3,18.1,8.3,23.6,15.8
		c11.7,15.9,11.7,40.6-0.1,69.4c-1.1,2.7-0.8,5.8,0.8,8.2c1.6,2.4,4.4,3.9,7.3,3.9h29.7c4.9,0,8.8-3.9,8.8-8.8
		c0-4.9-3.9-8.8-8.8-8.8h-17.1c9.4-29.7,7.3-55.8-6.4-74.3c-10-13.6-25.4-22.1-44.4-24.8c6.4-10.6,9-25.2,9.8-42.9
		c5.4,1.1,10.9,1.6,16.5,1.6c8,0,16-1.1,24.1-3.3c-0.5,7.9-0.8,15.9-0.8,24c0,4.9,3.9,8.8,8.8,8.8s8.8-3.9,8.8-8.8
		C219,180.6,261.5,92,315.6,77v286.3c-31.4,1.4-60.6,10.5-60.6,28.8c0,20,34.9,29,69.4,29s69.4-9,69.4-29
		C393.8,373.8,364.6,364.7,333.2,363.3z M109.9,186.5c28.5,0,33.6,8.9,34.3,48.2c-11.7-7.3-20.7-18.5-26.1-32.8
		c-1.7-4.5-6.8-6.8-11.3-5.1c-4.5,1.7-6.8,6.8-5.1,11.3c8.1,21.3,23.2,37.7,42.6,46.5c-0.7,30.9-6.1,43.4-17.6,48.1
		c-0.8,0.2-1.6,0.4-2.4,0.8c-4.1,1.2-8.9,1.6-14.4,1.6c-24.3,0-34.4-8-34.4-57.2C75.4,197.4,78.4,186.5,109.9,186.5z M136.5,363.1
		H83.2l3.9-40.4h45.6L136.5,363.1z M324.4,403.6c-30.8,0-48.4-7.7-51.5-11.4c2.8-3.3,17.4-9.9,42.7-11.2v8.6c0,4.9,3.9,8.8,8.8,8.8
		c4.9,0,8.8-3.9,8.8-8.8v-8.6c25.3,1.3,39.9,7.9,42.7,11.2C372.8,395.8,355.2,403.6,324.4,403.6z"/>
	<path class="st0" d="M109.9,166.1c28.2,0,51.1-22.9,51.1-51.1c0-20-11.6-37.3-28.3-45.7c2.9-4.3,4.5-9.5,4.5-15
		c0-15-12.2-27.3-27.3-27.3c-15,0-27.3,12.2-27.3,27.3c0,5.6,1.7,10.7,4.5,15C70.3,77.7,58.8,95,58.8,115
		C58.8,143.2,81.7,166.1,109.9,166.1z M109.9,148.5c-15.4,0-28.4-10.5-32.3-24.7h64.6C138.3,138,125.3,148.5,109.9,148.5z M77.9,105
		c0.2-0.5,0.3-1,0.5-1.4c0-0.1,0.1-0.2,0.1-0.3c0.1-0.4,0.3-0.7,0.4-1.1c0.1-0.2,0.1-0.3,0.2-0.5c0.1-0.3,0.3-0.6,0.4-0.9
		c0.1-0.2,0.2-0.4,0.3-0.5c0.1-0.3,0.3-0.6,0.4-0.8c0.1-0.2,0.2-0.3,0.3-0.5c0.2-0.3,0.3-0.6,0.5-0.9c0.1-0.1,0.2-0.3,0.2-0.4
		c0.3-0.4,0.5-0.8,0.8-1.2c0.1-0.1,0.1-0.2,0.2-0.2c0.2-0.3,0.5-0.7,0.7-1c0.1-0.1,0.2-0.3,0.3-0.4c0.2-0.3,0.4-0.5,0.6-0.8
		c0.1-0.1,0.2-0.3,0.4-0.4c0.2-0.2,0.4-0.5,0.6-0.7c0.1-0.1,0.2-0.3,0.4-0.4c0.2-0.3,0.5-0.5,0.7-0.7c0.1-0.1,0.2-0.2,0.3-0.3
		c0.3-0.3,0.7-0.7,1.1-1c0.1-0.1,0.1-0.1,0.2-0.2c0.3-0.3,0.6-0.5,0.9-0.8c0.1-0.1,0.3-0.2,0.4-0.3c0.3-0.2,0.5-0.4,0.8-0.6
		c0.2-0.1,0.3-0.2,0.5-0.3c0.3-0.2,0.5-0.4,0.8-0.6c0.2-0.1,0.3-0.2,0.5-0.3c0.3-0.2,0.6-0.4,0.9-0.6c0.1-0.1,0.3-0.2,0.4-0.3
		c0.4-0.3,0.9-0.5,1.3-0.7c0.1,0,0.1-0.1,0.2-0.1c0.4-0.2,0.8-0.4,1.2-0.6c0.2-0.1,0.3-0.1,0.5-0.2c0.3-0.1,0.6-0.3,0.9-0.4
		c0.2-0.1,0.4-0.1,0.5-0.2c0.3-0.1,0.6-0.2,0.9-0.4c0.2-0.1,0.4-0.1,0.5-0.2c0.3-0.1,0.7-0.2,1-0.3c0.2-0.1,0.3-0.1,0.5-0.2
		c0.5-0.1,1-0.3,1.5-0.4c0,0,0.1,0,0.1,0c0.5-0.1,0.9-0.2,1.4-0.3c0.2,0,0.3-0.1,0.5-0.1c0.3-0.1,0.7-0.1,1-0.2
		c0.2,0,0.4-0.1,0.6-0.1c0.3,0,0.7-0.1,1-0.1c0.2,0,0.4,0,0.6-0.1c0.4,0,0.7-0.1,1.1-0.1c0.2,0,0.3,0,0.5,0c0.5,0,1.1,0,1.6,0
		c0.5,0,1.1,0,1.6,0c0.2,0,0.3,0,0.5,0c0.4,0,0.7,0,1.1,0.1c0.2,0,0.4,0,0.6,0.1c0.3,0,0.7,0.1,1,0.1c0.2,0,0.4,0.1,0.6,0.1
		c0.3,0.1,0.7,0.1,1,0.2c0.2,0,0.3,0.1,0.5,0.1c0.5,0.1,0.9,0.2,1.4,0.3c0,0,0.1,0,0.1,0c0.5,0.1,1,0.3,1.5,0.4
		c0.2,0,0.3,0.1,0.5,0.1c0.3,0.1,0.7,0.2,1,0.3c0.2,0.1,0.4,0.1,0.5,0.2c0.3,0.1,0.6,0.2,0.9,0.4c0.2,0.1,0.3,0.1,0.5,0.2
		c0.3,0.1,0.6,0.3,0.9,0.4c0.2,0.1,0.3,0.1,0.5,0.2c0.4,0.2,0.8,0.4,1.2,0.6c0,0,0.1,0,0.1,0.1c0.4,0.2,0.9,0.5,1.3,0.7
		c0.1,0.1,0.3,0.2,0.4,0.2c0.3,0.2,0.6,0.4,0.9,0.6c0.2,0.1,0.3,0.2,0.5,0.3c0.3,0.2,0.5,0.4,0.8,0.6c0.2,0.1,0.3,0.2,0.5,0.3
		c0.3,0.2,0.5,0.4,0.8,0.6c0.1,0.1,0.3,0.2,0.4,0.3c0.3,0.3,0.6,0.6,1,0.8c0.1,0,0.1,0.1,0.2,0.1c0.4,0.3,0.7,0.7,1.1,1
		c0.1,0.1,0.2,0.2,0.3,0.3c0.2,0.2,0.5,0.5,0.7,0.8c0.1,0.1,0.2,0.3,0.4,0.4c0.2,0.2,0.4,0.5,0.6,0.7c0.1,0.1,0.2,0.3,0.4,0.4
		c0.2,0.3,0.4,0.5,0.6,0.8c0.1,0.1,0.2,0.3,0.3,0.4c0.2,0.3,0.5,0.7,0.7,1c0,0.1,0.1,0.1,0.1,0.2c0.3,0.4,0.5,0.8,0.8,1.3
		c0.1,0.1,0.1,0.2,0.2,0.4c0.2,0.3,0.4,0.6,0.5,0.9c0.1,0.2,0.2,0.3,0.3,0.5c0.2,0.3,0.3,0.6,0.4,0.9c0.1,0.2,0.2,0.3,0.2,0.5
		c0.1,0.3,0.3,0.6,0.4,0.9c0.1,0.2,0.1,0.3,0.2,0.5c0.2,0.4,0.3,0.8,0.5,1.2c0,0.1,0.1,0.2,0.1,0.3c0.2,0.5,0.3,1,0.5,1.4
		c0,0.1,0.1,0.3,0.1,0.4c0.1,0.3,0.2,0.6,0.2,0.8H77.6c0.1-0.3,0.1-0.5,0.2-0.8C77.8,105.3,77.9,105.1,77.9,105z M109.9,44.6
		c5.3,0,9.7,4.3,9.7,9.7c0,5.3-4.3,9.7-9.7,9.7c-5.3,0-9.7-4.3-9.7-9.7C100.2,48.9,104.5,44.6,109.9,44.6z"/>
</g>
</svg>
