<svg id="icon-to-do-list" width="58" height="73" viewBox="0 0 58 73" fill="none" xmlns="http://www.w3.org/2000/svg">
<path d="M43.4922 52.8066H35.1953C33.642 52.8066 32.3828 54.0658 32.3828 55.6191C32.3828 57.1725 33.642 58.4316 35.1953 58.4316H43.4922C45.0455 58.4316 46.3047 57.1725 46.3047 55.6191C46.3047 54.0658 45.0455 52.8066 43.4922 52.8066Z" fill="#4D88CC"/>
<path d="M43.4922 35.791H35.1953C33.642 35.791 32.3828 37.0502 32.3828 38.6035C32.3828 40.1569 33.642 41.416 35.1953 41.416H43.4922C45.0455 41.416 46.3047 40.1569 46.3047 38.6035C46.3047 37.0502 45.0455 35.791 43.4922 35.791Z" fill="#4D88CC"/>
<path d="M54.7266 49.8535C56.2799 49.8535 57.5391 48.5944 57.5391 47.041V11.6035C57.5391 5.40027 52.4923 0.353516 46.2891 0.353516H11.7109C5.50769 0.353516 0.460938 5.40027 0.460938 11.6035V61.1035C0.460938 67.3068 5.50769 72.3535 11.7109 72.3535H46.2889C52.4923 72.3535 57.5389 67.3068 57.5391 61.1035C57.5391 59.5502 56.2799 58.291 54.7266 58.291C53.1732 58.291 51.9141 59.5502 51.9141 61.1035C51.9141 64.2051 49.3907 66.7285 46.2891 66.7285H11.7109C8.60931 66.7285 6.08594 64.2051 6.08594 61.1035V11.6035C6.08594 8.50189 8.60931 5.97852 11.7109 5.97852H46.2891C49.3907 5.97852 51.9141 8.50189 51.9141 11.6035V47.041C51.9141 48.5944 53.1732 49.8535 54.7266 49.8535Z" fill="#4D88CC"/>
<path d="M28.971 11.5447C27.7737 10.5555 26.0008 10.724 25.0115 11.9216L18.9358 19.2753L16.5384 16.8133C15.4549 15.7006 13.6742 15.6768 12.5613 16.7605C11.4485 17.8441 11.4248 19.6247 12.5084 20.7376L15.5254 23.836C15.5503 23.8616 15.5756 23.8866 15.6015 23.9113C16.5131 24.7791 17.73 25.2617 18.9817 25.2617C19.0891 25.2614 19.1972 25.2579 19.3052 25.2506C20.6616 25.1601 21.9282 24.5037 22.7842 23.4486L29.3478 15.5043C30.3373 14.3067 30.1685 12.534 28.971 11.5447Z" fill="#4D88CC"/>
<path d="M28.9709 45.8398C27.7737 44.8507 26.0008 45.0193 25.0115 46.2167L18.9341 53.5724L16.5329 51.1201C15.446 50.0103 13.6654 49.9918 12.5556 51.0785C11.4458 52.1653 11.4273 53.946 12.5139 55.0558L15.5308 58.1368C15.5539 58.1602 15.5774 58.1834 15.6013 58.2062C16.513 59.074 17.7299 59.5568 18.9816 59.5568C19.0892 59.5565 19.1972 59.553 19.3052 59.5458C20.6614 59.4554 21.928 58.799 22.7841 57.7439L29.3478 49.7994C30.3373 48.6018 30.1685 46.8291 28.9709 45.8398Z" fill="#4D88CC"/>
<path d="M43.4922 18.4941H35.1953C33.642 18.4941 32.3828 19.7533 32.3828 21.3066C32.3828 22.86 33.642 24.1191 35.1953 24.1191H43.4922C45.0455 24.1191 46.3047 22.86 46.3047 21.3066C46.3047 19.7533 45.0455 18.4941 43.4922 18.4941Z" fill="#4D88CC"/>
<path d="M28.9709 28.8242C27.7737 27.8349 26.0008 28.0037 25.0115 29.2011L18.9341 36.5568L16.5329 34.1046C15.446 32.9948 13.6654 32.9762 12.5556 34.0629C11.4458 35.1497 11.4273 36.9304 12.5139 38.0402L15.5308 41.1212C15.5539 41.1447 15.5774 41.1679 15.6013 41.1907C16.513 42.0585 17.7299 42.5412 18.9816 42.5412C19.0892 42.5409 19.1972 42.5374 19.3052 42.5302C20.6614 42.4398 21.928 41.7834 22.7841 40.7283L29.3478 32.7838C30.3373 31.5863 30.1685 29.8135 28.9709 28.8242Z" fill="#4D88CC"/>
</svg>
