<svg xmlns="http://www.w3.org/2000/svg" viewBox="0 0 512 512" width="54" height="54"><path d="M234.34 203.785a65.514 65.514 0 0 1 21.207-3.663c.152-.005.3-.023.453-.023s.301.018.453.023a65.508 65.508 0 0 1 21.207 3.662l90.331 31.661V141.11c0-16.68-13.57-30.249-30.25-30.249H174.26c-16.68 0-30.25 13.569-30.25 30.249v94.335l90.33-31.66zm64.553-23.491h-85.785c-8.284 0-15-6.716-15-15s6.716-15 15-15h85.785c8.284 0 15 6.716 15 15s-6.716 15-15 15zm11.085-99.436l-3.411-25.649a15 15 0 0 0-14.869-13.022h-71.396a14.999 14.999 0 0 0-14.869 13.022l-3.411 25.649h107.956z"/><path d="M497 439.813c-15.744 0-31.145-6.741-44.534-19.493-8.818-8.4-22.633-8.398-31.449.002-9.809 9.345-20.701 15.447-32.015 18.048-4.124.948-8.301 1.444-12.505 1.444-6.323 0-12.588-1.106-18.693-3.233l42.667-120.213c3.179-8.957 2.671-18.611-1.432-27.185-4.103-8.574-11.302-15.027-20.272-18.172L271 233.24v204.507c-4.926 1.364-9.941 2.067-14.993 2.067-5.057 0-10.076-.705-15.007-2.071V233.24l-107.767 37.771c-8.971 3.145-16.17 9.598-20.272 18.172-4.103 8.573-4.61 18.228-1.432 27.185l42.667 120.212c-6.104 2.128-12.369 3.235-18.692 3.235-4.204 0-8.382-.496-12.505-1.443-11.318-2.601-22.215-8.703-32.031-18.052-8.818-8.397-22.631-8.396-31.449.005-13.382 12.751-28.776 19.49-44.519 19.49-8.284 0-15 6.716-15 15s6.716 15 15 15c17.246 0 33.928-5.145 49.107-15a107.99 107.99 0 0 0 11.14-8.299 108.142 108.142 0 0 0 11.144 8.299c15.182 9.855 31.867 15 49.113 15 17.245 0 33.927-5.145 49.106-15a107.99 107.99 0 0 0 11.14-8.299 108.142 108.142 0 0 0 11.144 8.299c15.182 9.855 31.868 15 49.113 15 17.247 0 33.932-5.144 49.114-15a108.032 108.032 0 0 0 11.131-8.289 108.177 108.177 0 0 0 11.131 8.289c15.182 9.855 31.868 15 49.113 15 17.246 0 33.929-5.145 49.107-15a108.232 108.232 0 0 0 11.14-8.298 108.012 108.012 0 0 0 11.143 8.298c15.182 9.854 31.868 15 49.114 15 8.284 0 15-6.716 15-15s-6.716-15.002-15-15.002zM327.56 295.767c14.045 0 25.431 11.356 25.431 25.365s-11.386 25.365-25.431 25.365-25.43-11.356-25.43-25.365 11.385-25.365 25.43-25.365zm-143.12 0c14.045 0 25.43 11.356 25.43 25.365s-11.385 25.365-25.43 25.365-25.43-11.356-25.43-25.365 11.386-25.365 25.43-25.365z"/></svg>