<svg width="38" height="38" viewBox="0 0 38 38" fill="none" xmlns="http://www.w3.org/2000/svg">
<path d="M19 0C8.5232 0 0 8.5234 0 19C0 29.4766 8.5232 38 19 38C29.4767 38 38 29.4768 38 19C38 8.5233 29.4767 0 19 0ZM26.99 31.6893L26.1712 30.2809C26.0767 30.1184 25.9009 30.0174 25.7125 30.0174C25.6187 30.0174 25.5297 30.0416 25.4477 30.0893C25.3253 30.1604 25.2381 30.2747 25.2019 30.4115C25.1661 30.5482 25.185 30.6908 25.2561 30.8132L26.076 32.2234C24.2443 33.2077 22.1854 33.8216 20 33.9664V31.977C20 31.4249 19.5521 30.977 19 30.977C18.4478 30.977 18 31.4249 18 31.977V33.9661C15.8469 33.8237 13.8166 33.225 12.0051 32.2659L12.8162 30.851C12.8865 30.7284 12.9049 30.5859 12.8679 30.4492C12.8309 30.3128 12.743 30.199 12.6204 30.1287C12.539 30.082 12.4507 30.0583 12.358 30.0583C12.1684 30.0583 11.992 30.1604 11.8977 30.3246L11.0875 31.7379C9.2806 30.6113 7.7292 29.1119 6.5428 27.3471L8.2616 26.3548C8.7398 26.0787 8.9037 25.4671 8.6275 24.9888C8.3514 24.5107 7.7398 24.3467 7.2616 24.623L5.5404 25.6167C4.6348 23.7818 4.0938 21.7367 4.012 19.5757L5.645 19.5707C5.7864 19.5703 5.9191 19.5148 6.0187 19.4146C6.1183 19.3143 6.173 19.1812 6.1725 19.0398C6.1716 18.7488 5.9341 18.5121 5.6432 18.5121L4.0084 18.5171C4.0783 16.3222 4.622 14.2451 5.5403 12.3844L7.2615 13.3781C7.4189 13.469 7.5908 13.5122 7.7604 13.5122C8.106 13.5122 8.4422 13.3329 8.6274 13.0121C8.9036 12.5338 8.7397 11.9222 8.2615 11.6461L6.5427 10.6538C7.712 8.9141 9.236 7.4323 11.0098 6.3114L11.8286 7.7198C11.876 7.8012 11.941 7.8661 12.0221 7.9127C12.1839 8.0053 12.389 8.0063 12.552 7.9114C12.6744 7.8403 12.7617 7.7258 12.7978 7.5891C12.834 7.4525 12.8147 7.31 12.7437 7.1878L11.9239 5.7776C13.7558 4.7933 15.8146 4.1792 17.9999 4.0346V6.0235C17.9999 6.5757 18.4477 7.0235 18.9999 7.0235C19.552 7.0235 19.9999 6.5757 19.9999 6.0235V4.0346C22.1529 4.177 24.1831 4.7756 25.9946 5.7347L25.1835 7.1496C25.0384 7.4028 25.1263 7.7269 25.3794 7.872C25.4607 7.9186 25.549 7.9423 25.6418 7.9423C25.8315 7.9423 26.0078 7.8403 26.1018 7.6762L26.9122 6.2627C28.7193 7.3892 30.2707 8.8888 31.4571 10.6536L29.7383 11.6459C29.26 11.922 29.0962 12.5336 29.3724 13.0119C29.5578 13.3327 29.8938 13.512 30.2394 13.512C30.409 13.512 30.581 13.4688 30.7383 13.3779L32.4595 12.3841C33.3653 14.2189 33.9061 16.2641 33.9879 18.4251L32.3549 18.4301C32.2135 18.4305 32.0808 18.486 31.9814 18.5862C31.8818 18.6865 31.8271 18.8195 31.8276 18.9609C31.8282 19.1496 31.9302 19.3251 32.0944 19.4192C32.1738 19.4647 32.2643 19.4885 32.3567 19.4885H32.3584L33.9917 19.4835C33.9218 21.6784 33.3781 23.7556 32.4598 25.6162L30.7386 24.6224C30.2602 24.3462 29.649 24.5102 29.3727 24.9884C29.0965 25.4666 29.2603 26.0782 29.7386 26.3543L31.4574 27.3466C30.2877 29.0863 28.7639 30.5682 26.99 31.6893Z" fill="#4D88CC"/>
<path d="M26.3904 13.5774L19.9762 17.1362C19.6842 16.9829 19.3525 16.895 18.9995 16.895C18.6467 16.895 18.3149 16.9828 18.0229 17.1362L11.6088 13.5774C11.0024 13.2408 10.2377 13.4598 9.90104 14.0663C9.56464 14.6728 9.78344 15.4374 10.3901 15.774L16.9344 19.4051C17.1235 20.3737 17.9756 21.1048 18.9994 21.1048C20.0232 21.1048 20.8754 20.3736 21.0644 19.4051L27.6085 15.774C28.2151 15.4375 28.4339 14.6729 28.0976 14.0663C27.7616 13.4597 26.9971 13.2408 26.3904 13.5774Z" fill="#4D88CC"/>
</svg>
