<svg id="icon-tour-snowmobile" height="512pt" viewBox="0 -98 512.002 512" width="512pt" xmlns="http://www.w3.org/2000/svg"><path d="m488.550781 247.152344-30.449219 38.300781h-17.214843l-25.335938-49.695313h55.765625v-68.988281l-50.59375-68.398437c-27.265625-36.859375-70.914062-58.863282-116.761718-58.863282h-67.324219l-26.628907-39.507812h-52.570312v29.957031h36.636719l14.839843 22.015625v80.226563h-36.496093v-58.304688h-135.246094v127.828125c-21.753906 8.679688-37.171875 29.941406-37.171875 54.753906 0 32.496094 26.4375 58.933594 58.933594 58.933594h171.324218c32.496094 0 58.9375-26.4375 58.9375-58.933594 0-7.289062-1.339843-14.269531-3.769531-20.71875h96.5l25.335938 49.695313h-88.632813v29.957031h153.925782l39.449218-49.613281zm-91.910156-130.964844 11.832031 16h-69.699218v-57.285156c22.882812 7.285156 43.316406 21.613281 57.867187 41.285156zm-87.824219-46.605469v62.605469h-69.945312v-62.722656h65.089844c1.625 0 3.242187.046875 4.855468.117187zm-241.691406 34.269531h75.335938v28.347657h-75.335938zm105.292969 58.304688h66.453125v-.015625h191.761718l10.726563 14.503906v29.15625h-181.058594c-8.804687-5.238281-19.074219-8.257812-30.042969-8.257812h-163.132812v-35.386719zm57.839843 123.296875h-171.324218c-15.976563 0-28.976563-13-28.976563-28.976563 0-15.980468 13-28.976562 28.976563-28.976562h171.324218c15.980469 0 28.980469 12.996094 28.980469 28.976562 0 15.976563-13 28.976563-28.980469 28.976563zm0 0"/></svg>
