<svg id="icon-question" width="44" height="44" viewBox="0 0 44 44" fill="none" xmlns="http://www.w3.org/2000/svg">
<circle cx="21.7895" cy="21.7885" r="20.2895" stroke="#4D88CC" stroke-width="3"/>
<path d="M23.2746 24.6781C23.2746 21.8881 28.5546 19.5781 28.5546 15.4081C28.5546 11.5981 25.1646 10.1581 21.3846 10.1581C19.1346 10.1581 17.1246 10.7881 15.5646 11.6281V15.5881C16.9146 14.8081 18.7746 14.1181 20.6346 14.1181C22.6146 14.1181 24.0546 14.6881 24.0546 16.3681C24.0546 18.6781 19.3146 20.8681 19.3146 24.6781H23.2746ZM23.8446 29.5081C23.8446 27.8281 22.6746 27.0481 21.3246 27.0481C19.9746 27.0481 18.7746 27.8281 18.7746 29.5081C18.7746 31.1881 19.9746 31.9681 21.3246 31.9681C22.6746 31.9681 23.8446 31.1881 23.8446 29.5081Z" fill="#4D88CC"/>
</svg>

