<svg id="icon-flag" width="46" height="53" viewBox="0 0 46 53" fill="none" xmlns="http://www.w3.org/2000/svg">
<path d="M45.0328 6.66022C44.8764 6.50088 44.6896 6.37454 44.4835 6.28866C44.2774 6.20278 44.0561 6.1591 43.8328 6.16022C43.3241 6.26227 42.8369 6.45175 42.3928 6.72022C41.6128 7.09022 40.8328 7.51022 40.0328 8.00022C39.1009 8.505 38.1232 8.92019 37.1128 9.24022C36.11 9.59461 35.0563 9.78374 33.9928 9.80022C33.1848 9.81518 32.3842 9.6441 31.6528 9.30022C29.7693 8.39427 27.8285 7.6126 25.8428 6.96022C24.1216 6.43807 22.3315 6.17849 20.5328 6.19022C17.2662 6.19022 13.5395 7.25355 9.35282 9.38022C8.49282 9.81022 7.87282 10.1402 7.47282 10.3802L7.03282 7.44022C7.68823 6.87776 8.15576 6.12815 8.37258 5.29214C8.5894 4.45613 8.54512 3.57378 8.24569 2.76368C7.94626 1.95358 7.40602 1.25455 6.69759 0.760531C5.98917 0.266516 5.14649 0.00119123 4.28282 0.000216383C3.35451 -0.00915961 2.44878 0.286397 1.70467 0.841512C0.960568 1.39663 0.419216 2.18062 0.163727 3.07313C-0.0917625 3.96564 -0.0472675 4.91733 0.290381 5.78211C0.62803 6.64689 1.24017 7.37695 2.03282 7.86022L7.80282 50.0002C7.88506 50.5993 8.18165 51.1483 8.63764 51.5454C9.09364 51.9426 9.67812 52.161 10.2828 52.1602H10.6228C11.2778 52.0683 11.87 51.7215 12.2707 51.1953C12.6715 50.6691 12.8483 50.0061 12.7628 49.3502L10.4528 32.3602C14.6328 30.2802 18.2628 29.2402 21.3028 29.2402C22.5853 29.2366 23.8605 29.4323 25.0828 29.8202C26.1468 30.1377 27.1755 30.5632 28.1528 31.0902C29.0715 31.6017 30.0356 32.0269 31.0328 32.3602C32.0847 32.7418 33.1939 32.9413 34.3128 32.9502C37.0395 32.9502 40.3062 31.9235 44.1128 29.8702C44.498 29.6819 44.8521 29.4357 45.1628 29.1402C45.3934 28.8595 45.511 28.503 45.4928 28.1402V7.86022C45.4992 7.63973 45.4618 7.42016 45.3829 7.2142C45.3039 7.00823 45.1849 6.81995 45.0328 6.66022Z" fill="#4D88CC"/>
</svg>
