<svg viewBox="0 0 72 89" width="72" height="89" xmlns="http://www.w3.org/2000/svg"><path d="M46.873 57.136c1.649-2.755 4.073-4.167 7.287-4.204 3.214-.038 4.836-1.675 4.889-4.897.045-3.206 1.44-5.63 4.196-7.27 2.762-1.65 3.36-3.866 1.788-6.674-1.566-2.8-1.566-5.6 0-8.408 1.573-2.8.978-5.013-1.788-6.661-2.755-1.652-4.155-4.072-4.197-7.294-.052-3.206-1.674-4.844-4.888-4.881-3.214-.045-5.638-1.45-7.287-4.204C45.225-.12 43.008-.718 40.208.855c-2.8 1.566-5.608 1.566-8.408 0-2.804-1.57-5.02-.975-6.669 1.788-1.645 2.759-4.072 4.162-7.282 4.204-3.207.037-4.837 1.675-4.882 4.881-.053 3.222-1.449 5.638-4.204 7.294-2.762 1.648-3.368 3.858-1.787 6.661 1.573 2.808 1.573 5.608 0 8.408-1.581 2.808-.979 5.028 1.787 6.673 2.755 1.641 4.155 4.065 4.204 7.271.045 3.218 1.675 4.86 4.882 4.897 3.214.037 5.637 1.449 7.286 4.204 1.648 2.762 3.865 3.36 6.665 1.78 2.8-1.55 5.608-1.55 8.408 0 2.8 1.577 5.02.982 6.665-1.78zm-10.861-9.661c-9.718 0-17.591-7.874-17.591-17.591 0-9.71 7.873-17.584 17.59-17.584 9.71 0 17.584 7.874 17.584 17.584 0 9.717-7.873 17.59-17.583 17.59z"/><path d="M17.566 55.51c-3.38 0-3.831-1.573-3.831-1.573L.536 79.879l10.583-1.19 5.853 8.808s12.194-25.442 12.194-25.273c-6.32-.158-3.805-6.545-11.6-6.714zM58.1 54.953c-9.642 1.009-7.681 3.402-9.887 5.262-2.536 2.706-5.705 2.175-5.705 2.175l14.885 25.611 3.662-9.484 10.41 1.359L58.1 54.953zM39.685 26.003l-3.68-7.451-3.685 7.451-8.239 1.205 5.954 5.807-1.403 8.212 7.373-3.873 7.372 3.873-1.403-8.212 5.954-5.807-8.243-1.205z"/></svg>
