<svg width="72" height="35" viewBox="0 0 72 35" fill="none" xmlns="http://www.w3.org/2000/svg">
<path d="M71.4609 13.4974L67.7508 4.98143C66.4148 1.95339 63.5115 0.00915368 60.3117 0H7.11621C3.1875 0.00427172 0.00410157 3.31973 0 7.41143V25.933C0.00292968 28.175 1.74727 29.9917 3.9 29.9948H9.72012C10.2879 32.9075 12.7465 35 15.6 35C18.4535 35 20.9121 32.9075 21.4799 29.9948H50.5201C51.0879 32.9075 53.5465 35 56.4 35C59.2535 35 61.7121 32.9075 62.2799 29.9948H68.6643C70.5059 29.9929 71.9982 28.4386 72 26.5206V16.0848C72.0006 15.1921 71.8166 14.3096 71.4609 13.4974ZM68.8594 13.5792L57.6 12.5979V7.34857L65.6906 6.29529L68.8594 13.5792ZM15.6 32.4943C13.6119 32.4943 12 30.8155 12 28.745C12 26.6744 13.6119 24.9956 15.6 24.9956C17.5881 24.9956 19.2 26.6744 19.2 28.745C19.2 30.8155 17.5881 32.4943 15.6 32.4943ZM56.4 32.4943C54.4119 32.4943 52.8 30.8155 52.8 28.745C52.8 26.6744 54.4119 24.9956 56.4 24.9956C58.3881 24.9956 60 26.6744 60 28.745C60 30.8155 58.3881 32.4943 56.4 32.4943ZM68.6643 27.4952H62.2799C61.7121 24.5825 59.2535 22.49 56.4 22.49C53.5465 22.49 51.0879 24.5825 50.5201 27.4952H21.4799C20.9121 24.5825 18.4535 22.49 15.6 22.49C12.7465 22.49 10.2879 24.5825 9.72012 27.4952H3.9C3.07207 27.494 2.40117 26.7953 2.4 25.933V7.41143C2.40293 4.6995 4.5123 2.50262 7.11621 2.49956H60.3117C61.7074 2.50262 63.0545 3.03109 64.1051 3.98673L56.3256 4.99913H9.6C8.9373 4.99913 8.4 5.55872 8.4 6.24891V13.7476C8.4 14.4378 8.9373 14.9974 9.6 14.9974H56.3496L69.6 16.1471V26.5206C69.5994 27.0583 69.1805 27.4946 68.6643 27.4952ZM10.8 12.4978V7.49869H19.2V12.4978H10.8ZM21.6 7.49869H31.2V12.4978H21.6V7.49869ZM33.6 7.49869H42V12.4978H33.6V7.49869ZM44.4 7.49869H55.2V12.4978H44.4V7.49869Z" fill="#1B2748"/>
</svg>
