<svg id="icon-tour-helicopter" height="512pt" viewBox="0 -31 512.00067 512" width="512pt" xmlns="http://www.w3.org/2000/svg"><path d="m341 285c0-24.8125-20.1875-45-45-45s-45 20.1875-45 45 20.1875 45 45 45 45-20.1875 45-45zm-45 15c-8.269531 0-15-6.730469-15-15 0-8.273438 6.730469-15 15-15 8.273438 0 15 6.726562 15 15 0 8.269531-6.726562 15-15 15zm0 0"/><path d="m497 390c-8.285156 0-15 6.714844-15 15 0 8.269531-6.726562 15-15 15h-20.835938l-16.867187-32.613281c46.507813-10.582031 81.46875-52.117188 81.703125-101.597657.425781-91.503906-73.472656-165.789062-165-165.789062h-15v-45c0-8.285156-6.714844-15-15-15h-15v-30h165c8.285156 0 15-6.714844 15-15s-6.714844-15-15-15h-359.996094c-8.285156 0-15 6.714844-15 15s6.714844 15 15 15h164.996094v30h-15c-8.28125 0-15 6.714844-15 15v45h-125.726562l-25.855469-51.707031c-2.539063-5.082031-7.734375-8.292969-13.414063-8.292969h-61c-9.070312 0-16.066406 8-14.871094 16.980469l20 150c.996094 7.453125 7.351563 13.019531 14.871094 13.019531h135.765625l20.816407 70.960938c7.660156 26.125 24.410156 48.304687 48.210937 62.902343l-23.066406 46.136719h-50.726563c-8.285156 0-15 6.714844-15 15 0 8.28125 6.714844 15 15 15h300.996094c24.8125 0 45-20.1875 45-45 0-8.285156-6.714844-15-15-15zm-23.644531-150h-66.125c-11.492188 0-21.464844-7.789062-24.25-18.9375l-17.417969-69.660156c51.066406 7.363281 91.757812 43.109375 107.792969 88.597656zm-202.355469-150h30v30h-30zm-50.628906 212.515625-23.976563-81.738281c-1.871093-6.390625-7.734375-10.777344-14.390625-10.777344h-133.867187l-16-120h34.59375l25.855469 51.707031c2.542968 5.082031 7.734374 8.292969 13.417968 8.292969h228.285156l19.585938 78.339844c6.132812 24.527344 28.074219 41.660156 53.359375 41.660156h72.941406c.566407 5.160156.847657 10.378906.824219 15.648438-.191406 40.996093-33.839844 74.351562-75.003906 74.351562h-108.859375c-35.269531 0-66.835938-23.640625-76.765625-57.484375zm46.945312 83.394531c18.894532 5.304688 21.078125 4.089844 129.554688 4.089844l15.519531 30h-162.117187zm0 0"/></svg>
