<svg version="1.1" id="icon-tour-military" xmlns="http://www.w3.org/2000/svg" xmlns:xlink="http://www.w3.org/1999/xlink" x="0px" y="0px"
	 viewBox="0 0 534 534" style="enable-background:new 0 0 534 534;" xml:space="preserve">
<style type="text/css">
	.st0{stroke:#000000;stroke-width:5;stroke-miterlimit:10;}
</style>
<path class="st0" d="M376.3,176.5c-4.7,0-8.5-3.8-8.5-8.5v-36.3c0-54.4-47.7-98.7-106.3-98.7c-58.6,0-106.3,44.3-106.3,98.7v34.4
	c0,4.7-3.8,8.5-8.5,8.5c-4.7,0-8.5-3.8-8.5-8.5v-34.4C138.2,67.9,193.5,16,261.5,16c68,0,123.3,51.9,123.3,115.7V168
	C384.8,172.7,381,176.5,376.3,176.5z"/>
<path class="st0" d="M316.7,397.6H206.2c-4.7,0-8.5-3.8-8.5-8.5v-48c0-4.7,3.8-8.5,8.5-8.5c4.7,0,8.5,3.8,8.5,8.5v39.5h93.5v-45.9
	c0-4.7,3.8-8.5,8.5-8.5c4.7,0,8.5,3.8,8.5,8.5v54.4C325.2,393.8,321.4,397.6,316.7,397.6z"/>
<path class="st0" d="M260.3,372c-42,0-76.3-33.4-78.1-75.1l-20.7-22c-9.6-10.2-14.9-23.5-14.9-37.4v-27.1c0-4.7,3.8-8.5,8.5-8.5
	c4.7,0,8.5,3.8,8.5,8.5v27.1c0,9.6,3.6,18.8,10.2,25.8l22.9,24.4c1.5,1.6,2.3,3.7,2.3,5.8c0,33.9,27.4,61.5,61.2,61.5
	c33.7,0,61.2-27.6,61.2-61.5c0-1.9,0.6-3.7,1.8-5.2l28-36c5.1-6.6,7.9-14.8,7.9-23.1V219c0-4.7,3.8-8.5,8.5-8.5
	c4.7,0,8.5,3.8,8.5,8.5v10.3c0,12.1-4.1,24-11.5,33.5l-26.3,33.7C336.9,338.4,302.5,372,260.3,372z"/>
<path class="st0" d="M372.9,219H150c-11.2,0-20.4-9.1-20.4-20.4v-18.8c0-11.2,9.1-20.4,20.4-20.4h222.9c11.2,0,20.4,9.1,20.4,20.4
	v18.8C393.3,209.8,384.1,219,372.9,219z M150,176.5c-1.9,0-3.4,1.5-3.4,3.4v18.8c0,1.9,1.5,3.4,3.4,3.4h222.9c1.8,0,3.4-1.5,3.4-3.4
	v-18.8c0-1.9-1.5-3.4-3.4-3.4H150z"/>
<path class="st0" d="M402,516.6H121.2c-4.7,0-8.5-3.8-8.5-8.5V390.9c0-4,2.8-7.5,6.8-8.3c6.4-1.3,12.9-2,19.3-2h253.9
	c3.3,0,6.8,0.2,10.6,0.6c4.3,0.5,7.6,4.1,7.6,8.5l-0.3,118.5C410.5,512.8,406.7,516.6,402,516.6z M129.7,499.6h263.9l0.2-102
	c-0.4,0-0.7,0-1.1,0H138.8c-3,0-6.1,0.2-9.1,0.5V499.6z"/>
<path class="st0" d="M121.2,516.6h-68c-4.7,0-8.5-3.8-8.5-8.5v-33.4c0-44.3,31.5-83.1,74.8-92.1c2.5-0.5,5.1,0.1,7.1,1.7
	c2,1.6,3.1,4,3.1,6.6v117.2C129.7,512.8,125.9,516.6,121.2,516.6z M61.6,499.6h51v-97.5c-30.1,10.9-51,39.9-51,72.6V499.6z"/>
<path class="st0" d="M478.3,516.6H402c-2.3,0-4.4-0.9-6-2.5c-1.6-1.6-2.5-3.8-2.5-6l0.3-118.5c0-2.4,1-4.7,2.8-6.3
	c1.8-1.6,4.2-2.4,6.6-2.1c47.6,5.3,83.6,45.5,83.6,93.5v33.4C486.8,512.8,483,516.6,478.3,516.6z M410.5,499.6h59.3v-24.9
	c0-36.1-24.8-66.8-59-75L410.5,499.6z"/>
<path class="st0" d="M367.8,516.6H155.2c-4.7,0-8.5-3.8-8.5-8.5v-33.2c0-4.7,3.8-8.5,8.5-8.5h212.6c4.7,0,8.5,3.8,8.5,8.5v33.2
	C376.3,512.8,372.5,516.6,367.8,516.6z M163.7,499.6h195.6v-16.2H163.7V499.6z"/>
<path class="st0" d="M240.2,448.6h-19.5c-21.3,0-38.6-17.3-38.6-38.6v-20.9c0-4.7,3.8-8.5,8.5-8.5h66.6c2.7,0,5.3,1.3,6.9,3.5
	c1.6,2.2,2,5.1,1.2,7.7l-17,51C247.1,446.2,243.9,448.6,240.2,448.6z M199.2,397.6V410c0,11.9,9.7,21.6,21.6,21.6h13.3l11.3-34
	H199.2z"/>
<path class="st0" d="M300,448.6h-25.7c-3.7,0-6.9-2.3-8.1-5.8l-17-51c-0.9-2.6-0.4-5.4,1.2-7.7c1.6-2.2,4.2-3.5,6.9-3.5h72.8
	c4.7,0,8.5,3.8,8.5,8.5V410C338.6,431.3,321.2,448.6,300,448.6z M280.3,431.6H300c11.9,0,21.6-9.7,21.6-21.6v-12.4H269L280.3,431.6z
	"/>
<path class="st0" d="M244.7,146.3c-1.5,0-3-0.4-4.3-1.2c-2.9-1.7-4.5-4.9-4.1-8.2l2-20.3l-13.2-13.2c-2.2-2.2-3-5.4-2.1-8.3
	c0.9-3,3.2-5.2,6.2-5.9l16.3-3.8l6.7-18.2c1.2-3.2,4.1-5.4,7.5-5.5c3.6-0.2,6.6,1.7,8.1,4.7l8.3,17.1l16.4,1.7
	c3.1,0.3,5.8,2.3,7,5.2c1.2,2.9,0.7,6.2-1.2,8.6l-11.9,14.9l4,20c0.6,3.2-0.6,6.5-3.3,8.5c-2.6,2-6.1,2.2-9.1,0.7l-14.7-7.8l-14,9.6
	C248,145.8,246.4,146.3,244.7,146.3z M247.9,102.3l5.2,5.3c1.8,1.8,2.7,4.3,2.4,6.8l-0.6,6l3.1-2.1c2.6-1.8,6-2,8.8-0.5l3.5,1.9
	l-1.3-6.3c-0.5-2.5,0.1-5,1.7-7l4.7-5.9l-5.7-0.6c-2.9-0.3-5.5-2.1-6.8-4.7l-1.7-3.5l-1.4,3.9c-1,2.7-3.3,4.7-6,5.3L247.9,102.3z"/>
</svg>
