<svg id="icon-auto" width="82" height="33" viewBox="0 0 82 33" fill="none" xmlns="http://www.w3.org/2000/svg">
<path d="M33.9473 12.2207H39.3787V14.937H33.9473V12.2207Z" fill="#1B2748"/>
<path d="M80.309 8.16094L71.085 6.8437C69.4031 5.81047 67.6577 4.88553 65.8581 4.07385C59.915 1.38191 53.4648 -0.00715532 46.9399 2.77165e-05H45.3376C37.6375 0.00555298 30.0606 1.93776 23.2976 5.62039L18.6425 8.15984C13.1934 8.22117 7.84929 9.67046 3.11518 12.369C1.19126 13.4724 0.0033152 15.5196 0 17.7369V25.8C0 26.5504 0.607786 27.1581 1.35813 27.1581H5.91763C7.40063 31.3889 12.0325 33.6167 16.2633 32.1337C18.5922 31.3176 20.4227 29.4865 21.2388 27.1581H57.5181C59.0011 31.3889 63.633 33.6167 67.8638 32.1337C70.1922 31.3176 72.0232 29.4865 72.8393 27.1581H73.3267C73.4996 27.1581 73.6709 27.1255 73.8317 27.0614L78.2299 25.2967C80.1947 24.5187 81.4815 22.6169 81.4743 20.5045V9.50526C81.4743 8.83006 80.9776 8.25708 80.309 8.16094ZM18.9005 25.5287C18.2999 28.4676 15.4306 30.3634 12.4917 29.7628C9.55219 29.1622 7.65645 26.2929 8.25706 23.3534C8.85821 20.4145 11.7275 18.5187 14.6664 19.1193C17.1954 19.636 19.011 21.861 19.0105 24.4424C19.0105 24.8071 18.9734 25.1712 18.9005 25.5287ZM43.4529 24.4424H21.7262C21.7262 19.9426 18.0789 16.2948 13.5791 16.2948C9.07922 16.2948 5.4314 19.9426 5.4314 24.4424H2.7157V17.7369C2.71736 16.4931 3.38371 15.3444 4.46336 14.7267C8.89468 12.1966 13.9084 10.865 19.0105 10.8634H43.4529V24.4424ZM43.4529 8.14768H24.3363L24.5982 8.00457C30.4037 4.84961 36.8523 3.06106 43.4529 2.7754V8.14768ZM46.1686 2.71573H46.9371C52.4094 2.70965 57.832 3.74841 62.9147 5.77676L60.5438 8.14768H46.1686V2.71573ZM70.501 25.5287C69.9004 28.4676 67.0311 30.3634 64.0916 29.7628C61.1527 29.1622 59.257 26.2929 59.8576 23.3534C60.4582 20.4145 63.328 18.5187 66.267 19.1193C68.7959 19.636 70.6115 21.861 70.611 24.4424C70.611 24.8071 70.574 25.1712 70.501 25.5287ZM78.7586 12.221H74.6848V14.9372H78.7586V20.5045C78.7619 21.5052 78.1519 22.4058 77.2215 22.7732L73.3267 24.3375C73.3267 24.2126 73.3106 24.0888 73.3024 23.9639C73.2941 23.8391 73.2913 23.6926 73.2781 23.5567C73.2642 23.4208 73.2372 23.2849 73.2156 23.1495C73.1935 23.0136 73.1775 22.8777 73.1504 22.7544C73.1233 22.6307 73.0836 22.4937 73.0482 22.3644C73.0128 22.2356 72.9858 22.1052 72.9449 21.9787C72.9045 21.8527 72.8554 21.7317 72.8095 21.6079C72.7631 21.4847 72.7211 21.3571 72.6736 21.2344C72.6261 21.1123 72.562 21.0013 72.5051 20.8858C72.4481 20.7703 72.3923 20.6438 72.3288 20.5272C72.2647 20.4106 72.1929 20.3111 72.1315 20.2029C72.0708 20.094 71.9962 19.9702 71.9188 19.8592C71.8409 19.7476 71.7691 19.6597 71.6945 19.5591C71.6199 19.4586 71.5354 19.3403 71.4486 19.2359C71.3619 19.1315 71.2806 19.0497 71.1961 18.9641C71.1121 18.879 71.0182 18.7635 70.9248 18.6685C70.8309 18.5734 70.7386 18.4983 70.6452 18.4143C70.5513 18.3303 70.4507 18.2309 70.3474 18.1425C70.2446 18.0546 70.1397 17.9866 70.0369 17.9093C69.9336 17.8319 69.8302 17.7491 69.7219 17.6767C69.6131 17.6048 69.491 17.5413 69.3744 17.465C69.2573 17.3888 69.1622 17.3291 69.0523 17.2711C68.9423 17.2125 68.8053 17.1512 68.6804 17.0915C68.5555 17.0319 68.4577 16.9788 68.3423 16.9302C68.2268 16.881 68.0704 16.8296 67.9351 16.781C67.7991 16.7318 67.7107 16.6937 67.5952 16.6572C67.4405 16.6097 67.282 16.5755 67.1239 16.5362C67.0206 16.5119 66.9217 16.4793 66.8173 16.4578C66.6504 16.4235 66.4791 16.4047 66.3095 16.3799C66.2089 16.3666 66.1128 16.3445 66.0122 16.3351C65.7404 16.308 65.4691 16.2931 65.184 16.2931C60.6858 16.2975 57.0408 19.9426 57.0363 24.4408H46.1691V10.8628H61.1057C61.466 10.8628 61.8113 10.7197 62.0655 10.465L65.5868 6.94371C67.0648 7.64709 68.502 8.43334 69.8916 9.29861C70.0518 9.39862 70.2308 9.46437 70.4181 9.49144L78.7586 10.6822V12.221Z" fill="#1B2748"/>
</svg>
