<svg viewBox="0 0 91 91" width="91" height="91" xmlns="http://www.w3.org/2000/svg"><path d="M14.462 18.022a8.974 8.974 0 1 0 0-17.948 8.974 8.974 0 0 0 0 17.948zM4.45 49.468h.89v17.8a4.463 4.463 0 0 0 4.45 4.45h9.345a4.463 4.463 0 0 0 4.45-4.45V66.23c-.816-1.559-1.335-3.338-1.335-5.192V37.75c0-4.524 2.744-8.455 6.674-10.16v-1.78a4.463 4.463 0 0 0-4.45-4.45H4.45A4.463 4.463 0 0 0 0 25.81v19.208c0 2.448 1.928 4.45 4.45 4.45zM76.613 18.022a8.974 8.974 0 1 0 0-17.948 8.974 8.974 0 0 0 0 17.948zM62.075 25.735v1.78c3.932 1.706 6.675 5.637 6.675 10.16V60.89c0 1.854-.445 3.634-1.334 5.191v1.038a4.462 4.462 0 0 0 4.45 4.45h9.345a4.463 4.463 0 0 0 4.45-4.45v-17.8h.889A4.463 4.463 0 0 0 91 44.87V25.736a4.463 4.463 0 0 0-4.45-4.45H66.525a4.463 4.463 0 0 0-4.45 4.45zM28.998 37.75v23.288a4.463 4.463 0 0 0 4.45 4.45h1.706v20.988a4.463 4.463 0 0 0 4.45 4.45h11.94a4.463 4.463 0 0 0 4.45-4.45V65.413H57.7a4.463 4.463 0 0 0 4.45-4.45V37.75a4.463 4.463 0 0 0-4.45-4.45H33.448c-2.521 0-4.45 2.003-4.45 4.45zM45.538 29.592c5.693 0 10.309-4.615 10.309-10.309 0-5.693-4.616-10.309-10.31-10.309-5.693 0-10.309 4.616-10.309 10.31 0 5.693 4.616 10.308 10.31 10.308z"/></svg>
