<svg xmlns="http://www.w3.org/2000/svg" width="19" height="9"><path d="M14.7 0C12 0 10.2 2.1 8.6 4 7.3 5.7 6 7.2 4.4 7.2S1.8 5.6 1.8 4.4c0-1.1 1.1-2.6 2.8-2.6 1.6 0 2.5 1.3 2.5 1.4.3.4.9.5 1.3.2.5-.2.6-.8.4-1.2C8.7 2.1 7.3 0 4.6 0S0 2.3 0 4.4C0 6.6 1.8 9 4.4 9c2.4 0 4-1.9 5.6-3.8 1.4-1.7 2.8-3.4 4.6-3.4 1.1 0 1.8.4 2.2 1.1.3.6.3 1.4.3 1.6 0 .1-.1.9-.4 1.5-.4.7-1 1.1-1.8 1.1-1.7 0-2.6-1.1-2.9-1.5-.1-.1-.2-.2-.2-.3-.4-.3-1-.3-1.3.1-.3.4-.3.9.1 1.2l.1.1c.4.5 1.8 2.1 4.4 2.1 3.1 0 4.1-3 4.1-4.4 0-.9-.2-1.7-.5-2.4-.7-.9-1.8-2-4-2z"/></svg>