<svg id="icon-compass" height="512" viewBox="-31 0 512 512" width="512" xmlns="http://www.w3.org/2000/svg"><path d="m265.890625 63.75c2.628906-5.710938 4.109375-12.058594 4.109375-18.75 0-24.8125-20.1875-45-45-45s-45 20.1875-45 45c0 6.691406 1.480469 13.039062 4.109375 18.75-105.996094 19.628906-184.109375 112.972656-184.109375 222.25 0 124.402344 100.757812 226 225 226 124.941406 0 225-102.085938 225-226 0-109.125-77.949219-202.589844-184.109375-222.25zm106.964844 349.894531-21.375-21.375c21.726562-26.042969 34.828125-57.660156 37.839843-91.28125h30.113282c-3.242188 42.847657-20.25 81.890625-46.578125 112.65625zm-342.289063-112.644531h30.113282c3.011718 33.621094 16.113281 65.226562 37.839843 91.269531l-21.375 21.375c-26.328125-30.765625-43.335937-69.800781-46.578125-112.644531zm46.578125-142.644531 21.375 21.375c-21.726562 26.042969-34.828125 57.648437-37.839843 91.269531h-30.113282c3.242188-42.84375 20.253906-81.878906 46.578125-112.644531zm147.855469 263.644531c-74.4375 0-135-61.007812-135-136s60.5625-136 135-136 135 61.007812 135 136-60.5625 136-135 136zm105.3125-263.527344c-25.777344-21.675781-57.035156-34.753906-90.3125-37.78125v-30.117187c42.449219 3.261719 81.132812 20.25 111.671875 46.539062zm-120.3125-37.78125c-33.277344 3.027344-64.535156 16.105469-90.3125 37.78125l-21.359375-21.359375c30.539063-26.289062 69.222656-43.277343 111.671875-46.539062zm-90.3125 292.835938c25.777344 21.675781 57.035156 34.753906 90.3125 37.78125v30.117187c-42.449219-3.261719-81.132812-20.25-111.671875-46.539062zm120.3125 37.78125c33.277344-3.027344 64.535156-16.105469 90.3125-37.78125l21.359375 21.359375c-30.539063 26.289062-69.222656 43.277343-111.671875 46.539062zm149.320312-180.308594c-3.011718-33.621094-16.113281-65.226562-37.839843-91.269531l21.375-21.375c26.324219 30.765625 43.335937 69.796875 46.578125 112.644531zm-179.320312-226c0-8.269531 6.730469-15 15-15s15 6.730469 15 15-6.730469 15-15 15-15-6.730469-15-15zm0 0"/><path d="m259.628906 258.078125c-1.449218-2.902344-3.804687-5.257813-6.707031-6.707031l-84.851563-42.425782c-5.773437-2.886718-12.75-1.757812-17.316406 2.808594-4.5625 4.566406-5.695312 11.539063-2.808594 17.316406l42.425782 84.851563c1.453125 2.902344 3.804687 5.257813 6.707031 6.707031l84.855469 42.429688c5.808594 2.902344 12.777344 1.726562 17.3125-2.8125 4.566406-4.5625 5.695312-11.539063 2.808594-17.3125zm-44.660156 37.953125-20.066406-40.128906 40.132812 20.066406 20.0625 40.128906zm0 0"/></svg>
