<svg id="icon-botanical" height="511pt" viewBox="0 -41 511.99972 511" width="511pt" xmlns="http://www.w3.org/2000/svg"><path d="m507.957031 340.789062-40.503906-44.835937h10.453125c6.191406 0 11.804688-3.644531 14.316406-9.304687 2.515625-5.660157 1.460938-12.269532-2.691406-16.867188l-29.359375-32.496094h.402344c6.195312 0 11.804687-3.648437 14.320312-9.308594 2.515625-5.660156 1.457031-12.269531-2.691406-16.863281l-54.371094-60.183593c-2.96875-3.285157-7.195312-5.164063-11.625-5.164063-4.433593 0-8.65625 1.878906-11.628906 5.164063l-54.367187 60.183593c-4.152344 4.59375-5.207032 11.203125-2.691407 16.863281 2.511719 5.660157 8.125 9.308594 14.320313 9.308594h.398437l-29.355469 32.496094c-4.152343 4.59375-5.207031 11.207031-2.695312 16.867188 2.515625 5.660156 8.128906 9.304687 14.320312 9.304687h10.453126l-40.507813 44.835937c-4.152344 4.59375-5.207031 11.207032-2.691406 16.867188s8.128906 9.304688 14.320312 9.304688h74.453125v47.550781c0 8.652343 7.015625 15.667969 15.671875 15.667969 8.652344 0 15.667969-7.015626 15.667969-15.667969v-47.550781h74.453125c6.195313 0 11.804687-3.644532 14.320313-9.304688 2.515624-5.660156 1.460937-12.269531-2.691407-16.867188zm-156.601562-5.164062 40.503906-44.835938c4.152344-4.59375 5.207031-11.203124 2.695313-16.863281-2.515626-5.660156-8.128907-9.308593-14.320313-9.308593h-10.453125l29.359375-32.496094c4.152344-4.597656 5.207031-11.207032 2.691406-16.867188-2.511719-5.660156-8.125-9.308594-14.316406-9.308594h-.402344l19.09375-21.136718 19.097657 21.136718h-.402344c-6.191406 0-11.804688 3.648438-14.320313 9.308594-2.511719 5.660156-1.457031 12.269532 2.695313 16.867188l29.355468 32.496094h-10.449218c-6.195313 0-11.804688 3.648437-14.320313 9.308593-2.515625 5.660157-1.457031 12.269531 2.691407 16.863281l40.503906 44.835938zm0 0"/><path d="m208.199219 270.808594h26.664062c6.191407 0 11.804688-3.648438 14.316407-9.304688 2.515624-5.664062 1.460937-12.273437-2.691407-16.867187l-48.148437-53.296875h13.046875c6.195312 0 11.808593-3.648438 14.320312-9.308594 2.515625-5.660156 1.460938-12.269531-2.691406-16.867188l-73.644531-81.511718c-2.972656-3.289063-7.195313-5.167969-11.625-5.167969-4.433594 0-8.660156 1.878906-11.628906 5.167969l-73.644532 81.511718c-4.152344 4.597657-5.207031 11.207032-2.691406 16.867188 2.511719 5.660156 8.125 9.308594 14.320312 9.308594h13.046876l-48.148438 53.296875c-4.152344 4.59375-5.207031 11.203125-2.691406 16.867187 2.511718 5.65625 8.125 9.304688 14.316406 9.304688h26.664062l-63.246093 70.011718c-4.152344 4.59375-5.207031 11.203126-2.691407 16.863282 2.511719 5.660156 8.125 9.308594 14.316407 9.308594h106.40625v47.519531c0 8.652343 7.015625 15.667969 15.671875 15.667969 8.652344 0 15.667968-7.015626 15.667968-15.667969v-47.519531h106.40625c6.191407 0 11.804688-3.648438 14.320313-9.308594 2.511719-5.660156 1.457031-12.269532-2.695313-16.863282zm-157.257813 64.84375 63.25-70.007813c4.148438-4.597656 5.207032-11.207031 2.691406-16.867187-2.515624-5.660156-8.125-9.308594-14.320312-9.308594h-26.660156l48.148437-53.296875c4.152344-4.59375 5.207031-11.203125 2.691407-16.863281-2.511719-5.660156-8.125-9.308594-14.316407-9.308594h-13.054687l38.375-42.472656 38.371094 42.472656h-13.050782c-6.195312 0-11.804687 3.648438-14.320312 9.308594s-1.457032 12.269531 2.691406 16.863281l48.152344 53.296875h-26.664063c-6.191406 0-11.804687 3.648438-14.320312 9.308594-2.511719 5.660156-1.457031 12.269531 2.695312 16.867187l63.246094 70.007813zm0 0"/><path d="m309.324219 120.367188c5.121093 0 10.320312-.664063 15.496093-2.050782 14.101563-3.777344 26.316407-12.558594 34.394532-24.726562 2.488281-3.746094 3.246094-8.378906 2.082031-12.722656s-4.136719-7.976563-8.164063-9.980469c-7.359374-3.652344-12.796874-10.289063-14.917968-18.203125-2.121094-7.914063-.730469-16.378906 3.816406-23.222656 2.488281-3.746094 3.246094-8.382813 2.082031-12.726563-1.164062-4.339844-4.136719-7.976563-8.164062-9.976563-13.082031-6.496093-28.050781-7.992187-42.152344-4.214843-15.460937 4.140625-28.382813 14.058593-36.386719 27.921875-8.003906 13.863281-10.128906 30.011718-5.988281 45.472656 7.164063 26.746094 31.441406 44.429688 57.902344 44.429688zm-7.417969-87.554688c1.820312-.484375 3.667969-.789062 5.519531-.910156-2.164062 9.433594-2.039062 19.351562.519531 28.894531 2.554688 9.539063 7.40625 18.195313 14 25.28125-1.667968.820313-3.417968 1.480469-5.234374 1.96875-15.230469 4.085937-30.9375-4.988281-35.019532-20.21875-4.082031-15.226563 4.988282-30.933594 20.214844-35.015625zm0 0"/></svg>
