<svg version="1.1" id="icon-tour-khivus" xmlns="http://www.w3.org/2000/svg" xmlns:xlink="http://www.w3.org/1999/xlink" x="0px" y="0px"
	 viewBox="0 0 488 488" style="enable-background:new 0 0 488 488;" xml:space="preserve">
<style type="text/css">
	.st0{stroke:#000000;stroke-width:5;stroke-miterlimit:10;}
	.st1{stroke:#000000;stroke-width:8;stroke-miterlimit:10;}
	.st2{fill:none;stroke:#000000;stroke-width:12;stroke-miterlimit:10;}
	.st3{stroke:#000000;stroke-width:9;stroke-miterlimit:10;}
	.st4{stroke:#000000;stroke-width:10;stroke-miterlimit:10;}
</style>
<g>
	<g>
		<g>
			<path class="st0" d="M165.6,267l-67-4.4V154h33.5L165.6,267z M112.4,253.2h33.2l-24.9-80.9h-8.3V253.2z"/>
		</g>
	</g>
</g>
<g>
	<g>
		<g>
			<path class="st1" d="M153.8,267.3L129.3,193l159.3-4.8l66.3,75.4L153.8,267.3z M147.4,206.2l16.2,47.1l161.3-3.1l-42.3-48.1
				L147.4,206.2z"/>
		</g>
	</g>
</g>
<g>
	<g>
		<g>

				<rect x="258" y="188.7" transform="matrix(0.8368 -0.5475 0.5475 0.8368 -80.9976 182.0663)" class="st1" width="13.8" height="76.4"/>
		</g>
	</g>
</g>
<g>
	<g>
		<g>
			<path class="st2" d="M77.9,201.2"/>
		</g>
	</g>
</g>
<g>
	<g>
		<g>
			<rect x="27.6" y="198.1" width="50.2" height="6.3"/>
		</g>
	</g>
</g>
<g>
	<g>
		<g>
			<rect x="52.8" y="220.2" width="25.1" height="6.3"/>
		</g>
	</g>
</g>
<g>
	<g>
		<g>
			<rect y="220.2" width="46" height="6.3"/>
		</g>
	</g>
</g>
<g>
	<g>
		<g>
			<rect x="27.6" y="242.6" width="50.2" height="6.3"/>
		</g>
	</g>
</g>
<g>
	<g>
		<path class="st3" d="M52.8,334.2l-6.8-8.7c2.3-1.7,14.7-13.5,56.4-24.8c34.2-9.3,91.8-17.1,172.1-1.3
			c76.3,15,124.4,14.4,152.1,10.9c28.9-3.7,39.6-11.1,39.7-11.1l6.5,8.9c-1.8,1.3-46.4,32.4-200.4,2.2
			C123.1,280.8,53.5,333.7,52.8,334.2z"/>
	</g>
</g>
<g>
	<g>
		<g>
			<path class="st2" d="M374.7,301"/>
		</g>
	</g>
</g>
<g>
	<g>
		<polygon class="st4" points="400.5,321.2 393,313.2 445.2,264.4 111.5,268.4 131.6,299.8 122.4,305.7 91.5,257.6 473.4,253.1
			"/>
	</g>
</g>
</svg>
