<svg viewBox="0 0 129 81" width="129" height="81" xmlns="http://www.w3.org/2000/svg"><path d="M128.857 39.342c-.57-.712-1.425-1.282-2.28-1.282H99.921L81.962 17.39c-.427-.428-.998-.713-1.568-.713h-21.38c0-.142 0-.285-.143-.427L50.887 1.14C50.46.43 49.747.001 49.034.001h-10.69c-1.14 0-2.139.998-2.139 2.138v14.397h-8.552c-.713 0-1.425.427-1.853.998L13.684 37.917H7.412c-1.14 0-2.138.855-2.138 2.138 0 .428-.143 8.695 3.278 16.107-1.71-.712-3.848-1.14-6.414-1.14C.998 55.022 0 56.02 0 57.16s.998 2.138 2.138 2.138c4.704 0 6.985 1.71 9.693 3.849 2.85 2.138 5.987 4.704 12.259 4.704H26.085c.285 0 .57-.143.855-.285 4.42-.57 6.985-2.709 9.408-4.42 2.566-1.995 4.846-3.848 9.693-3.848 4.704 0 6.984 1.71 9.693 3.849 2.85 2.138 5.986 4.704 12.258 4.704 6.272 0 9.408-2.566 12.259-4.704 2.566-1.996 4.846-3.849 9.693-3.849 4.703 0 6.984 1.71 9.692 3.849 2.851 2.138 5.987 4.704 12.259 4.704 1.14 0 2.138-.998 2.138-2.138s-.998-2.138-2.138-2.138c-1.568 0-2.851-.143-3.991-.57l20.526-21.382c.57-.57.713-1.568.427-2.28zM50.745 10.264l3.42 6.557H40.483v-6.557h10.263zM40.339 4.42h7.27l.855 1.568H40.34V4.42zM28.936 20.955h50.46l6.699 7.697H24.232l4.704-7.697zm-7.127 11.973H89.8l4.561 5.132h-75.69l3.137-5.132zm81.819 28.223l-1.711-1.283c-2.85-2.138-5.987-4.704-12.258-4.704-6.272 0-9.408 2.566-12.259 4.704-2.566 1.996-4.846 3.849-9.693 3.849-4.704 0-6.984-1.71-9.693-3.849-2.85-2.138-5.986-4.704-12.258-4.704-6.13 0-9.408 2.566-12.259 4.704-2.423 1.853-4.561 3.564-8.695 3.706-3.706-.142-6.7-1.567-9.122-3.99-4.847-4.99-5.987-13.4-6.272-17.248h112.037L103.628 61.15z"/><path d="M111.895 75.976c-4.704 0-6.985-1.71-9.693-3.849-2.85-2.138-5.986-4.704-12.258-4.704-6.272 0-9.408 2.566-12.259 4.704-2.566 1.996-4.846 3.849-9.693 3.849-4.704 0-6.984-1.71-9.693-3.849-2.85-2.138-5.986-4.704-12.258-4.704-6.13 0-9.408 2.566-12.259 4.704-2.565 1.996-4.846 3.849-9.692 3.849-4.704 0-6.985-1.71-9.693-3.849-2.851-2.138-5.987-4.704-12.259-4.704-1.14 0-2.138.998-2.138 2.138S.998 71.7 2.138 71.7c4.704 0 6.985 1.71 9.693 3.849 2.85 2.28 6.13 4.704 12.259 4.704 6.129 0 9.407-2.566 12.258-4.704 2.566-1.996 4.846-3.849 9.693-3.849 4.704 0 6.984 1.71 9.693 3.849 2.85 2.138 5.986 4.704 12.258 4.704 6.272 0 9.408-2.566 12.259-4.704 2.566-1.996 4.846-3.849 9.693-3.849 4.703 0 6.984 1.71 9.692 3.849 2.851 2.138 5.987 4.704 12.259 4.704 1.14 0 2.138-.998 2.138-2.138s-.998-2.138-2.138-2.138z"/></svg>
