<svg xmlns="http://www.w3.org/2000/svg" viewBox="0 0 297 297" width="54" height="54"><path d="M35.954 66.517H7.596C3.407 66.517 0 69.924 0 74.113v45.069h35.954V66.517zm14.179 0h35.954v52.665H50.133zm150.399 54.869l69.353 27.827a22.743 22.743 0 0 0-2.298-9.197l-37.953-67.738a11.28 11.28 0 0 0-9.831-5.761h-19.272v54.869zm72.498-52.337h-28.952l7.944 14.179h21.008c5.398 0 9.791 4.391 9.791 9.79v16.543c0 3.916 3.174 7.09 7.09 7.09s7.09-3.174 7.09-7.09V93.017C297 79.801 286.247 69.049 273.03 69.049zm-172.764-2.532h35.954v52.665h-35.954zm50.133 0h35.954v52.665h-35.954zM47.095 189.169c-11.391 0-20.657 9.266-20.657 20.657s9.266 20.657 20.657 20.657 20.657-9.266 20.657-20.657-9.266-20.657-20.657-20.657zm172.174 0c-11.391 0-20.657 9.266-20.657 20.657s9.266 20.657 20.657 20.657 20.657-9.266 20.657-20.657-9.267-20.657-20.657-20.657z"/><path d="M0 133.361v61.78c0 4.189 3.407 7.596 7.596 7.596h5.389c3.284-15.82 17.33-27.747 34.109-27.747s30.825 11.926 34.109 27.747h103.955c3.284-15.82 17.33-27.747 34.109-27.747s30.825 11.926 34.109 27.747h8.934c4.189 0 7.596-3.407 7.596-7.596v-30.648l-77.83-31.132H0z"/></svg>