<svg width="70" height="44" viewBox="0 0 70 44" fill="none" xmlns="http://www.w3.org/2000/svg">
<path d="M63.25 0H6.75C3.03237 0.011719 0.0195313 3.01849 0 6.73622V36.1231C0.015067 36.6862 0.472098 37.1371 1.03571 37.1438H5.62277C6.02009 41.0379 9.30022 44 13.2143 44C17.1289 44 20.4085 41.0379 20.8064 37.1438H49.9079C50.3064 41.0379 53.5859 43.9994 57.5 43.9994C61.4141 43.9994 64.6936 41.0379 65.0921 37.1438H68.9643C69.5273 37.1371 69.9849 36.6868 70 36.1237V6.73622C69.9805 3.01849 66.9676 0.011719 63.25 0ZM68 6.73622V20.2862H54.9643C54.0592 20.2846 53.192 19.9218 52.5552 19.2784C51.9185 18.635 51.5642 17.7644 51.5714 16.8592V2.00005H63.25C65.8638 2.01065 67.9821 4.12287 68 6.73622ZM36.7143 15.429V7.85734H49.5714V15.429H36.7143ZM7.57143 15.429V7.85734H19V15.429H7.57143ZM21 7.85734H34.7143V15.429H21V7.85734ZM13.2143 41.9793C10.1044 41.9793 7.58315 39.458 7.58315 36.348C7.58315 33.238 10.1044 30.7167 13.2143 30.7167C16.3242 30.7167 18.8454 33.238 18.8454 36.348C18.8415 39.4564 16.3225 41.9754 13.2143 41.9793ZM57.5 41.9793C54.3901 41.9793 51.8689 39.458 51.8689 36.348C51.8689 33.238 54.3901 30.7167 57.5 30.7167C60.6099 30.7167 63.1311 33.238 63.1311 36.348C63.1272 39.4564 60.6083 41.9754 57.5 41.9793ZM65.0318 35.1437C64.4314 31.45 61.2422 28.7368 57.5 28.7368C53.7584 28.7368 50.5686 31.45 49.9688 35.1437H20.7455C20.1451 31.4506 16.9559 28.7379 13.2143 28.7379C9.47266 28.7379 6.28348 31.4506 5.68304 35.1437H2V6.73622C2.01786 4.12287 4.13616 2.01065 6.75 2.00005H49.5714V5.85729H6.59877C6.04688 5.85729 5.57143 6.24625 5.57143 6.79872V16.5004C5.57143 17.0529 6.04688 17.429 6.59877 17.429H49.5748C49.8929 20.1434 52.1881 22.2863 54.9643 22.2863H68V35.1437H65.0318Z" fill="#1B2748"/>
</svg>
