<svg viewBox="0 0 88 89" width="88" height="89" xmlns="http://www.w3.org/2000/svg"><path d="M16.133 82.134c.445 0 .866-.202 1.144-.55.617-.762 14.99-18.798 14.99-27.316 0-8.91-7.223-16.134-16.134-16.134C7.223 38.134 0 45.357 0 54.268c0 8.518 14.373 26.546 14.99 27.316.277.348.699.55 1.143.55zm0-41.066c7.287.008 13.193 5.913 13.2 13.2 0 5.69-8.67 18.133-13.2 24.022-4.53-5.887-13.2-18.329-13.2-24.022.008-7.287 5.914-13.193 13.2-13.2z" /><path d="M22 52.801a5.867 5.867 0 1 0-11.734 0 5.867 5.867 0 0 0 11.734 0zm-8.8 0a2.933 2.933 0 1 1 5.867 0 2.933 2.933 0 0 1-5.867 0zM76.266 30.801c.428 0 .833-.186 1.112-.51C78.466 29.027 88 17.773 88 11.733 88 5.254 82.747.001 76.266.001c-6.48 0-11.733 5.253-11.733 11.733 0 6.04 9.534 17.294 10.622 18.556.279.325.684.511 1.111.511zm0-27.867a8.809 8.809 0 0 1 8.8 8.8c0 3.717-5.599 11.376-8.8 15.31-3.201-3.934-8.8-11.586-8.8-15.31a8.809 8.809 0 0 1 8.8-8.8z" /><path d="M80.667 10.268a4.4 4.4 0 1 0-8.8 0 4.4 4.4 0 0 0 8.8 0zm-5.867 0a1.467 1.467 0 1 1 2.934 0 1.467 1.467 0 0 1-2.934 0zM74.8 36.668h1.467a1.467 1.467 0 0 0 0-2.934H74.8a1.467 1.467 0 0 0 0 2.934zM55.733 45.468h2.966a1.467 1.467 0 0 0 0-2.934h-2.99a1.459 1.459 0 0 0-1.454 1.467 1.477 1.477 0 0 0 1.478 1.467zM72.176 44.001c0 .81.657 1.467 1.467 1.467h2.988a1.467 1.467 0 0 0 0-2.934h-2.988c-.81 0-1.467.657-1.467 1.467zM65.834 36.668h2.989a1.467 1.467 0 0 0 0-2.934h-2.989a1.466 1.466 0 1 0 0 2.934zM26.715 85.068h-2.99a1.467 1.467 0 0 0 0 2.933h2.99a1.467 1.467 0 0 0 0-2.933zM51.425 41.977a1.467 1.467 0 0 0 1.437-1.767 2.932 2.932 0 0 1 .256-1.944 1.466 1.466 0 1 0-2.613-1.33 5.867 5.867 0 0 0-.513 3.873 1.467 1.467 0 0 0 1.434 1.168zM64.68 45.468h2.99a1.467 1.467 0 0 0 0-2.934h-2.99a1.467 1.467 0 0 0 0 2.934zM56.868 36.668h2.99a1.467 1.467 0 0 0 0-2.934h-2.99a1.467 1.467 0 0 0 0 2.934zM42.375 62.154a1.468 1.468 0 0 0 1.777-1.068 5.176 5.176 0 0 1 1.046-2.053 1.466 1.466 0 1 0-2.245-1.887 8.08 8.08 0 0 0-1.646 3.227 1.463 1.463 0 0 0 1.068 1.78zM71.35 85.006a7.137 7.137 0 0 1-.95.062h-1.846a1.466 1.466 0 1 0 0 2.933H70.4c.441 0 .882-.029 1.32-.085a1.468 1.468 0 0 0-.376-2.91h.006zM73.394 67.907c-.97-.293-1.98-.442-2.994-.44h-.385a1.467 1.467 0 0 0 0 2.934h.385c.725 0 1.446.107 2.14.316a1.467 1.467 0 0 0 .854-2.805v-.005zM70.266 57.2a1.467 1.467 0 0 0 0-2.932h-2.988a1.467 1.467 0 0 0 0 2.933h2.987zM79.03 80.006a1.466 1.466 0 0 0-1.939.733 7.32 7.32 0 0 1-1.386 2.054 1.465 1.465 0 0 0 .7 2.464 1.467 1.467 0 0 0 1.42-.437 10.22 10.22 0 0 0 1.941-2.876 1.467 1.467 0 0 0-.736-1.938zM86.71 50.125a1.467 1.467 0 0 0-1.822.992 4.449 4.449 0 0 1-1.146 1.898 1.467 1.467 0 1 0 2.054 2.098 7.37 7.37 0 0 0 1.906-3.164 1.467 1.467 0 0 0-.991-1.824zM85.037 47.418a1.467 1.467 0 0 0 1.093-2.446 7.379 7.379 0 0 0-3.08-2.042 1.467 1.467 0 1 0-.953 2.775 4.4 4.4 0 0 1 1.848 1.226c.278.31.676.487 1.093.487zM64.04 67.468h-2.988a1.467 1.467 0 0 0 0 2.933h2.987a1.467 1.467 0 0 0 0-2.933zM79.23 54.268h-2.988a1.467 1.467 0 0 0 0 2.933h2.989a1.467 1.467 0 0 0 0-2.933zM35.68 85.068h-2.988a1.467 1.467 0 0 0 0 2.933h2.988a1.467 1.467 0 0 0 0-2.933zM78.896 71.97a1.47 1.47 0 0 0-2.425 1.658 7.254 7.254 0 0 1 1.026 2.25 1.467 1.467 0 1 0 2.838-.733 10.187 10.187 0 0 0-1.439-3.175zM46.863 66.941a5.217 5.217 0 0 1-1.785-1.46 1.466 1.466 0 1 0-2.318 1.8 8.14 8.14 0 0 0 2.805 2.29 1.467 1.467 0 0 0 1.298-2.63zM44.645 85.068h-2.992a1.467 1.467 0 0 0 0 2.933h2.992a1.467 1.467 0 0 0 0-2.933zM62.577 85.068h-2.988a1.467 1.467 0 0 0 0 2.933h2.988a1.467 1.467 0 0 0 0-2.933zM52.335 57.2a1.467 1.467 0 0 0 0-2.932h-2.988a1.467 1.467 0 0 0 0 2.933h2.988zM61.306 57.2a1.467 1.467 0 0 0 0-2.932h-2.995a1.467 1.467 0 0 0 0 2.933h2.995zM55.074 67.468h-2.988a1.467 1.467 0 0 0 0 2.933h2.988a1.466 1.466 0 1 0 0-2.933zM53.613 85.068h-2.99a1.467 1.467 0 0 0 0 2.933h2.99a1.467 1.467 0 0 0 0-2.933zM17.6 85.068h-1.467a1.467 1.467 0 0 0 0 2.933H17.6a1.467 1.467 0 0 0 0-2.933z"/></svg>
