<svg id="icon-tour-sights" height="512pt" viewBox="-31 0 512 512" width="512pt" xmlns="http://www.w3.org/2000/svg"><path d="m0 120h35.730469l30 60h60l17.5625 35.125c2.652343 5.308594 6.253906 9.898438 10.511719 13.664062-3.886719 5.445313-6.613282 11.832032-7.785157 18.84375l-23.753906 144.367188h-32.265625v120h120v-30c0-8.269531 6.730469-15 15-15s15 6.730469 15 15v30h120v-120h-32.265625l-23.761719-144.398438c-1.164062-7-3.890625-13.375-7.773437-18.816406 4.257812-3.761718 7.855469-8.351562 10.511719-13.660156l17.558593-35.125h60l30-60h35.730469v-30h-180v-45c0-24.8125-20.1875-45-45-45s-45 20.1875-45 45v45h-180zm330 362h-60c0-24.8125-20.1875-45-45-45s-45 20.1875-45 45h-60v-60h210zm-177.328125-90 22.945313-139.464844c1.210937-7.265625 7.433593-12.535156 14.796874-12.535156h19.585938v60h30v-60h19.585938c7.363281 0 13.585937 5.269531 14.792968 12.503906l22.949219 139.496094zm213.058594-242h-60l-25.855469 51.707031c-2.558594 5.117188-7.699219 8.292969-13.417969 8.292969-12.503906 0-73.210937 0-82.917969 0-5.71875 0-10.859374-3.175781-13.417968-8.292969l-25.851563-51.707031h-60l-15-30h311.460938zm-155.730469-105c0-8.269531 6.730469-15 15-15s15 6.730469 15 15v45h-30zm0 0"/></svg>
