<svg id="icon-uluru" height="512pt" viewBox="0 -16 512 512" width="512pt" xmlns="http://www.w3.org/2000/svg"><path d="m497 450h-24.886719l-23.101562-23.101562-28.882813-86.640626c-1.257812-3.777343-3.964844-6.894531-7.519531-8.675781l-120-60c-2.085937-1.042969-4.378906-1.582031-6.710937-1.582031h-60c-3.976563 0-7.792969 1.578125-10.605469 4.390625l-25.605469 25.609375h-23.789062c-2.960938 0-5.855469.875-8.320313 2.519531l-90 60c-2.773437 1.851563-4.851563 4.574219-5.90625 7.738281l-26.582031 79.742188h-20.089844c-8.285156 0-15 6.714844-15 15s6.714844 15 15 15h482c8.285156 0 15-6.714844 15-15s-6.714844-15-15-15zm-264.886719-150h50.246094l111.277344 55.636719 28.035156 84.105469c.734375 2.210937 1.976563 4.21875 3.621094 5.863281l4.394531 4.394531h-42.074219l-12.160156-48.636719c-1.671875-6.679687-7.671875-11.363281-14.554687-11.363281h-48.285157l-12.160156-48.636719c-2.011719-8.039062-10.15625-12.925781-18.191406-10.914062-8.035157 2.007812-12.921875 10.152343-10.914063 18.1875l25.339844 101.363281h-166.515625l15-30h20.726563c6.457031 0 12.191406-4.132812 14.230468-10.257812l28.882813-86.640626zm95.5 150-7.5-30h29.074219l7.5 30zm-239.109375-65.375 81.9375-54.625h4.648438l-20 60h-19.191406c-5.679688 0-10.875 3.210938-13.414063 8.292969l-25.855469 51.707031h-29.917968zm0 0"/><path d="m225.898438 420c8.285156 0 15-6.714844 15-15v-30c0-8.285156-6.714844-15-15-15-8.28125 0-15 6.714844-15 15v30c0 8.285156 6.71875 15 15 15zm0 0"/><path d="m360.898438 195c0 24.8125 20.1875 45 45 45h61.101562c24.8125 0 45-20.1875 45-45 0-20.296875-13.507812-37.496094-32.003906-43.085938-2.230469-7.082031-6.277344-13.578124-11.917969-18.96875-8.730469-8.347656-20.125-12.945312-32.078125-12.945312-20.3125 0-37.535156 13.472656-43.160156 31.933594-18.464844 5.609375-31.941406 22.792968-31.941406 43.066406zm45-15c8.285156 0 15-6.714844 15-15 0-8.269531 6.773437-15 15.101562-15 8.523438 0 16 7.007812 16 15 0 8.285156 6.714844 15 15 15 8.269531 0 15 6.730469 15 15s-6.730469 15-15 15h-61.101562c-8.269532 0-15-6.730469-15-15s6.730468-15 15-15zm0 0"/><path d="m255.898438 90h17.570312c6.191406 17.460938 22.875 30 42.429688 30h30c24.816406 0 45-20.1875 45-45 0-20.269531-13.46875-37.453125-31.933594-43.066406-5.609375-18.460938-22.792969-31.933594-43.066406-31.933594h-60c-24.8125 0-45 20.1875-45 45s20.1875 45 45 45zm0-60h60c8.273437 0 15 6.730469 15 15 0 8.285156 6.71875 15 15 15 8.273437 0 15 6.730469 15 15s-6.726563 15-15 15h-30c-8.269532 0-15-6.730469-15-15 0-8.285156-6.714844-15-15-15h-30c-8.269532 0-15-6.730469-15-15s6.730468-15 15-15zm0 0"/><path d="m15 120h17.410156c1.949219 9.5625 5.730469 18.460938 10.949219 26.328125l-11.707031 11.707031c-5.855469 5.855469-5.855469 15.355469 0 21.210938 2.929687 2.929687 6.769531 4.394531 10.609375 4.394531 3.835937 0 7.675781-1.464844 10.605469-4.394531l11.703124-11.703125c7.867188 5.21875 16.769532 9 26.328126 10.945312v16.511719c0 8.285156 6.71875 15 15 15 8.285156 0 15-6.714844 15-15v-16.507812c9.5625-1.949219 18.460937-5.730469 26.332031-10.949219l11.703125 11.703125c2.929687 2.929687 6.765625 4.394531 10.605468 4.394531 3.839844 0 7.679688-1.464844 10.605469-4.394531 5.859375-5.859375 5.859375-15.355469 0-21.214844l-11.703125-11.703125c5.214844-7.867187 9-16.765625 10.949219-26.328125h16.507813c8.285156 0 15-6.714844 15-15s-6.714844-15-15-15h-16.507813c-1.949219-9.5625-5.730469-18.460938-10.949219-26.328125l11.707032-11.703125c5.855468-5.859375 5.855468-15.355469 0-21.214844-5.859376-5.855468-15.355469-5.855468-21.214844 0l-11.703125 11.703125c-7.871094-5.21875-16.769531-9-26.328125-10.949219v-16.507812c0-8.285156-6.71875-15-15-15-8.285156 0-15 6.714844-15 15v16.507812c-9.5625 1.949219-18.460938 5.730469-26.332032 10.949219l-11.703124-11.703125c-5.855469-5.859375-15.355469-5.859375-21.214844 0-5.855469 5.859375-5.855469 15.355469 0 21.214844l11.707031 11.703125c-5.21875 7.867187-9 16.765625-10.949219 26.328125h-17.410156c-8.285156 0-15 6.714844-15 15s6.714844 15 15 15zm90.898438-60c24.816406 0 45 20.1875 45 45s-20.183594 45-45 45c-24.8125 0-45-20.1875-45-45s20.1875-45 45-45zm0 0"/></svg>
