<svg version="1.1" id="icon-tour-corporate" xmlns="http://www.w3.org/2000/svg" xmlns:xlink="http://www.w3.org/1999/xlink" x="0px" y="0px"
	 viewBox="0 0 57 57" style="enable-background:new 0 0 57 57;" xml:space="preserve">
<style type="text/css">
	.st0{stroke:#000000;stroke-width:0.75;stroke-miterlimit:10;}
</style>
<g>
	<g>
		<path class="st0" d="M37.2,15.7c2.7,0,4.9-2.2,4.9-4.9s-2.2-4.9-4.9-4.9c-2.7,0-4.9,2.2-4.9,4.9S34.4,15.7,37.2,15.7z M37.2,7.5
			c1.8,0,3.3,1.5,3.3,3.3s-1.5,3.3-3.3,3.3c-0.1,0-0.2,0-0.3,0c0.7-0.6,1.1-1.5,1.1-2.4h-1.6c0,0.8-0.6,1.5-1.4,1.6
			c-0.7-0.6-1.1-1.5-1.1-2.4C33.9,9,35.3,7.5,37.2,7.5z"/>
		<path class="st0" d="M11.6,25.6c2.7,0,4.9-2.2,4.9-4.9s-2.2-4.9-4.9-4.9s-4.9,2.2-4.9,4.9S8.9,25.6,11.6,25.6z M11.6,17.4
			c1.8,0,3.3,1.5,3.3,3.3c0,1-0.4,1.8-1.1,2.4c-0.8-0.1-1.4-0.8-1.4-1.6h-1.6c0,1,0.4,1.8,1.1,2.4c-0.1,0-0.2,0-0.3,0
			c-1.8,0-3.3-1.5-3.3-3.3S9.8,17.4,11.6,17.4z"/>
		<path class="st0" d="M51.4,6.7L46.5,5C46.2,5,46,5,45.7,5.2c-0.2,0.2-0.3,0.4-0.3,0.7v6.6v4.1H33.9c-0.2,0-0.4,0.1-0.5,0.2
			l-4.9,4.1c-0.1,0.1-0.2,0.2-0.2,0.3l-2.3,4.7L20.6,28L16,26.5c-0.1,0-0.2,0-0.3,0H9.1c-2.3,0-4.1,1.8-4.1,4.1v9.1
			c0,0.5,0.4,0.8,0.8,0.8h2.5v9.9H5V52h4.1h4.1h3.3c0.5,0,0.8-0.4,0.8-0.8v-4.1H19h4.1h5.8c0.5,0,0.8-0.4,0.8-0.8v-4.1h4.9h4.1
			c0.5,0,0.8-0.4,0.8-0.8v-4.1h4.9h4.1h2.5v-1.6h-1.6v-6.6c0-2.3-1.8-4.1-4.1-4.1h-3.3v-3.3h4.1c2.3,0,4.1-1.8,4.1-4.1v-4.9
			c0-0.5-0.4-0.8-0.8-0.8h-2.5V9.7l4.4-1.5C51.8,8.1,52,7.8,52,7.5C52,7.1,51.8,6.8,51.4,6.7z M38.4,18.2L38,19.3l-0.4-1.1H38.4z
			 M16.5,45.4c-0.5,0-0.8,0.4-0.8,0.8v4.1h-1.6v-9.9h4.1v4.9H16.5z M19.8,45.4v-5.8c0-0.5-0.4-0.8-0.8-0.8h-5.8
			c-0.5,0-0.8,0.4-0.8,0.8v10.7H9.9v-19H8.3v7.4H6.6v-8.2c0-1.4,1.1-2.5,2.5-2.5h2.5v5.8h1.6v-5.8h2.3l4.8,1.6
			c0.2,0.1,0.4,0.1,0.6,0l5.1-2.2l0.5,0.8l0.2,0.4l-5.5,2.8l-5.5-0.8c-0.2,0-0.5,0-0.7,0.2c-0.2,0.2-0.3,0.4-0.3,0.6v4.1
			c0,0.5,0.4,0.8,0.8,0.8h4.1c1.4,0,2.5,1.1,2.5,2.5v6.6H19.8z M28.9,40.5c-0.5,0-0.8,0.4-0.8,0.8v4.1H24v-6.6
			c0-2.3-1.8-4.1-4.1-4.1h-3.3v-2.3l4.8,0.7c0.2,0,0.3,0,0.5-0.1l6.6-3.3c0.1-0.1,0.2-0.2,0.3-0.3c0,0,0,0,0,0l3.2-4.8l1.9-1.4v17.3
			H28.9z M43.8,35.5h-4.1v-4.9h4.1V35.5z M48.7,17.4c0,1.4-1.1,2.5-2.5,2.5h-4.9c-0.5,0-0.8,0.4-0.8,0.8v4.9c0,0.5,0.4,0.8,0.8,0.8
			h4.1c1.4,0,2.5,1.1,2.5,2.5v6.6h-2.5v-5.8c0-0.5-0.4-0.8-0.8-0.8h-5.8c-0.5,0-0.8,0.4-0.8,0.8v6.6v4.1h-2.5v-19
			c0-0.3-0.2-0.6-0.5-0.7c-0.3-0.1-0.6-0.1-0.9,0.1l-3.3,2.5c-0.1,0.1-0.1,0.1-0.2,0.2l-2.6,3.9l-0.7-1l2.2-4.4l4.6-3.8h1.6l1.4,3.6
			c0.1,0.3,0.4,0.5,0.8,0.5s0.6-0.2,0.8-0.5l1.4-3.6h6c0.5,0,0.8-0.4,0.8-0.8v-4.1h1.6V17.4z M47.1,8V7l1.5,0.5L47.1,8z"/>
		<rect x="24.8" y="9.1" class="st0" width="1.6" height="1.6"/>
		<rect x="21.5" y="9.1" class="st0" width="1.6" height="1.6"/>
		<rect x="18.2" y="9.1" class="st0" width="1.6" height="1.6"/>
	</g>
</g>
</svg>
