<svg version="1.1" id="icon-tour-springs" xmlns="http://www.w3.org/2000/svg" xmlns:xlink="http://www.w3.org/1999/xlink" x="0px" y="0px"
	 viewBox="0 0 482.1 482.1" style="enable-background:new 0 0 482.1 482.1;" xml:space="preserve">
<g>
	<g>
		<path d="M397.6,208.6c-13,22.8-44,31-66.9,17.9c-8.2-4.9-13-9.8-17.9-17.9c-6.5-9.8-22.8-9.8-29.4,0c-13,22.8-44,31-66.9,17.9
			c-8.2-4.9-13-9.8-17.9-17.9c-6.5-9.8-22.8-9.8-29.4,0c-13,22.8-44,31-66.9,17.9c-8.2-4.9-13-9.8-17.9-17.9L56.8,225
			c14.7,24.5,40.8,40.8,70.1,40.8c21.2,0,42.4-9.8,57.1-24.5c31,31,81.5,32.6,112.5,1.6c0,0,0,0,1.6-1.6c32.6,31,83.2,31,115.8-1.6
			c4.9-4.9,8.2-9.8,11.4-14.7L397.6,208.6z"/>
	</g>
</g>
<g>
	<g>
		<path d="M397.6,322.8c-8.2,14.7-24.5,24.5-42.4,24.5c-17.9,0-34.2-9.8-42.4-24.5c-6.5-9.8-22.8-9.8-29.4,0
			c-13,22.8-44,31-66.9,17.9c-8.2-4.9-13-9.8-17.9-17.9c-6.5-9.8-22.8-9.8-29.4,0c-13,22.8-44,31-66.9,17.9
			c-8.2-4.9-13-9.8-17.9-17.9l-27.7,16.3c22.8,39.1,73.4,50.6,112.5,27.7c4.9-3.3,11.4-6.5,14.7-11.4c31,31,81.5,32.6,112.5,1.6
			c0,0,0,0,1.6-1.6c32.6,31,83.2,31,115.8-1.6c4.9-4.9,8.2-9.8,11.4-14.7L397.6,322.8z"/>
	</g>
</g>
<g>
	<g>
		<circle cx="241.1" cy="151.6" r="16.3"/>
	</g>
</g>
<g>
	<g>
		<circle cx="355.2" cy="184.2" r="16.3"/>
	</g>
</g>
<g>
	<g>
		<circle cx="338.9" cy="119" r="16.3"/>
	</g>
</g>
</svg>
