<svg width="24" height="24" viewBox="0 0 24 24" xmlns="http://www.w3.org/2000/svg" xmlns:xlink="http://www.w3.org/1999/xlink"><defs><path d="M12.5 24C6.149 24 1 18.851 1 12.5S6.149 1 12.5 1 24 6.149 24 12.5 18.851 24 12.5 24zm0-1C18.299 23 23 18.299 23 12.5S18.299 2 12.5 2 2 6.701 2 12.5 6.701 23 12.5 23zM13 6.5V12h5.5a.5.5 0 1 1 0 1h-6a.5.5 0 0 1-.5-.5v-6a.5.5 0 1 1 1 0z" id="a"/></defs><g fill="none" fill-rule="evenodd"><mask id="b" fill="#fff"><use xlink:href="#a"/></mask><use fill="#444" fill-rule="nonzero" xlink:href="#a"/><g mask="url(#b)" fill="#8D8D8D"><path d="M0 0h24v24H0z"/></g></g></svg>
