<svg width="18" height="18" viewBox="0 0 30 30" xmlns="http://www.w3.org/2000/svg" xmlns:xlink="http://www.w3.org/1999/xlink"><defs><path d="M20.196 16.404C26.084 18.51 29.995 23.934 30 30h-2.493c0-6.675-5.6-12.085-12.507-12.085S2.493 23.325 2.493 30H0c.005-6.078 3.935-11.507 9.841-13.596-2.626-1.677-4.21-4.512-4.22-7.553C5.75 3.926 9.92 0 15.018 0s9.267 3.926 9.398 8.85c-.01 3.042-1.594 5.877-4.22 7.554zM15 15.505c3.803 0 6.886-2.98 6.886-6.654 0-3.675-3.083-6.655-6.886-6.655s-6.886 2.98-6.886 6.655c0 3.675 3.083 6.654 6.886 6.654z" id="a"/></defs><g fill="none" fill-rule="evenodd"><mask id="b" fill="#fff"><use xlink:href="#a"/></mask><use fill="#D8D8D8" xlink:href="#a"/><g mask="url(#b)" fill="#333"><path d="M0 0h30v30H0z"/></g></g></svg>
