<svg width="22" height="22" viewBox="0 0 24 24" xmlns="http://www.w3.org/2000/svg" xmlns:xlink="http://www.w3.org/1999/xlink"><defs><path d="M19.062 20H14.73v-6.583h2.21l.33-2.566h-2.54V9.213c0-.743.206-1.249 1.271-1.249h1.359V5.669c-.235-.031-1.041-.101-1.98-.101-1.958 0-3.3 1.195-3.3 3.391v1.892H9.865v2.566h2.215V20H3.938A.939.939 0 0 1 3 19.061V3.94C3 3.42 3.42 3 3.938 3h15.124c.518 0 .938.42.938.939V19.06c0 .519-.42.939-.938.939z" id="a"/></defs><g fill="none" fill-rule="evenodd"><mask id="b" fill="#fff"><use xlink:href="#a"/></mask><use fill="#525A65" xlink:href="#a"/><g mask="url(#b)" fill="#525A65"><path d="M0 0h24v24H0z"/></g></g></svg>
