<svg width="30" height="30" viewBox="0 0 30 30" xmlns="http://www.w3.org/2000/svg" xmlns:xlink="http://www.w3.org/1999/xlink"><defs><path d="M12.649 22.478c-5.42 0-9.83-4.41-9.83-9.83s4.41-9.829 9.83-9.829 9.829 4.41 9.829 9.83-4.41 9.83-9.829 9.83m16.94 5.116l-7.066-7.065a12.63 12.63 0 0 0 2.774-7.881C25.297 5.674 19.623 0 12.65 0 5.674 0 0 5.674 0 12.649c0 6.974 5.674 12.648 12.649 12.648 2.86 0 5.64-.981 7.88-2.774l7.066 7.065a1.4 1.4 0 0 0 .996.413 1.411 1.411 0 0 0 .997-2.406" id="a"/></defs><g fill="none" fill-rule="evenodd"><mask id="b" fill="#fff"><use xlink:href="#a"/></mask><use fill="#000" xlink:href="#a"/><g mask="url(#b)" fill="#333"><path d="M0 0h30v30H0z"/></g></g></svg>
