<svg width="12" height="12" viewBox="0 0 24 24" xmlns="http://www.w3.org/2000/svg" xmlns:xlink="http://www.w3.org/1999/xlink"><defs><path d="M11 10.111C11 9.497 11.444 9 12 9c.552 0 1 .493 1 1.111v8.778c0 .614-.444 1.111-1 1.111-.552 0-1-.493-1-1.111V10.11zm-6 4C5 13.497 5.444 13 6 13c.552 0 1 .493 1 1.111v4.778C7 19.503 6.556 20 6 20c-.552 0-1-.493-1-1.111V14.11zm12-9.034C17 4.482 17.444 4 18 4c.552 0 1 .478 1 1.077v13.846c0 .595-.444 1.077-1 1.077-.552 0-1-.478-1-1.077V5.077z" id="a"/></defs><g fill="none" fill-rule="evenodd"><mask id="b" fill="#fff"><use xlink:href="#a"/></mask><use fill="#525A65" xlink:href="#a"/><g mask="url(#b)" fill="#525A65"><path d="M0 0h24v24H0z"/></g></g></svg>
