<svg width="24" height="24" viewBox="0 0 30 30" xmlns="http://www.w3.org/2000/svg" xmlns:xlink="http://www.w3.org/1999/xlink"><defs><path d="M15.337 3C8.507 3.089 3 8.65 3 15.499c0 6.905 5.596 12.5 12.501 12.5 6.903 0 12.499-5.595 12.499-12.5C28 8.65 22.493 3.089 15.666 3h-.33zM4.667 15.499c0-5.982 4.85-10.833 10.834-10.833 5.982 0 10.833 4.85 10.833 10.833 0 5.983-4.85 10.834-10.833 10.834-5.984 0-10.834-4.851-10.834-10.834zm9.606 3.07l-5.265-5.264-1.176 1.18 6.44 6.442 9.03-9.028-1.178-1.179-7.851 7.85z" id="a"/></defs><g fill="none" fill-rule="evenodd"><mask id="b" fill="#fff"><use xlink:href="#a"/></mask><g mask="url(#b)" fill="#017c26"><path d="M0 0h30v30H0z"/></g></g></svg>
