<svg width="30" height="30" viewBox="0 0 30 30" xmlns="http://www.w3.org/2000/svg" xmlns:xlink="http://www.w3.org/1999/xlink"><defs><path d="M3.054 22.315l2.207-4.284c.147-.15.147-.297.147-.593v-5.763c-.022-5.12 4.094-9.288 9.192-9.31H15.265c5.098-.021 9.247 4.112 9.27 9.233v5.84c-.023.21.029.419.146.593l2.207 4.284H3.054zm11.917 5.322a3.333 3.333 0 0 1-3.237-2.956h6.62a3.603 3.603 0 0 1-3.383 2.956zm14.86-4.73l-2.943-5.764v-5.468C26.874 5.233 21.678.015 15.265 0h-.588C8.264.015 3.067 5.233 3.054 11.675v5.468L.111 22.906c-.148.38-.148.803 0 1.183a.986.986 0 0 0 1.03.592h8.24c.226 2.953 2.642 5.252 5.59 5.319 2.968-.016 5.413-2.344 5.59-5.319h8.24c.428.018.828-.211 1.03-.592.293-.444.147-.74 0-1.183z" id="a"/></defs><g fill="none" fill-rule="evenodd"><mask id="b" fill="#fff"><use xlink:href="#a"/></mask><use fill="#EDD9B7" xlink:href="#a"/><g mask="url(#b)" fill="#edd9b7"><path d="M0 0h30v30H0z"/></g></g></svg>
