<svg width="10" height="10" viewBox="0 0 24 24" xmlns="http://www.w3.org/2000/svg" xmlns:xlink="http://www.w3.org/1999/xlink"><defs><path d="M12 20a8 8 0 1 0 0-16 8 8 0 0 0 0 16zm0 2C6.477 22 2 17.523 2 12S6.477 2 12 2s10 4.477 10 10-4.477 10-10 10zM9.14 8.678l-.502.045-.149-1.811.45-.079c.09-.015.626-.112.776-.137.7-.117 1.317-.164 2.39-.164 2.149 0 3.328.891 3.328 2.67 0 1.005-.418 1.607-1.44 2.5-.105.093-.105.093-.21.183-.94.82-1.276 1.306-1.304 2.132l-.017.483h-1.997l-.008-.492c-.02-1.287.473-2.127 1.519-3.092.035-.033.49-.443.607-.555.414-.397.582-.667.59-.964.019-.621-.292-.857-1.32-.857-.816 0-1.314.018-1.865.062-.184.015-1.086.097-.848.076zM10.5 16c0-.545.48-.752 1.018-.752s1.017.207 1.017.752v1c0 .545-.48.752-1.018.752S10.5 17.545 10.5 17v-1z" id="a"/></defs><g fill="none" fill-rule="evenodd"><mask id="b" fill="#fff"><use xlink:href="#a"/></mask><use fill="#297FCA" fill-rule="nonzero" xlink:href="#a"/><g mask="url(#b)" fill="#525A65"><path d="M0 0h24v24H0z"/></g></g></svg>
