<svg width="24" height="24" viewBox="0 0 24 24" xmlns="http://www.w3.org/2000/svg" xmlns:xlink="http://www.w3.org/1999/xlink"><defs><path d="M13.025 2.27c-2.908-.005-5.816-.005-8.725-.006H1.427V2.23c-.005-.17-.01-.332.008-.49.012-.103.038-.343.526-.346.636-.006 1.273-.003 1.907-.003h8.436c.124-.002.248-.002.368.01.24.027.356.14.387.382.01.07.01.142.011.214a2.445 2.445 0 0 0 .014.269.455.455 0 0 1-.059.003m.05 13.348v3.258H1.438V3.648h1.743c3.263 0 6.535 0 9.803-.004.024 0 .094 0 .094-.022a.36.36 0 0 1 .005.07c-.006 3.975-.007 7.95-.008 11.926m-.038 6.68c-.011.236-.293.276-.46.278-.554.009-1.11.007-1.66.008H8.502c.334-.466.464-.952.369-1.403a1.576 1.576 0 0 0-.53-.862h4.706l.003.408c.003.517.008 1.05-.014 1.57m-5.834-.437h-.006c-.12-.002-.284-.176-.284-.3 0-.103.032-.19.092-.248a.323.323 0 0 1 .227-.082h.012c.072.002.17.017.229.08s.068.164.064.238a.328.328 0 0 1-.334.312m-1.3.723h-.738c-1.118.003-2.196.003-3.273-.005-.326-.002-.467-.147-.472-.486-.006-.464-.006-.93-.004-1.402l.001-.376h4.645c-.24.21-.426.495-.488.892-.083.525.028.987.33 1.377m8.562-7.827l.002-12.736c0-.994-.616-1.77-1.568-1.975a2.85 2.85 0 0 0-.666-.043l-.136.001C8.782 0 5.465.003 2.148.004.834.004.017.822.017 2.137l.002 4.991C.02 12.021.024 16.913 0 21.805c-.003.592.23 1.165.64 1.572.405.4.943.624 1.547.61 2.38-.031 4.8-.025 7.14-.02l2.609.006c.081 0 .163.006.246.012.092.008.186.015.28.015.077 0 .156-.005.235-.018 1.243-.201 1.792-1.215 1.783-2.13-.02-2.365-.018-4.73-.014-7.096" id="a"/></defs><g transform="translate(5)" fill="none" fill-rule="evenodd"><mask id="b" fill="#fff"><use xlink:href="#a"/></mask><use fill="#000" xlink:href="#a"/><g mask="url(#b)" fill="#525A65"><path d="M-5 0h24v24H-5z"/></g></g></svg>
