<svg xmlns="http://www.w3.org/2000/svg" viewBox="0 0 24 24"><path fill="#edd9b7" d="M19.8 12.5c-.3.7-1 1.2-1.8 1.2H7.8l-2.2-7h15.9l-1.7 5.8zm2.7-7.3H5.1L4.8 4c-.2-.5-.5-.9-.8-1.3-.5-.4-1.1-.7-1.7-.7h-.8c-.4 0-.7.4-.8.8 0 .4.4.7.8.7h.8c.2 0 .5.1.6.2.2.3.3.5.4.8l3 9.5c-.5.2-.9.6-1.2 1-.5.8-.7 1.8-.6 2.8 0 .4.3.7.8.8h13.5c.4 0 .8-.3.8-.7 0-.4-.3-.8-.7-.8H6.1c0-.4.2-.8.3-1.2.1-.3.4-.5.8-.5H18c1.5 0 2.8-.9 3.2-2.3l2-6.7c.1-.4-.2-.9-.6-1 0-.1 0-.1-.1-.2zM5.8 19.5c-.7 0-1.2.6-1.2 1.2 0 .7.6 1.2 1.2 1.2.7.1 1.2-.5 1.2-1.1 0-.7-.5-1.3-1.2-1.3zm12.5 0c-.7 0-1.2.6-1.2 1.2 0 .7.6 1.2 1.2 1.2.7 0 1.2-.6 1.2-1.2s-.5-1.2-1.2-1.2z"/></svg>
