<svg xmlns="http://www.w3.org/2000/svg" viewBox="0 0 24 24"><path d="M22.1 6.2L17 11.3c-.4.4-.9.4-1.3 0-.3-.3-.6-.6-1-.9.2-.2.3-.3.5-.4l1.3-1.3c.4-.4.4-.8.1-1.1-.3-.3-.7-.3-1.1.1l-1.6 1.6-.1.1-1.1-1.1c-.3-.3-.2-.7.1-1l1.4-1.4L18 2.1c.5-.4.9-.4 1.3 0l2.8 2.8c.4.4.4.9 0 1.3m-10.3 9.3c.2.3.2.7 0 1 0 .1-.1.1-.2.2l-5.1 5.1c-.4.4-.9.4-1.3 0L2.4 19c-.4-.4-.4-.9 0-1.3l5.1-5.1c.4-.4.9-.4 1.3 0l.9.9c-.6.5-1.1 1-1.6 1.5l-.3.3c-.3.3-.3.7 0 1 .3.3.7.3 1 0l1.7-1.7.2-.2c.4.4.7.8 1.1 1.1M23.2 3.8c-1-.9-1.9-1.8-2.9-2.8-1-1-2.4-1-3.4 0-1.7 1.7-3.4 3.4-5.1 5.2-.9.9-.9 2.3 0 3.3l.9.9-2.1 2.1-.9-.9c-.9-.9-2.3-.9-3.3 0C4.7 13.3 3 15 1.2 16.7c-1 1-1 2.4 0 3.3L4 22.8c1 1 2.4 1 3.4 0l5.1-5.1c1-1 1-2.4 0-3.4l-.9-.9 2-2 .9.9c.9.9 2.3.9 3.3 0L23 7.1c1.1-.9 1.1-2.3.2-3.3"/></svg>
