<svg width="30" height="30" viewBox="0 0 30 30" xmlns="http://www.w3.org/2000/svg" xmlns:xlink="http://www.w3.org/1999/xlink"><defs><path d="M28.552 20.284c-.002.438-.128.567-.584.602-.356.024-.521-.063-.717-.38-.604-.98-1.608-1.556-2.7-1.556-.033 0-.066 0-.099.002-1.146.035-2.17.695-2.74 1.762-.077.145-.116.187-.299.17-.443-.007-.884-.005-1.349-.006l-.367.001v-5.673h8.834v.908H26.94c-.367 0-.626.179-.73.505-.106.338.003.644.297.816.125.075.296.115.506.119.413.006.83.003 1.25.003h.289l.002.069c0 .885.001 1.774-.002 2.658zm-4.002 3.648h-.007c-1.044-.001-1.775-.727-1.778-1.768-.001-.516.169-.959.492-1.28.325-.325.773-.495 1.297-.495h.013c1.055.006 1.762.723 1.76 1.782-.004 1.054-.718 1.761-1.777 1.761zM19.693 9.627c.029-.002.057-.002.085-.002h1.517c1.081-.001 2.166.001 3.251-.005h.014c.296 0 .504.096.69.323.703.852 1.411 1.702 2.12 2.552l1.006 1.207c.004.004.008.01.013.013h-8.696V9.627zM18.236 20.88h-1.369c-2.455-.001-4.9 0-7.35.005-.114 0-.143-.018-.205-.131-.662-1.187-1.62-1.792-2.85-1.797h-.011c-1.235 0-2.2.607-2.865 1.806-.063.115-.103.134-.205.121-.29-.006-.58-.006-.869-.004-.166 0-.33.004-.497 0-.41-.002-.54-.131-.552-.548a9.287 9.287 0 0 1-.003-.383l.134-.011h.598c.28-.002.508-.088.662-.247a.66.66 0 0 0 .182-.491c-.01-.42-.338-.697-.834-.706a34.28 34.28 0 0 0-.63 0H1.48v-.921h16.755v3.307zM6.442 23.932h-.013c-1.042-.005-1.765-.74-1.76-1.786.005-1.035.738-1.756 1.783-1.756h.007c.513 0 .973.179 1.291.5.32.321.487.762.484 1.269-.006 1.062-.726 1.773-1.792 1.773zm-5-7.942V7.074c0-.517.1-.614.621-.614l15.508-.001c.568 0 .653.083.654.642v8.996H1.445a2.96 2.96 0 0 1-.003-.107zm28.069-3.178c-.817-.984-1.635-1.965-2.456-2.948l-.755-.906c-.37-.44-.85-.697-1.43-.764a3.531 3.531 0 0 0-.368-.016c-.156 0-.308.006-.46.006h-4.377c0-.072-.003-.143-.004-.212-.006-.275-.013-.533.012-.786.047-.525-.136-1.043-.517-1.459A2.267 2.267 0 0 0 17.52 5h-.017c-3.825.028-7.716.026-11.479.02l-3.907-.005c-.612 0-1.14.205-1.526.59C.204 5.99 0 6.52 0 7.13V8.55c0 1.105-.001 2.21.002 3.315l.016 8.42c.002.458.138.866.408 1.211.43.547.973.826 1.616.826h.027c.31-.006.618-.006.927-.003h.233c.199 1.943 1.806 2.947 2.922 3.041a3.03 3.03 0 0 0 2.11-.583c.835-.603 1.31-1.423 1.414-2.441h11.657c.335 1.863 1.545 3.022 3.188 3.038h.034c1.639 0 2.858-1.164 3.215-3.058h.167a2.047 2.047 0 0 0 2.056-2.057l.004-2.875c0-1.053.001-2.108.004-3.162 0-.544-.164-1.019-.49-1.411zM21.443 17.8h1.393v-1.928h-1.393v1.928z" id="a"/></defs><g fill="none" fill-rule="evenodd"><mask id="b" fill="#fff"><use xlink:href="#a"/></mask><use fill="#000" xlink:href="#a"/><g mask="url(#b)" fill="#727272"><path d="M0 0h30v30H0z"/></g></g></svg>
