<svg width="22" height="22" viewBox="0 0 24 24" xmlns="http://www.w3.org/2000/svg" xmlns:xlink="http://www.w3.org/1999/xlink"><defs><path d="M21.85 6.912c-.251-.216-1.222-.216-2.157-.216a10.003 10.003 0 0 0-2.156.108c-.216.068-.685 1.222-1.294 2.372-.686 1.33-1.546 2.589-2.05 2.552-.685 0-.539-2.157-.503-3.738.035-1.042-.144-1.366-.288-1.473a6.037 6.037 0 0 0-1.366-.504s-3.018-.212-3.45 1.08c.575.068 1.546-.109 1.186 3.953-.035.18-.467 1.869-1.869-.395-.36-.575-1.69-3.954-2.156-3.954-1.546-.036-3.092-.108-3.631.216-.504.287.685 2.624 2.66 5.715 1.617 2.552 3.342 4.529 6.29 5.032.815.11 1.642.074 2.444-.108.324-.144-.068-2.372.971-2.552.467-.107 2.264 2.3 2.946 2.552a6.53 6.53 0 0 0 2.264.18c1.007-.036 2.157.068 2.265-.575.251-1.507-3.056-3.487-3.128-4.457-.068-.685 1.222-1.906 1.87-2.878.793-1.075 1.656-2.479 1.152-2.91z" id="a"/></defs><g fill="none" fill-rule="evenodd"><mask id="b" fill="#fff"><use xlink:href="#a"/></mask><use fill="#D8D8D8" xlink:href="#a"/><g mask="url(#b)" fill="#525A65"><path d="M0 0h24v24H0z"/></g></g></svg>
