<svg width="30" height="30" viewBox="0 0 30 30" xmlns="http://www.w3.org/2000/svg" xmlns:xlink="http://www.w3.org/1999/xlink"><defs><path d="M15.524 15.219a.582.582 0 0 1-.524.35.582.582 0 0 1-.471-.253.563.563 0 0 1 .156-.787.562.562 0 0 1 .786.156.562.562 0 0 1 .053.534zm3.23-4.524a.626.626 0 0 0-.885-.006l-2.048 2.024a2.385 2.385 0 0 0-.82-.147H15c-.311 0-.61.06-.883.167L9.567 7.88a.63.63 0 0 0-.886-.029l-.447.42a.626.626 0 0 0-.029.885l4.568 4.872a2.39 2.39 0 0 0-.208.972 2.43 2.43 0 0 0 1.074 2.018c.388.262.859.416 1.36.416h.002a2.43 2.43 0 0 0 2.017-1.073c.262-.387.417-.859.417-1.36V15a2.376 2.376 0 0 0-.235-1.027l1.98-1.957a.63.63 0 0 0 .005-.885l-.43-.436zm7.42 3.372h-2.39a.63.63 0 0 0-.627.627v.612a.63.63 0 0 0 .626.627h2.39a.63.63 0 0 0 .627-.627v-.612a.63.63 0 0 0-.626-.626zm.927 6.038a13.196 13.196 0 0 1-2.819 4.177 13.193 13.193 0 0 1-4.177 2.819A13.05 13.05 0 0 1 15 28.134c-1.807 0-3.529-.368-5.099-1.033a13.217 13.217 0 0 1-4.177-2.82A13.209 13.209 0 0 1 2.9 20.106 13.03 13.03 0 0 1 1.866 15c0-1.807.369-3.529 1.035-5.098a13.232 13.232 0 0 1 2.823-4.178 13.23 13.23 0 0 1 4.178-2.823A13.01 13.01 0 0 1 15 1.866c1.811 0 3.535.369 5.105 1.035a13.21 13.21 0 0 1 4.177 2.823 13.219 13.219 0 0 1 2.82 4.177A13.03 13.03 0 0 1 28.134 15c0 1.811-.369 3.535-1.034 5.105zm1.718-10.932a15.115 15.115 0 0 0-5.438-6.602A14.908 14.908 0 0 0 15.001 0v.613L15 0c-2.063 0-4.034.422-5.827 1.184A15.134 15.134 0 0 0 2.57 6.626 14.902 14.902 0 0 0 0 15a14.9 14.9 0 0 0 1.184 5.834 15.112 15.112 0 0 0 5.442 6.6A14.912 14.912 0 0 0 15 30c2.066 0 4.04-.421 5.833-1.181a15.094 15.094 0 0 0 6.6-5.438A14.919 14.919 0 0 0 30 15a14.9 14.9 0 0 0-1.181-5.827zm-14.125-2.33h.613a.63.63 0 0 0 .626-.626v-2.39a.63.63 0 0 0-.626-.627h-.613a.63.63 0 0 0-.627.626v2.39a.63.63 0 0 0 .627.627zm-8.477 7.224h-2.39a.63.63 0 0 0-.627.627v.612a.63.63 0 0 0 .626.627h2.39a.63.63 0 0 0 .627-.627v-.612a.63.63 0 0 0-.626-.627zm9.09 9.09h-.613a.63.63 0 0 0-.627.626v2.39a.63.63 0 0 0 .627.627h.613a.63.63 0 0 0 .626-.627v-2.39a.63.63 0 0 0-.626-.626z" id="a"/></defs><g fill="none" fill-rule="evenodd"><mask id="b" fill="#fff"><use xlink:href="#a"/></mask><use fill="#231F20" xlink:href="#a"/><g mask="url(#b)" fill="#333"><path d="M0 0h30v30H0z"/></g></g></svg>
