<svg width="30" height="30" viewBox="0 0 30 30" xmlns="http://www.w3.org/2000/svg" xmlns:xlink="http://www.w3.org/1999/xlink"><defs><path d="M18.158 12.856a3.81 3.81 0 0 1-7.007 0 3.733 3.733 0 0 1-.299-1.468c0-.521.107-1.016.299-1.467a3.81 3.81 0 0 1 7.007 0c.192.451.299.946.299 1.467 0 .522-.107 1.017-.299 1.468m-3.503-7.37a5.922 5.922 0 0 0-4.188 1.73 5.873 5.873 0 0 0 0 8.344 5.922 5.922 0 0 0 4.188 1.73 5.922 5.922 0 0 0 4.187-1.73 5.873 5.873 0 0 0 0-8.343 5.921 5.921 0 0 0-4.187-1.73m8.736 9.708c-.463 1.068-1.074 2.02-1.651 2.836l-.004.006-.005.007c-.57.825-1.213 1.646-1.84 2.447-.391.5-.783 1.001-1.16 1.505l.002-.002a284.644 284.644 0 0 1-2.504 3.255l.002-.002-.083.107c-.037.049-.085.11-.14.184a86.978 86.978 0 0 1-1.372 1.759L8.68 19.473c-.94-1.227-1.834-2.401-2.487-3.656a9.736 9.736 0 0 1-.779-1.962 8.392 8.392 0 0 1-.29-2.206 9.493 9.493 0 0 1 2.793-6.732 9.493 9.493 0 0 1 6.732-2.794 9.493 9.493 0 0 1 6.731 2.794 9.493 9.493 0 0 1 2.794 6.732c0 1.291-.318 2.475-.783 3.546m-.51-11.78A11.614 11.614 0 0 0 14.65 0c-3.211 0-6.126 1.307-8.234 3.415A11.614 11.614 0 0 0 3 11.65c0 .975.13 1.88.355 2.723.338 1.267.891 2.396 1.536 3.441.645 1.046 1.383 2.009 2.1 2.948l6.712 8.818h.001a1.082 1.082 0 0 0 .855.42l.002.001c.045 0 .109 0 .191-.01a.904.904 0 0 0 .235-.066c.07-.03.137-.069.202-.115.114-.08.226-.18.358-.317.198-.204.445-.492.789-.92.343-.426.783-.991 1.359-1.744v-.001a80.847 80.847 0 0 1 .203-.264v-.001l.001-.001c.85-1.089 1.692-2.184 2.529-3.288v-.002h.002c.365-.49.748-.978 1.134-1.472.637-.813 1.3-1.662 1.911-2.544l-.002.003c.647-.915 1.351-2.01 1.896-3.28.544-1.27.928-2.72.928-4.33 0-3.21-1.307-6.125-3.415-8.233" id="a"/></defs><g fill="none" fill-rule="evenodd"><mask id="b" fill="#fff"><use xlink:href="#a"/></mask><use fill="#000" xlink:href="#a"/><g mask="url(#b)" fill="#333"><path d="M0 0h30v30H0z"/></g></g></svg>
