<svg width="30" height="30" viewBox="0 0 30 30" xmlns="http://www.w3.org/2000/svg" xmlns:xlink="http://www.w3.org/1999/xlink"><defs><path d="M14.884 6.79c-.584-.598-1.114-1.189-1.7-1.727a6.334 6.334 0 0 0-5.736-1.699A6.472 6.472 0 0 0 3.756 13.97c.64.75 1.307 1.477 2 2.18 2.333 2.36 4.699 4.706 7.044 7.058.715.715 1.417 1.43 2.23 2.25.061-.135.14-.262.233-.379 2.286-2.296 4.578-4.591 6.877-6.884 1.225-1.225 2.455-2.435 3.667-3.674a6.369 6.369 0 0 0 1.783-6.245 6.276 6.276 0 0 0-4.582-4.8 6.4 6.4 0 0 0-6.471 1.635c-.546.523-1.069 1.087-1.653 1.678v.001zm.02-3.143a9.123 9.123 0 0 1 3.164-2.072c4.539-1.724 9.617.559 11.338 5.097.204.535.354 1.088.45 1.65a8.584 8.584 0 0 1-2.524 7.786c-3.398 3.43-6.823 6.83-10.234 10.241-.626.626-1.246 1.253-1.871 1.873-.082.074-.165.15-.22.204-.743-.722-1.471-1.417-2.18-2.132-3.397-3.418-6.782-6.84-10.16-10.267a8.825 8.825 0 0 1-2.66-6.666 8.628 8.628 0 0 1 7.14-8.171 8.723 8.723 0 0 1 7.572 2.304c.054.051.102.09.186.153z" id="a"/></defs><g fill="none" fill-rule="evenodd"><mask id="b" fill="#fff"><use xlink:href="#a"/></mask><use fill="#EDD9B7" xlink:href="#a"/><g mask="url(#b)" fill="#edd9b7"><path d="M0 0h30v30H0z"/></g></g></svg>
