<svg width="30" height="30" viewBox="0 0 30 30" xmlns="http://www.w3.org/2000/svg" xmlns:xlink="http://www.w3.org/1999/xlink"><defs><path d="M24.738 27.069h-.284c-5.835 0-11.67-.004-17.504.003-.997.001-1.81-.35-2.38-1.169-.616-.884-.688-1.845-.196-2.8.49-.952 1.302-1.481 2.385-1.484 5.363-.01 10.727-.005 16.09-.005h1.889v5.455zM4.073 4.278c0-.94.44-1.621 1.28-2.042.102-.052.217-.08.369-.134v16.737c.008.358.22.596.53.598.31.003.536-.238.537-.592.004-.978.002-1.957.002-2.935V2.06h18.034l2.044 18.47c-.114.006-.202.013-.29.013-6.581 0-13.161-.003-19.742.004-.905.001-1.722.294-2.42.888-.062.053-.128.1-.194.148-.034.024-.072.044-.138.083-.005-.12-.013-.206-.013-.292 0-5.7-.002-11.398.001-17.097zm23.283 22.79h-1.513v-5.454c.523 0 1.028.003 1.534 0 .457-.004.665-.247.614-.69-.159-1.375-.317-2.75-.47-4.126-.279-2.527-.552-5.055-.833-7.583-.28-2.527-.568-5.053-.852-7.58-.056-.504-.19-.635-.685-.635-6.244 0-12.489 0-18.733.003-.244 0-.492.007-.73.051-1.6.292-2.682 1.61-2.684 3.278-.005 3.787-.002 7.574-.002 11.36 0 2.873-.005 5.744.001 8.616.005 2.104 1.68 3.822 3.758 3.825 6.87.01 13.74.005 20.61.004.379 0 .622-.21.629-.528.006-.324-.249-.54-.644-.54zm-4.36-3.37H6.41c-.073 0-.146-.004-.217.006a.536.536 0 0 0-.47.518.534.534 0 0 0 .449.534c.088.016.18.01.271.01h8.239v.001h8.32c.395 0 .65-.214.648-.538-.003-.325-.255-.531-.654-.531z" id="a"/></defs><g fill="none" fill-rule="evenodd"><mask id="b" fill="#fff"><use xlink:href="#a"/></mask><use fill="#000" xlink:href="#a"/><g mask="url(#b)" fill="#fff"><path d="M0 0h30v30H0z"/></g></g></svg>
