<svg width="30" height="30" viewBox="0 0 30 30" xmlns="http://www.w3.org/2000/svg" xmlns:xlink="http://www.w3.org/1999/xlink"><defs><path d="M24.83 20.294a.592.592 0 0 0-.151.003c-.337.034-.531.295-.531.718 0 1.712.003 3.424.005 5.135 0 .194-.045.274-.25.327-2.693.662-5.38 1.34-8.068 2.013-.08.014-.16.023-.24.028v-9.156c0-.466.006-.933-.005-1.399a.586.586 0 0 0-.565-.57.614.614 0 0 0-.628.541 2.92 2.92 0 0 0-.006.314V28.53c-.113-.022-.186-.034-.262-.057-2.657-.668-5.319-1.332-7.987-1.991-.223-.058-.28-.144-.28-.359.011-1.7.006-3.406.006-5.107 0-.444-.223-.718-.588-.724-.393-.007-.622.25-.622.719v5.762c0 .446.143.612.57.72 3.202.804 6.404 1.607 9.607 2.408.11.028.226.028.337 0 3.184-.794 6.37-1.591 9.557-2.397.507-.125.622-.274.622-.792v-3.625c.007-.709.007-1.42 0-2.134v-.005a.592.592 0 0 0-.52-.655M10.58 7.307c1.312 1.323 2.626 2.645 3.942 3.965a.608.608 0 0 0 .946-.005c.92-.925 1.838-1.843 2.762-2.768.417-.416.84-.827 1.25-1.255a.591.591 0 0 0 0-.884.61.61 0 0 0-.864.044c-.01.01-.018.02-.026.03-.907.908-1.82 1.814-2.721 2.727-.061.086-.111.177-.149.274-.04-.028-.074-.062-.114-.092-.005-.064-.01-.126-.01-.187V4.563c0-.97.005-1.94-.006-2.91a.597.597 0 0 0-.823-.607.651.651 0 0 0-.388.694c.006 2.443 0 4.891 0 7.333v.36c-.653-.654-1.232-1.239-1.82-1.827-.404-.406-.804-.81-1.212-1.213a.59.59 0 0 0-.73-.113.538.538 0 0 0-.288.626c.05.152.136.29.25.4m14.595 10.88v-.005c-1.923.24-3.846.474-5.763.732a.571.571 0 0 1-.68-.32c-.81-1.393-1.654-2.773-2.481-4.153-.051-.086-.093-.178-.165-.297.114-.007.194-.017.274-.017 2.612 0 5.225.002 7.84.006.125.002.244.05.336.137a477.04 477.04 0 0 1 2.636 3.503c.028.046.053.093.074.142a72.97 72.97 0 0 1-2.071.272m-11.4-3.803c-.867 1.449-1.74 2.898-2.601 4.353a.359.359 0 0 1-.417.194c-1.432-.186-2.864-.36-4.296-.542l-3.417-.428c-.094-.012-.187-.029-.308-.046l.177-.261c.84-1.12 1.671-2.239 2.518-3.35a.456.456 0 0 1 .32-.171c2.654-.011 5.3-.006 7.954-.006.065.001.13.007.194.017-.05.096-.084.176-.123.24m15.068 3.616l-.103-.137c-1.112-1.484-2.238-2.956-3.326-4.457a1.043 1.043 0 0 0-.946-.485c-3.287.01-6.578.006-9.865.006H5.417a.752.752 0 0 0-.673.285c-1.193 1.593-2.39 3.178-3.578 4.77a.597.597 0 0 0 .417 1.01c.924.126 1.849.234 2.773.349 2.253.284 4.507.558 6.76.85.345.071.693-.101.845-.418.913-1.547 1.843-3.077 2.767-4.62.08-.139.165-.276.274-.446.068.114.126.2.177.285.965 1.603 1.93 3.208 2.892 4.816a.7.7 0 0 0 .776.382c1.762-.228 3.526-.439 5.289-.652 1.43-.178 2.861-.36 4.296-.548a.593.593 0 0 0 .412-.99" id="a"/></defs><g fill="none" fill-rule="evenodd"><mask id="b" fill="#fff"><use xlink:href="#a"/></mask><use fill="#ffffff" xlink:href="#a"/><g mask="url(#b)" fill="#ffffff"><path d="M0 0h30v30H0z"/></g></g></svg>
