<svg xmlns="http://www.w3.org/2000/svg" viewBox="0 0 24 27"><path d="M18.9 24.5c-.7 0-1.3.6-1.3 1.3s.6 1.3 1.3 1.3c.7 0 1.3-.6 1.3-1.3 0-.7-.6-1.3-1.3-1.3m-12.7 0c-.7 0-1.3.6-1.3 1.3S5.4 27 6.1 27s1.3-.6 1.3-1.3c0-.6-.5-1.2-1.2-1.2m7.4-11c.3.4.8.4 1.1 0 1.4-1.6 2.7-3.2 4.1-4.7.3-.3.3-.7 0-1-.3-.3-.7-.2-1 .1-.4.4-.7.9-1.1 1.3-.6.7-1.2 1.4-1.9 2.2V5.8v-5c0-.3-.1-.5-.4-.7-.5-.2-1 .1-1 .6v10.6c-.2-.1-.3-.3-.5-.5-.9-1-1.7-2-2.6-2.9-.2-.2-.4-.3-.7-.2-.1 0-.2.2-.3.5 0 .2.1.4.3.6 1.3 1.6 2.7 3.1 4 4.7m9.8-3.3h-3.1c-.4.5-.9 1-1.3 1.5h3.3l-1.7 5.8c-.3.7-1 1.2-1.8 1.2H8.3l-2.3-7h3.5l-1.3-1.5H5.5l-.4-1.3c-.1-.5-.4-1-.8-1.3-.5-.5-1.1-.7-1.7-.7h-.8c-.4 0-.8.3-.8.8 0 .4.4.7.8.7h.8c.2 0 .5.1.6.2.2.2.3.5.4.7l3.1 9.5c-.5.2-.9.6-1.2 1-.5.8-.7 1.8-.7 2.8 0 .4.3.7.8.8h13.8c.4 0 .8-.3.8-.7 0-.4-.3-.8-.7-.8h-13c0-.4.2-.8.4-1.2.1-.3.4-.5.8-.5h11c1.5 0 2.8-.9 3.3-2.3l2.1-6.8c0-.4-.3-.8-.7-.9"/></svg>
