<svg width="30" height="30" viewBox="0 0 30 30" xmlns="http://www.w3.org/2000/svg" xmlns:xlink="http://www.w3.org/1999/xlink"><defs><path id="a" d="M0 1.054h27.6V25.2H0z"/><path id="c" d="M1.164.7h14.75v14.748H1.164z"/></defs><g fill="none" fill-rule="evenodd"><g transform="translate(1 4.1)"><mask id="b" fill="#fff"><use xlink:href="#a"/></mask><path d="M21.524 22.186h-.027c-.846 0-1.531.674-1.531 1.507a1.52 1.52 0 0 0 1.531 1.507 1.52 1.52 0 0 0 1.529-1.507 1.504 1.504 0 0 0-1.502-1.507m-15.32 0H6.178c-.846 0-1.53.674-1.53 1.507 0 .832.684 1.507 1.53 1.507.845 0 1.529-.675 1.529-1.507a1.503 1.503 0 0 0-1.503-1.507M26.852 5.001a.804.804 0 0 0-.16-.025h-3.659l-1.579 1.816h4l-2.09 6.98a2.513 2.513 0 0 1-2.182 1.484H8.7L5.98 6.792h4.23S8.648 4.995 8.63 4.976H5.39L4.925 3.49v-.023a3.94 3.94 0 0 0-.943-1.594 3.172 3.172 0 0 0-2.092-.82H.968a.998.998 0 0 0-.969.953.937.937 0 0 0 .969.858h.921a.905.905 0 0 1 .765.289c.22.26.387.56.488.886l3.689 11.455a3.188 3.188 0 0 0-1.417 1.242 6.342 6.342 0 0 0-.788 3.323c.011.496.418.897.922.907H22.08a.917.917 0 0 0 1.001-.822.912.912 0 0 0-1-.988H6.565c.05-.517.194-1.02.428-1.485.164-.374.53-.624.946-.642h13.219c1.785.026 3.381-1.098 3.935-2.77l2.48-8.11A.955.955 0 0 0 26.852 5" fill="#737373" mask="url(#b)"/></g><path d="M20.126 5.618l-4.07 4.07-2.632-2.631a.423.423 0 0 0-.595-.001l-.655.655a.42.42 0 0 0 0 .594l3.584 3.585a.424.424 0 0 0 .594 0l5.025-5.023a.42.42 0 0 0 0-.593l-.657-.656a.418.418 0 0 0-.594 0" fill="#68C53B"/><g transform="translate(8.2 .5)"><mask id="d" fill="#fff"><use xlink:href="#c"/></mask><path d="M14.146 8.073a5.615 5.615 0 0 1-5.608 5.609 5.614 5.614 0 0 1-5.606-5.609 5.614 5.614 0 0 1 5.606-5.608 5.614 5.614 0 0 1 5.608 5.608M8.538.699c-4.066 0-7.374 3.307-7.374 7.374s3.308 7.375 7.374 7.375c4.067 0 7.376-3.308 7.376-7.375S12.605.699 8.538.699" fill="#68C53B" mask="url(#d)"/></g></g></svg>
