<svg width="30" height="30" viewBox="0 0 30 30" xmlns="http://www.w3.org/2000/svg" xmlns:xlink="http://www.w3.org/1999/xlink"><defs><path d="M15.626 11.71h4.323v-1.408h-4.323v1.407zm12.93-1.424h-1.58v17.418h-1.739V13.477H4.781v14.226H3.053V10.297H1.458l.001-.983c.001-.592.001-1.183-.005-1.774-.001-.139.018-.172.131-.223 1.904-.853 3.81-1.71 5.714-2.566 2.393-1.074 4.783-2.149 7.177-3.22a.47.47 0 0 1 .309.001c4.557 1.928 9.11 3.863 13.66 5.806.04.017.099.086.101.06.012.806.01 1.611.01 2.444v.444zm-4.79 17.42h-.894V24.57H18.11v-3.173h-4.758v-3.165H7.146v9.48h-.923V14.924h17.543v12.782zm-5.646-.002h3.283v-1.673H18.12v1.673zm-4.749-3.16h3.273v-1.69h-3.273v1.69zm-.006 3.17h3.266v-1.68h-3.266v1.68zm-1.478-6.35a.849.849 0 0 1-.08.004h-.986c-.71 0-1.426 0-2.139.006-.057-.004-.082-.003-.094-.003l-.006.001a.355.355 0 0 1-.007-.091c.014-.406.012-.813.008-1.222l-.003-.331c0-.022-.003-.081.01-.067.923.001 1.846.003 2.78.003h.517v1.7zm-3.28 3.177h3.268v-1.67H8.607v1.67zm-.003 3.17h3.28v-1.686h-3.28v1.686zM30 7.285c.004-.573-.258-.976-.775-1.195L26.73 5.03C22.875 3.392 19.02 1.754 15.167.115c-.382-.163-.754-.156-1.165.032A7527.287 7527.287 0 0 1 .804 6.086c-.527.236-.794.647-.791 1.217l.005.769c.01.74.017 1.506-.017 2.256-.018.441.132.844.412 1.103.263.243.612.346 1.015.295.117-.012.15.004.15.004.002.002.025.036.025.197-.008 4.631-.008 9.265-.006 13.898v2.084c0 .79.472 1.263 1.263 1.263l14.776-.002c3.107-.003 6.318-.007 9.475.016h.007c.345 0 .67-.134.915-.378a1.32 1.32 0 0 0 .385-.932c-.017-3.98-.015-7.961-.013-11.942l.001-3.824c0-.161 0-.327.009-.353.039-.022.207-.025.37-.026.726-.008 1.214-.5 1.214-1.226V9.283c-.002-.666-.002-1.33.001-1.998zm-19.922 4.43h4.308v-1.412h-4.308v1.413zm11.106-.006H25.5v-1.402h-4.316v1.402zm-16.653.004h4.32v-1.407H4.53v1.407z" id="a"/></defs><g fill="none" fill-rule="evenodd"><mask id="b" fill="#fff"><use xlink:href="#a"/></mask><use fill="#000" xlink:href="#a"/><g mask="url(#b)" fill="#727272"><path d="M0 0h30v30H0z"/></g></g></svg>
