<svg width="30" height="30" viewBox="0 0 30 30" xmlns="http://www.w3.org/2000/svg" xmlns:xlink="http://www.w3.org/1999/xlink"><defs><path d="M24.756 18.74c-.152-.002-.303-.002-.455-.002-.2.004-.401.004-.603-.004a.866.866 0 0 1-.843-.885.863.863 0 0 1 .854-.848l.132-.005c.195-.008.38-.016.563.009l.16.019c.243.028.495.056.664.17.132.09.23.262.332.446.052.092.105.186.166.276l.038.056h1.072l-.002-.128c-.007-1.002-.691-1.856-1.625-2.026-.437-.08-.89-.076-1.332-.07l-.181.002a2.095 2.095 0 0 0-2.096 2.123 2.117 2.117 0 0 0 2.106 2.119c.141.004.281.003.422 0 .21-.004.421-.004.634.004a.863.863 0 0 1 .828.871.86.86 0 0 1-.84.861c-.183.007-.366.005-.551.005l-.223-.001c-.742 0-.98-.185-1.155-.893l-.025-.096h-1.174l-.004.123c-.033.97.67 1.867 1.6 2.043.343.064.695.078 1.042.078.126 0 .252-.003.376-.004l.126-.002a2.119 2.119 0 0 0 2.083-2.14 2.11 2.11 0 0 0-2.09-2.101zm3.789 4c0 1.204-.778 1.983-1.98 1.984H10.221c-1.238 0-2.007-.772-2.007-2.017v-6.67c0-1.272.757-2.03 2.026-2.03h16.313c1.21 0 1.992.785 1.992 2.002v6.732zM18.281 9.759h-.55c-.917.003-1.833.003-2.75 0-.595-.002-.95-.351-.952-.934-.002-1.029-.002-2.057-.002-3.086l.001-.99 4.28 5.01h-.027zm11.468 5.564c-.397-1.657-1.548-2.57-3.246-2.57h-6.489v-.8c.002-.616.003-1.23-.006-1.845a.723.723 0 0 0-.153-.442 1291.645 1291.645 0 0 0-5.701-6.648.74.74 0 0 0-.512-.234c-.782-.004-1.718-.004-2.614-.003H9.377v1.249h3.396V8.75c.003 1.373.896 2.262 2.277 2.263.768.002 1.537 0 2.307 0h1.383v1.74l-2.814-.002c-1.929 0-3.992-.001-5.677.001-1.967.001-3.289 1.327-3.29 3.3v6.67c.001 1.918 1.345 3.256 3.27 3.256 1.685.003 3.748.001 5.677.001l2.85-.001c0 .173.002.345.003.516.004.498.007.967-.01 1.442-.013.398-.345.73-.771.775-.067.004-.132.003-.203.004H3.118c-.754 0-1.062-.31-1.062-1.073V5.103c0-.762.307-1.074 1.062-1.074h2.62V2.777h-.129c-.452 0-1.053.002-1.622 0h-.974c-1.297 0-2.206.907-2.21 2.203C.8 5.515.8 6.05.8 6.588v21.147c.001 1.334.902 2.231 2.242 2.234l.62.001h.627l.624-.001 3.226.001c3.227.001 6.452 0 9.677-.003 1.267 0 2.19-.918 2.197-2.184.002-.277 0-.555 0-.832v-.973l2.496.001c1.335.003 2.49.005 4.178-.002a3.125 3.125 0 0 0 3.043-2.454c.009-.04.024-.08.038-.119l.025-.07.006-7.935-.051-.077zm-12.89.44h-1.227v7.202h5.213v-1.236h-3.986v-5.967zM13.62 18.1l1.343-2.355h-.221l-.258.002c-.176.003-.327.006-.477-.007-.294-.02-.422.138-.51.299-.159.297-.327.587-.496.88l-.751 1.308c-.026-.042-.049-.077-.07-.116l-.412-.722c-.26-.453-.518-.908-.78-1.358-.079-.137-.17-.264-.297-.273a4.88 4.88 0 0 0-.413-.016c-.168 0-.338.005-.521.005h-.222l.639 1.118c.449.788.885 1.554 1.33 2.316.084.141.083.226-.005.374-.46.789-.91 1.582-1.362 2.376l-.325.569c-.032.059-.064.116-.101.187l-.16.298h.215c.09 0 .176-.002.256-.003.172-.004.321-.005.47.006a.81.81 0 0 0 .055.002c.257 0 .377-.16.453-.302.17-.313.348-.622.528-.93l.72-1.255c.025.04.05.077.07.114l.434.759c.251.44.504.881.758 1.322.08.135.172.262.298.274.217.018.432.016.662.013l.479-.003-.181-.334a6.644 6.644 0 0 0-.1-.184l-.418-.732c-.415-.729-.831-1.46-1.256-2.184-.083-.142-.082-.23.003-.373.215-.354.42-.715.623-1.075zM4.303 6.326a.582.582 0 0 0-.42.516c-.03.245.12.42.22.534l2.957 3.378c.148.17.32.26.498.26.177 0 .35-.09.497-.258 1.003-1.144 2.004-2.287 3.005-3.432a.662.662 0 0 0 .173-.484.572.572 0 0 0-.209-.4c-.273-.23-.63-.187-.886.104l-1.97 2.25-.001-4.737V1.442c0-.28-.106-.475-.325-.589a.584.584 0 0 0-.585.008.646.646 0 0 0-.298.563L6.958 8.79c-.045-.047-.089-.097-.132-.145l-1.864-2.13a.596.596 0 0 0-.66-.19z" id="a"/></defs><g fill="none" fill-rule="evenodd"><mask id="b" fill="#fff"><use xlink:href="#a"/></mask><use fill="#000" xlink:href="#a"/><g mask="url(#b)" fill="#ffffff"><path d="M0 0h30v30H0z"/></g></g></svg>
