<svg width="30" height="30" viewBox="0 0 30 30" xmlns="http://www.w3.org/2000/svg" xmlns:xlink="http://www.w3.org/1999/xlink"><defs><path d="M7.457 11.7H4.78a.61.61 0 0 0 0 1.219h2.678a.61.61 0 0 0 0-1.219zm0-1.859H4.78a.609.609 0 1 0 0 1.218h2.678a.61.61 0 0 0 0-1.218zm0 3.718H4.78a.61.61 0 0 0 0 1.219h2.678a.609.609 0 1 0 0-1.219zm0 1.86H4.78a.609.609 0 1 0 0 1.219h2.678a.61.61 0 0 0 0-1.218zm20.04.18v-4.721a2.83 2.83 0 0 1 1.285 2.361c0 .97-.503 1.85-1.286 2.36zm-1.219 9.125a.537.537 0 0 1-1.073 0V1.754a.537.537 0 0 1 1.073 0v22.97zm-2.291-1.973c-4.013-3.668-8.86-4.5-11.25-4.678V8.406c2.404-.18 7.244-1.017 11.25-4.68V22.75zm-11.578-1.953l-.584-1.546.163.005.86 1.439-.439.102zm-.336 5.75a1.136 1.136 0 0 1-1.462-.657l-2.514-6.64h2.425l2.209 5.836a1.136 1.136 0 0 1-.658 1.462zm-6.98-8.515A2.105 2.105 0 0 1 2.99 15.93V10.55c0-1.16.943-2.104 2.102-2.104l6.148-.001c.03.002.137.005.279.006v9.578a9.734 9.734 0 0 0-.252.005H5.092zM1.77 15.656c-.333-.236-.553-.53-.553-.837V11.66c0-.307.22-.602.553-.84v4.836zm25.725-6.141v-7.76C27.496.786 26.71 0 25.741 0c-.967 0-1.754.787-1.754 1.754v.251c-5.15 5.463-12.618 5.225-12.72 5.222H5.092c-1.41 0-2.61.887-3.09 2.13C.798 9.75 0 10.65 0 11.66v3.16c0 1.024.782 1.906 2 2.302a3.32 3.32 0 0 0 3.092 2.13h1.702l2.677 7.07a2.357 2.357 0 0 0 3.033 1.367 2.355 2.355 0 0 0 1.366-3.032l-1.025-2.709 1.905-.445-1.267-2.119c2.615.326 7.062 1.435 10.504 5.087v.253c0 .967.787 1.755 1.754 1.755.968 0 1.755-.788 1.755-1.755v-7.762A4.042 4.042 0 0 0 30 13.239a4.048 4.048 0 0 0-2.504-3.724z" id="a"/></defs><g fill="none" fill-rule="evenodd"><mask id="b" fill="#fff"><use xlink:href="#a"/></mask><use fill="#000" xlink:href="#a"/><g mask="url(#b)" fill="#ffffff"><path d="M0 0h30v30H0z"/></g></g></svg>
