<svg width="24" height="24" viewBox="0 0 24 24" xmlns="http://www.w3.org/2000/svg" xmlns:xlink="http://www.w3.org/1999/xlink"><defs><path d="M4 10h2v8.002c0 .551-.444.998-1 .998-.552 0-1-.446-1-.998V10zm0-5c0-.552.444-1 1-1 .552 0 1 .444 1 1v1H4V5zM3 7h4v2H3V7zm7 7h4v2h-4v-2zm7-3h4v2h-4v-2zm-6 6h2v1c0 .552-.444 1-1 1-.552 0-1-.444-1-1v-1zm0-12.002c0-.551.444-.998 1-.998.552 0 1 .446 1 .998V13h-2V4.998zM18 14h2v4c0 .552-.444 1-1 1-.552 0-1-.444-1-1v-4zm0-9.01c0-.546.444-.99 1-.99a1 1 0 0 1 1 .99V10h-2V4.99z" id="a"/></defs><g fill="none" fill-rule="evenodd"><mask id="b" fill="#fff"><use xlink:href="#a"/></mask><use fill="#525A65" xlink:href="#a"/><g mask="url(#b)" fill="#525A65"><path d="M0 0h24v24H0z"/></g></g></svg>
