<svg width="30" height="30" viewBox="0 0 30 30" xmlns="http://www.w3.org/2000/svg" xmlns:xlink="http://www.w3.org/1999/xlink"><defs><path d="M24.643 23.69c-.27.042-.537.062-.8.062a4.961 4.961 0 0 1-4.787-3.594l-.027-.124c.006-.023-.017-.016.078-.077 1.049-.574 1.619-1.544 1.618-2.577 0-.64-.22-1.3-.662-1.904l-.004-.007c.79-.913 1.746-1.492 2.915-1.68a5.26 5.26 0 0 1 .85-.07c2.366.001 4.361 1.62 4.88 4.065.066.32.098.64.098.957.002 2.361-1.782 4.586-4.16 4.95zm-6.954-9.312h-2.315c.49-.437.932-.933 1.261-1.576.355.533.698 1.045 1.054 1.576zm.059 4.685v.15-.15c-2.175.003-4.35.001-6.526.008a.77.77 0 0 0-.458.136c-1.06.843-2.178 1.265-3.37 1.265a5.766 5.766 0 0 1-1.88-.332c-.464-.159-.918-.376-1.389-.565l-.104-.072-.028-.14c.003-1.386.004-2.77.004-4.155 0-1.32 0-2.64-.002-3.959l.016-.136.087-.028c1.953-.217 3.754-.898 5.465-1.817 1.4-.752 2.778-1.539 4.177-2.279.786-.417 1.613-.715 2.499-.77l.126-.004c.589.003 1.054.257 1.389.745 1.34 1.964 2.654 3.95 3.977 5.928a6.391 6.391 0 0 0-2.473 1.678l-2.843-4.24-.2-.299-.068.353c-.072.375-.11.72-.205 1.028-.366 1.18-1.178 1.97-2.239 2.574-.446.254-.888.412-1.383.412l-.183-.007a8.567 8.567 0 0 0-.643-.02c-.341 0-.694.01-1.077.01h-.454l.367.272c.15.111.236.182.338.248.767.494 1.62.688 2.505.692.525.002 1.051.003 1.576.003h1.906l1.128.001c.948.007 1.63.634 1.745 1.593l.01.176c0 .76-.558 1.466-1.366 1.661-.13.03-.278.04-.424.04zm-14.95 1.398c0 .226-.04.338-.092.388-.048.052-.16.093-.383.092l-.463.001h-.231c-.178-.003-.274-.042-.325-.094-.051-.052-.09-.148-.09-.33l-.002-2.097.001-3.143v-2.76-2.07c0-.23.04-.343.09-.39.047-.05.158-.09.384-.09.128-.003.255-.003.382-.003.105 0 .209 0 .312.002.178.002.274.041.325.095.052.052.09.148.091.328v10.072h.149-.149zm27.14-2.42c-.211-1.804-1.056-3.267-2.501-4.336-1.058-.785-2.24-1.193-3.519-1.192-.233 0-.47.014-.707.04l-.088.006c-.15-.008-.199-.033-.31-.197-.348-.557-.723-1.093-1.084-1.633-.963-1.438-1.92-2.88-2.891-4.315-.627-.932-1.525-1.417-2.654-1.414h-.022c-.991.005-1.892.291-2.748.754a498.6 498.6 0 0 1-5.247 2.801c-1.255.66-2.565 1.146-3.967 1.347l-.16.016-.087-.022c-.019-.015-.05-.054-.08-.149-.182-.605-.68-.94-1.28-.984a7.065 7.065 0 0 0-1.154.001C.812 8.812.34 9.174.112 9.768l-.1.235-.013.03v10.844l.084.184h.001c.197.593.634 1.001 1.263 1.07.22.024.441.036.663.036.225 0 .449-.013.67-.036.664-.064 1.13-.546 1.273-1.199.007-.028.018-.064.025-.096l.036.02h.001c1.118.551 2.224.837 3.314.837 1.342.001 2.655-.435 3.928-1.327a.593.593 0 0 1 .316-.082c2-.007 4.002.003 6.003-.013h.01c.135 0 .203.02.241.048.038.027.078.085.12.222.786 2.648 3.181 4.416 5.846 4.416.21 0 .42-.01.632-.034 2.576-.269 4.656-2.045 5.336-4.569.107-.395.16-.795.235-1.18L30 19.16v-.853l-.062-.266zm-5.011.08l-.217.007h-1.194v-2.535c.27 0 .535-.005.792-.005.186 0 .37.002.554.01.605.025 1.12.576 1.14 1.2v.046c0 .648-.465 1.2-1.075 1.277zm.216-3.684l-.02.15.02-.15a8.812 8.812 0 0 0-1.146-.06c-.267 0-.532.004-.795.004h-.208c-.217 0-.406.046-.535.185-.128.14-.168.33-.168.556-.002.625-.002 1.25-.002 1.875v1.123c-.055.004-.12.008-.167.008h-.057l-.598-.002c-.14 0-.28.001-.421.004a.615.615 0 0 0-.612.602l.001.012v.005a.616.616 0 0 0 .588.588l.164.007.196-.002h.889v.661h-.767c-.154 0-.309 0-.465.004a.608.608 0 0 0-.605.601v.022c.01.32.27.563.595.583l.139.005.19-.002h.931v1.123c.001.208.046.39.149.53.1.138.265.22.443.22h.011a.544.544 0 0 0 .444-.217.86.86 0 0 0 .152-.523l.001-.419v-.714h2.023c.214 0 .397-.047.538-.15a.547.547 0 0 0 .222-.453v-.015a.553.553 0 0 0-.22-.447c-.138-.103-.317-.147-.526-.148h-2.025v-.66l.758.001c.169 0 .338 0 .507-.003 1.3-.023 2.343-1.032 2.433-2.345l.006-.164c0-1.17-.864-2.236-2.063-2.395z" id="a"/></defs><g fill="none" fill-rule="evenodd"><mask id="b" fill="#fff"><use xlink:href="#a"/></mask><use fill="#000" xlink:href="#a"/><g mask="url(#b)" fill="#727272"><path d="M0 0h30v30H0z"/></g></g></svg>
