<svg width="26" height="26" viewBox="0 0 30 30" xmlns="http://www.w3.org/2000/svg" xmlns:xlink="http://www.w3.org/1999/xlink"><defs><path d="M25.913 23.11l-.542.543c-1.422 1.422-3.73 1.837-6.497 1.17-2.931-.71-5.976-2.528-8.573-5.125-2.598-2.597-4.418-5.642-5.125-8.573-.668-2.766-.252-5.075 1.17-6.497l.543-.542a.746.746 0 0 1 .534-.222c.2 0 .393.08.535.222l3.115 3.116a.756.756 0 0 1 0 1.069L8.74 10.603a.933.933 0 0 0-.169 1.088c.992 1.912 2.428 3.839 4.163 5.574 1.735 1.735 3.662 3.174 5.575 4.163a.933.933 0 0 0 1.088-.17l2.332-2.332a.756.756 0 0 1 1.07 0l3.114 3.116a.756.756 0 0 1 0 1.069m1.32-2.389l-3.116-3.115v-.001a2.62 2.62 0 0 0-3.707 0l-1.84 1.841c-1.548-.882-3.099-2.083-4.517-3.501-1.419-1.419-2.619-2.968-3.501-4.517l1.84-1.84a2.623 2.623 0 0 0 0-3.707L9.278 2.767a2.624 2.624 0 0 0-3.708 0l-.542.542c-1.9 1.899-2.49 4.83-1.662 8.257.787 3.257 2.785 6.615 5.62 9.451 2.834 2.837 6.19 4.833 9.451 5.62.944.234 1.913.356 2.885.363 2.177 0 4.03-.688 5.369-2.029l.543-.542a2.622 2.622 0 0 0 0-3.707m-12.02-12.04a6.18 6.18 0 0 1 6.172 6.172.933.933 0 1 0 1.865 0c0-4.431-3.605-8.038-8.037-8.038a.933.933 0 0 0 0 1.866m0-3.943c5.575 0 10.114 4.538 10.114 10.115a.933.933 0 1 0 1.866 0c0-6.606-5.374-11.98-11.98-11.98a.933.933 0 0 0 0 1.865" id="a"/></defs><g fill="none" fill-rule="evenodd"><mask id="b" fill="#fff"><use xlink:href="#a"/></mask><use fill="#000" xlink:href="#a"/><g mask="url(#b)" fill="#525a65"><path d="M0 0h30v30H0z"/></g></g></svg>
