<svg width="24" height="24" viewBox="0 0 24 24" xmlns="http://www.w3.org/2000/svg" xmlns:xlink="http://www.w3.org/1999/xlink"><defs><path d="M22.267 17.819L15.86 10.42l6.446-5.153c.058 2.016.03 10.31-.04 12.55m-.854 1.02c-2.706.003-5.411.003-8.119.002H8.764c-2.21.001-4.42.001-6.63-.002a1.6 1.6 0 0 1-.193-.013l6.631-7.663 3.03 2.423c.088.07.212.07.3 0l3.039-2.428 6.64 7.668a1.104 1.104 0 0 1-.169.013M1.191 10.293V5.255l6.463 5.172-6.46 7.46c-.004-2.526-.003-5.052-.003-7.594m.888-6.11c.003 0 .004-.002.007 0h19.367a1 1 0 0 1 .275.033c-.123.102-.244.2-.365.296L19.64 5.89c-2.616 2.092-5.233 4.185-7.847 6.281l-.04.032a6472.181 6472.181 0 0 0-8.025-6.425l-1.946-1.56c.085-.024.18-.035.297-.035m21.432.559l-.073-.255c-.252-.9-1.031-1.484-1.987-1.485-2.697-.003-5.393-.003-8.094-.002l-11.153.001C1.027 3.002.341 3.54.037 4.68A.243.243 0 0 0 0 4.807v13.41c0 .023.003.046.01.068l.081.277a1.997 1.997 0 0 0 1.956 1.462h19.29c1.144-.001 1.863-.562 2.133-1.652l.03-.056a.254.254 0 0 0 .02-.099V4.807a.215.215 0 0 0-.01-.065" id="a"/></defs><g fill="none" fill-rule="evenodd"><mask id="b" fill="#fff"><use xlink:href="#a"/></mask><use fill="#000" xlink:href="#a"/><g mask="url(#b)" fill="#525A65"><path d="M0 0h24v24H0z"/></g></g></svg>
