<svg width="24" height="24" viewBox="0 0 24 24" xmlns="http://www.w3.org/2000/svg" xmlns:xlink="http://www.w3.org/1999/xlink"><defs><path d="M12 0C5.4 0 0 5.4 0 12s5.4 12 12 12 12-5.4 12-12S18.6 0 12 0zm5 13h-4v4c0 .6-.4 1-1 1s-1-.4-1-1v-4H7c-.6 0-1-.4-1-1s.4-1 1-1h4V7c0-.6.4-1 1-1s1 .4 1 1v4h4c.6 0 1 .4 1 1s-.4 1-1 1z" id="a"/></defs><g fill="none" fill-rule="evenodd"><mask id="b" fill="#fff"><use xlink:href="#a"/></mask><use fill="#444" fill-rule="nonzero" xlink:href="#a"/><g mask="url(#b)" fill="#8D8D8D"><path d="M0 0h24v24H0z"/></g></g></svg>
