<svg xmlns="http://www.w3.org/2000/svg" viewBox="0 0 24 24" fill="#525a65"><path d="M2 20.5c3 .8 5.6.6 9.5-.5 4.4-1.2 7.5-.9 10.5-.5v-10c-3.3-.8-6-.6-9.5.4s-6.8 1.2-10.5.6v10zM12 7.9c3.5-1 7-1.5 12 0v14c-4.4-1.3-8.2-1-12 0-3.6 1-7.2 1.7-12 0v-14c4.9 1.3 8.5 1 12 0zM5.5 17c.8 0 1.5-.7 1.5-1.5S6.3 14 5.5 14 4 14.7 4 15.5 4.7 17 5.5 17zm13-1c.8 0 1.5-.7 1.5-1.5s-.7-1.5-1.5-1.5-1.5.7-1.5 1.5.7 1.5 1.5 1.5zM10 13c0 1.5 2 3 2 3.5s-1.9.5-2 .5v2c.4-.1 4-.5 4-2.5 0-1-2-2.5-2-3s1.9-.5 2-.5v-2c-2.5 0-4 1-4 2zM7.4 5l1.3 1.3-1.4 1.4L3.6 4 7.3.3l1.4 1.4L7.4 3h3.9c.8 0 1.9.5 2.4 1.1l1 1.2-1.5 1.3-1-1.2c-.2-.2-.6-.4-.9-.4H7.4z"/></svg>
