<svg width="24" height="24" viewBox="0 0 24 24" xmlns="http://www.w3.org/2000/svg" xmlns:xlink="http://www.w3.org/1999/xlink"><defs><path d="M19.09 15.112a3.1 3.1 0 1 1 3.1-3.133 3.132 3.132 0 0 1-3.1 3.133zm-14.146 7.06a3.1 3.1 0 1 1 3.106-3.106 3.11 3.11 0 0 1-3.106 3.107zm-.026-14.12a3.1 3.1 0 1 1 .013 0h-.013zm15.912.424a3.887 3.887 0 0 0-4.836 1.086c-.221.282-.38.265-.653.124-1.086-.556-2.18-1.094-3.265-1.64-1.13-.566-2.25-1.13-3.4-1.7l.088-.363a3.95 3.95 0 1 0-5.346 2.608 3.91 3.91 0 0 0 4.58-1.139c.228-.282.378-.335.715-.168 2.092 1.068 4.2 2.11 6.3 3.16.114.052.22.131.344.2a4.1 4.1 0 0 0 0 2.717c-.08.062-.106.088-.141.115-2.223 1.116-4.438 2.22-6.653 3.336-.266.132-.354-.009-.495-.177a3.85 3.85 0 0 0-3.75-1.456 3.94 3.94 0 1 0 4.52 3.261c-.002 0-.002-.003-.002-.004-.043-.256-.1-.512-.159-.777 2.287-1.138 4.546-2.268 6.8-3.4.248-.124.335 0 .46.16a3.843 3.843 0 0 0 3.089 1.535 3.95 3.95 0 0 0 1.8-7.484l.003.006z" id="a"/></defs><g fill="none" fill-rule="evenodd"><mask id="b" fill="#fff"><use xlink:href="#a"/></mask><use fill="#727272" xlink:href="#a"/><g mask="url(#b)" fill="#525A65"><path d="M0 0h24v24H0z"/></g></g></svg>
