<svg width="24" height="24" viewBox="0 0 24 24" xmlns="http://www.w3.org/2000/svg" xmlns:xlink="http://www.w3.org/1999/xlink"><defs><path d="M22.916 14.62a.915.915 0 0 1-.888.933H19.25v-5.386H4.583v5.385H1.862a.963.963 0 0 1-.945-.934V5.543a.914.914 0 0 1 .945-.877h20.167a.866.866 0 0 1 .888.842v.035l-.001 9.076zM5.5 22.083h12.833v-11H5.5v11zM4.583 3.75H19.25V1.917H4.583V3.75zm17.446 0h-1.862V1h-16.5v2.75h-1.8A1.833 1.833 0 0 0 0 5.543v9.075a1.882 1.882 0 0 0 1.862 1.851h2.721V23H19.25v-6.53h2.779a1.833 1.833 0 0 0 1.8-1.852V5.543a1.783 1.783 0 0 0-1.775-1.793h-.025z" id="a"/></defs><g fill="none" fill-rule="evenodd"><mask id="b" fill="#fff"><use xlink:href="#a"/></mask><use fill="#525a65" xlink:href="#a"/><g mask="url(#b)" fill="#525A65"><path d="M0 0h24v24H0z"/></g></g></svg>
