<svg width="24" height="24" viewBox="0 0 24 24" xmlns="http://www.w3.org/2000/svg" xmlns:xlink="http://www.w3.org/1999/xlink"><defs><path d="M17.533 3H6.467A3.473 3.473 0 0 0 3 6.464v11.054a3.473 3.473 0 0 0 3.467 3.464h11.066A3.473 3.473 0 0 0 21 17.518V6.503A3.482 3.482 0 0 0 17.533 3zm.974 2.102h.39v3.036h-3.04V5.102h2.65zM9.233 10.47c.074-.116.117-.194.194-.311a3.16 3.16 0 0 1 5.338.311c.282.471.43 1.01.428 1.56a3.156 3.156 0 1 1-6.312 0 2.376 2.376 0 0 1 .352-1.56zm10.014 7.084a1.729 1.729 0 0 1-1.715 1.713H6.467a1.729 1.729 0 0 1-1.715-1.713v-7.393H7.44c-.07.163-.122.332-.156.506a4.929 4.929 0 1 0 9.468 0c-.039-.156-.117-.35-.156-.506h2.688v7.395l-.037-.002z" id="a"/></defs><g fill="none" fill-rule="evenodd"><mask id="b" fill="#fff"><use xlink:href="#a"/></mask><use fill="#EDD9B7" fill-rule="nonzero" xlink:href="#a"/><g mask="url(#b)" fill="#525A65"><path d="M0 0h24v24H0z"/></g></g></svg>
