<svg width="24" height="24" viewBox="0 0 24 24" xmlns="http://www.w3.org/2000/svg" xmlns:xlink="http://www.w3.org/1999/xlink"><defs><path d="M12.598 13.972l-.19.125a.28.28 0 0 0-.127.234v1.835h-.584V14.33a.28.28 0 0 0-.128-.236l-.194-.125a1.136 1.136 0 0 1-.526-.956 1.141 1.141 0 0 1 1.14-1.13 1.128 1.128 0 0 1 1.13 1.13c0 .385-.193.743-.52.96zm-.608-3.5a2.547 2.547 0 0 0-2.55 2.54c0 .728.313 1.41.848 1.888v2.395a.282.282 0 0 0 .28.28h2.842a.282.282 0 0 0 .28-.28v-2.398a2.541 2.541 0 0 0-1.701-4.425zm6.6 8.86c0 .089-.038.175-.103.241a.345.345 0 0 1-.241.103H5.754a.344.344 0 0 1-.241-.103.343.343 0 0 1-.104-.242v-9.204l.008-.053c.007-.017.02-.05.104-.11.082-.06.23-.139.468-.222a17.866 17.866 0 0 1 5.989-1.05c2.007 0 4.022.349 6.034 1.05.316.11.473.213.53.273l.041.06.008.052v9.204zM9.015 6.49c0-.85.345-1.618.904-2.177a3.07 3.07 0 0 1 5.247 2.177v1.072a18.993 18.993 0 0 0-3.2-.279c-.985 0-1.97.083-2.95.24V6.49zm10.793 2.878a1.848 1.848 0 0 0-.698-.676c-.25-.146-.492-.23-.63-.28h-.001a20.664 20.664 0 0 0-1.903-.557V6.49A4.49 4.49 0 0 0 12.095 2a4.495 4.495 0 0 0-4.49 4.49v1.315a20.18 20.18 0 0 0-2.085.608c-.186.066-.55.191-.883.45-.166.128-.325.294-.444.505a1.528 1.528 0 0 0-.193.76v9.203c0 .968.786 1.754 1.754 1.755h12.492c.968-.001 1.754-.787 1.754-1.755v-9.204c0-.291-.074-.548-.193-.76z" id="a"/></defs><g fill="none" fill-rule="evenodd"><mask id="b" fill="#fff"><use xlink:href="#a"/></mask><use fill="#141515" xlink:href="#a"/><g mask="url(#b)" fill="#525A65"><path d="M0 0h24v24H0z"/></g></g></svg>
