<svg width="30" height="30" viewBox="0 0 30 30" xmlns="http://www.w3.org/2000/svg" xmlns:xlink="http://www.w3.org/1999/xlink"><defs><path d="M7.63 18.732a.17.17 0 0 0-.107-.082.168.168 0 0 0-.134.016l-.788.46a.177.177 0 0 0-.064.24l.425.742c.023.041.062.07.108.082a.15.15 0 0 0 .045.008c.03 0 .061-.01.088-.024l.788-.46a.177.177 0 0 0 .064-.24l-.424-.742zm18.075 3.28a.18.18 0 0 0 .134.017.175.175 0 0 0 .108-.083l.425-.743a.177.177 0 0 0-.065-.24l-.787-.458a.165.165 0 0 0-.134-.018.173.173 0 0 0-.108.083l-.425.742a.177.177 0 0 0 .065.24l.787.46zM6.055 19.65a.173.173 0 0 0-.107-.083.168.168 0 0 0-.134.018l-.786.459a.177.177 0 0 0-.065.24l.425.742a.17.17 0 0 0 .108.082c.014.005.03.007.045.007.031 0 .062-.009.089-.023l.786-.46a.176.176 0 0 0 .065-.24l-.425-.742zm20.504 2.162l-11.076 6.464v-5.89l5.433-3.172.066.039a.177.177 0 0 0 .241-.065l.133-.232.073-.042a.176.176 0 0 0 .087-.153v-.084l.132-.231a.177.177 0 0 0-.064-.24l-.068-.039v-6.341l5.043-2.943v12.93zm-6.244-9.286v5.641l-4.832 2.822v-5.643l4.832-2.82zm-5.432 1.774l-4.84-2.824 4.84-2.823 4.836 2.823-4.836 2.824zm-.6 6.69l-4.84-2.823v-5.642l4.84 2.821v5.644zm0 7.286L3.2 21.813V8.883l5.043 2.943v6.342l-.068.04a.177.177 0 0 0-.064.239l.132.23v.085c0 .064.033.121.087.153l.073.042.131.232a.177.177 0 0 0 .243.065l.066-.039 5.438 3.171v5.891zm.6-26.906l11.08 6.465-5.046 2.943-5.434-3.172v-.081a.176.176 0 0 0-.176-.176h-.263l-.073-.042a.172.172 0 0 0-.177 0l-.073.042h-.263a.176.176 0 0 0-.176.176v.08L8.844 10.78 3.798 7.836 14.883 1.37zm12.79 6.064L14.971.025a.172.172 0 0 0-.177 0L2.087 7.435A.176.176 0 0 0 2 7.588V22.41c0 .063.033.12.087.152l12.707 7.41a.173.173 0 0 0 .177 0l12.702-7.41a.177.177 0 0 0 .087-.152V7.588a.176.176 0 0 0-.087-.153zM24.13 21.093a.194.194 0 0 0 .09.023c.015 0 .03-.002.044-.007a.17.17 0 0 0 .108-.082l.425-.743a.177.177 0 0 0-.065-.24l-.786-.458a.168.168 0 0 0-.134-.018.173.173 0 0 0-.108.083l-.425.742a.176.176 0 0 0 .065.24l.786.46zm-1.573-.919a.193.193 0 0 0 .088.024.15.15 0 0 0 .045-.008.173.173 0 0 0 .108-.082l.425-.743a.177.177 0 0 0-.064-.239l-.788-.46a.168.168 0 0 0-.134-.016.17.17 0 0 0-.108.082l-.424.743a.177.177 0 0 0 .064.239l.788.46zm-8.099-13.39h.849a.176.176 0 0 0 .176-.176V5.69a.177.177 0 0 0-.176-.177h-.849a.177.177 0 0 0-.176.177v.918c0 .098.079.176.176.176zM4.482 20.57a.173.173 0 0 0-.108-.083.163.163 0 0 0-.134.018l-.787.459a.177.177 0 0 0-.065.24l.425.742a.175.175 0 0 0 .153.09.18.18 0 0 0 .089-.024l.787-.46a.177.177 0 0 0 .065-.24l-.425-.742zm9.976-15.621h.849c.097 0 .176-.08.176-.177v-.918a.176.176 0 0 0-.176-.176h-.849a.176.176 0 0 0-.176.176v.918c0 .097.079.177.176.177zm0-1.837h.849a.176.176 0 0 0 .176-.176v-.918a.177.177 0 0 0-.176-.177h-.849a.177.177 0 0 0-.176.177v.918c0 .098.079.176.176.176z" id="a"/></defs><g fill="none" fill-rule="evenodd"><mask id="b" fill="#fff"><use xlink:href="#a"/></mask><use fill="#000" xlink:href="#a"/><g mask="url(#b)" fill="#fff"><path d="M0 0h30v30H0z"/></g></g></svg>
