<svg width="30" height="30" viewBox="0 0 30 30" xmlns="http://www.w3.org/2000/svg" xmlns:xlink="http://www.w3.org/1999/xlink"><defs><path d="M20.24 15.858h-.024c-3.99-.013-7.229-3.264-7.222-7.246a7.194 7.194 0 0 1 2.142-5.124 7.163 7.163 0 0 1 5.082-2.1h.035c3.992.019 7.227 3.273 7.212 7.253-.017 3.986-3.253 7.217-7.224 7.217zm-.843 12.316c-.208.29-.463.426-.801.426l-8.588-.002H7.142l-2.83.002c-.197 0-.396 0-.595-.003a1.305 1.305 0 0 1-1.304-1.32V7.143c0-.775.448-1.223 1.228-1.227.973-.01 1.947-.01 2.921-.005l5.487.002a8.352 8.352 0 0 0-.412 2.033c0 .023-.008.047-.014.07l-.015.076v1.08l.042.312c.028.225.057.448.098.67.45 2.385 1.7 4.286 3.718 5.65a8.308 8.308 0 0 0 4.104 1.412c.014 0 .035.008.055.014l.021.005v.75c0 3.099-.002 6.196.002 9.293 0 .372-.08.656-.252.896zm9.455-20.1l-.043-.311a10.814 10.814 0 0 0-.099-.67c-.45-2.391-1.707-4.297-3.73-5.661A8.3 8.3 0 0 0 20.89.03c-.015-.001-.034-.008-.055-.014L20.762 0H19.68a25.38 25.38 0 0 1-.305.04c-.221.029-.45.058-.677.1-2.675.523-4.707 1.992-6.04 4.369H3.68c-.748.003-1.458.287-1.949.782C1.25 5.777.997 6.434 1 7.19c.023 4.787.02 9.715.017 14.064v1c-.002 1.67-.002 3.34-.002 5.01.002 1.53 1.207 2.73 2.745 2.737h14.768c1.073-.001 1.906-.566 2.284-1.547.146-.382.226-.776.227-1.136.011-2.593.01-5.185.01-7.775v-2.334l.088-.012c.209-.027.418-.054.625-.093 2.553-.49 4.534-1.868 5.887-4.095a8.243 8.243 0 0 0 1.175-3.728c.002-.013.008-.032.014-.053l.015-.074v-1.08zM16.535 22.37H5.514a.68.68 0 0 0 0 1.36h11.02a.682.682 0 0 0 0-1.36zm4.384-18.963h-1.375v5.898h4.764V7.92h-3.39V3.407zm-6.502 21.976H7.633a.68.68 0 0 0 0 1.36h6.786a.68.68 0 0 0 0-1.36zm-7.986-14.22l.239-.001c.36-.002.718-.004 1.077.003.781.01 1.45.544 1.623 1.292.105.445.024.934-.214 1.306a1.414 1.414 0 0 1-.925.635 1.738 1.738 0 0 1-.337.036c-.359.003-.716.003-1.077.003l-.386-.001v-3.273zm-1.325 6.133v.35c0 .372 0 .744.005 1.116.003.147.05.309.128.433a.607.607 0 0 0 .522.273.64.64 0 0 0 .218-.038.644.644 0 0 0 .446-.627c.002-.334.002-.67.002-1.004v-.503l1.965-.001h1.07a.708.708 0 0 0 .51-.203.637.637 0 0 0 .18-.467c-.004-.376-.294-.651-.69-.651l-3.03-.001v-.215l.51.002c.303.002.609.003.912-.008.295-.014.64-.043.972-.154 1.505-.496 2.085-2.065 1.867-3.288-.256-1.447-1.476-2.465-2.963-2.475-.386-.003-.772-.002-1.159-.001h-.684c-.247-.014-.444.05-.587.193-.173.173-.194.409-.194.57l.002 2.667-.002 1.17h-.152c-.141 0-.284.002-.426.005a.654.654 0 0 0-.636.659.66.66 0 0 0 .618.655c.104.006.208.004.314.005h.27v.215c-.183 0-.363 0-.543.002a.659.659 0 0 0-.027 1.316c.159.005.319.008.473.005h.11z" id="a"/></defs><g fill="none" fill-rule="evenodd"><mask id="b" fill="#fff"><use xlink:href="#a"/></mask><use fill="#000" xlink:href="#a"/><g mask="url(#b)" fill="#727272"><path d="M0 0h30v30H0z"/></g></g></svg>
