<svg width="24" height="24" viewBox="0 0 24 24" xmlns="http://www.w3.org/2000/svg" xmlns:xlink="http://www.w3.org/1999/xlink"><defs><path d="M17.154 21.279v.046a.843.843 0 0 1-.836.842H8.24a.84.84 0 0 1-.836-.842v-.046L6.045 4.667h12.444l-1.335 16.612zM9.42 2.679c0-.463.373-.84.836-.843h3.982a.84.84 0 0 1 .836.842v1.146H9.42V2.679zm6.497 1.145V2.679A1.677 1.677 0 0 0 14.242 1h-3.986a1.677 1.677 0 0 0-1.673 1.679v1.145H4v.842h1.209l1.352 16.655A1.677 1.677 0 0 0 8.236 23H16.318A1.677 1.677 0 0 0 18 21.328v-.007l1.331-16.654H20.5v-.843h-4.583zm-5.884 16.483L9.414 6.5h-.831L9.2 20.307h.833zm1.818 0h.8V6.5h-.8v13.807zM15.917 6.5h-.837l-.613 13.807h.833L15.917 6.5z" id="a"/></defs><g fill="none" fill-rule="evenodd"><mask id="b" fill="#fff"><use xlink:href="#a"/></mask><use fill="#727272" xlink:href="#a"/><g mask="url(#b)" fill="#525A65"><path d="M0 0h24v24H0z"/></g></g></svg>
