<svg width="24" height="24" viewBox="0 0 24 24" xmlns="http://www.w3.org/2000/svg" xmlns:xlink="http://www.w3.org/1999/xlink"><defs><path d="M17.6 1a6.793 6.793 0 0 0-5.392 2.659A6.81 6.81 0 0 0 0 7.849a6.833 6.833 0 0 0 1.9 4.742l9.615 9.71.693.7.694-.7 9.428-9.525A6.853 6.853 0 0 0 17.6 1m0 .979a5.874 5.874 0 0 1 4.044 10.1l-9.436 9.525-9.6-9.7a5.854 5.854 0 1 1 9.608-6.32A5.83 5.83 0 0 1 17.6 1.979" id="a"/></defs><g fill="none" fill-rule="evenodd"><mask id="b" fill="#fff"><use xlink:href="#a"/></mask><use fill="#727272" xlink:href="#a"/><g mask="url(#b)" fill="#525A65"><path d="M0 0h24v24H0z"/></g></g></svg>
